G04 Layer_Color=128*
%FSLAX26Y26*%
%MOIN*%
%TF.FileFunction,Drillmap*%
%TF.Part,Single*%
G01*
G75*
%TA.AperFunction,NonConductor*%
%ADD317C,0.005000*%
D317*
X-2373000Y1295000D02*
X-2337000D01*
X-2355000Y1277000D02*
Y1313000D01*
X-2373000Y1195000D02*
X-2337000D01*
X-2355000Y1177000D02*
Y1213000D01*
X-2373000Y1095000D02*
X-2337000D01*
X-2355000Y1077000D02*
Y1113000D01*
X-1626236Y150843D02*
X-1588835D01*
X-1607535Y132142D02*
Y169543D01*
X-1726236Y150843D02*
X-1688835D01*
X-1707535Y132142D02*
Y169543D01*
X-1306236Y150843D02*
X-1268835D01*
X-1287535Y132142D02*
Y169543D01*
X-1406236Y150843D02*
X-1368835D01*
X-1387535Y132142D02*
Y169543D01*
X-986236Y150843D02*
X-948835D01*
X-967535Y132142D02*
Y169543D01*
X-1086236Y150843D02*
X-1048835D01*
X-1067535Y132142D02*
Y169543D01*
X-766236Y150843D02*
X-728835D01*
X-747535Y132142D02*
Y169543D01*
X-666236Y150843D02*
X-628835D01*
X-647535Y132142D02*
Y169543D01*
X-346236Y150843D02*
X-308835D01*
X-327535Y132142D02*
Y169543D01*
X-446236Y150843D02*
X-408835D01*
X-427535Y132142D02*
Y169543D01*
X-1326988Y2604843D02*
X-1287988D01*
X-1307488Y2585343D02*
Y2624343D01*
X-1426988Y2604843D02*
X-1387988D01*
X-1407488Y2585343D02*
Y2624343D01*
X-1226988Y2604843D02*
X-1187988D01*
X-1207488Y2585343D02*
Y2624343D01*
X-1126988Y2604843D02*
X-1087988D01*
X-1107488Y2585343D02*
Y2624343D01*
X-1834035Y2604843D02*
X-1795035D01*
X-1814535Y2585343D02*
Y2624343D01*
X-1934035Y2604843D02*
X-1895035D01*
X-1914535Y2585343D02*
Y2624343D01*
X-2134035Y2604843D02*
X-2095035D01*
X-2114535Y2585343D02*
Y2624343D01*
X-2034035Y2604843D02*
X-1995035D01*
X-2014535Y2585343D02*
Y2624343D01*
X-2639035Y2604843D02*
X-2600035D01*
X-2619535Y2585343D02*
Y2624343D01*
X-2739035Y2604843D02*
X-2700035D01*
X-2719535Y2585343D02*
Y2624343D01*
X-2939035Y2604843D02*
X-2900035D01*
X-2919535Y2585343D02*
Y2624343D01*
X-2835283Y2604843D02*
X-2803787D01*
X-2819535Y2589095D02*
Y2620590D01*
X-3434035Y2604843D02*
X-3395035D01*
X-3414535Y2585343D02*
Y2624343D01*
X-3534035Y2604843D02*
X-3495035D01*
X-3514535Y2585343D02*
Y2624343D01*
X-3734035Y2604843D02*
X-3695035D01*
X-3714535Y2585343D02*
Y2624343D01*
X-3634035Y2604843D02*
X-3595035D01*
X-3614535Y2585343D02*
Y2624343D01*
X-2390985Y186843D02*
X-2330985D01*
X-2360985Y156843D02*
Y216843D01*
X-2587835Y186843D02*
X-2527835D01*
X-2557835Y156843D02*
Y216843D01*
X-2981535Y186843D02*
X-2921535D01*
X-2951535Y156843D02*
Y216843D01*
X-89035Y1154842D02*
X-50035D01*
X-69535Y1135342D02*
Y1174342D01*
X-189035Y1354842D02*
X-150035D01*
X-169535Y1335342D02*
Y1374342D01*
X-89035Y1254842D02*
X-50035D01*
X-69535Y1235342D02*
Y1274342D01*
X-189035Y1154842D02*
X-150035D01*
X-169535Y1135342D02*
Y1174342D01*
X-189035Y1254842D02*
X-150035D01*
X-169535Y1235342D02*
Y1274342D01*
X-89035Y1354842D02*
X-50035D01*
X-69535Y1335342D02*
Y1374342D01*
X-1895621Y1071510D02*
X-1860621D01*
X-1878121Y1054010D02*
Y1089010D01*
X-1897035Y1263842D02*
X-1862035D01*
X-1879535Y1246342D02*
Y1281342D01*
X-2784685Y186843D02*
X-2724685D01*
X-2754685Y156843D02*
Y216843D01*
X-3179035Y186843D02*
X-3124035D01*
X-3151535Y159343D02*
Y214343D01*
X-3379035Y186843D02*
X-3324035D01*
X-3351535Y159343D02*
Y214343D01*
X-244457Y874842D02*
X-205087D01*
X-224772Y855158D02*
Y894528D01*
X-134220Y874842D02*
X-94850D01*
X-114535Y855158D02*
Y894528D01*
X-244457Y774842D02*
X-205087D01*
X-224772Y755158D02*
Y794528D01*
X-134220Y774842D02*
X-94850D01*
X-114535Y755158D02*
Y794528D01*
X-244457Y674842D02*
X-205087D01*
X-224772Y655158D02*
Y694528D01*
X-134220Y674842D02*
X-94850D01*
X-114535Y655158D02*
Y694528D01*
X-244457Y574842D02*
X-205087D01*
X-224772Y555158D02*
Y594528D01*
X-134220Y574842D02*
X-94850D01*
X-114535Y555158D02*
Y594528D01*
X-244457Y474842D02*
X-205087D01*
X-224772Y455158D02*
Y494527D01*
X-134220Y474842D02*
X-94850D01*
X-114535Y455158D02*
Y494527D01*
X-3707535Y834842D02*
X-3677535D01*
X-3692535Y819842D02*
Y849842D01*
X-3636535Y835842D02*
X-3606535D01*
X-3621535Y820842D02*
Y850842D01*
X-3540071Y277937D02*
X-3500701D01*
X-3520386Y258252D02*
Y297622D01*
X-3540071Y275937D02*
X-3500701D01*
X-3520386Y256252D02*
Y295622D01*
X-3540071Y273937D02*
X-3500701D01*
X-3520386Y254252D02*
Y293622D01*
X-3540071Y271937D02*
X-3500701D01*
X-3520386Y252252D02*
Y291622D01*
X-3540071Y269937D02*
X-3500701D01*
X-3520386Y250252D02*
Y289622D01*
X-3540071Y267937D02*
X-3500701D01*
X-3520386Y248252D02*
Y287622D01*
X-3540071Y267937D02*
X-3500701D01*
X-3520386Y248252D02*
Y287622D01*
X-3540071Y265937D02*
X-3500701D01*
X-3520386Y246252D02*
Y285622D01*
X-3540071Y263937D02*
X-3500701D01*
X-3520386Y244252D02*
Y283622D01*
X-3540071Y261937D02*
X-3500701D01*
X-3520386Y242252D02*
Y281622D01*
X-3540071Y259937D02*
X-3500701D01*
X-3520386Y240252D02*
Y279622D01*
X-3540071Y257937D02*
X-3500701D01*
X-3520386Y238252D02*
Y277622D01*
X-3540071Y261937D02*
X-3500701D01*
X-3520386Y242252D02*
Y281622D01*
X-3540071Y259937D02*
X-3500701D01*
X-3520386Y240252D02*
Y279622D01*
X-3540071Y257937D02*
X-3500701D01*
X-3520386Y238252D02*
Y277622D01*
X-3540071Y255937D02*
X-3500701D01*
X-3520386Y236252D02*
Y275622D01*
X-3540071Y253937D02*
X-3500701D01*
X-3520386Y234252D02*
Y273622D01*
X-3540071Y251937D02*
X-3500701D01*
X-3520386Y232252D02*
Y271622D01*
X-3540071Y251937D02*
X-3500701D01*
X-3520386Y232252D02*
Y271622D01*
X-3540071Y249937D02*
X-3500701D01*
X-3520386Y230252D02*
Y269622D01*
X-3540071Y247937D02*
X-3500701D01*
X-3520386Y228252D02*
Y267622D01*
X-3540071Y245937D02*
X-3500701D01*
X-3520386Y226252D02*
Y265622D01*
X-3540071Y243937D02*
X-3500701D01*
X-3520386Y224252D02*
Y263622D01*
X-3540071Y241937D02*
X-3500701D01*
X-3520386Y222252D02*
Y261622D01*
X-3540071Y259937D02*
X-3500701D01*
X-3520386Y240252D02*
Y279622D01*
X-3540071Y455102D02*
X-3500701D01*
X-3520386Y435417D02*
Y474787D01*
X-3540071Y453102D02*
X-3500701D01*
X-3520386Y433417D02*
Y472787D01*
X-3540071Y451102D02*
X-3500701D01*
X-3520386Y431417D02*
Y470787D01*
X-3540071Y449102D02*
X-3500701D01*
X-3520386Y429417D02*
Y468787D01*
X-3540071Y447102D02*
X-3500701D01*
X-3520386Y427417D02*
Y466787D01*
X-3540071Y445102D02*
X-3500701D01*
X-3520386Y425417D02*
Y464787D01*
X-3540071Y445102D02*
X-3500701D01*
X-3520386Y425417D02*
Y464787D01*
X-3540071Y443102D02*
X-3500701D01*
X-3520386Y423417D02*
Y462787D01*
X-3540071Y441102D02*
X-3500701D01*
X-3520386Y421417D02*
Y460787D01*
X-3540071Y439102D02*
X-3500701D01*
X-3520386Y419417D02*
Y458787D01*
X-3540071Y437102D02*
X-3500701D01*
X-3520386Y417417D02*
Y456787D01*
X-3540071Y435102D02*
X-3500701D01*
X-3520386Y415417D02*
Y454787D01*
X-3540071Y439102D02*
X-3500701D01*
X-3520386Y419417D02*
Y458787D01*
X-3540071Y437102D02*
X-3500701D01*
X-3520386Y417417D02*
Y456787D01*
X-3540071Y435102D02*
X-3500701D01*
X-3520386Y415417D02*
Y454787D01*
X-3540071Y433102D02*
X-3500701D01*
X-3520386Y413417D02*
Y452787D01*
X-3540071Y431102D02*
X-3500701D01*
X-3520386Y411417D02*
Y450787D01*
X-3540071Y429102D02*
X-3500701D01*
X-3520386Y409417D02*
Y448787D01*
X-3540071Y429102D02*
X-3500701D01*
X-3520386Y409417D02*
Y448787D01*
X-3540071Y427102D02*
X-3500701D01*
X-3520386Y407417D02*
Y446787D01*
X-3540071Y425102D02*
X-3500701D01*
X-3520386Y405417D02*
Y444787D01*
X-3540071Y423102D02*
X-3500701D01*
X-3520386Y403417D02*
Y442787D01*
X-3540071Y421102D02*
X-3500701D01*
X-3520386Y401417D02*
Y440787D01*
X-3540071Y419102D02*
X-3500701D01*
X-3520386Y399417D02*
Y438787D01*
X-3540071Y437102D02*
X-3500701D01*
X-3520386Y417417D02*
Y456787D01*
X-3761252Y279992D02*
X-3714008D01*
X-3737630Y256370D02*
Y303614D01*
X-3759252Y279992D02*
X-3712008D01*
X-3735630Y256370D02*
Y303614D01*
X-3757252Y279992D02*
X-3710008D01*
X-3733630Y256370D02*
Y303614D01*
X-3755252Y279992D02*
X-3708008D01*
X-3731630Y256370D02*
Y303614D01*
X-3753252Y279992D02*
X-3706008D01*
X-3729630Y256370D02*
Y303614D01*
X-3751252Y279992D02*
X-3704008D01*
X-3727630Y256370D02*
Y303614D01*
X-3751252Y279992D02*
X-3704008D01*
X-3727630Y256370D02*
Y303614D01*
X-3749252Y279992D02*
X-3702008D01*
X-3725630Y256370D02*
Y303614D01*
X-3747252Y279992D02*
X-3700008D01*
X-3723630Y256370D02*
Y303614D01*
X-3745252Y279992D02*
X-3698008D01*
X-3721630Y256370D02*
Y303614D01*
X-3743252Y279992D02*
X-3696008D01*
X-3719630Y256370D02*
Y303614D01*
X-3741252Y279992D02*
X-3694008D01*
X-3717630Y256370D02*
Y303614D01*
X-3745252Y279992D02*
X-3698008D01*
X-3721630Y256370D02*
Y303614D01*
X-3743252Y279992D02*
X-3696008D01*
X-3719630Y256370D02*
Y303614D01*
X-3741252Y279992D02*
X-3694008D01*
X-3717630Y256370D02*
Y303614D01*
X-3739252Y279992D02*
X-3692008D01*
X-3715630Y256370D02*
Y303614D01*
X-3737252Y279992D02*
X-3690008D01*
X-3713630Y256370D02*
Y303614D01*
X-3735252Y279992D02*
X-3688008D01*
X-3711630Y256370D02*
Y303614D01*
X-3735252Y279992D02*
X-3688008D01*
X-3711630Y256370D02*
Y303614D01*
X-3733252Y279992D02*
X-3686008D01*
X-3709630Y256370D02*
Y303614D01*
X-3731252Y279992D02*
X-3684008D01*
X-3707630Y256370D02*
Y303614D01*
X-3729252Y279992D02*
X-3682008D01*
X-3705630Y256370D02*
Y303614D01*
X-3727252Y279992D02*
X-3680008D01*
X-3703630Y256370D02*
Y303614D01*
X-3725252Y279992D02*
X-3678008D01*
X-3701630Y256370D02*
Y303614D01*
X-3739315Y279992D02*
X-3699945D01*
X-3719630Y260307D02*
Y299677D01*
X-3740307Y515968D02*
X-3693063D01*
X-3716685Y492346D02*
Y539591D01*
X-3933772Y259937D02*
X-3894402D01*
X-3914087Y240252D02*
Y279622D01*
X-3933772Y241937D02*
X-3894402D01*
X-3914087Y222252D02*
Y261622D01*
X-3933772Y243937D02*
X-3894402D01*
X-3914087Y224252D02*
Y263622D01*
X-3933772Y245937D02*
X-3894402D01*
X-3914087Y226252D02*
Y265622D01*
X-3933772Y247937D02*
X-3894402D01*
X-3914087Y228252D02*
Y267622D01*
X-3933772Y249937D02*
X-3894402D01*
X-3914087Y230252D02*
Y269622D01*
X-3933772Y251937D02*
X-3894402D01*
X-3914087Y232252D02*
Y271622D01*
X-3933772Y251937D02*
X-3894402D01*
X-3914087Y232252D02*
Y271622D01*
X-3933772Y253937D02*
X-3894402D01*
X-3914087Y234252D02*
Y273622D01*
X-3933772Y255937D02*
X-3894402D01*
X-3914087Y236252D02*
Y275622D01*
X-3933772Y257937D02*
X-3894402D01*
X-3914087Y238252D02*
Y277622D01*
X-3933772Y259937D02*
X-3894402D01*
X-3914087Y240252D02*
Y279622D01*
X-3933772Y261937D02*
X-3894402D01*
X-3914087Y242252D02*
Y281622D01*
X-3933772Y257937D02*
X-3894402D01*
X-3914087Y238252D02*
Y277622D01*
X-3933772Y259937D02*
X-3894402D01*
X-3914087Y240252D02*
Y279622D01*
X-3933772Y261937D02*
X-3894402D01*
X-3914087Y242252D02*
Y281622D01*
X-3933772Y263937D02*
X-3894402D01*
X-3914087Y244252D02*
Y283622D01*
X-3933772Y265937D02*
X-3894402D01*
X-3914087Y246252D02*
Y285622D01*
X-3933772Y267937D02*
X-3894402D01*
X-3914087Y248252D02*
Y287622D01*
X-3933772Y267937D02*
X-3894402D01*
X-3914087Y248252D02*
Y287622D01*
X-3933772Y269937D02*
X-3894402D01*
X-3914087Y250252D02*
Y289622D01*
X-3933772Y271937D02*
X-3894402D01*
X-3914087Y252252D02*
Y291622D01*
X-3933772Y273937D02*
X-3894402D01*
X-3914087Y254252D02*
Y293622D01*
X-3933772Y275937D02*
X-3894402D01*
X-3914087Y256252D02*
Y295622D01*
X-3933772Y277937D02*
X-3894402D01*
X-3914087Y258252D02*
Y297622D01*
X-3933772Y419102D02*
X-3894402D01*
X-3914087Y399417D02*
Y438787D01*
X-3933772Y421102D02*
X-3894402D01*
X-3914087Y401417D02*
Y440787D01*
X-3933772Y423102D02*
X-3894402D01*
X-3914087Y403417D02*
Y442787D01*
X-3933772Y425102D02*
X-3894402D01*
X-3914087Y405417D02*
Y444787D01*
X-3933772Y427102D02*
X-3894402D01*
X-3914087Y407417D02*
Y446787D01*
X-3933772Y429102D02*
X-3894402D01*
X-3914087Y409417D02*
Y448787D01*
X-3933772Y429102D02*
X-3894402D01*
X-3914087Y409417D02*
Y448787D01*
X-3933772Y431102D02*
X-3894402D01*
X-3914087Y411417D02*
Y450787D01*
X-3933772Y433102D02*
X-3894402D01*
X-3914087Y413417D02*
Y452787D01*
X-3933772Y435102D02*
X-3894402D01*
X-3914087Y415417D02*
Y454787D01*
X-3933772Y437102D02*
X-3894402D01*
X-3914087Y417417D02*
Y456787D01*
X-3933772Y439102D02*
X-3894402D01*
X-3914087Y419417D02*
Y458787D01*
X-3933772Y435102D02*
X-3894402D01*
X-3914087Y415417D02*
Y454787D01*
X-3933772Y437102D02*
X-3894402D01*
X-3914087Y417417D02*
Y456787D01*
X-3933772Y439102D02*
X-3894402D01*
X-3914087Y419417D02*
Y458787D01*
X-3933772Y441102D02*
X-3894402D01*
X-3914087Y421417D02*
Y460787D01*
X-3933772Y443102D02*
X-3894402D01*
X-3914087Y423417D02*
Y462787D01*
X-3933772Y445102D02*
X-3894402D01*
X-3914087Y425417D02*
Y464787D01*
X-3933772Y445102D02*
X-3894402D01*
X-3914087Y425417D02*
Y464787D01*
X-3933772Y447102D02*
X-3894402D01*
X-3914087Y427417D02*
Y466787D01*
X-3933772Y449102D02*
X-3894402D01*
X-3914087Y429417D02*
Y468787D01*
X-3933772Y451102D02*
X-3894402D01*
X-3914087Y431417D02*
Y470787D01*
X-3933772Y453102D02*
X-3894402D01*
X-3914087Y433417D02*
Y472787D01*
X-3933772Y455102D02*
X-3894402D01*
X-3914087Y435417D02*
Y474787D01*
X-3933772Y437102D02*
X-3894402D01*
X-3914087Y417417D02*
Y456787D01*
X-2055236Y151843D02*
X-2017835D01*
X-2036535Y133142D02*
Y170543D01*
X-1955236Y151843D02*
X-1917835D01*
X-1936535Y133142D02*
Y170543D01*
X-1728252Y486842D02*
X-1692819D01*
X-1710535Y469126D02*
Y504559D01*
X-1828252Y486842D02*
X-1792819D01*
X-1810535Y469126D02*
Y504559D01*
X-3436000Y656000D02*
X-3424000D01*
X-3430000Y650000D02*
Y662000D01*
X-3437000Y684000D02*
X-3425000D01*
X-3431000Y678000D02*
Y690000D01*
X-3437000Y715000D02*
X-3425000D01*
X-3431000Y709000D02*
Y721000D01*
X-3463000Y716000D02*
X-3451000D01*
X-3457000Y710000D02*
Y722000D01*
X-3463000Y692000D02*
X-3451000D01*
X-3457000Y686000D02*
Y698000D01*
X-3464000Y658000D02*
X-3452000D01*
X-3458000Y652000D02*
Y664000D01*
X-3496000Y658000D02*
X-3484000D01*
X-3490000Y652000D02*
Y664000D01*
X-2856000Y1283000D02*
X-2844000D01*
X-2850000Y1277000D02*
Y1289000D01*
X-2893000Y1286000D02*
X-2881000D01*
X-2887000Y1280000D02*
Y1292000D01*
X-2893000Y1247000D02*
X-2881000D01*
X-2887000Y1241000D02*
Y1253000D01*
X-2926000Y1209000D02*
X-2914000D01*
X-2920000Y1203000D02*
Y1215000D01*
X-2926000Y1248000D02*
X-2914000D01*
X-2920000Y1242000D02*
Y1254000D01*
X-2927000Y1293000D02*
X-2915000D01*
X-2921000Y1287000D02*
Y1299000D01*
X-3241000Y1489000D02*
X-3229000D01*
X-3235000Y1483000D02*
Y1495000D01*
X-3275000Y1491000D02*
X-3263000D01*
X-3269000Y1485000D02*
Y1497000D01*
X-3307000Y1492000D02*
X-3295000D01*
X-3301000Y1486000D02*
Y1498000D01*
X-3241000Y1462000D02*
X-3229000D01*
X-3235000Y1456000D02*
Y1468000D01*
X-3275000Y1463000D02*
X-3263000D01*
X-3269000Y1457000D02*
Y1469000D01*
X-3307000Y1465000D02*
X-3295000D01*
X-3301000Y1459000D02*
Y1471000D01*
X-2239000Y1463000D02*
X-2227000D01*
X-2233000Y1457000D02*
Y1469000D01*
X-2217000Y1438000D02*
X-2205000D01*
X-2211000Y1432000D02*
Y1444000D01*
X-2440000Y1138000D02*
X-2428000D01*
X-2434000Y1132000D02*
Y1144000D01*
X-2439000Y1264000D02*
X-2427000D01*
X-2433000Y1258000D02*
Y1270000D01*
X-2447000Y1196000D02*
X-2435000D01*
X-2441000Y1190000D02*
Y1202000D01*
X-2424000Y1195000D02*
X-2412000D01*
X-2418000Y1189000D02*
Y1201000D01*
X-1355000Y1304500D02*
X-1343000D01*
X-1349000Y1298500D02*
Y1310500D01*
X-1336000Y1304500D02*
X-1324000D01*
X-1330000Y1298500D02*
Y1310500D01*
X-2787000Y1058000D02*
X-2775000D01*
X-2781000Y1052000D02*
Y1064000D01*
X-2788000Y1128000D02*
X-2776000D01*
X-2782000Y1122000D02*
Y1134000D01*
X-2787000Y1092000D02*
X-2775000D01*
X-2781000Y1086000D02*
Y1098000D01*
X-2817000Y1060000D02*
X-2805000D01*
X-2811000Y1054000D02*
Y1066000D01*
X-2818000Y1095000D02*
X-2806000D01*
X-2812000Y1089000D02*
Y1101000D01*
X-2817000Y1131000D02*
X-2805000D01*
X-2811000Y1125000D02*
Y1137000D01*
X-2591000Y1017000D02*
X-2579000D01*
X-2585000Y1011000D02*
Y1023000D01*
X-2505000Y1017000D02*
X-2493000D01*
X-2499000Y1011000D02*
Y1023000D01*
X-2545000Y1018000D02*
X-2533000D01*
X-2539000Y1012000D02*
Y1024000D01*
X-2480000Y1334000D02*
X-2468000D01*
X-2474000Y1328000D02*
Y1340000D01*
X-2532000Y1336000D02*
X-2520000D01*
X-2526000Y1330000D02*
Y1342000D01*
X-2582000Y1336000D02*
X-2570000D01*
X-2576000Y1330000D02*
Y1342000D01*
X-2146000Y1232000D02*
X-2134000D01*
X-2140000Y1226000D02*
Y1238000D01*
X-2185000Y1233000D02*
X-2173000D01*
X-2179000Y1227000D02*
Y1239000D01*
X-2279000Y1072000D02*
X-2267000D01*
X-2273000Y1066000D02*
Y1078000D01*
X-2255000Y1072000D02*
X-2243000D01*
X-2249000Y1066000D02*
Y1078000D01*
X-2255000Y1101000D02*
X-2243000D01*
X-2249000Y1095000D02*
Y1107000D01*
X-2255000Y1125000D02*
X-2243000D01*
X-2249000Y1119000D02*
Y1131000D01*
X-2280000Y1100000D02*
X-2268000D01*
X-2274000Y1094000D02*
Y1106000D01*
X-2280000Y1126000D02*
X-2268000D01*
X-2274000Y1120000D02*
Y1132000D01*
X-2267000Y1261000D02*
X-2255000D01*
X-2261000Y1255000D02*
Y1267000D01*
X-2283000Y1276000D02*
X-2271000D01*
X-2277000Y1270000D02*
Y1282000D01*
X-1420000Y1430000D02*
X-1408000D01*
X-1414000Y1424000D02*
Y1436000D01*
X-1419535Y1409000D02*
X-1407535D01*
X-1413535Y1403000D02*
Y1415000D01*
X-1453000Y1300000D02*
X-1441000D01*
X-1447000Y1294000D02*
Y1306000D01*
X-1486000Y1299000D02*
X-1474000D01*
X-1480000Y1293000D02*
Y1305000D01*
X-2041000Y1506000D02*
X-2029000D01*
X-2035000Y1500000D02*
Y1512000D01*
X-3364843Y1311000D02*
X-3345157D01*
X-3355000Y1301158D02*
Y1320842D01*
X-2940843Y1403000D02*
X-2921157D01*
X-2931000Y1393158D02*
Y1412842D01*
X-2940843Y1430000D02*
X-2921157D01*
X-2931000Y1420158D02*
Y1439842D01*
X-3480535Y1456842D02*
X-3462535D01*
X-3471535Y1447842D02*
Y1465842D01*
X-3182843Y1543000D02*
X-3163157D01*
X-3173000Y1533158D02*
Y1552842D01*
X-1586535Y417842D02*
X-1574535D01*
X-1580535Y411842D02*
Y423842D01*
X-467535Y346842D02*
X-455535D01*
X-461535Y340842D02*
Y352842D01*
X-720535Y418842D02*
X-708535D01*
X-714535Y412842D02*
Y424842D01*
X-937535Y416842D02*
X-925535D01*
X-931535Y410842D02*
Y422842D01*
X-1154535Y416842D02*
X-1142535D01*
X-1148535Y410842D02*
Y422842D01*
X-1371535Y414842D02*
X-1359535D01*
X-1365535Y408842D02*
Y420842D01*
X-1252535Y973842D02*
X-1240535D01*
X-1246535Y967842D02*
Y979842D01*
X-1386535Y855842D02*
X-1374535D01*
X-1380535Y849842D02*
Y861842D01*
X-1383535Y960842D02*
X-1371535D01*
X-1377535Y954842D02*
Y966842D01*
X-1572535Y972842D02*
X-1560535D01*
X-1566535Y966842D02*
Y978842D01*
X-1528535Y976842D02*
X-1516535D01*
X-1522535Y970842D02*
Y982842D01*
X-2005535Y1208842D02*
X-1993535D01*
X-1999535Y1202842D02*
Y1214842D01*
X-2092535Y1207842D02*
X-2080535D01*
X-2086535Y1201842D02*
Y1213842D01*
X-2088535Y1122842D02*
X-2076535D01*
X-2082535Y1116842D02*
Y1128842D01*
X-2006535Y1120842D02*
X-1994535D01*
X-2000535Y1114842D02*
Y1126842D01*
X-2047535Y1166842D02*
X-2035535D01*
X-2041535Y1160842D02*
Y1172842D01*
X-1853535Y42843D02*
X-1835535D01*
X-1844535Y33843D02*
Y51843D01*
X-1895535Y43843D02*
X-1877535D01*
X-1886535Y34843D02*
Y52843D01*
X-1935535Y43843D02*
X-1917535D01*
X-1926535Y34843D02*
Y52843D01*
X-1975535Y43843D02*
X-1957535D01*
X-1966535Y34843D02*
Y52843D01*
X-2015535Y43843D02*
X-1997535D01*
X-2006535Y34843D02*
Y52843D01*
X-2272535D02*
X-2254535D01*
X-2263535Y43843D02*
Y61843D01*
X-2314535Y53843D02*
X-2296535D01*
X-2305535Y44843D02*
Y62843D01*
X-2354535Y53843D02*
X-2336535D01*
X-2345535Y44843D02*
Y62843D01*
X-2394535Y53843D02*
X-2376535D01*
X-2385535Y44843D02*
Y62843D01*
X-2434535Y53843D02*
X-2416535D01*
X-2425535Y44843D02*
Y62843D01*
X-3886535Y986842D02*
X-3868535D01*
X-3877535Y977842D02*
Y995842D01*
X-3886535Y1026842D02*
X-3868535D01*
X-3877535Y1017842D02*
Y1035842D01*
X-3920535Y988842D02*
X-3902535D01*
X-3911535Y979842D02*
Y997842D01*
X-3886535Y1063842D02*
X-3868535D01*
X-3877535Y1054842D02*
Y1072842D01*
X-3920535Y1028842D02*
X-3902535D01*
X-3911535Y1019842D02*
Y1037842D01*
X-3920535Y1065842D02*
X-3902535D01*
X-3911535Y1056842D02*
Y1074842D01*
X-3920535Y1105842D02*
X-3902535D01*
X-3911535Y1096842D02*
Y1114842D01*
X-3886535Y1103842D02*
X-3868535D01*
X-3877535Y1094842D02*
Y1112842D01*
X-3889535Y829842D02*
X-3871535D01*
X-3880535Y820842D02*
Y838842D01*
X-3889535Y869842D02*
X-3871535D01*
X-3880535Y860842D02*
Y878842D01*
X-3923535Y831842D02*
X-3905535D01*
X-3914535Y822842D02*
Y840842D01*
X-3889535Y906842D02*
X-3871535D01*
X-3880535Y897842D02*
Y915842D01*
X-3923535Y871842D02*
X-3905535D01*
X-3914535Y862842D02*
Y880842D01*
X-3923535Y908842D02*
X-3905535D01*
X-3914535Y899842D02*
Y917842D01*
X-3923535Y948842D02*
X-3905535D01*
X-3914535Y939842D02*
Y957842D01*
X-3889535Y946842D02*
X-3871535D01*
X-3880535Y937842D02*
Y955842D01*
X-3889535Y676842D02*
X-3871535D01*
X-3880535Y667842D02*
Y685842D01*
X-3889535Y716842D02*
X-3871535D01*
X-3880535Y707842D02*
Y725842D01*
X-3923535Y678842D02*
X-3905535D01*
X-3914535Y669842D02*
Y687842D01*
X-3923535Y718842D02*
X-3905535D01*
X-3914535Y709842D02*
Y727842D01*
X-3201535Y2501843D02*
X-3183535D01*
X-3192535Y2492843D02*
Y2510843D01*
X-2604535Y2473843D02*
X-2586535D01*
X-2595535Y2464843D02*
Y2482843D01*
X-2405535Y2527843D02*
X-2387535D01*
X-2396535Y2518843D02*
Y2536843D01*
X-2102535Y2477843D02*
X-2084535D01*
X-2093535Y2468843D02*
Y2486843D01*
X-1877535Y2479843D02*
X-1859535D01*
X-1868535Y2470843D02*
Y2488843D01*
X-1644535Y2534843D02*
X-1626535D01*
X-1635535Y2525843D02*
Y2543843D01*
X-866535Y2545843D02*
X-848535D01*
X-857535Y2536843D02*
Y2554843D01*
X-908535Y2545843D02*
X-890535D01*
X-899535Y2536843D02*
Y2554843D01*
X-2187535Y1307842D02*
X-2169535D01*
X-2178535Y1298842D02*
Y1316842D01*
X-2187535Y1265842D02*
X-2169535D01*
X-2178535Y1256842D02*
Y1274842D01*
X-362535Y574842D02*
X-344535D01*
X-353535Y565842D02*
Y583842D01*
X-404535Y574842D02*
X-386535D01*
X-395535Y565842D02*
Y583842D01*
X-362535Y534842D02*
X-344535D01*
X-353535Y525842D02*
Y543842D01*
X-404535Y534842D02*
X-386535D01*
X-395535Y525842D02*
Y543842D01*
X-75535Y1062842D02*
X-57535D01*
X-66535Y1053842D02*
Y1071842D01*
X-75535Y1022842D02*
X-57535D01*
X-66535Y1013842D02*
Y1031842D01*
X-117535Y1062842D02*
X-99535D01*
X-108535Y1053842D02*
Y1071842D01*
X-117535Y1022842D02*
X-99535D01*
X-108535Y1013842D02*
Y1031842D01*
X-75535Y982842D02*
X-57535D01*
X-66535Y973842D02*
Y991842D01*
X-117535Y982842D02*
X-99535D01*
X-108535Y973842D02*
Y991842D01*
X-3149535Y750842D02*
X-3131535D01*
X-3140535Y741842D02*
Y759842D01*
X-3149535Y710842D02*
X-3131535D01*
X-3140535Y701842D02*
Y719842D01*
X-3149535Y670842D02*
X-3131535D01*
X-3140535Y661842D02*
Y679842D01*
X-3593535Y591842D02*
X-3575535D01*
X-3584535Y582842D02*
Y600842D01*
X-3593535Y549842D02*
X-3575535D01*
X-3584535Y540842D02*
Y558842D01*
X-3553535Y591842D02*
X-3535535D01*
X-3544535Y582842D02*
Y600842D01*
X-3553535Y549842D02*
X-3535535D01*
X-3544535Y540842D02*
Y558842D01*
X-3513535Y591842D02*
X-3495535D01*
X-3504535Y582842D02*
Y600842D01*
X-3513535Y549842D02*
X-3495535D01*
X-3504535Y540842D02*
Y558842D01*
X-3473535Y591842D02*
X-3455535D01*
X-3464535Y582842D02*
Y600842D01*
X-3473535Y549842D02*
X-3455535D01*
X-3464535Y540842D02*
Y558842D01*
X-2830535Y46843D02*
X-2812535D01*
X-2821535Y37843D02*
Y55843D01*
X-2790535Y46843D02*
X-2772535D01*
X-2781535Y37843D02*
Y55843D01*
X-2750535Y46843D02*
X-2732535D01*
X-2741535Y37843D02*
Y55843D01*
X-2710535Y46843D02*
X-2692535D01*
X-2701535Y37843D02*
Y55843D01*
X-2670535Y46843D02*
X-2652535D01*
X-2661535Y37843D02*
Y55843D01*
X-3082535Y86843D02*
X-3064535D01*
X-3073535Y77843D02*
Y95843D01*
X-3124535Y87843D02*
X-3106535D01*
X-3115535Y78843D02*
Y96843D01*
X-3124535Y45843D02*
X-3106535D01*
X-3115535Y36843D02*
Y54843D01*
X-3164535Y87843D02*
X-3146535D01*
X-3155535Y78843D02*
Y96843D01*
X-3164535Y45843D02*
X-3146535D01*
X-3155535Y36843D02*
Y54843D01*
X-3204535Y87843D02*
X-3186535D01*
X-3195535Y78843D02*
Y96843D01*
X-3204535Y45843D02*
X-3186535D01*
X-3195535Y36843D02*
Y54843D01*
X-3244535Y87843D02*
X-3226535D01*
X-3235535Y78843D02*
Y96843D01*
X-3244535Y45843D02*
X-3226535D01*
X-3235535Y36843D02*
Y54843D01*
X-879535Y237843D02*
X-861535D01*
X-870535Y228843D02*
Y246843D01*
X-879535Y197843D02*
X-861535D01*
X-870535Y188843D02*
Y206843D01*
X-879535Y157843D02*
X-861535D01*
X-870535Y148843D02*
Y166843D01*
X-879535Y117843D02*
X-861535D01*
X-870535Y108843D02*
Y126843D01*
X-879535Y77843D02*
X-861535D01*
X-870535Y68843D02*
Y86843D01*
X-554535Y232843D02*
X-536535D01*
X-545535Y223843D02*
Y241843D01*
X-554535Y192843D02*
X-536535D01*
X-545535Y183843D02*
Y201843D01*
X-554535Y152843D02*
X-536535D01*
X-545535Y143843D02*
Y161843D01*
X-554535Y112843D02*
X-536535D01*
X-545535Y103843D02*
Y121843D01*
X-554535Y72843D02*
X-536535D01*
X-545535Y63843D02*
Y81843D01*
X-218535Y146843D02*
X-200535D01*
X-209535Y137843D02*
Y155843D01*
X-218535Y106843D02*
X-200535D01*
X-209535Y97843D02*
Y115843D01*
X-218535Y66843D02*
X-200535D01*
X-209535Y57843D02*
Y75843D01*
X-512535Y192843D02*
X-494535D01*
X-503535Y183843D02*
Y201843D01*
X-512535Y232843D02*
X-494535D01*
X-503535Y223843D02*
Y241843D01*
X-512535Y152843D02*
X-494535D01*
X-503535Y143843D02*
Y161843D01*
X-512535Y112843D02*
X-494535D01*
X-503535Y103843D02*
Y121843D01*
X-512535Y72843D02*
X-494535D01*
X-503535Y63843D02*
Y81843D01*
X-837535Y197843D02*
X-819535D01*
X-828535Y188843D02*
Y206843D01*
X-837535Y237843D02*
X-819535D01*
X-828535Y228843D02*
Y246843D01*
X-837535Y157843D02*
X-819535D01*
X-828535Y148843D02*
Y166843D01*
X-837535Y117843D02*
X-819535D01*
X-828535Y108843D02*
Y126843D01*
X-837535Y77843D02*
X-819535D01*
X-828535Y68843D02*
Y86843D01*
X-1164535Y197843D02*
X-1146535D01*
X-1155535Y188843D02*
Y206843D01*
X-1164535Y237843D02*
X-1146535D01*
X-1155535Y228843D02*
Y246843D01*
X-1164535Y157843D02*
X-1146535D01*
X-1155535Y148843D02*
Y166843D01*
X-1164535Y117843D02*
X-1146535D01*
X-1155535Y108843D02*
Y126843D01*
X-1164535Y77843D02*
X-1146535D01*
X-1155535Y68843D02*
Y86843D01*
X-1206535Y197843D02*
X-1188535D01*
X-1197535Y188843D02*
Y206843D01*
X-1206535Y237843D02*
X-1188535D01*
X-1197535Y228843D02*
Y246843D01*
X-1206535Y157843D02*
X-1188535D01*
X-1197535Y148843D02*
Y166843D01*
X-1206535Y117843D02*
X-1188535D01*
X-1197535Y108843D02*
Y126843D01*
X-1206535Y77843D02*
X-1188535D01*
X-1197535Y68843D02*
Y86843D01*
X-1478535Y198843D02*
X-1460535D01*
X-1469535Y189843D02*
Y207843D01*
X-1478535Y238843D02*
X-1460535D01*
X-1469535Y229843D02*
Y247843D01*
X-1478535Y158843D02*
X-1460535D01*
X-1469535Y149843D02*
Y167843D01*
X-1478535Y118843D02*
X-1460535D01*
X-1469535Y109843D02*
Y127843D01*
X-1478535Y78843D02*
X-1460535D01*
X-1469535Y69843D02*
Y87843D01*
X-1520535Y198843D02*
X-1502535D01*
X-1511535Y189843D02*
Y207843D01*
X-1520535Y238843D02*
X-1502535D01*
X-1511535Y229843D02*
Y247843D01*
X-1520535Y158843D02*
X-1502535D01*
X-1511535Y149843D02*
Y167843D01*
X-1520535Y118843D02*
X-1502535D01*
X-1511535Y109843D02*
Y127843D01*
X-1520535Y78843D02*
X-1502535D01*
X-1511535Y69843D02*
Y87843D01*
X-2147535Y1265842D02*
X-2129535D01*
X-2138535Y1256842D02*
Y1274842D01*
X-2147535Y1307842D02*
X-2129535D01*
X-2138535Y1298842D02*
Y1316842D01*
X-789378Y1127842D02*
X-769693D01*
X-779535Y1118000D02*
Y1137685D01*
X-703378Y1192842D02*
X-683693D01*
X-693535Y1183000D02*
Y1202685D01*
X-509378Y1156842D02*
X-489693D01*
X-499535Y1147000D02*
Y1166685D01*
X-1109535Y2446843D02*
X-1091535D01*
X-1100535Y2437843D02*
Y2455843D01*
X-1069535Y2446843D02*
X-1051535D01*
X-1060535Y2437843D02*
Y2455843D01*
X-1029535Y2446843D02*
X-1011535D01*
X-1020535Y2437843D02*
Y2455843D01*
X-2907535Y2464843D02*
X-2889535D01*
X-2898535Y2455843D02*
Y2473843D01*
X-3433535Y549842D02*
X-3415535D01*
X-3424535Y540842D02*
Y558842D01*
X-3433535Y591842D02*
X-3415535D01*
X-3424535Y582842D02*
Y600842D01*
X-2710535Y88843D02*
X-2692535D01*
X-2701535Y79843D02*
Y97843D01*
X-2670535Y88843D02*
X-2652535D01*
X-2661535Y79843D02*
Y97843D01*
X-2750535Y88843D02*
X-2732535D01*
X-2741535Y79843D02*
Y97843D01*
X-2790535Y88843D02*
X-2772535D01*
X-2781535Y79843D02*
Y97843D01*
X-2830535Y88843D02*
X-2812535D01*
X-2821535Y79843D02*
Y97843D01*
X-2255535Y729842D02*
X-2237535D01*
X-2246535Y720842D02*
Y738842D01*
X-2212441Y729842D02*
X-2200630D01*
X-2206535Y723937D02*
Y735748D01*
X-2172441Y729842D02*
X-2160630D01*
X-2166535Y723937D02*
Y735748D01*
X-2255535Y687842D02*
X-2237535D01*
X-2246535Y678842D02*
Y696842D01*
X-2212441Y687842D02*
X-2200630D01*
X-2206535Y681937D02*
Y693748D01*
X-2172441Y687842D02*
X-2160630D01*
X-2166535Y681937D02*
Y693748D01*
X-2582535Y695842D02*
X-2564535D01*
X-2573535Y686842D02*
Y704842D01*
X-2542535Y695842D02*
X-2524535D01*
X-2533535Y686842D02*
Y704842D01*
X-2502535Y695842D02*
X-2484535D01*
X-2493535Y686842D02*
Y704842D01*
X-2892535Y694842D02*
X-2874535D01*
X-2883535Y685842D02*
Y703842D01*
X-2853535Y694842D02*
X-2835535D01*
X-2844535Y685842D02*
Y703842D01*
X-2816535Y695842D02*
X-2798535D01*
X-2807535Y686842D02*
Y704842D01*
X-3107535Y790842D02*
X-3089535D01*
X-3098535Y781842D02*
Y799842D01*
X-3107535Y750842D02*
X-3089535D01*
X-3098535Y741842D02*
Y759842D01*
X-3107535Y710842D02*
X-3089535D01*
X-3098535Y701842D02*
Y719842D01*
X-3107535Y670842D02*
X-3089535D01*
X-3098535Y661842D02*
Y679842D01*
X-3149535Y790842D02*
X-3131535D01*
X-3140535Y781842D02*
Y799842D01*
X-1590535Y632842D02*
X-1572535D01*
X-1581535Y623842D02*
Y641842D01*
X-1630535Y590842D02*
X-1612535D01*
X-1621535Y581842D02*
Y599842D01*
X-1670535Y632842D02*
X-1652535D01*
X-1661535Y623842D02*
Y641842D01*
X-1710535Y632842D02*
X-1692535D01*
X-1701535Y623842D02*
Y641842D01*
X-1710535Y590842D02*
X-1692535D01*
X-1701535Y581842D02*
Y599842D01*
X-1670535Y590842D02*
X-1652535D01*
X-1661535Y581842D02*
Y599842D01*
X-1590535Y590842D02*
X-1572535D01*
X-1581535Y581842D02*
Y599842D01*
X-3378535Y545842D02*
X-3360535D01*
X-3369535Y536842D02*
Y554842D01*
X-3255535Y457842D02*
X-3237535D01*
X-3246535Y448842D02*
Y466842D01*
X-3378535Y588842D02*
X-3360535D01*
X-3369535Y579842D02*
Y597842D01*
X-3295535Y457842D02*
X-3277535D01*
X-3286535Y448842D02*
Y466842D01*
X-3335535Y457842D02*
X-3317535D01*
X-3326535Y448842D02*
Y466842D01*
X-3335535Y499842D02*
X-3317535D01*
X-3326535Y490842D02*
Y508842D01*
X-3375535Y499842D02*
X-3357535D01*
X-3366535Y490842D02*
Y508842D01*
X-3415535Y499842D02*
X-3397535D01*
X-3406535Y490842D02*
Y508842D01*
X-3415535Y457842D02*
X-3397535D01*
X-3406535Y448842D02*
Y466842D01*
X-3375535Y457842D02*
X-3357535D01*
X-3366535Y448842D02*
Y466842D01*
X-3524535Y1456842D02*
X-3506535D01*
X-3515535Y1447842D02*
Y1465842D01*
X-3564535Y1456842D02*
X-3546535D01*
X-3555535Y1447842D02*
Y1465842D01*
X-3604535Y1456842D02*
X-3586535D01*
X-3595535Y1447842D02*
Y1465842D01*
X-3644535Y1456842D02*
X-3626535D01*
X-3635535Y1447842D02*
Y1465842D01*
X-1101378Y1037842D02*
X-1081693D01*
X-1091535Y1028000D02*
Y1047685D01*
X-559378Y1295842D02*
X-539693D01*
X-549535Y1286000D02*
Y1305685D01*
X-637378Y1447842D02*
X-617693D01*
X-627535Y1438000D02*
Y1457685D01*
X-747378Y1416842D02*
X-727693D01*
X-737535Y1407000D02*
Y1426685D01*
X-755378Y1285842D02*
X-735693D01*
X-745535Y1276000D02*
Y1295685D01*
X-499378Y1891842D02*
X-479693D01*
X-489535Y1882000D02*
Y1901685D01*
X-555378Y1890842D02*
X-535693D01*
X-545535Y1881000D02*
Y1900685D01*
X-782378Y1726842D02*
X-762693D01*
X-772535Y1717000D02*
Y1736685D01*
X-697378Y1815842D02*
X-677693D01*
X-687535Y1806000D02*
Y1825685D01*
X-689378Y1878842D02*
X-669693D01*
X-679535Y1869000D02*
Y1888685D01*
X-736378Y2064843D02*
X-716693D01*
X-726535Y2055000D02*
Y2074685D01*
X-565378Y1156842D02*
X-545693D01*
X-555535Y1147000D02*
Y1166685D01*
X-703378Y1156842D02*
X-683693D01*
X-693535Y1147000D02*
Y1166685D01*
X-612378Y1253842D02*
X-592693D01*
X-602535Y1244000D02*
Y1263685D01*
X-1358378Y1137842D02*
X-1338693D01*
X-1348535Y1128000D02*
Y1147685D01*
X-1423378Y970842D02*
X-1403693D01*
X-1413535Y961000D02*
Y980685D01*
X-1392378Y1448842D02*
X-1372693D01*
X-1382535Y1439000D02*
Y1458685D01*
X-1370378Y1209842D02*
X-1350693D01*
X-1360535Y1200000D02*
Y1219685D01*
X-1388378Y1171842D02*
X-1368693D01*
X-1378535Y1162000D02*
Y1181685D01*
X-1120378Y921842D02*
X-1100693D01*
X-1110535Y912000D02*
Y931685D01*
X-1164378Y651842D02*
X-1144693D01*
X-1154535Y642000D02*
Y661685D01*
X-1086378Y943842D02*
X-1066693D01*
X-1076535Y934000D02*
Y953685D01*
X-1106378Y679842D02*
X-1086693D01*
X-1096535Y670000D02*
Y689685D01*
X-1053378Y623842D02*
X-1033693D01*
X-1043535Y614000D02*
Y633685D01*
X-915378Y614842D02*
X-895693D01*
X-905535Y605000D02*
Y624685D01*
X-807378Y728842D02*
X-787693D01*
X-797535Y719000D02*
Y738685D01*
X-856378Y837842D02*
X-836693D01*
X-846535Y828000D02*
Y847685D01*
X-890378Y1180842D02*
X-870693D01*
X-880535Y1171000D02*
Y1190685D01*
X-861378Y1221842D02*
X-841693D01*
X-851535Y1212000D02*
Y1231685D01*
X-410378Y1631842D02*
X-390693D01*
X-400535Y1622000D02*
Y1641685D01*
X-702378Y1471842D02*
X-682693D01*
X-692535Y1462000D02*
Y1481685D01*
X-622378Y1898842D02*
X-602693D01*
X-612535Y1889000D02*
Y1908685D01*
X-1329378Y800842D02*
X-1309693D01*
X-1319535Y791000D02*
Y810685D01*
X-911378Y789842D02*
X-891693D01*
X-901535Y780000D02*
Y799685D01*
X-829378Y1004842D02*
X-809693D01*
X-819535Y995000D02*
Y1014685D01*
X-715378Y1003842D02*
X-695693D01*
X-705535Y994000D02*
Y1013685D01*
X-919378Y1140842D02*
X-899693D01*
X-909535Y1131000D02*
Y1150685D01*
X-1326378Y1104842D02*
X-1306693D01*
X-1316535Y1095000D02*
Y1114685D01*
X-748378Y1880842D02*
X-728693D01*
X-738535Y1871000D02*
Y1890685D01*
X-624378Y1652842D02*
X-604693D01*
X-614535Y1643000D02*
Y1662685D01*
X-642378Y2351843D02*
X-622693D01*
X-632535Y2342000D02*
Y2361685D01*
X-260378Y2235843D02*
X-240693D01*
X-250535Y2226000D02*
Y2245685D01*
X-324378Y2350843D02*
X-304693D01*
X-314535Y2341000D02*
Y2360685D01*
X-324378Y2306843D02*
X-304693D01*
X-314535Y2297000D02*
Y2316685D01*
X-324378Y2262843D02*
X-304693D01*
X-314535Y2253000D02*
Y2272685D01*
X-264378Y2374843D02*
X-244693D01*
X-254535Y2365000D02*
Y2384685D01*
X-264378Y2330843D02*
X-244693D01*
X-254535Y2321000D02*
Y2340685D01*
X-264378Y2286843D02*
X-244693D01*
X-254535Y2277000D02*
Y2296685D01*
X-2372378Y1487842D02*
X-2352693D01*
X-2362535Y1478000D02*
Y1497685D01*
X-1929378Y864842D02*
X-1909693D01*
X-1919535Y855000D02*
Y874685D01*
X-928378Y1852842D02*
X-908693D01*
X-918535Y1843000D02*
Y1862685D01*
X-977378Y1720842D02*
X-957693D01*
X-967535Y1711000D02*
Y1730685D01*
X-3199441Y2206843D02*
X-3187630D01*
X-3193535Y2200937D02*
Y2212748D01*
X-3203441Y2165843D02*
X-3191630D01*
X-3197535Y2159937D02*
Y2171748D01*
X-3231441Y2205843D02*
X-3219630D01*
X-3225535Y2199937D02*
Y2211748D01*
X-2407441Y2213843D02*
X-2395630D01*
X-2401535Y2207937D02*
Y2219748D01*
X-2409441Y2163843D02*
X-2397630D01*
X-2403535Y2157937D02*
Y2169748D01*
X-2438441Y2209843D02*
X-2426630D01*
X-2432535Y2203937D02*
Y2215748D01*
X-1592441Y2161843D02*
X-1580630D01*
X-1586535Y2155937D02*
Y2167748D01*
X-1599441Y2212843D02*
X-1587630D01*
X-1593535Y2206937D02*
Y2218748D01*
X-1624441Y2213843D02*
X-1612630D01*
X-1618535Y2207937D02*
Y2219748D01*
X-804441Y2162843D02*
X-792630D01*
X-798535Y2156937D02*
Y2168748D01*
X-805441Y2205843D02*
X-793630D01*
X-799535Y2199937D02*
Y2211748D01*
X-837441Y2206843D02*
X-825630D01*
X-831535Y2200937D02*
Y2212748D01*
X-3034378Y1475842D02*
X-3014693D01*
X-3024535Y1466000D02*
Y1485685D01*
X-3035378Y1973842D02*
X-3015693D01*
X-3025535Y1964000D02*
Y1983685D01*
X-2237378Y1977842D02*
X-2217693D01*
X-2227535Y1968000D02*
Y1987685D01*
X-982378Y1980842D02*
X-962693D01*
X-972535Y1971000D02*
Y1990685D01*
X-1625441Y2162843D02*
X-1613630D01*
X-1619535Y2156937D02*
Y2168748D01*
X-3231441Y2158843D02*
X-3219630D01*
X-3225535Y2152937D02*
Y2164748D01*
X-1551378Y523842D02*
X-1531693D01*
X-1541535Y514000D02*
Y533685D01*
X-1326378Y522842D02*
X-1306693D01*
X-1316535Y513000D02*
Y532685D01*
X-1120378Y523842D02*
X-1100693D01*
X-1110535Y514000D02*
Y533685D01*
X-902378Y524842D02*
X-882693D01*
X-892535Y515000D02*
Y534685D01*
X-690378Y524842D02*
X-670693D01*
X-680535Y515000D02*
Y534685D01*
X-1518378Y2307843D02*
X-1498693D01*
X-1508535Y2298000D02*
Y2317685D01*
X-3106378Y2307843D02*
X-3086693D01*
X-3096535Y2298000D02*
Y2317685D01*
X-2299378Y2307843D02*
X-2279693D01*
X-2289535Y2298000D02*
Y2317685D01*
X-1533378Y653842D02*
X-1513693D01*
X-1523535Y644000D02*
Y663685D01*
X-3904378Y2307843D02*
X-3884693D01*
X-3894535Y2298000D02*
Y2317685D01*
X-2941843Y1549000D02*
X-2922157D01*
X-2932000Y1539158D02*
Y1558842D01*
X-3327378Y1701842D02*
X-3307693D01*
X-3317535Y1692000D02*
Y1711685D01*
X-3860465Y1821755D02*
X-3840780D01*
X-3850623Y1811913D02*
Y1831598D01*
X-1156378Y1937842D02*
X-1136693D01*
X-1146535Y1928000D02*
Y1947685D01*
X-1158378Y1882842D02*
X-1138693D01*
X-1148535Y1873000D02*
Y1892685D01*
X-1210378Y1934842D02*
X-1190693D01*
X-1200535Y1925000D02*
Y1944685D01*
X-1211378Y1880842D02*
X-1191693D01*
X-1201535Y1871000D02*
Y1890685D01*
X-1937378Y1935842D02*
X-1917693D01*
X-1927535Y1926000D02*
Y1945685D01*
X-1938378Y1879842D02*
X-1918693D01*
X-1928535Y1870000D02*
Y1889685D01*
X-1990378Y1932842D02*
X-1970693D01*
X-1980535Y1923000D02*
Y1942685D01*
X-1994378Y1876842D02*
X-1974693D01*
X-1984535Y1867000D02*
Y1886685D01*
X-2744378Y1933842D02*
X-2724693D01*
X-2734535Y1924000D02*
Y1943685D01*
X-2745378Y1875842D02*
X-2725693D01*
X-2735535Y1866000D02*
Y1885685D01*
X-2804378Y1931842D02*
X-2784693D01*
X-2794535Y1922000D02*
Y1941685D01*
X-2804378Y1873842D02*
X-2784693D01*
X-2794535Y1864000D02*
Y1883685D01*
X-3540378Y1935842D02*
X-3520693D01*
X-3530535Y1926000D02*
Y1945685D01*
X-3541378Y1880842D02*
X-3521693D01*
X-3531535Y1871000D02*
Y1890685D01*
X-3600378Y1933842D02*
X-3580693D01*
X-3590535Y1924000D02*
Y1943685D01*
X-3603378Y1878842D02*
X-3583693D01*
X-3593535Y1869000D02*
Y1888685D01*
X-1337378Y1229842D02*
X-1317693D01*
X-1327535Y1220000D02*
Y1239685D01*
X-2066378Y953842D02*
X-2046693D01*
X-2056535Y944000D02*
Y963685D01*
X-2058378Y915842D02*
X-2038693D01*
X-2048535Y906000D02*
Y925685D01*
X-1946378Y780842D02*
X-1926693D01*
X-1936535Y771000D02*
Y790685D01*
X-1748378Y1313842D02*
X-1728693D01*
X-1738535Y1304000D02*
Y1323685D01*
X-2599378Y946842D02*
X-2579693D01*
X-2589535Y937000D02*
Y956685D01*
X-2291378Y949842D02*
X-2271693D01*
X-2281535Y940000D02*
Y959685D01*
X-2282378Y1311842D02*
X-2262693D01*
X-2272535Y1302000D02*
Y1321685D01*
X-2294378Y1382842D02*
X-2274693D01*
X-2284535Y1373000D02*
Y1392685D01*
X-2282378Y1445842D02*
X-2262693D01*
X-2272535Y1436000D02*
Y1455685D01*
X-1486378Y1009842D02*
X-1466693D01*
X-1476535Y1000000D02*
Y1019685D01*
X-1525378Y1156842D02*
X-1505693D01*
X-1515535Y1147000D02*
Y1166685D01*
X-1562378Y1118842D02*
X-1542693D01*
X-1552535Y1109000D02*
Y1128685D01*
X-1529378Y1084842D02*
X-1509693D01*
X-1519535Y1075000D02*
Y1094685D01*
X-1551378Y1048842D02*
X-1531693D01*
X-1541535Y1039000D02*
Y1058685D01*
X-1649378Y935842D02*
X-1629693D01*
X-1639535Y926000D02*
Y945685D01*
X-1722378Y891842D02*
X-1702693D01*
X-1712535Y882000D02*
Y901685D01*
X-1756378Y953842D02*
X-1736693D01*
X-1746535Y944000D02*
Y963685D01*
X-1045378Y1743842D02*
X-1025693D01*
X-1035535Y1734000D02*
Y1753685D01*
X-1045378Y1649842D02*
X-1025693D01*
X-1035535Y1640000D02*
Y1659685D01*
X-1821378Y1739745D02*
X-1801693D01*
X-1811535Y1729903D02*
Y1749588D01*
X-1821378Y1642842D02*
X-1801693D01*
X-1811535Y1633000D02*
Y1652685D01*
X-2638378Y1646842D02*
X-2618693D01*
X-2628535Y1637000D02*
Y1656685D01*
X-2638378Y1745842D02*
X-2618693D01*
X-2628535Y1736000D02*
Y1755685D01*
X-3452378Y1778842D02*
X-3432693D01*
X-3442535Y1769000D02*
Y1788685D01*
X-3438378Y1658897D02*
X-3418693D01*
X-3428535Y1649054D02*
Y1668739D01*
X-3684378Y2024842D02*
X-3664693D01*
X-3674535Y2015000D02*
Y2034685D01*
X-3439378Y2029842D02*
X-3419693D01*
X-3429535Y2020000D02*
Y2039685D01*
X-2899378Y2037842D02*
X-2879693D01*
X-2889535Y2028000D02*
Y2047685D01*
X-2644378Y2053843D02*
X-2624693D01*
X-2634535Y2044000D02*
Y2063685D01*
X-2081378Y2034842D02*
X-2061693D01*
X-2071535Y2025000D02*
Y2044685D01*
X-1839378Y2043881D02*
X-1819693D01*
X-1829535Y2034039D02*
Y2053724D01*
X-1314378Y2047881D02*
X-1294693D01*
X-1304535Y2038039D02*
Y2057724D01*
X-1044378Y2056881D02*
X-1024693D01*
X-1034535Y2047039D02*
Y2066724D01*
X-1750378Y1817842D02*
X-1730693D01*
X-1740535Y1808000D02*
Y1827685D01*
X-1816339Y1927881D02*
X-1796654D01*
X-1806497Y1918039D02*
Y1937724D01*
X-2539378Y1803842D02*
X-2519693D01*
X-2529535Y1794000D02*
Y1813685D01*
X-2611378Y1925842D02*
X-2591693D01*
X-2601535Y1916000D02*
Y1935685D01*
X-3359378Y1824842D02*
X-3339693D01*
X-3349535Y1815000D02*
Y1834685D01*
X-3394339Y1927881D02*
X-3374654D01*
X-3384497Y1918039D02*
Y1937724D01*
X-968378Y1807842D02*
X-948693D01*
X-958535Y1798000D02*
Y1817685D01*
X-1465076Y1963144D02*
X-1445391D01*
X-1455234Y1953301D02*
Y1972986D01*
X-835441Y2162843D02*
X-823630D01*
X-829535Y2156937D02*
Y2168748D01*
X-2434441Y2161843D02*
X-2422630D01*
X-2428535Y2155937D02*
Y2167748D01*
X-1549378Y1617842D02*
X-1529693D01*
X-1539535Y1608000D02*
Y1627685D01*
X-1544378Y1673842D02*
X-1524693D01*
X-1534535Y1664000D02*
Y1683685D01*
X-1393378Y1565842D02*
X-1373693D01*
X-1383535Y1556000D02*
Y1575685D01*
X-1358378Y1662842D02*
X-1338693D01*
X-1348535Y1653000D02*
Y1672685D01*
X-1360378Y827842D02*
X-1340693D01*
X-1350535Y818000D02*
Y837685D01*
X-1613378Y898842D02*
X-1593693D01*
X-1603535Y889000D02*
Y908685D01*
X-3784378Y1532842D02*
X-3764693D01*
X-3774535Y1523000D02*
Y1542685D01*
X-3740378Y1425842D02*
X-3720693D01*
X-3730535Y1416000D02*
Y1435685D01*
X-124378Y1789842D02*
X-104693D01*
X-114535Y1780000D02*
Y1799685D01*
X-1709378Y1135842D02*
X-1689693D01*
X-1699535Y1126000D02*
Y1145685D01*
X-2475378Y2015842D02*
X-2455693D01*
X-2465535Y2006000D02*
Y2025685D01*
X-2309378Y1686842D02*
X-2289693D01*
X-2299535Y1677000D02*
Y1696685D01*
X-2156378Y1609842D02*
X-2136693D01*
X-2146535Y1600000D02*
Y1619685D01*
X-2403378Y1544842D02*
X-2383693D01*
X-2393535Y1535000D02*
Y1554685D01*
X-1609465Y1821930D02*
X-1589780D01*
X-1599623Y1812087D02*
Y1831772D01*
X-1737378Y1528842D02*
X-1717693D01*
X-1727535Y1519000D02*
Y1538685D01*
X-1481378Y1649842D02*
X-1461693D01*
X-1471535Y1640000D02*
Y1659685D01*
X-1481378Y1697842D02*
X-1461693D01*
X-1471535Y1688000D02*
Y1707685D01*
X-2101378Y1813842D02*
X-2081693D01*
X-2091535Y1804000D02*
Y1823685D01*
X-2898378Y1824842D02*
X-2878693D01*
X-2888535Y1815000D02*
Y1834685D01*
X-3088378Y1614842D02*
X-3068693D01*
X-3078535Y1605000D02*
Y1624685D01*
X-3194465Y1826755D02*
X-3174780D01*
X-3184623Y1816913D02*
Y1836598D01*
X-3743378Y1666842D02*
X-3723693D01*
X-3733535Y1657000D02*
Y1676685D01*
X-3709378Y1818842D02*
X-3689693D01*
X-3699535Y1809000D02*
Y1828685D01*
X-1327378Y1813842D02*
X-1307693D01*
X-1317535Y1804000D02*
Y1823685D01*
X-2960378Y1583842D02*
X-2940693D01*
X-2950535Y1574000D02*
Y1593685D01*
X-122378Y1693842D02*
X-102693D01*
X-112535Y1684000D02*
Y1703685D01*
X-1693378Y1999842D02*
X-1673693D01*
X-1683535Y1990000D02*
Y2009685D01*
X-1629378Y2024842D02*
X-1609693D01*
X-1619535Y2015000D02*
Y2034685D01*
X-2814378Y550842D02*
X-2794693D01*
X-2804535Y541000D02*
Y560685D01*
X-2811017Y601482D02*
X-2791332D01*
X-2801175Y591640D02*
Y611325D01*
X-2748378Y600842D02*
X-2728693D01*
X-2738535Y591000D02*
Y610685D01*
X-2748378Y543842D02*
X-2728693D01*
X-2738535Y534000D02*
Y553685D01*
X-2687378Y544842D02*
X-2667693D01*
X-2677535Y535000D02*
Y554685D01*
X-2683738Y601482D02*
X-2664053D01*
X-2673896Y591640D02*
Y611325D01*
X-2492378Y439842D02*
X-2472693D01*
X-2482535Y430000D02*
Y449685D01*
X-2491378Y492842D02*
X-2471693D01*
X-2481535Y483000D02*
Y502685D01*
X-2491378Y550842D02*
X-2471693D01*
X-2481535Y541000D02*
Y560685D01*
X-2494378Y607842D02*
X-2474693D01*
X-2484535Y598000D02*
Y617685D01*
X-2434378Y610842D02*
X-2414693D01*
X-2424535Y601000D02*
Y620685D01*
X-2431378Y552842D02*
X-2411693D01*
X-2421535Y543000D02*
Y562685D01*
X-2433378Y493842D02*
X-2413693D01*
X-2423535Y484000D02*
Y503685D01*
X-2434378Y437842D02*
X-2414693D01*
X-2424535Y428000D02*
Y447685D01*
X-2372378Y436842D02*
X-2352693D01*
X-2362535Y427000D02*
Y446685D01*
X-2378378Y495842D02*
X-2358693D01*
X-2368535Y486000D02*
Y505685D01*
X-2380378Y549842D02*
X-2360693D01*
X-2370535Y540000D02*
Y559685D01*
X-2385378Y609842D02*
X-2365693D01*
X-2375535Y600000D02*
Y619685D01*
X-2172378Y602842D02*
X-2152693D01*
X-2162535Y593000D02*
Y612685D01*
X-2170378Y543842D02*
X-2150693D01*
X-2160535Y534000D02*
Y553685D01*
X-2168378Y483842D02*
X-2148693D01*
X-2158535Y474000D02*
Y493685D01*
X-2168378Y425842D02*
X-2148693D01*
X-2158535Y416000D02*
Y435685D01*
X-2102378Y421842D02*
X-2082693D01*
X-2092535Y412000D02*
Y431685D01*
X-2106378Y484842D02*
X-2086693D01*
X-2096535Y475000D02*
Y494685D01*
X-2103378Y544842D02*
X-2083693D01*
X-2093535Y535000D02*
Y554685D01*
X-2101378Y608842D02*
X-2081693D01*
X-2091535Y599000D02*
Y618685D01*
X-2041378Y609842D02*
X-2021693D01*
X-2031535Y600000D02*
Y619685D01*
X-2038378Y540842D02*
X-2018693D01*
X-2028535Y531000D02*
Y550685D01*
X-2040378Y487842D02*
X-2020693D01*
X-2030535Y478000D02*
Y497685D01*
X-2037378Y427842D02*
X-2017693D01*
X-2027535Y418000D02*
Y437685D01*
X-3892535Y519842D02*
X-3874535D01*
X-3883535Y510842D02*
Y528842D01*
X-3892535Y559842D02*
X-3874535D01*
X-3883535Y550842D02*
Y568842D01*
X-3201535Y2541843D02*
X-3183535D01*
X-3192535Y2532843D02*
Y2550843D01*
X-3159535Y2501843D02*
X-3141535D01*
X-3150535Y2492843D02*
Y2510843D01*
X-3159535Y2541843D02*
X-3141535D01*
X-3150535Y2532843D02*
Y2550843D01*
X-1368535Y2475843D02*
X-1350535D01*
X-1359535Y2466843D02*
Y2484843D01*
X-1328535Y2475843D02*
X-1310535D01*
X-1319535Y2466843D02*
Y2484843D01*
X-1368535Y2433843D02*
X-1350535D01*
X-1359535Y2424843D02*
Y2442843D01*
X-1328535Y2433843D02*
X-1310535D01*
X-1319535Y2424843D02*
Y2442843D01*
X-1288535Y2475843D02*
X-1270535D01*
X-1279535Y2466843D02*
Y2484843D01*
X-1288535Y2433843D02*
X-1270535D01*
X-1279535Y2424843D02*
Y2442843D01*
X-1069535Y2488843D02*
X-1051535D01*
X-1060535Y2479843D02*
Y2497843D01*
X-1109535Y2488843D02*
X-1091535D01*
X-1100535Y2479843D02*
Y2497843D01*
X-1029535Y2488843D02*
X-1011535D01*
X-1020535Y2479843D02*
Y2497843D01*
X-908535Y2585843D02*
X-890535D01*
X-899535Y2576843D02*
Y2594843D01*
X-866535Y2585843D02*
X-848535D01*
X-857535Y2576843D02*
Y2594843D01*
X-908535Y2625843D02*
X-890535D01*
X-899535Y2616843D02*
Y2634843D01*
X-866535Y2625843D02*
X-848535D01*
X-857535Y2616843D02*
Y2634843D01*
X-908535Y2665843D02*
X-890535D01*
X-899535Y2656843D02*
Y2674843D01*
X-866535Y2665843D02*
X-848535D01*
X-857535Y2656843D02*
Y2674843D01*
X-908535Y2705843D02*
X-890535D01*
X-899535Y2696843D02*
Y2714843D01*
X-866535Y2705843D02*
X-848535D01*
X-857535Y2696843D02*
Y2714843D01*
X-1602535Y2534843D02*
X-1584535D01*
X-1593535Y2525843D02*
Y2543843D01*
X-1644535Y2574843D02*
X-1626535D01*
X-1635535Y2565843D02*
Y2583843D01*
X-1602535Y2574843D02*
X-1584535D01*
X-1593535Y2565843D02*
Y2583843D01*
X-1644535Y2614843D02*
X-1626535D01*
X-1635535Y2605843D02*
Y2623843D01*
X-1602535Y2614843D02*
X-1584535D01*
X-1593535Y2605843D02*
Y2623843D01*
X-1644535Y2654843D02*
X-1626535D01*
X-1635535Y2645843D02*
Y2663843D01*
X-1602535Y2654843D02*
X-1584535D01*
X-1593535Y2645843D02*
Y2663843D01*
X-1644535Y2694843D02*
X-1626535D01*
X-1635535Y2685843D02*
Y2703843D01*
X-1602535Y2694843D02*
X-1584535D01*
X-1593535Y2685843D02*
Y2703843D01*
X-1837535Y2479843D02*
X-1819535D01*
X-1828535Y2470843D02*
Y2488843D01*
X-1797535Y2479843D02*
X-1779535D01*
X-1788535Y2470843D02*
Y2488843D01*
X-1877535Y2521843D02*
X-1859535D01*
X-1868535Y2512843D02*
Y2530843D01*
X-1837535Y2521843D02*
X-1819535D01*
X-1828535Y2512843D02*
Y2530843D01*
X-1797535Y2521843D02*
X-1779535D01*
X-1788535Y2512843D02*
Y2530843D01*
X-2142535Y2477843D02*
X-2124535D01*
X-2133535Y2468843D02*
Y2486843D01*
X-2062535Y2477843D02*
X-2044535D01*
X-2053535Y2468843D02*
Y2486843D01*
X-2142535Y2519843D02*
X-2124535D01*
X-2133535Y2510843D02*
Y2528843D01*
X-2102535Y2519843D02*
X-2084535D01*
X-2093535Y2510843D02*
Y2528843D01*
X-2062535Y2519843D02*
X-2044535D01*
X-2053535Y2510843D02*
Y2528843D01*
X-2363535Y2527843D02*
X-2345535D01*
X-2354535Y2518843D02*
Y2536843D01*
X-2405535Y2567843D02*
X-2387535D01*
X-2396535Y2558843D02*
Y2576843D01*
X-2363535Y2567843D02*
X-2345535D01*
X-2354535Y2558843D02*
Y2576843D01*
X-2405535Y2607843D02*
X-2387535D01*
X-2396535Y2598843D02*
Y2616843D01*
X-2363535Y2607843D02*
X-2345535D01*
X-2354535Y2598843D02*
Y2616843D01*
X-2405535Y2647843D02*
X-2387535D01*
X-2396535Y2638843D02*
Y2656843D01*
X-2363535Y2647843D02*
X-2345535D01*
X-2354535Y2638843D02*
Y2656843D01*
X-2405535Y2687843D02*
X-2387535D01*
X-2396535Y2678843D02*
Y2696843D01*
X-2363535Y2687843D02*
X-2345535D01*
X-2354535Y2678843D02*
Y2696843D01*
X-2867535Y2464843D02*
X-2849535D01*
X-2858535Y2455843D02*
Y2473843D01*
X-2947535Y2464843D02*
X-2929535D01*
X-2938535Y2455843D02*
Y2473843D01*
X-2947535Y2506843D02*
X-2929535D01*
X-2938535Y2497843D02*
Y2515843D01*
X-2907535Y2506843D02*
X-2889535D01*
X-2898535Y2497843D02*
Y2515843D01*
X-2867535Y2506843D02*
X-2849535D01*
X-2858535Y2497843D02*
Y2515843D01*
X-2684535Y2473843D02*
X-2666535D01*
X-2675535Y2464843D02*
Y2482843D01*
X-2644535Y2473843D02*
X-2626535D01*
X-2635535Y2464843D02*
Y2482843D01*
X-2684535Y2515843D02*
X-2666535D01*
X-2675535Y2506843D02*
Y2524843D01*
X-2644535Y2515843D02*
X-2626535D01*
X-2635535Y2506843D02*
Y2524843D01*
X-2604535Y2515843D02*
X-2586535D01*
X-2595535Y2506843D02*
Y2524843D01*
X-3750535Y2469843D02*
X-3732535D01*
X-3741535Y2460843D02*
Y2478843D01*
X-3750535Y2511843D02*
X-3732535D01*
X-3741535Y2502843D02*
Y2520843D01*
X-3710535Y2469843D02*
X-3692535D01*
X-3701535Y2460843D02*
Y2478843D01*
X-3710535Y2511843D02*
X-3692535D01*
X-3701535Y2502843D02*
Y2520843D01*
X-3670535Y2469843D02*
X-3652535D01*
X-3661535Y2460843D02*
Y2478843D01*
X-3670535Y2511843D02*
X-3652535D01*
X-3661535Y2502843D02*
Y2520843D01*
X-3489535Y2463843D02*
X-3471535D01*
X-3480535Y2454843D02*
Y2472843D01*
X-3489535Y2505843D02*
X-3471535D01*
X-3480535Y2496843D02*
Y2514843D01*
X-3449535Y2463843D02*
X-3431535D01*
X-3440535Y2454843D02*
Y2472843D01*
X-3449535Y2505843D02*
X-3431535D01*
X-3440535Y2496843D02*
Y2514843D01*
X-3409535Y2463843D02*
X-3391535D01*
X-3400535Y2454843D02*
Y2472843D01*
X-3409535Y2505843D02*
X-3391535D01*
X-3400535Y2496843D02*
Y2514843D01*
X-3082535Y44843D02*
X-3064535D01*
X-3073535Y35843D02*
Y53843D01*
X-1630535Y632842D02*
X-1612535D01*
X-1621535Y623842D02*
Y641842D01*
X-806378Y794842D02*
X-786693D01*
X-796535Y785000D02*
Y804685D01*
X-696378Y859842D02*
X-676693D01*
X-686535Y850000D02*
Y869685D01*
X-419378Y933842D02*
X-399693D01*
X-409535Y924000D02*
Y943685D01*
X-377378Y919842D02*
X-357693D01*
X-367535Y910000D02*
Y929685D01*
X-894378Y880842D02*
X-874693D01*
X-884535Y871000D02*
Y890685D01*
X-1002378Y925842D02*
X-982693D01*
X-992535Y916000D02*
Y935685D01*
X-472378Y553842D02*
X-452693D01*
X-462535Y544000D02*
Y563685D01*
X-361378Y1355842D02*
X-341693D01*
X-351535Y1346000D02*
Y1365685D01*
X-3926535Y521842D02*
X-3908535D01*
X-3917535Y512842D02*
Y530842D01*
X-3892535Y596842D02*
X-3874535D01*
X-3883535Y587842D02*
Y605842D01*
X-3926535Y561842D02*
X-3908535D01*
X-3917535Y552842D02*
Y570842D01*
X-3926535Y598842D02*
X-3908535D01*
X-3917535Y589842D02*
Y607842D01*
X-3926535Y638842D02*
X-3908535D01*
X-3917535Y629842D02*
Y647842D01*
X-3892535Y636842D02*
X-3874535D01*
X-3883535Y627842D02*
Y645842D01*
X-392378Y1210842D02*
X-372693D01*
X-382535Y1201000D02*
Y1220685D01*
X-2684099Y502842D02*
X-2664414D01*
X-2674256Y493000D02*
Y512685D01*
X-2687738Y446203D02*
X-2668053D01*
X-2677896Y436360D02*
Y456045D01*
X-2748738Y445203D02*
X-2729053D01*
X-2738896Y435360D02*
Y455045D01*
X-2748738Y502203D02*
X-2729053D01*
X-2738896Y492360D02*
Y512045D01*
X-2811378Y502842D02*
X-2791693D01*
X-2801535Y493000D02*
Y512685D01*
X-2814738Y452203D02*
X-2795053D01*
X-2804896Y442360D02*
Y462045D01*
X-3092378Y1526842D02*
X-3072693D01*
X-3082535Y1517000D02*
Y1536685D01*
X-3093878Y1576342D02*
X-3074193D01*
X-3084035Y1566500D02*
Y1586185D01*
X-3434378Y1475842D02*
X-3414693D01*
X-3424535Y1466000D02*
Y1485685D01*
X-3471590Y907472D02*
X-3459590D01*
X-3465590Y901472D02*
Y913472D01*
X-3432220Y907472D02*
X-3420220D01*
X-3426220Y901472D02*
Y913472D01*
X-3392850Y907472D02*
X-3380850D01*
X-3386850Y901472D02*
Y913472D01*
X-3353480Y907472D02*
X-3341480D01*
X-3347480Y901472D02*
Y913472D01*
X-3353480Y986213D02*
X-3341480D01*
X-3347480Y980213D02*
Y992213D01*
X-3392850Y986213D02*
X-3380850D01*
X-3386850Y980213D02*
Y992213D01*
X-3432220Y986213D02*
X-3420220D01*
X-3426220Y980213D02*
Y992213D01*
X-3471590Y986213D02*
X-3459590D01*
X-3465590Y980213D02*
Y992213D01*
X-3471590Y946842D02*
X-3459590D01*
X-3465590Y940842D02*
Y952842D01*
X-3432220Y946842D02*
X-3420220D01*
X-3426220Y940842D02*
Y952842D01*
X-3353480Y946842D02*
X-3341480D01*
X-3347480Y940842D02*
Y952842D01*
X-3392850Y946842D02*
X-3380850D01*
X-3386850Y940842D02*
Y952842D01*
X-3006378Y1556842D02*
X-2986693D01*
X-2996535Y1547000D02*
Y1566685D01*
X-3281535Y1151842D02*
X-3269535D01*
X-3275535Y1145842D02*
Y1157842D01*
X-3348535Y776842D02*
X-3336535D01*
X-3342535Y770842D02*
Y782842D01*
X-3386535Y1223842D02*
X-3374535D01*
X-3380535Y1217842D02*
Y1229842D01*
X-3548535Y1142842D02*
X-3536535D01*
X-3542535Y1136842D02*
Y1148842D01*
X-3570535Y898842D02*
X-3558535D01*
X-3564535Y892842D02*
Y904842D01*
X-3336535Y732842D02*
X-3324535D01*
X-3330535Y726842D02*
Y738842D01*
X-3496535Y718842D02*
X-3484535D01*
X-3490535Y712842D02*
Y724842D01*
X-3236535Y581842D02*
X-3224535D01*
X-3230535Y575842D02*
Y587842D01*
X-3281535Y655842D02*
X-3269535D01*
X-3275535Y649842D02*
Y661842D01*
X-3578794Y1112842D02*
X-3566794D01*
X-3572794Y1106842D02*
Y1118842D01*
X-3495535Y691842D02*
X-3483535D01*
X-3489535Y685842D02*
Y697842D01*
X-92535Y2715843D02*
X-80535D01*
X-86535Y2709843D02*
Y2721843D01*
X-242535Y2714843D02*
X-230535D01*
X-236535Y2708843D02*
Y2720843D01*
X-167535Y2668843D02*
X-155535D01*
X-161535Y2662843D02*
Y2674843D01*
X-242535Y2071843D02*
X-230535D01*
X-236535Y2065843D02*
Y2077843D01*
X-91535Y2071843D02*
X-79535D01*
X-85535Y2065843D02*
Y2077843D01*
X-166535Y2138843D02*
X-154535D01*
X-160535Y2132843D02*
Y2144843D01*
X-163535Y2017842D02*
X-151535D01*
X-157535Y2011842D02*
Y2023842D01*
X-2971535Y1061842D02*
X-2959535D01*
X-2965535Y1055842D02*
Y1067842D01*
X-3037535Y1003842D02*
X-3025535D01*
X-3031535Y997842D02*
Y1009842D01*
X-3221535Y911842D02*
X-3209535D01*
X-3215535Y905842D02*
Y917842D01*
X-3642535Y1344842D02*
X-3630535D01*
X-3636535Y1338842D02*
Y1350842D01*
X-3761535Y1249842D02*
X-3749535D01*
X-3755535Y1243842D02*
Y1255842D01*
X-3644535Y1270842D02*
X-3632535D01*
X-3638535Y1264842D02*
Y1276842D01*
X-3601535Y980842D02*
X-3589535D01*
X-3595535Y974842D02*
Y986842D01*
X-3551535Y980842D02*
X-3539535D01*
X-3545535Y974842D02*
Y986842D01*
X-3551535Y938842D02*
X-3539535D01*
X-3545535Y932842D02*
Y944842D01*
X-3551535Y1017842D02*
X-3539535D01*
X-3545535Y1011842D02*
Y1023842D01*
X-3602535Y1017842D02*
X-3590535D01*
X-3596535Y1011842D02*
Y1023842D01*
X-2992535Y754842D02*
X-2980535D01*
X-2986535Y748842D02*
Y760842D01*
X-3034535Y670842D02*
X-3022535D01*
X-3028535Y664842D02*
Y676842D01*
X-2509535Y871842D02*
X-2497535D01*
X-2503535Y865842D02*
Y877842D01*
X-2532535Y871842D02*
X-2520535D01*
X-2526535Y865842D02*
Y877842D01*
X-2555535Y871842D02*
X-2543535D01*
X-2549535Y865842D02*
Y877842D01*
X-2481535Y870842D02*
X-2469535D01*
X-2475535Y864842D02*
Y876842D01*
X-2509535Y895842D02*
X-2497535D01*
X-2503535Y889842D02*
Y901842D01*
X-2480535Y895842D02*
X-2468535D01*
X-2474535Y889842D02*
Y901842D01*
X-2535535Y895842D02*
X-2523535D01*
X-2529535Y889842D02*
Y901842D01*
X-2558535Y895842D02*
X-2546535D01*
X-2552535Y889842D02*
Y901842D01*
X-2406535Y903842D02*
X-2394535D01*
X-2400535Y897842D02*
Y909842D01*
X-2431535Y902842D02*
X-2419535D01*
X-2425535Y896842D02*
Y908842D01*
X-2436535Y944842D02*
X-2424535D01*
X-2430535Y938842D02*
Y950842D01*
X-2236535Y874842D02*
X-2224535D01*
X-2230535Y868842D02*
Y880842D01*
X-2213535Y874842D02*
X-2201535D01*
X-2207535Y868842D02*
Y880842D01*
X-2190535Y874842D02*
X-2178535D01*
X-2184535Y868842D02*
Y880842D01*
X-2167535Y874842D02*
X-2155535D01*
X-2161535Y868842D02*
Y880842D01*
X-2882535Y869842D02*
X-2870535D01*
X-2876535Y863842D02*
Y875842D01*
X-2859535Y869842D02*
X-2847535D01*
X-2853535Y863842D02*
Y875842D01*
X-2836535Y867842D02*
X-2824535D01*
X-2830535Y861842D02*
Y873842D01*
X-2812535Y866842D02*
X-2800535D01*
X-2806535Y860842D02*
Y872842D01*
X-2894535Y813842D02*
X-2882535D01*
X-2888535Y807842D02*
Y819842D01*
X-2894535Y785842D02*
X-2882535D01*
X-2888535Y779842D02*
Y791842D01*
X-2894535Y757842D02*
X-2882535D01*
X-2888535Y751842D02*
Y763842D01*
X-3336535Y656842D02*
X-3324535D01*
X-3330535Y650842D02*
Y662842D01*
%TF.MD5,c50b1b4e77a83b2f73c9e82ceeae63ff*%
M02*
