G04 Layer_Color=32896*
%FSLAX26Y26*%
%MOIN*%
%TF.FileFunction,Legend,Bot*%
%TF.Part,Single*%
G01*
G75*
%TA.AperFunction,NonConductor*%
%ADD297C,0.005906*%
G36*
X-3613885Y119392D02*
X-3612935Y119343D01*
X-3612035Y119192D01*
X-3611235Y118993D01*
X-3610435Y118793D01*
X-3609735Y118543D01*
X-3609085Y118293D01*
X-3608485Y118043D01*
X-3607935Y117743D01*
X-3607485Y117493D01*
X-3607085Y117243D01*
X-3606735Y117043D01*
X-3606485Y116843D01*
X-3606285Y116692D01*
X-3606185Y116642D01*
X-3606135Y116593D01*
X-3605535Y116043D01*
X-3605035Y115442D01*
X-3604585Y114793D01*
X-3604185Y114093D01*
X-3603835Y113442D01*
X-3603535Y112743D01*
X-3603085Y111392D01*
X-3602885Y110793D01*
X-3602735Y110192D01*
X-3602635Y109692D01*
X-3602535Y109243D01*
X-3602485Y108843D01*
Y108593D01*
X-3602435Y108392D01*
Y108343D01*
X-3607285Y107843D01*
X-3607385Y109142D01*
X-3607585Y110243D01*
X-3607935Y111192D01*
X-3608335Y112043D01*
X-3608685Y112642D01*
X-3609035Y113142D01*
X-3609235Y113392D01*
X-3609335Y113493D01*
X-3610135Y114192D01*
X-3611035Y114692D01*
X-3611985Y115043D01*
X-3612835Y115293D01*
X-3613585Y115442D01*
X-3613935Y115493D01*
X-3614235D01*
X-3614435Y115543D01*
X-3614785D01*
X-3615935Y115442D01*
X-3616985Y115243D01*
X-3617885Y114942D01*
X-3618635Y114593D01*
X-3619235Y114192D01*
X-3619685Y113892D01*
X-3619935Y113692D01*
X-3620035Y113593D01*
X-3620735Y112843D01*
X-3621235Y112043D01*
X-3621585Y111293D01*
X-3621835Y110543D01*
X-3621985Y109892D01*
X-3622035Y109343D01*
X-3622085Y109142D01*
Y109043D01*
Y108942D01*
Y108892D01*
Y108392D01*
X-3621985Y107892D01*
X-3621735Y106843D01*
X-3621385Y105892D01*
X-3620985Y105043D01*
X-3620535Y104293D01*
X-3620335Y103993D01*
X-3620185Y103692D01*
X-3620035Y103493D01*
X-3619935Y103343D01*
X-3619885Y103243D01*
X-3619835Y103192D01*
X-3619385Y102593D01*
X-3618835Y101993D01*
X-3618235Y101343D01*
X-3617585Y100642D01*
X-3616185Y99293D01*
X-3614785Y97993D01*
X-3614135Y97392D01*
X-3613485Y96843D01*
X-3612885Y96343D01*
X-3612385Y95892D01*
X-3611985Y95543D01*
X-3611635Y95293D01*
X-3611435Y95093D01*
X-3611385Y95043D01*
X-3609935Y93843D01*
X-3608685Y92743D01*
X-3607635Y91743D01*
X-3606785Y90892D01*
X-3606085Y90192D01*
X-3605585Y89642D01*
X-3605435Y89442D01*
X-3605285Y89293D01*
X-3605235Y89243D01*
X-3605185Y89192D01*
X-3604435Y88243D01*
X-3603785Y87343D01*
X-3603285Y86493D01*
X-3602835Y85692D01*
X-3602485Y85043D01*
X-3602285Y84543D01*
X-3602185Y84343D01*
X-3602135Y84192D01*
X-3602085Y84142D01*
Y84093D01*
X-3601885Y83493D01*
X-3601735Y82942D01*
X-3601635Y82392D01*
X-3601585Y81892D01*
X-3601535Y81442D01*
Y81142D01*
Y80942D01*
Y80843D01*
X-3626985D01*
Y85392D01*
X-3608085D01*
X-3608735Y86293D01*
X-3609085Y86743D01*
X-3609385Y87093D01*
X-3609685Y87442D01*
X-3609885Y87692D01*
X-3610035Y87843D01*
X-3610085Y87892D01*
X-3610335Y88142D01*
X-3610685Y88493D01*
X-3611035Y88843D01*
X-3611435Y89192D01*
X-3612335Y89993D01*
X-3613285Y90793D01*
X-3614135Y91543D01*
X-3614535Y91892D01*
X-3614835Y92192D01*
X-3615135Y92392D01*
X-3615335Y92593D01*
X-3615485Y92692D01*
X-3615535Y92743D01*
X-3616435Y93543D01*
X-3617335Y94293D01*
X-3618085Y94942D01*
X-3618835Y95593D01*
X-3619485Y96192D01*
X-3620085Y96793D01*
X-3620635Y97293D01*
X-3621085Y97743D01*
X-3621535Y98142D01*
X-3621885Y98493D01*
X-3622185Y98793D01*
X-3622435Y99043D01*
X-3622585Y99243D01*
X-3622735Y99392D01*
X-3622835Y99442D01*
Y99493D01*
X-3623585Y100392D01*
X-3624235Y101293D01*
X-3624785Y102093D01*
X-3625235Y102793D01*
X-3625585Y103343D01*
X-3625785Y103793D01*
X-3625935Y104093D01*
X-3625985Y104192D01*
X-3626285Y105043D01*
X-3626535Y105843D01*
X-3626685Y106642D01*
X-3626835Y107293D01*
X-3626885Y107892D01*
X-3626935Y108343D01*
Y108642D01*
Y108743D01*
X-3626885Y109593D01*
X-3626785Y110392D01*
X-3626635Y111142D01*
X-3626435Y111843D01*
X-3625885Y113142D01*
X-3625635Y113743D01*
X-3625335Y114243D01*
X-3624985Y114743D01*
X-3624735Y115142D01*
X-3624435Y115493D01*
X-3624185Y115793D01*
X-3623985Y116043D01*
X-3623835Y116192D01*
X-3623735Y116293D01*
X-3623685Y116343D01*
X-3623035Y116892D01*
X-3622385Y117343D01*
X-3621685Y117793D01*
X-3620935Y118142D01*
X-3620185Y118442D01*
X-3619485Y118692D01*
X-3618085Y119043D01*
X-3617435Y119192D01*
X-3616835Y119293D01*
X-3616285Y119343D01*
X-3615785Y119392D01*
X-3615435Y119442D01*
X-3614885D01*
X-3613885Y119392D01*
D02*
G37*
G36*
X-3553535Y119343D02*
X-3552185Y119093D01*
X-3550985Y118743D01*
X-3549985Y118343D01*
X-3549535Y118093D01*
X-3549185Y117892D01*
X-3548835Y117692D01*
X-3548585Y117543D01*
X-3548385Y117392D01*
X-3548235Y117293D01*
X-3548135Y117243D01*
X-3548085Y117192D01*
X-3547135Y116293D01*
X-3546285Y115243D01*
X-3545585Y114142D01*
X-3544985Y113142D01*
X-3544535Y112192D01*
X-3544335Y111793D01*
X-3544185Y111442D01*
X-3544085Y111142D01*
X-3543985Y110942D01*
X-3543935Y110793D01*
Y110743D01*
X-3543685Y109942D01*
X-3543485Y109093D01*
X-3543135Y107293D01*
X-3542885Y105442D01*
X-3542735Y103692D01*
X-3542635Y102892D01*
Y102142D01*
X-3542585Y101493D01*
X-3542535Y100942D01*
Y100442D01*
Y100093D01*
Y99892D01*
Y99793D01*
X-3542585Y97843D01*
X-3542685Y95993D01*
X-3542885Y94343D01*
X-3543135Y92793D01*
X-3543385Y91343D01*
X-3543735Y90093D01*
X-3544085Y88942D01*
X-3544435Y87892D01*
X-3544785Y86993D01*
X-3545085Y86243D01*
X-3545435Y85593D01*
X-3545685Y85043D01*
X-3545935Y84642D01*
X-3546135Y84392D01*
X-3546235Y84192D01*
X-3546285Y84142D01*
X-3546935Y83442D01*
X-3547585Y82843D01*
X-3548285Y82293D01*
X-3548985Y81843D01*
X-3549735Y81493D01*
X-3550485Y81142D01*
X-3551185Y80892D01*
X-3551885Y80692D01*
X-3552535Y80543D01*
X-3553135Y80392D01*
X-3553635Y80293D01*
X-3554135Y80243D01*
X-3554485D01*
X-3554785Y80192D01*
X-3555035D01*
X-3555785Y80243D01*
X-3556535Y80293D01*
X-3557885Y80543D01*
X-3559085Y80892D01*
X-3560085Y81343D01*
X-3560535Y81543D01*
X-3560885Y81743D01*
X-3561235Y81942D01*
X-3561485Y82093D01*
X-3561685Y82243D01*
X-3561885Y82343D01*
X-3561935Y82442D01*
X-3561985D01*
X-3562985Y83343D01*
X-3563835Y84392D01*
X-3564535Y85442D01*
X-3565135Y86493D01*
X-3565585Y87392D01*
X-3565785Y87793D01*
X-3565935Y88142D01*
X-3566035Y88442D01*
X-3566135Y88642D01*
X-3566185Y88793D01*
Y88843D01*
X-3566435Y89642D01*
X-3566635Y90493D01*
X-3566985Y92293D01*
X-3567235Y94142D01*
X-3567435Y95892D01*
X-3567485Y96692D01*
X-3567535Y97442D01*
Y98093D01*
X-3567585Y98642D01*
Y99142D01*
Y99493D01*
Y99692D01*
Y99793D01*
Y100843D01*
X-3567535Y101843D01*
X-3567485Y102743D01*
X-3567435Y103593D01*
X-3567385Y104442D01*
X-3567285Y105142D01*
X-3567235Y105843D01*
X-3567135Y106442D01*
X-3567035Y106993D01*
X-3566985Y107493D01*
X-3566885Y107892D01*
X-3566835Y108243D01*
X-3566785Y108493D01*
X-3566735Y108692D01*
X-3566685Y108793D01*
Y108843D01*
X-3566335Y110043D01*
X-3565985Y111192D01*
X-3565585Y112142D01*
X-3565185Y112993D01*
X-3564835Y113692D01*
X-3564585Y114192D01*
X-3564485Y114343D01*
X-3564385Y114493D01*
X-3564335Y114543D01*
Y114593D01*
X-3563735Y115442D01*
X-3563085Y116142D01*
X-3562435Y116743D01*
X-3561835Y117293D01*
X-3561285Y117692D01*
X-3560885Y117942D01*
X-3560585Y118142D01*
X-3560535Y118192D01*
X-3560485D01*
X-3559585Y118593D01*
X-3558635Y118892D01*
X-3557735Y119142D01*
X-3556885Y119293D01*
X-3556135Y119392D01*
X-3555835D01*
X-3555535Y119442D01*
X-3554285D01*
X-3553535Y119343D01*
D02*
G37*
G36*
X-3583385D02*
X-3582035Y119093D01*
X-3580835Y118743D01*
X-3579835Y118343D01*
X-3579385Y118093D01*
X-3579035Y117892D01*
X-3578685Y117692D01*
X-3578435Y117543D01*
X-3578235Y117392D01*
X-3578085Y117293D01*
X-3577985Y117243D01*
X-3577935Y117192D01*
X-3576985Y116293D01*
X-3576135Y115243D01*
X-3575435Y114142D01*
X-3574835Y113142D01*
X-3574385Y112192D01*
X-3574185Y111793D01*
X-3574035Y111442D01*
X-3573935Y111142D01*
X-3573835Y110942D01*
X-3573785Y110793D01*
Y110743D01*
X-3573535Y109942D01*
X-3573335Y109093D01*
X-3572985Y107293D01*
X-3572735Y105442D01*
X-3572585Y103692D01*
X-3572485Y102892D01*
Y102142D01*
X-3572435Y101493D01*
X-3572385Y100942D01*
Y100442D01*
Y100093D01*
Y99892D01*
Y99793D01*
X-3572435Y97843D01*
X-3572535Y95993D01*
X-3572735Y94343D01*
X-3572985Y92793D01*
X-3573235Y91343D01*
X-3573585Y90093D01*
X-3573935Y88942D01*
X-3574285Y87892D01*
X-3574635Y86993D01*
X-3574935Y86243D01*
X-3575285Y85593D01*
X-3575535Y85043D01*
X-3575785Y84642D01*
X-3575985Y84392D01*
X-3576085Y84192D01*
X-3576135Y84142D01*
X-3576785Y83442D01*
X-3577435Y82843D01*
X-3578135Y82293D01*
X-3578835Y81843D01*
X-3579585Y81493D01*
X-3580335Y81142D01*
X-3581035Y80892D01*
X-3581735Y80692D01*
X-3582385Y80543D01*
X-3582985Y80392D01*
X-3583485Y80293D01*
X-3583985Y80243D01*
X-3584335D01*
X-3584635Y80192D01*
X-3584885D01*
X-3585635Y80243D01*
X-3586385Y80293D01*
X-3587735Y80543D01*
X-3588935Y80892D01*
X-3589935Y81343D01*
X-3590385Y81543D01*
X-3590735Y81743D01*
X-3591085Y81942D01*
X-3591335Y82093D01*
X-3591535Y82243D01*
X-3591735Y82343D01*
X-3591785Y82442D01*
X-3591835D01*
X-3592835Y83343D01*
X-3593685Y84392D01*
X-3594385Y85442D01*
X-3594985Y86493D01*
X-3595435Y87392D01*
X-3595635Y87793D01*
X-3595785Y88142D01*
X-3595885Y88442D01*
X-3595985Y88642D01*
X-3596035Y88793D01*
Y88843D01*
X-3596285Y89642D01*
X-3596485Y90493D01*
X-3596835Y92293D01*
X-3597085Y94142D01*
X-3597285Y95892D01*
X-3597335Y96692D01*
X-3597385Y97442D01*
Y98093D01*
X-3597435Y98642D01*
Y99142D01*
Y99493D01*
Y99692D01*
Y99793D01*
Y100843D01*
X-3597385Y101843D01*
X-3597335Y102743D01*
X-3597285Y103593D01*
X-3597235Y104442D01*
X-3597135Y105142D01*
X-3597085Y105843D01*
X-3596985Y106442D01*
X-3596885Y106993D01*
X-3596835Y107493D01*
X-3596735Y107892D01*
X-3596685Y108243D01*
X-3596635Y108493D01*
X-3596585Y108692D01*
X-3596535Y108793D01*
Y108843D01*
X-3596185Y110043D01*
X-3595835Y111192D01*
X-3595435Y112142D01*
X-3595035Y112993D01*
X-3594685Y113692D01*
X-3594435Y114192D01*
X-3594335Y114343D01*
X-3594235Y114493D01*
X-3594185Y114543D01*
Y114593D01*
X-3593585Y115442D01*
X-3592935Y116142D01*
X-3592285Y116743D01*
X-3591685Y117293D01*
X-3591135Y117692D01*
X-3590735Y117942D01*
X-3590435Y118142D01*
X-3590385Y118192D01*
X-3590335D01*
X-3589435Y118593D01*
X-3588485Y118892D01*
X-3587585Y119142D01*
X-3586735Y119293D01*
X-3585985Y119392D01*
X-3585685D01*
X-3585385Y119442D01*
X-3584135D01*
X-3583385Y119343D01*
D02*
G37*
G36*
X-3708385Y61392D02*
X-3707585Y61343D01*
X-3706085Y61042D01*
X-3704785Y60593D01*
X-3704235Y60343D01*
X-3703685Y60142D01*
X-3703235Y59892D01*
X-3702785Y59642D01*
X-3702435Y59392D01*
X-3702135Y59193D01*
X-3701885Y59042D01*
X-3701735Y58892D01*
X-3701635Y58843D01*
X-3701585Y58792D01*
X-3701035Y58292D01*
X-3700535Y57742D01*
X-3699685Y56542D01*
X-3699035Y55343D01*
X-3698485Y54193D01*
X-3698285Y53642D01*
X-3698135Y53142D01*
X-3697985Y52642D01*
X-3697885Y52292D01*
X-3697785Y51943D01*
X-3697735Y51693D01*
X-3697685Y51542D01*
Y51492D01*
X-3702385Y50642D01*
X-3702635Y51843D01*
X-3702935Y52892D01*
X-3703335Y53792D01*
X-3703735Y54492D01*
X-3704085Y55093D01*
X-3704385Y55492D01*
X-3704585Y55693D01*
X-3704685Y55792D01*
X-3705435Y56392D01*
X-3706185Y56792D01*
X-3706985Y57093D01*
X-3707685Y57343D01*
X-3708335Y57443D01*
X-3708885Y57492D01*
X-3709085Y57542D01*
X-3709335D01*
X-3710335Y57492D01*
X-3711185Y57292D01*
X-3711985Y56992D01*
X-3712635Y56693D01*
X-3713135Y56343D01*
X-3713535Y56093D01*
X-3713735Y55892D01*
X-3713835Y55792D01*
X-3714435Y55142D01*
X-3714885Y54392D01*
X-3715185Y53693D01*
X-3715435Y53042D01*
X-3715535Y52443D01*
X-3715585Y51992D01*
X-3715635Y51642D01*
Y51593D01*
Y51542D01*
X-3715585Y50943D01*
X-3715535Y50392D01*
X-3715235Y49392D01*
X-3714885Y48542D01*
X-3714435Y47843D01*
X-3713985Y47343D01*
X-3713585Y46943D01*
X-3713285Y46742D01*
X-3713235Y46642D01*
X-3713185D01*
X-3712285Y46142D01*
X-3711335Y45742D01*
X-3710435Y45492D01*
X-3709585Y45292D01*
X-3708885Y45193D01*
X-3708285Y45142D01*
X-3708085Y45093D01*
X-3707535D01*
X-3707285Y45142D01*
X-3707135Y45193D01*
X-3707035D01*
X-3706485Y41042D01*
X-3707185Y41193D01*
X-3707835Y41343D01*
X-3708435Y41443D01*
X-3708935Y41492D01*
X-3709285Y41542D01*
X-3709835D01*
X-3711035Y41443D01*
X-3712085Y41193D01*
X-3712985Y40892D01*
X-3713785Y40492D01*
X-3714385Y40093D01*
X-3714835Y39792D01*
X-3715135Y39542D01*
X-3715235Y39443D01*
X-3715635Y39042D01*
X-3715935Y38593D01*
X-3716485Y37742D01*
X-3716885Y36843D01*
X-3717135Y35992D01*
X-3717285Y35242D01*
X-3717335Y34892D01*
Y34642D01*
X-3717385Y34392D01*
Y34242D01*
Y34142D01*
Y34093D01*
Y33492D01*
X-3717285Y32892D01*
X-3717035Y31793D01*
X-3716635Y30793D01*
X-3716235Y29992D01*
X-3715835Y29293D01*
X-3715435Y28793D01*
X-3715285Y28642D01*
X-3715185Y28492D01*
X-3715135Y28442D01*
X-3715085Y28392D01*
X-3714635Y27992D01*
X-3714185Y27642D01*
X-3713235Y27043D01*
X-3712285Y26642D01*
X-3711385Y26392D01*
X-3710635Y26192D01*
X-3710285Y26142D01*
X-3709985D01*
X-3709785Y26093D01*
X-3709435D01*
X-3708435Y26192D01*
X-3707485Y26392D01*
X-3706685Y26642D01*
X-3705985Y26992D01*
X-3705385Y27293D01*
X-3704985Y27593D01*
X-3704735Y27793D01*
X-3704635Y27843D01*
X-3704285Y28192D01*
X-3703985Y28593D01*
X-3703435Y29543D01*
X-3702935Y30492D01*
X-3702585Y31442D01*
X-3702285Y32343D01*
X-3702185Y32693D01*
X-3702085Y33042D01*
X-3702035Y33292D01*
X-3701985Y33492D01*
X-3701935Y33642D01*
Y33693D01*
X-3697235Y33042D01*
X-3697335Y32142D01*
X-3697535Y31293D01*
X-3697735Y30543D01*
X-3698035Y29793D01*
X-3698335Y29093D01*
X-3698635Y28442D01*
X-3698985Y27843D01*
X-3699285Y27293D01*
X-3699635Y26843D01*
X-3699935Y26392D01*
X-3700235Y26043D01*
X-3700485Y25742D01*
X-3700735Y25492D01*
X-3700885Y25343D01*
X-3700985Y25242D01*
X-3701035Y25192D01*
X-3701685Y24642D01*
X-3702335Y24192D01*
X-3703035Y23793D01*
X-3703785Y23442D01*
X-3704485Y23192D01*
X-3705185Y22942D01*
X-3706485Y22593D01*
X-3707085Y22442D01*
X-3707685Y22343D01*
X-3708185Y22293D01*
X-3708585Y22242D01*
X-3708935Y22192D01*
X-3709435D01*
X-3710485Y22242D01*
X-3711435Y22343D01*
X-3712385Y22492D01*
X-3713235Y22742D01*
X-3714085Y22992D01*
X-3714835Y23293D01*
X-3715535Y23593D01*
X-3716185Y23942D01*
X-3716735Y24242D01*
X-3717235Y24543D01*
X-3717685Y24843D01*
X-3718035Y25093D01*
X-3718335Y25343D01*
X-3718535Y25492D01*
X-3718635Y25593D01*
X-3718685Y25642D01*
X-3719335Y26293D01*
X-3719885Y26992D01*
X-3720385Y27742D01*
X-3720835Y28442D01*
X-3721185Y29192D01*
X-3721485Y29892D01*
X-3721735Y30593D01*
X-3721935Y31242D01*
X-3722085Y31843D01*
X-3722185Y32392D01*
X-3722285Y32892D01*
X-3722335Y33343D01*
X-3722385Y33693D01*
Y33992D01*
Y34142D01*
Y34193D01*
X-3722285Y35542D01*
X-3722085Y36693D01*
X-3721785Y37742D01*
X-3721435Y38642D01*
X-3721085Y39392D01*
X-3720935Y39642D01*
X-3720785Y39892D01*
X-3720685Y40093D01*
X-3720585Y40242D01*
X-3720485Y40292D01*
Y40343D01*
X-3719735Y41193D01*
X-3718835Y41892D01*
X-3717985Y42492D01*
X-3717135Y42943D01*
X-3716385Y43242D01*
X-3716035Y43392D01*
X-3715735Y43492D01*
X-3715535Y43542D01*
X-3715335Y43593D01*
X-3715235Y43642D01*
X-3715185D01*
X-3716085Y44142D01*
X-3716885Y44642D01*
X-3717585Y45193D01*
X-3718135Y45742D01*
X-3718585Y46193D01*
X-3718885Y46542D01*
X-3719085Y46792D01*
X-3719135Y46892D01*
X-3719585Y47693D01*
X-3719935Y48492D01*
X-3720135Y49242D01*
X-3720335Y49943D01*
X-3720435Y50542D01*
X-3720485Y51042D01*
Y51343D01*
Y51392D01*
Y51443D01*
X-3720435Y52392D01*
X-3720285Y53292D01*
X-3720035Y54142D01*
X-3719785Y54892D01*
X-3719485Y55492D01*
X-3719285Y55992D01*
X-3719085Y56292D01*
X-3719035Y56343D01*
Y56392D01*
X-3718485Y57242D01*
X-3717835Y57943D01*
X-3717135Y58593D01*
X-3716485Y59142D01*
X-3715885Y59542D01*
X-3715435Y59843D01*
X-3715235Y59943D01*
X-3715085Y60042D01*
X-3715035Y60093D01*
X-3714985D01*
X-3713985Y60542D01*
X-3712985Y60892D01*
X-3712035Y61093D01*
X-3711135Y61292D01*
X-3710385Y61392D01*
X-3710035D01*
X-3709785Y61443D01*
X-3709235D01*
X-3708385Y61392D01*
D02*
G37*
G36*
X-3900635Y61392D02*
X-3899585Y61242D01*
X-3898585Y61042D01*
X-3897635Y60742D01*
X-3896785Y60392D01*
X-3895985Y60042D01*
X-3895235Y59642D01*
X-3894585Y59242D01*
X-3894035Y58792D01*
X-3893485Y58392D01*
X-3893035Y58042D01*
X-3892685Y57692D01*
X-3892385Y57392D01*
X-3892185Y57192D01*
X-3892085Y57042D01*
X-3892035Y56992D01*
X-3891335Y55992D01*
X-3890685Y54842D01*
X-3890135Y53642D01*
X-3889685Y52342D01*
X-3889285Y50992D01*
X-3888935Y49642D01*
X-3888685Y48292D01*
X-3888435Y46992D01*
X-3888285Y45742D01*
X-3888135Y44592D01*
X-3888085Y43542D01*
X-3887985Y42592D01*
Y41842D01*
X-3887935Y41542D01*
Y41292D01*
Y41092D01*
Y40942D01*
Y40842D01*
Y40792D01*
X-3887985Y38992D01*
X-3888085Y37342D01*
X-3888285Y35792D01*
X-3888535Y34342D01*
X-3888785Y33092D01*
X-3889085Y31892D01*
X-3889435Y30842D01*
X-3889785Y29892D01*
X-3890135Y29092D01*
X-3890485Y28392D01*
X-3890785Y27792D01*
X-3891035Y27342D01*
X-3891285Y26942D01*
X-3891485Y26692D01*
X-3891585Y26542D01*
X-3891635Y26492D01*
X-3892385Y25742D01*
X-3893135Y25092D01*
X-3893935Y24492D01*
X-3894735Y23992D01*
X-3895535Y23592D01*
X-3896335Y23242D01*
X-3897135Y22942D01*
X-3897885Y22742D01*
X-3898585Y22542D01*
X-3899235Y22442D01*
X-3899785Y22342D01*
X-3900285Y22242D01*
X-3900735D01*
X-3901035Y22192D01*
X-3901285D01*
X-3902535Y22242D01*
X-3903685Y22442D01*
X-3904735Y22692D01*
X-3905635Y23042D01*
X-3906385Y23342D01*
X-3906685Y23442D01*
X-3906985Y23592D01*
X-3907185Y23692D01*
X-3907335Y23792D01*
X-3907385Y23842D01*
X-3907435D01*
X-3908435Y24542D01*
X-3909285Y25292D01*
X-3909985Y26092D01*
X-3910635Y26842D01*
X-3911085Y27542D01*
X-3911435Y28092D01*
X-3911585Y28292D01*
X-3911685Y28442D01*
X-3911735Y28542D01*
Y28592D01*
X-3912285Y29792D01*
X-3912685Y30942D01*
X-3912935Y32092D01*
X-3913135Y33092D01*
X-3913235Y33992D01*
X-3913285Y34342D01*
X-3913335Y34692D01*
Y34942D01*
Y35142D01*
Y35242D01*
Y35292D01*
X-3913285Y36292D01*
X-3913185Y37242D01*
X-3913035Y38142D01*
X-3912835Y39042D01*
X-3912535Y39842D01*
X-3912285Y40542D01*
X-3911985Y41242D01*
X-3911685Y41842D01*
X-3911335Y42392D01*
X-3911035Y42892D01*
X-3910785Y43292D01*
X-3910535Y43642D01*
X-3910285Y43942D01*
X-3910135Y44142D01*
X-3910035Y44242D01*
X-3909985Y44292D01*
X-3909335Y44892D01*
X-3908685Y45442D01*
X-3908035Y45892D01*
X-3907335Y46342D01*
X-3906635Y46642D01*
X-3905985Y46942D01*
X-3905335Y47192D01*
X-3904735Y47342D01*
X-3904135Y47492D01*
X-3903635Y47592D01*
X-3903135Y47692D01*
X-3902735Y47742D01*
X-3902385Y47792D01*
X-3901935D01*
X-3900935Y47742D01*
X-3899985Y47592D01*
X-3899135Y47392D01*
X-3898335Y47142D01*
X-3897685Y46892D01*
X-3897235Y46692D01*
X-3897035Y46592D01*
X-3896885Y46542D01*
X-3896835Y46492D01*
X-3896785D01*
X-3895885Y45992D01*
X-3895085Y45342D01*
X-3894385Y44742D01*
X-3893785Y44092D01*
X-3893285Y43542D01*
X-3892935Y43092D01*
X-3892735Y42742D01*
X-3892635Y42692D01*
Y43692D01*
X-3892685Y44692D01*
X-3892785Y45642D01*
X-3892885Y46492D01*
X-3892985Y47292D01*
X-3893085Y47992D01*
X-3893185Y48692D01*
X-3893285Y49292D01*
X-3893435Y49792D01*
X-3893535Y50242D01*
X-3893635Y50642D01*
X-3893735Y50992D01*
X-3893835Y51242D01*
X-3893885Y51392D01*
X-3893935Y51492D01*
Y51542D01*
X-3894485Y52642D01*
X-3895035Y53592D01*
X-3895635Y54392D01*
X-3896185Y55042D01*
X-3896685Y55592D01*
X-3897085Y55942D01*
X-3897335Y56192D01*
X-3897435Y56242D01*
X-3898135Y56692D01*
X-3898785Y56992D01*
X-3899485Y57242D01*
X-3900085Y57392D01*
X-3900635Y57492D01*
X-3901035Y57542D01*
X-3901435D01*
X-3902435Y57442D01*
X-3903385Y57242D01*
X-3904185Y56892D01*
X-3904885Y56542D01*
X-3905435Y56192D01*
X-3905835Y55842D01*
X-3906085Y55642D01*
X-3906185Y55542D01*
X-3906585Y54992D01*
X-3906935Y54392D01*
X-3907285Y53742D01*
X-3907535Y53092D01*
X-3907735Y52492D01*
X-3907885Y51992D01*
X-3907935Y51792D01*
Y51642D01*
X-3907985Y51592D01*
Y51542D01*
X-3912685Y51892D01*
X-3912535Y52692D01*
X-3912385Y53492D01*
X-3911885Y54842D01*
X-3911585Y55492D01*
X-3911335Y56042D01*
X-3911035Y56592D01*
X-3910735Y57042D01*
X-3910435Y57492D01*
X-3910135Y57842D01*
X-3909885Y58142D01*
X-3909635Y58442D01*
X-3909435Y58642D01*
X-3909335Y58792D01*
X-3909235Y58842D01*
X-3909185Y58892D01*
X-3908635Y59342D01*
X-3908035Y59742D01*
X-3907435Y60092D01*
X-3906785Y60392D01*
X-3905535Y60842D01*
X-3904385Y61142D01*
X-3903835Y61242D01*
X-3903335Y61292D01*
X-3902885Y61342D01*
X-3902485Y61392D01*
X-3902185Y61442D01*
X-3901735D01*
X-3900635Y61392D01*
D02*
G37*
G36*
X-3559385Y34392D02*
X-3573885D01*
Y39142D01*
X-3559385D01*
Y34392D01*
D02*
G37*
G36*
X-3726535D02*
X-3741035D01*
Y39142D01*
X-3726535D01*
Y34392D01*
D02*
G37*
G36*
X-3786185D02*
X-3800685D01*
Y39142D01*
X-3786185D01*
Y34392D01*
D02*
G37*
G36*
X-3839885Y34392D02*
X-3854385D01*
Y39142D01*
X-3839885D01*
Y34392D01*
D02*
G37*
G36*
X-3537835Y61843D02*
X-3536085Y61593D01*
X-3534485Y61193D01*
X-3533785Y60992D01*
X-3533085Y60792D01*
X-3532485Y60542D01*
X-3531935Y60343D01*
X-3531485Y60142D01*
X-3531085Y59943D01*
X-3530785Y59792D01*
X-3530535Y59693D01*
X-3530385Y59642D01*
X-3530335Y59593D01*
X-3529585Y59142D01*
X-3528835Y58642D01*
X-3527535Y57542D01*
X-3526385Y56443D01*
X-3525485Y55343D01*
X-3525085Y54792D01*
X-3524735Y54343D01*
X-3524435Y53892D01*
X-3524235Y53542D01*
X-3524035Y53242D01*
X-3523885Y52992D01*
X-3523835Y52843D01*
X-3523785Y52792D01*
X-3523385Y51943D01*
X-3523035Y51042D01*
X-3522485Y49292D01*
X-3522085Y47542D01*
X-3521935Y46693D01*
X-3521835Y45892D01*
X-3521735Y45142D01*
X-3521635Y44492D01*
X-3521585Y43892D01*
Y43343D01*
X-3521535Y42943D01*
Y42593D01*
Y42392D01*
Y42343D01*
X-3521635Y40343D01*
X-3521835Y38392D01*
X-3521985Y37542D01*
X-3522185Y36693D01*
X-3522335Y35892D01*
X-3522535Y35142D01*
X-3522735Y34443D01*
X-3522885Y33843D01*
X-3523085Y33343D01*
X-3523235Y32892D01*
X-3523335Y32542D01*
X-3523435Y32242D01*
X-3523535Y32093D01*
Y32042D01*
X-3523935Y31192D01*
X-3524385Y30343D01*
X-3524835Y29593D01*
X-3525335Y28892D01*
X-3525835Y28192D01*
X-3526335Y27593D01*
X-3526785Y27043D01*
X-3527285Y26593D01*
X-3527735Y26142D01*
X-3528135Y25742D01*
X-3528535Y25442D01*
X-3528835Y25192D01*
X-3529135Y24942D01*
X-3529335Y24793D01*
X-3529435Y24742D01*
X-3529485Y24692D01*
X-3530235Y24242D01*
X-3531035Y23892D01*
X-3531885Y23543D01*
X-3532735Y23242D01*
X-3534435Y22793D01*
X-3536035Y22492D01*
X-3536785Y22392D01*
X-3537435Y22343D01*
X-3538085Y22293D01*
X-3538585Y22242D01*
X-3539035Y22192D01*
X-3539635D01*
X-3540735Y22242D01*
X-3541785Y22343D01*
X-3542785Y22492D01*
X-3543735Y22692D01*
X-3544635Y22942D01*
X-3545485Y23242D01*
X-3546235Y23492D01*
X-3546985Y23843D01*
X-3547585Y24142D01*
X-3548135Y24392D01*
X-3548635Y24692D01*
X-3549035Y24942D01*
X-3549385Y25142D01*
X-3549585Y25293D01*
X-3549735Y25392D01*
X-3549785Y25442D01*
X-3550535Y26093D01*
X-3551235Y26793D01*
X-3551885Y27543D01*
X-3552435Y28343D01*
X-3552985Y29142D01*
X-3553435Y29892D01*
X-3553885Y30692D01*
X-3554235Y31442D01*
X-3554585Y32193D01*
X-3554835Y32843D01*
X-3555085Y33443D01*
X-3555285Y33943D01*
X-3555385Y34392D01*
X-3555485Y34742D01*
X-3555585Y34943D01*
Y34992D01*
X-3550485Y36292D01*
X-3550235Y35392D01*
X-3549985Y34593D01*
X-3549685Y33843D01*
X-3549385Y33093D01*
X-3549035Y32443D01*
X-3548735Y31843D01*
X-3548385Y31293D01*
X-3548035Y30843D01*
X-3547735Y30392D01*
X-3547435Y30043D01*
X-3547135Y29692D01*
X-3546935Y29442D01*
X-3546735Y29242D01*
X-3546585Y29093D01*
X-3546485Y29043D01*
X-3546435Y28992D01*
X-3545885Y28543D01*
X-3545285Y28192D01*
X-3544685Y27843D01*
X-3544035Y27593D01*
X-3542835Y27142D01*
X-3541685Y26843D01*
X-3541185Y26742D01*
X-3540685Y26692D01*
X-3540285Y26642D01*
X-3539885Y26593D01*
X-3539585Y26543D01*
X-3539185D01*
X-3537885Y26642D01*
X-3536685Y26843D01*
X-3535585Y27093D01*
X-3534585Y27442D01*
X-3533785Y27793D01*
X-3533435Y27942D01*
X-3533185Y28043D01*
X-3532935Y28192D01*
X-3532785Y28242D01*
X-3532685Y28343D01*
X-3532635D01*
X-3531585Y29093D01*
X-3530685Y29942D01*
X-3529935Y30843D01*
X-3529285Y31742D01*
X-3528785Y32542D01*
X-3528635Y32892D01*
X-3528485Y33193D01*
X-3528335Y33443D01*
X-3528235Y33642D01*
X-3528185Y33742D01*
Y33792D01*
X-3527735Y35193D01*
X-3527385Y36693D01*
X-3527135Y38093D01*
X-3526985Y39443D01*
X-3526885Y40042D01*
Y40593D01*
X-3526835Y41093D01*
X-3526785Y41542D01*
Y41892D01*
Y42142D01*
Y42292D01*
Y42343D01*
X-3526835Y43742D01*
X-3526985Y45093D01*
X-3527185Y46343D01*
X-3527385Y47492D01*
X-3527485Y47943D01*
X-3527585Y48392D01*
X-3527685Y48792D01*
X-3527785Y49142D01*
X-3527885Y49392D01*
X-3527935Y49593D01*
X-3527985Y49693D01*
Y49742D01*
X-3528485Y51042D01*
X-3529135Y52142D01*
X-3529835Y53142D01*
X-3530535Y53943D01*
X-3531135Y54593D01*
X-3531635Y55042D01*
X-3531835Y55242D01*
X-3531985Y55343D01*
X-3532085Y55443D01*
X-3532135D01*
X-3532735Y55843D01*
X-3533335Y56142D01*
X-3534585Y56693D01*
X-3535835Y57093D01*
X-3536985Y57343D01*
X-3537535Y57392D01*
X-3538035Y57492D01*
X-3538485Y57542D01*
X-3538835D01*
X-3539135Y57593D01*
X-3539585D01*
X-3540985Y57492D01*
X-3542235Y57292D01*
X-3543335Y56992D01*
X-3544285Y56642D01*
X-3545035Y56242D01*
X-3545335Y56093D01*
X-3545585Y55943D01*
X-3545785Y55843D01*
X-3545935Y55742D01*
X-3545985Y55642D01*
X-3546035D01*
X-3546485Y55242D01*
X-3546935Y54843D01*
X-3547735Y53892D01*
X-3548385Y52892D01*
X-3548935Y51892D01*
X-3549385Y50992D01*
X-3549535Y50593D01*
X-3549685Y50242D01*
X-3549785Y49943D01*
X-3549885Y49742D01*
X-3549935Y49593D01*
Y49542D01*
X-3554935Y50742D01*
X-3554635Y51693D01*
X-3554235Y52642D01*
X-3553835Y53492D01*
X-3553385Y54292D01*
X-3552935Y54992D01*
X-3552485Y55693D01*
X-3552035Y56292D01*
X-3551585Y56843D01*
X-3551135Y57343D01*
X-3550735Y57792D01*
X-3550335Y58142D01*
X-3550035Y58443D01*
X-3549785Y58693D01*
X-3549535Y58843D01*
X-3549435Y58943D01*
X-3549385Y58992D01*
X-3548635Y59492D01*
X-3547835Y59992D01*
X-3547035Y60343D01*
X-3546235Y60693D01*
X-3545385Y60992D01*
X-3544585Y61242D01*
X-3543085Y61593D01*
X-3542385Y61693D01*
X-3541735Y61792D01*
X-3541135Y61843D01*
X-3540635Y61892D01*
X-3540235Y61943D01*
X-3538735D01*
X-3537835Y61843D01*
D02*
G37*
G36*
X-3802335Y22843D02*
X-3807685Y22842D01*
X-3811885Y34492D01*
X-3827985D01*
X-3832435Y22842D01*
X-3838185D01*
X-3822535Y61292D01*
X-3816985D01*
X-3802335Y22843D01*
D02*
G37*
G36*
X-3588835Y61343D02*
X-3587485Y61093D01*
X-3586285Y60742D01*
X-3585285Y60343D01*
X-3584835Y60093D01*
X-3584485Y59892D01*
X-3584135Y59693D01*
X-3583885Y59542D01*
X-3583685Y59392D01*
X-3583535Y59292D01*
X-3583435Y59242D01*
X-3583385Y59193D01*
X-3582435Y58292D01*
X-3581585Y57242D01*
X-3580885Y56142D01*
X-3580285Y55142D01*
X-3579835Y54193D01*
X-3579635Y53792D01*
X-3579485Y53443D01*
X-3579385Y53142D01*
X-3579285Y52943D01*
X-3579235Y52792D01*
Y52742D01*
X-3578985Y51943D01*
X-3578785Y51093D01*
X-3578435Y49292D01*
X-3578185Y47443D01*
X-3578035Y45693D01*
X-3577935Y44892D01*
Y44142D01*
X-3577885Y43492D01*
X-3577835Y42943D01*
Y42443D01*
Y42093D01*
Y41892D01*
Y41792D01*
X-3577885Y39843D01*
X-3577985Y37992D01*
X-3578185Y36343D01*
X-3578435Y34792D01*
X-3578685Y33343D01*
X-3579035Y32093D01*
X-3579385Y30942D01*
X-3579735Y29892D01*
X-3580085Y28992D01*
X-3580385Y28242D01*
X-3580735Y27593D01*
X-3580985Y27043D01*
X-3581235Y26642D01*
X-3581435Y26392D01*
X-3581535Y26192D01*
X-3581585Y26142D01*
X-3582235Y25442D01*
X-3582885Y24843D01*
X-3583585Y24293D01*
X-3584285Y23843D01*
X-3585035Y23492D01*
X-3585785Y23142D01*
X-3586485Y22892D01*
X-3587185Y22692D01*
X-3587835Y22543D01*
X-3588435Y22392D01*
X-3588935Y22293D01*
X-3589435Y22242D01*
X-3589785D01*
X-3590085Y22192D01*
X-3590335D01*
X-3591085Y22242D01*
X-3591835Y22293D01*
X-3593185Y22543D01*
X-3594385Y22892D01*
X-3595385Y23343D01*
X-3595835Y23543D01*
X-3596185Y23742D01*
X-3596535Y23942D01*
X-3596785Y24093D01*
X-3596985Y24242D01*
X-3597185Y24343D01*
X-3597235Y24442D01*
X-3597285D01*
X-3598285Y25343D01*
X-3599135Y26392D01*
X-3599835Y27442D01*
X-3600435Y28492D01*
X-3600885Y29392D01*
X-3601085Y29793D01*
X-3601235Y30142D01*
X-3601335Y30442D01*
X-3601435Y30642D01*
X-3601485Y30793D01*
Y30843D01*
X-3601735Y31642D01*
X-3601935Y32492D01*
X-3602285Y34292D01*
X-3602535Y36142D01*
X-3602735Y37892D01*
X-3602785Y38693D01*
X-3602835Y39443D01*
Y40093D01*
X-3602885Y40642D01*
Y41142D01*
Y41492D01*
Y41693D01*
Y41792D01*
Y42843D01*
X-3602835Y43843D01*
X-3602785Y44742D01*
X-3602735Y45593D01*
X-3602685Y46443D01*
X-3602585Y47142D01*
X-3602535Y47843D01*
X-3602435Y48443D01*
X-3602335Y48992D01*
X-3602285Y49492D01*
X-3602185Y49892D01*
X-3602135Y50242D01*
X-3602085Y50492D01*
X-3602035Y50693D01*
X-3601985Y50792D01*
Y50843D01*
X-3601635Y52042D01*
X-3601285Y53193D01*
X-3600885Y54142D01*
X-3600485Y54992D01*
X-3600135Y55693D01*
X-3599885Y56193D01*
X-3599785Y56343D01*
X-3599685Y56492D01*
X-3599635Y56542D01*
Y56593D01*
X-3599035Y57443D01*
X-3598385Y58142D01*
X-3597735Y58742D01*
X-3597135Y59292D01*
X-3596585Y59693D01*
X-3596185Y59943D01*
X-3595885Y60142D01*
X-3595835Y60193D01*
X-3595785D01*
X-3594885Y60593D01*
X-3593935Y60892D01*
X-3593035Y61142D01*
X-3592185Y61292D01*
X-3591435Y61392D01*
X-3591135D01*
X-3590835Y61443D01*
X-3589585D01*
X-3588835Y61343D01*
D02*
G37*
G36*
X-3618685D02*
X-3617335Y61093D01*
X-3616135Y60742D01*
X-3615135Y60343D01*
X-3614685Y60093D01*
X-3614335Y59892D01*
X-3613985Y59693D01*
X-3613735Y59542D01*
X-3613535Y59392D01*
X-3613385Y59292D01*
X-3613285Y59242D01*
X-3613235Y59193D01*
X-3612285Y58292D01*
X-3611435Y57242D01*
X-3610735Y56142D01*
X-3610135Y55142D01*
X-3609685Y54193D01*
X-3609485Y53792D01*
X-3609335Y53443D01*
X-3609235Y53142D01*
X-3609135Y52943D01*
X-3609085Y52792D01*
Y52742D01*
X-3608835Y51943D01*
X-3608635Y51093D01*
X-3608285Y49292D01*
X-3608035Y47443D01*
X-3607885Y45693D01*
X-3607785Y44892D01*
Y44142D01*
X-3607735Y43492D01*
X-3607685Y42943D01*
Y42443D01*
Y42093D01*
Y41892D01*
Y41792D01*
X-3607735Y39843D01*
X-3607835Y37992D01*
X-3608035Y36343D01*
X-3608285Y34792D01*
X-3608535Y33343D01*
X-3608885Y32093D01*
X-3609235Y30942D01*
X-3609585Y29892D01*
X-3609935Y28992D01*
X-3610235Y28242D01*
X-3610585Y27593D01*
X-3610835Y27043D01*
X-3611085Y26642D01*
X-3611285Y26392D01*
X-3611385Y26192D01*
X-3611435Y26142D01*
X-3612085Y25442D01*
X-3612735Y24843D01*
X-3613435Y24293D01*
X-3614135Y23843D01*
X-3614885Y23492D01*
X-3615635Y23142D01*
X-3616335Y22892D01*
X-3617035Y22692D01*
X-3617685Y22543D01*
X-3618285Y22392D01*
X-3618785Y22293D01*
X-3619285Y22242D01*
X-3619635D01*
X-3619935Y22192D01*
X-3620185D01*
X-3620935Y22242D01*
X-3621685Y22293D01*
X-3623035Y22543D01*
X-3624235Y22892D01*
X-3625235Y23343D01*
X-3625685Y23543D01*
X-3626035Y23742D01*
X-3626385Y23942D01*
X-3626635Y24093D01*
X-3626835Y24242D01*
X-3627035Y24343D01*
X-3627085Y24442D01*
X-3627135D01*
X-3628135Y25343D01*
X-3628985Y26392D01*
X-3629685Y27442D01*
X-3630285Y28492D01*
X-3630735Y29392D01*
X-3630935Y29793D01*
X-3631085Y30142D01*
X-3631185Y30442D01*
X-3631285Y30642D01*
X-3631335Y30793D01*
Y30843D01*
X-3631585Y31642D01*
X-3631785Y32492D01*
X-3632135Y34292D01*
X-3632385Y36142D01*
X-3632585Y37892D01*
X-3632635Y38693D01*
X-3632685Y39443D01*
Y40093D01*
X-3632735Y40642D01*
Y41142D01*
Y41492D01*
Y41693D01*
Y41792D01*
Y42843D01*
X-3632685Y43843D01*
X-3632635Y44742D01*
X-3632585Y45593D01*
X-3632535Y46443D01*
X-3632435Y47142D01*
X-3632385Y47843D01*
X-3632285Y48443D01*
X-3632185Y48992D01*
X-3632135Y49492D01*
X-3632035Y49892D01*
X-3631985Y50242D01*
X-3631935Y50492D01*
X-3631885Y50693D01*
X-3631835Y50792D01*
Y50843D01*
X-3631485Y52042D01*
X-3631135Y53193D01*
X-3630735Y54142D01*
X-3630335Y54992D01*
X-3629985Y55693D01*
X-3629735Y56193D01*
X-3629635Y56343D01*
X-3629535Y56492D01*
X-3629485Y56542D01*
Y56593D01*
X-3628885Y57443D01*
X-3628235Y58142D01*
X-3627585Y58742D01*
X-3626985Y59292D01*
X-3626435Y59693D01*
X-3626035Y59943D01*
X-3625735Y60142D01*
X-3625685Y60193D01*
X-3625635D01*
X-3624735Y60593D01*
X-3623785Y60892D01*
X-3622885Y61142D01*
X-3622035Y61292D01*
X-3621285Y61392D01*
X-3620985D01*
X-3620685Y61443D01*
X-3619435D01*
X-3618685Y61343D01*
D02*
G37*
G36*
X-3648535D02*
X-3647185Y61093D01*
X-3645985Y60742D01*
X-3644985Y60343D01*
X-3644535Y60093D01*
X-3644185Y59892D01*
X-3643835Y59693D01*
X-3643585Y59542D01*
X-3643385Y59392D01*
X-3643235Y59292D01*
X-3643135Y59242D01*
X-3643085Y59193D01*
X-3642135Y58292D01*
X-3641285Y57242D01*
X-3640585Y56142D01*
X-3639985Y55142D01*
X-3639535Y54193D01*
X-3639335Y53792D01*
X-3639185Y53443D01*
X-3639085Y53142D01*
X-3638985Y52943D01*
X-3638935Y52792D01*
Y52742D01*
X-3638685Y51943D01*
X-3638485Y51093D01*
X-3638135Y49292D01*
X-3637885Y47443D01*
X-3637735Y45693D01*
X-3637635Y44892D01*
Y44142D01*
X-3637585Y43492D01*
X-3637535Y42943D01*
Y42443D01*
Y42093D01*
Y41892D01*
Y41792D01*
X-3637585Y39843D01*
X-3637685Y37992D01*
X-3637885Y36343D01*
X-3638135Y34792D01*
X-3638385Y33343D01*
X-3638735Y32093D01*
X-3639085Y30942D01*
X-3639435Y29892D01*
X-3639785Y28992D01*
X-3640085Y28242D01*
X-3640435Y27593D01*
X-3640685Y27043D01*
X-3640935Y26642D01*
X-3641135Y26392D01*
X-3641235Y26192D01*
X-3641285Y26142D01*
X-3641935Y25442D01*
X-3642585Y24843D01*
X-3643285Y24293D01*
X-3643985Y23843D01*
X-3644735Y23492D01*
X-3645485Y23142D01*
X-3646185Y22892D01*
X-3646885Y22692D01*
X-3647535Y22543D01*
X-3648135Y22392D01*
X-3648635Y22293D01*
X-3649135Y22242D01*
X-3649485D01*
X-3649785Y22192D01*
X-3650035D01*
X-3650785Y22242D01*
X-3651535Y22293D01*
X-3652885Y22543D01*
X-3654085Y22892D01*
X-3655085Y23343D01*
X-3655535Y23543D01*
X-3655885Y23742D01*
X-3656235Y23942D01*
X-3656485Y24093D01*
X-3656685Y24242D01*
X-3656885Y24343D01*
X-3656935Y24442D01*
X-3656985D01*
X-3657985Y25343D01*
X-3658835Y26392D01*
X-3659535Y27442D01*
X-3660135Y28492D01*
X-3660585Y29392D01*
X-3660785Y29793D01*
X-3660935Y30142D01*
X-3661035Y30442D01*
X-3661135Y30642D01*
X-3661185Y30793D01*
Y30843D01*
X-3661435Y31642D01*
X-3661635Y32492D01*
X-3661985Y34292D01*
X-3662235Y36142D01*
X-3662435Y37892D01*
X-3662485Y38693D01*
X-3662535Y39443D01*
Y40093D01*
X-3662585Y40642D01*
Y41142D01*
Y41492D01*
Y41693D01*
Y41792D01*
Y42843D01*
X-3662535Y43843D01*
X-3662485Y44742D01*
X-3662435Y45593D01*
X-3662385Y46443D01*
X-3662285Y47142D01*
X-3662235Y47843D01*
X-3662135Y48443D01*
X-3662035Y48992D01*
X-3661985Y49492D01*
X-3661885Y49892D01*
X-3661835Y50242D01*
X-3661785Y50492D01*
X-3661735Y50693D01*
X-3661685Y50792D01*
Y50843D01*
X-3661335Y52042D01*
X-3660985Y53193D01*
X-3660585Y54142D01*
X-3660185Y54992D01*
X-3659835Y55693D01*
X-3659585Y56193D01*
X-3659485Y56343D01*
X-3659385Y56492D01*
X-3659335Y56542D01*
Y56593D01*
X-3658735Y57443D01*
X-3658085Y58142D01*
X-3657435Y58742D01*
X-3656835Y59292D01*
X-3656285Y59693D01*
X-3655885Y59943D01*
X-3655585Y60142D01*
X-3655535Y60193D01*
X-3655485D01*
X-3654585Y60593D01*
X-3653635Y60892D01*
X-3652735Y61142D01*
X-3651885Y61292D01*
X-3651135Y61392D01*
X-3650835D01*
X-3650535Y61443D01*
X-3649285D01*
X-3648535Y61343D01*
D02*
G37*
G36*
X-3678385D02*
X-3677035Y61093D01*
X-3675835Y60742D01*
X-3674835Y60343D01*
X-3674385Y60093D01*
X-3674035Y59892D01*
X-3673685Y59693D01*
X-3673435Y59542D01*
X-3673235Y59392D01*
X-3673085Y59292D01*
X-3672985Y59242D01*
X-3672935Y59193D01*
X-3671985Y58292D01*
X-3671135Y57242D01*
X-3670435Y56142D01*
X-3669835Y55142D01*
X-3669385Y54193D01*
X-3669185Y53792D01*
X-3669035Y53443D01*
X-3668935Y53142D01*
X-3668835Y52943D01*
X-3668785Y52792D01*
Y52742D01*
X-3668535Y51943D01*
X-3668335Y51093D01*
X-3667985Y49292D01*
X-3667735Y47443D01*
X-3667585Y45693D01*
X-3667485Y44892D01*
Y44142D01*
X-3667435Y43492D01*
X-3667385Y42943D01*
Y42443D01*
Y42093D01*
Y41892D01*
Y41792D01*
X-3667435Y39843D01*
X-3667535Y37992D01*
X-3667735Y36343D01*
X-3667985Y34792D01*
X-3668235Y33343D01*
X-3668585Y32093D01*
X-3668935Y30942D01*
X-3669285Y29892D01*
X-3669635Y28992D01*
X-3669935Y28242D01*
X-3670285Y27593D01*
X-3670535Y27043D01*
X-3670785Y26642D01*
X-3670985Y26392D01*
X-3671085Y26192D01*
X-3671135Y26142D01*
X-3671785Y25442D01*
X-3672435Y24843D01*
X-3673135Y24293D01*
X-3673835Y23843D01*
X-3674585Y23492D01*
X-3675335Y23142D01*
X-3676035Y22892D01*
X-3676735Y22692D01*
X-3677385Y22543D01*
X-3677985Y22392D01*
X-3678485Y22293D01*
X-3678985Y22242D01*
X-3679335D01*
X-3679635Y22192D01*
X-3679885D01*
X-3680635Y22242D01*
X-3681385Y22293D01*
X-3682735Y22543D01*
X-3683935Y22892D01*
X-3684935Y23343D01*
X-3685385Y23543D01*
X-3685735Y23742D01*
X-3686085Y23942D01*
X-3686335Y24093D01*
X-3686535Y24242D01*
X-3686735Y24343D01*
X-3686785Y24442D01*
X-3686835D01*
X-3687835Y25343D01*
X-3688685Y26392D01*
X-3689385Y27442D01*
X-3689985Y28492D01*
X-3690435Y29392D01*
X-3690635Y29793D01*
X-3690785Y30142D01*
X-3690885Y30442D01*
X-3690985Y30642D01*
X-3691035Y30793D01*
Y30843D01*
X-3691285Y31642D01*
X-3691485Y32492D01*
X-3691835Y34292D01*
X-3692085Y36142D01*
X-3692285Y37892D01*
X-3692335Y38693D01*
X-3692385Y39443D01*
Y40093D01*
X-3692435Y40642D01*
Y41142D01*
Y41492D01*
Y41693D01*
Y41792D01*
Y42843D01*
X-3692385Y43843D01*
X-3692335Y44742D01*
X-3692285Y45593D01*
X-3692235Y46443D01*
X-3692135Y47142D01*
X-3692085Y47843D01*
X-3691985Y48443D01*
X-3691885Y48992D01*
X-3691835Y49492D01*
X-3691735Y49892D01*
X-3691685Y50242D01*
X-3691635Y50492D01*
X-3691585Y50693D01*
X-3691535Y50792D01*
Y50843D01*
X-3691185Y52042D01*
X-3690835Y53193D01*
X-3690435Y54142D01*
X-3690035Y54992D01*
X-3689685Y55693D01*
X-3689435Y56193D01*
X-3689335Y56343D01*
X-3689235Y56492D01*
X-3689185Y56542D01*
Y56593D01*
X-3688585Y57443D01*
X-3687935Y58142D01*
X-3687285Y58742D01*
X-3686685Y59292D01*
X-3686135Y59693D01*
X-3685735Y59943D01*
X-3685435Y60142D01*
X-3685385Y60193D01*
X-3685335D01*
X-3684435Y60593D01*
X-3683485Y60892D01*
X-3682585Y61142D01*
X-3681735Y61292D01*
X-3680985Y61392D01*
X-3680685D01*
X-3680385Y61443D01*
X-3679135D01*
X-3678385Y61343D01*
D02*
G37*
G36*
X-3762235Y61892D02*
X-3760835Y61693D01*
X-3759485Y61443D01*
X-3758235Y61093D01*
X-3757035Y60693D01*
X-3755935Y60242D01*
X-3754935Y59742D01*
X-3754035Y59242D01*
X-3753235Y58693D01*
X-3752485Y58242D01*
X-3751885Y57742D01*
X-3751385Y57343D01*
X-3750985Y56992D01*
X-3750685Y56742D01*
X-3750485Y56542D01*
X-3750435Y56492D01*
X-3749535Y55443D01*
X-3748735Y54292D01*
X-3748085Y53093D01*
X-3747485Y51892D01*
X-3746985Y50642D01*
X-3746585Y49392D01*
X-3746235Y48193D01*
X-3745985Y46992D01*
X-3745785Y45892D01*
X-3745585Y44843D01*
X-3745485Y43943D01*
X-3745435Y43142D01*
X-3745385Y42443D01*
X-3745335Y41943D01*
Y41792D01*
Y41642D01*
Y41593D01*
Y41542D01*
X-3745385Y40593D01*
X-3745435Y39693D01*
X-3745685Y37892D01*
X-3746035Y36292D01*
X-3746235Y35542D01*
X-3746435Y34843D01*
X-3746635Y34242D01*
X-3746835Y33642D01*
X-3747035Y33142D01*
X-3747185Y32742D01*
X-3747335Y32392D01*
X-3747435Y32142D01*
X-3747535Y31992D01*
Y31942D01*
X-3748435Y30343D01*
X-3749485Y28892D01*
X-3749985Y28293D01*
X-3750535Y27692D01*
X-3751085Y27142D01*
X-3751585Y26642D01*
X-3752085Y26242D01*
X-3752535Y25843D01*
X-3752935Y25543D01*
X-3753285Y25293D01*
X-3753585Y25043D01*
X-3753785Y24892D01*
X-3753935Y24843D01*
X-3753985Y24793D01*
X-3754785Y24343D01*
X-3755635Y23942D01*
X-3756435Y23593D01*
X-3757285Y23293D01*
X-3758935Y22843D01*
X-3760435Y22543D01*
X-3761135Y22392D01*
X-3761735Y22343D01*
X-3762285Y22293D01*
X-3762785Y22242D01*
X-3763135Y22192D01*
X-3763685D01*
X-3764635Y22242D01*
X-3765535Y22293D01*
X-3767235Y22543D01*
X-3768835Y22942D01*
X-3769535Y23142D01*
X-3770235Y23392D01*
X-3770835Y23593D01*
X-3771385Y23793D01*
X-3771835Y23992D01*
X-3772235Y24192D01*
X-3772535Y24343D01*
X-3772785Y24442D01*
X-3772935Y24543D01*
X-3772985D01*
X-3773785Y24992D01*
X-3774535Y25492D01*
X-3775885Y26642D01*
X-3777035Y27793D01*
X-3777535Y28343D01*
X-3777985Y28892D01*
X-3778385Y29442D01*
X-3778735Y29892D01*
X-3778985Y30343D01*
X-3779235Y30742D01*
X-3779435Y31043D01*
X-3779585Y31293D01*
X-3779635Y31442D01*
X-3779685Y31492D01*
X-3780085Y32392D01*
X-3780485Y33292D01*
X-3781085Y35093D01*
X-3781485Y36843D01*
X-3781635Y37693D01*
X-3781785Y38492D01*
X-3781885Y39242D01*
X-3781985Y39892D01*
X-3782035Y40492D01*
Y40992D01*
X-3782085Y41443D01*
Y41742D01*
Y41943D01*
Y41992D01*
Y43042D01*
X-3781985Y44093D01*
X-3781735Y46042D01*
X-3781585Y46943D01*
X-3781385Y47792D01*
X-3781185Y48593D01*
X-3780985Y49292D01*
X-3780735Y49943D01*
X-3780535Y50542D01*
X-3780335Y51042D01*
X-3780185Y51492D01*
X-3780035Y51843D01*
X-3779935Y52093D01*
X-3779885Y52242D01*
X-3779835Y52292D01*
X-3778885Y53892D01*
X-3778385Y54642D01*
X-3777885Y55343D01*
X-3777335Y55943D01*
X-3776785Y56542D01*
X-3776235Y57093D01*
X-3775735Y57542D01*
X-3775235Y57992D01*
X-3774785Y58343D01*
X-3774335Y58642D01*
X-3773985Y58943D01*
X-3773685Y59142D01*
X-3773485Y59292D01*
X-3773335Y59343D01*
X-3773285Y59392D01*
X-3772485Y59843D01*
X-3771635Y60242D01*
X-3770835Y60593D01*
X-3769985Y60892D01*
X-3768385Y61343D01*
X-3766935Y61642D01*
X-3766235Y61742D01*
X-3765635Y61792D01*
X-3765085Y61843D01*
X-3764635Y61892D01*
X-3764235Y61943D01*
X-3763735D01*
X-3762235Y61892D01*
D02*
G37*
G36*
X-3869335Y61342D02*
X-3867985Y61092D01*
X-3866785Y60742D01*
X-3865785Y60342D01*
X-3865335Y60092D01*
X-3864985Y59892D01*
X-3864635Y59692D01*
X-3864385Y59542D01*
X-3864185Y59392D01*
X-3864035Y59292D01*
X-3863935Y59242D01*
X-3863885Y59192D01*
X-3862935Y58292D01*
X-3862085Y57242D01*
X-3861385Y56142D01*
X-3860785Y55142D01*
X-3860335Y54192D01*
X-3860135Y53792D01*
X-3859985Y53442D01*
X-3859885Y53142D01*
X-3859785Y52942D01*
X-3859735Y52792D01*
Y52742D01*
X-3859485Y51942D01*
X-3859285Y51092D01*
X-3858935Y49292D01*
X-3858685Y47442D01*
X-3858535Y45692D01*
X-3858435Y44892D01*
Y44142D01*
X-3858385Y43492D01*
X-3858335Y42942D01*
Y42442D01*
Y42092D01*
Y41892D01*
Y41792D01*
X-3858385Y39842D01*
X-3858485Y37992D01*
X-3858685Y36342D01*
X-3858935Y34792D01*
X-3859185Y33342D01*
X-3859535Y32092D01*
X-3859885Y30942D01*
X-3860235Y29892D01*
X-3860585Y28992D01*
X-3860885Y28242D01*
X-3861235Y27592D01*
X-3861485Y27042D01*
X-3861735Y26642D01*
X-3861935Y26392D01*
X-3862035Y26192D01*
X-3862085Y26142D01*
X-3862735Y25442D01*
X-3863385Y24842D01*
X-3864085Y24292D01*
X-3864785Y23842D01*
X-3865535Y23492D01*
X-3866285Y23142D01*
X-3866985Y22892D01*
X-3867685Y22692D01*
X-3868335Y22542D01*
X-3868935Y22392D01*
X-3869435Y22292D01*
X-3869935Y22242D01*
X-3870285D01*
X-3870585Y22192D01*
X-3870835D01*
X-3871585Y22242D01*
X-3872335Y22292D01*
X-3873685Y22542D01*
X-3874885Y22892D01*
X-3875885Y23342D01*
X-3876335Y23542D01*
X-3876685Y23742D01*
X-3877035Y23942D01*
X-3877285Y24092D01*
X-3877485Y24242D01*
X-3877685Y24342D01*
X-3877735Y24442D01*
X-3877785D01*
X-3878785Y25342D01*
X-3879635Y26392D01*
X-3880335Y27442D01*
X-3880935Y28492D01*
X-3881385Y29392D01*
X-3881585Y29792D01*
X-3881735Y30142D01*
X-3881835Y30442D01*
X-3881935Y30642D01*
X-3881985Y30792D01*
Y30842D01*
X-3882235Y31642D01*
X-3882435Y32492D01*
X-3882785Y34292D01*
X-3883035Y36142D01*
X-3883235Y37892D01*
X-3883285Y38692D01*
X-3883335Y39442D01*
Y40092D01*
X-3883385Y40642D01*
Y41142D01*
Y41492D01*
Y41692D01*
Y41792D01*
Y42842D01*
X-3883335Y43842D01*
X-3883285Y44742D01*
X-3883235Y45592D01*
X-3883185Y46442D01*
X-3883085Y47142D01*
X-3883035Y47842D01*
X-3882935Y48442D01*
X-3882835Y48992D01*
X-3882785Y49492D01*
X-3882685Y49892D01*
X-3882635Y50242D01*
X-3882585Y50492D01*
X-3882535Y50692D01*
X-3882485Y50792D01*
Y50842D01*
X-3882135Y52042D01*
X-3881785Y53192D01*
X-3881385Y54142D01*
X-3880985Y54992D01*
X-3880635Y55692D01*
X-3880385Y56192D01*
X-3880285Y56342D01*
X-3880185Y56492D01*
X-3880135Y56542D01*
Y56592D01*
X-3879535Y57442D01*
X-3878885Y58142D01*
X-3878235Y58742D01*
X-3877635Y59292D01*
X-3877085Y59692D01*
X-3876685Y59942D01*
X-3876385Y60142D01*
X-3876335Y60192D01*
X-3876285D01*
X-3875385Y60592D01*
X-3874435Y60892D01*
X-3873535Y61142D01*
X-3872685Y61292D01*
X-3871935Y61392D01*
X-3871635D01*
X-3871335Y61442D01*
X-3870085D01*
X-3869335Y61342D01*
D02*
G37*
%LPC*%
G36*
X-3554685Y115543D02*
X-3554985D01*
X-3555585Y115493D01*
X-3556185Y115392D01*
X-3556735Y115243D01*
X-3557235Y115043D01*
X-3558185Y114543D01*
X-3558985Y113993D01*
X-3559635Y113392D01*
X-3560085Y112892D01*
X-3560285Y112692D01*
X-3560385Y112543D01*
X-3560485Y112442D01*
Y112392D01*
X-3560885Y111743D01*
X-3561235Y110942D01*
X-3561535Y110093D01*
X-3561785Y109142D01*
X-3561985Y108093D01*
X-3562185Y107043D01*
X-3562435Y104942D01*
X-3562535Y103942D01*
X-3562635Y102942D01*
X-3562685Y102093D01*
Y101343D01*
X-3562735Y100692D01*
Y100192D01*
Y99892D01*
Y99843D01*
Y99793D01*
Y98093D01*
X-3562635Y96543D01*
X-3562535Y95142D01*
X-3562385Y93843D01*
X-3562235Y92692D01*
X-3562035Y91642D01*
X-3561835Y90743D01*
X-3561635Y89942D01*
X-3561385Y89243D01*
X-3561185Y88692D01*
X-3560985Y88192D01*
X-3560835Y87843D01*
X-3560685Y87543D01*
X-3560585Y87343D01*
X-3560535Y87243D01*
X-3560485Y87192D01*
X-3560085Y86642D01*
X-3559635Y86192D01*
X-3559185Y85743D01*
X-3558685Y85392D01*
X-3558235Y85093D01*
X-3557785Y84843D01*
X-3556935Y84493D01*
X-3556185Y84243D01*
X-3555835Y84192D01*
X-3555585Y84142D01*
X-3555335Y84093D01*
X-3555035D01*
X-3554435Y84142D01*
X-3553885Y84243D01*
X-3553335Y84392D01*
X-3552835Y84593D01*
X-3551885Y85093D01*
X-3551085Y85642D01*
X-3550435Y86192D01*
X-3549985Y86692D01*
X-3549835Y86892D01*
X-3549685Y87043D01*
X-3549635Y87142D01*
X-3549585Y87192D01*
X-3549185Y87843D01*
X-3548885Y88642D01*
X-3548585Y89493D01*
X-3548335Y90493D01*
X-3548085Y91493D01*
X-3547935Y92543D01*
X-3547685Y94642D01*
X-3547585Y95692D01*
X-3547485Y96642D01*
X-3547435Y97493D01*
Y98243D01*
X-3547385Y98892D01*
Y99392D01*
Y99692D01*
Y99743D01*
Y99793D01*
X-3547435Y101493D01*
X-3547485Y103043D01*
X-3547585Y104493D01*
X-3547785Y105793D01*
X-3547935Y106993D01*
X-3548135Y108043D01*
X-3548385Y108993D01*
X-3548585Y109793D01*
X-3548835Y110543D01*
X-3549035Y111142D01*
X-3549235Y111642D01*
X-3549435Y112043D01*
X-3549585Y112343D01*
X-3549685Y112593D01*
X-3549735Y112692D01*
X-3549785Y112743D01*
X-3550185Y113243D01*
X-3550585Y113692D01*
X-3550985Y114043D01*
X-3551435Y114343D01*
X-3552285Y114843D01*
X-3553135Y115192D01*
X-3553835Y115392D01*
X-3554435Y115493D01*
X-3554685Y115543D01*
D02*
G37*
G36*
X-3584535D02*
X-3584835D01*
X-3585435Y115493D01*
X-3586035Y115392D01*
X-3586585Y115243D01*
X-3587085Y115043D01*
X-3588035Y114543D01*
X-3588835Y113993D01*
X-3589485Y113392D01*
X-3589935Y112892D01*
X-3590135Y112692D01*
X-3590235Y112543D01*
X-3590335Y112442D01*
Y112392D01*
X-3590735Y111743D01*
X-3591085Y110942D01*
X-3591385Y110093D01*
X-3591635Y109142D01*
X-3591835Y108093D01*
X-3592035Y107043D01*
X-3592285Y104942D01*
X-3592385Y103942D01*
X-3592485Y102942D01*
X-3592535Y102093D01*
Y101343D01*
X-3592585Y100692D01*
Y100192D01*
Y99892D01*
Y99843D01*
Y99793D01*
Y98093D01*
X-3592485Y96543D01*
X-3592385Y95142D01*
X-3592235Y93843D01*
X-3592085Y92692D01*
X-3591885Y91642D01*
X-3591685Y90743D01*
X-3591485Y89942D01*
X-3591235Y89243D01*
X-3591035Y88692D01*
X-3590835Y88192D01*
X-3590685Y87843D01*
X-3590535Y87543D01*
X-3590435Y87343D01*
X-3590385Y87243D01*
X-3590335Y87192D01*
X-3589935Y86642D01*
X-3589485Y86192D01*
X-3589035Y85743D01*
X-3588535Y85392D01*
X-3588085Y85093D01*
X-3587635Y84843D01*
X-3586785Y84493D01*
X-3586035Y84243D01*
X-3585685Y84192D01*
X-3585435Y84142D01*
X-3585185Y84093D01*
X-3584885D01*
X-3584285Y84142D01*
X-3583735Y84243D01*
X-3583185Y84392D01*
X-3582685Y84593D01*
X-3581735Y85093D01*
X-3580935Y85642D01*
X-3580285Y86192D01*
X-3579835Y86692D01*
X-3579685Y86892D01*
X-3579535Y87043D01*
X-3579485Y87142D01*
X-3579435Y87192D01*
X-3579035Y87843D01*
X-3578735Y88642D01*
X-3578435Y89493D01*
X-3578185Y90493D01*
X-3577935Y91493D01*
X-3577785Y92543D01*
X-3577535Y94642D01*
X-3577435Y95692D01*
X-3577335Y96642D01*
X-3577285Y97493D01*
Y98243D01*
X-3577235Y98892D01*
Y99392D01*
Y99692D01*
Y99743D01*
Y99793D01*
X-3577285Y101493D01*
X-3577335Y103043D01*
X-3577435Y104493D01*
X-3577635Y105793D01*
X-3577785Y106993D01*
X-3577985Y108043D01*
X-3578235Y108993D01*
X-3578435Y109793D01*
X-3578685Y110543D01*
X-3578885Y111142D01*
X-3579085Y111642D01*
X-3579285Y112043D01*
X-3579435Y112343D01*
X-3579535Y112593D01*
X-3579585Y112692D01*
X-3579635Y112743D01*
X-3580035Y113243D01*
X-3580435Y113692D01*
X-3580835Y114043D01*
X-3581285Y114343D01*
X-3582135Y114843D01*
X-3582985Y115192D01*
X-3583685Y115392D01*
X-3584285Y115493D01*
X-3584535Y115543D01*
D02*
G37*
G36*
X-3900685Y43642D02*
X-3901585D01*
X-3902135Y43542D01*
X-3903185Y43292D01*
X-3904085Y42892D01*
X-3904885Y42492D01*
X-3905485Y42092D01*
X-3905935Y41692D01*
X-3906235Y41442D01*
X-3906335Y41392D01*
Y41342D01*
X-3906735Y40892D01*
X-3907035Y40392D01*
X-3907585Y39392D01*
X-3907985Y38342D01*
X-3908235Y37342D01*
X-3908385Y36442D01*
X-3908435Y36042D01*
Y35692D01*
X-3908485Y35442D01*
Y35242D01*
Y35092D01*
Y35042D01*
Y34292D01*
X-3908385Y33592D01*
X-3908135Y32292D01*
X-3907785Y31142D01*
X-3907435Y30192D01*
X-3907235Y29842D01*
X-3907035Y29492D01*
X-3906835Y29192D01*
X-3906685Y28942D01*
X-3906535Y28742D01*
X-3906435Y28592D01*
X-3906385Y28542D01*
X-3906335Y28492D01*
X-3905935Y28092D01*
X-3905485Y27692D01*
X-3904635Y27092D01*
X-3903785Y26692D01*
X-3902935Y26392D01*
X-3902235Y26242D01*
X-3901685Y26142D01*
X-3901485Y26092D01*
X-3901185D01*
X-3900435Y26142D01*
X-3899735Y26292D01*
X-3899035Y26442D01*
X-3898485Y26692D01*
X-3897985Y26892D01*
X-3897585Y27042D01*
X-3897385Y27192D01*
X-3897285Y27242D01*
X-3896635Y27742D01*
X-3896035Y28242D01*
X-3895535Y28792D01*
X-3895135Y29342D01*
X-3894835Y29842D01*
X-3894585Y30242D01*
X-3894435Y30492D01*
X-3894385Y30592D01*
X-3894035Y31442D01*
X-3893785Y32292D01*
X-3893635Y33092D01*
X-3893535Y33792D01*
X-3893435Y34392D01*
X-3893385Y34892D01*
Y35192D01*
Y35242D01*
Y35292D01*
X-3893435Y35992D01*
X-3893485Y36642D01*
X-3893735Y37842D01*
X-3894085Y38842D01*
X-3894485Y39742D01*
X-3894885Y40442D01*
X-3895235Y40942D01*
X-3895385Y41092D01*
X-3895485Y41242D01*
X-3895585Y41292D01*
Y41342D01*
X-3895985Y41742D01*
X-3896435Y42092D01*
X-3897335Y42692D01*
X-3898285Y43092D01*
X-3899135Y43342D01*
X-3899835Y43542D01*
X-3900185Y43592D01*
X-3900435D01*
X-3900685Y43642D01*
D02*
G37*
G36*
X-3819635Y57292D02*
X-3820035Y56042D01*
X-3820435Y54692D01*
X-3820885Y53342D01*
X-3821335Y52092D01*
X-3821535Y51492D01*
X-3821735Y50942D01*
X-3821935Y50442D01*
X-3822085Y50042D01*
X-3822185Y49692D01*
X-3822285Y49442D01*
X-3822385Y49292D01*
Y49242D01*
X-3826385Y38642D01*
X-3813335D01*
X-3817535Y49892D01*
X-3818035Y51242D01*
X-3818435Y52592D01*
X-3818785Y53842D01*
X-3819085Y54942D01*
X-3819235Y55442D01*
X-3819335Y55892D01*
X-3819435Y56292D01*
X-3819485Y56642D01*
X-3819535Y56942D01*
X-3819585Y57142D01*
X-3819635Y57242D01*
Y57292D01*
D02*
G37*
G36*
X-3589985Y57542D02*
X-3590285D01*
X-3590885Y57492D01*
X-3591485Y57392D01*
X-3592035Y57242D01*
X-3592535Y57042D01*
X-3593485Y56542D01*
X-3594285Y55992D01*
X-3594935Y55392D01*
X-3595385Y54892D01*
X-3595585Y54693D01*
X-3595685Y54542D01*
X-3595785Y54443D01*
Y54392D01*
X-3596185Y53742D01*
X-3596535Y52943D01*
X-3596835Y52093D01*
X-3597085Y51142D01*
X-3597285Y50093D01*
X-3597485Y49042D01*
X-3597735Y46943D01*
X-3597835Y45943D01*
X-3597935Y44943D01*
X-3597985Y44093D01*
Y43343D01*
X-3598035Y42693D01*
Y42193D01*
Y41892D01*
Y41843D01*
Y41792D01*
Y40093D01*
X-3597935Y38542D01*
X-3597835Y37142D01*
X-3597685Y35843D01*
X-3597535Y34693D01*
X-3597335Y33642D01*
X-3597135Y32742D01*
X-3596935Y31942D01*
X-3596685Y31242D01*
X-3596485Y30692D01*
X-3596285Y30192D01*
X-3596135Y29843D01*
X-3595985Y29543D01*
X-3595885Y29343D01*
X-3595835Y29242D01*
X-3595785Y29192D01*
X-3595385Y28642D01*
X-3594935Y28192D01*
X-3594485Y27742D01*
X-3593985Y27392D01*
X-3593535Y27093D01*
X-3593085Y26843D01*
X-3592235Y26492D01*
X-3591485Y26242D01*
X-3591135Y26192D01*
X-3590885Y26142D01*
X-3590635Y26093D01*
X-3590335D01*
X-3589735Y26142D01*
X-3589185Y26242D01*
X-3588635Y26392D01*
X-3588135Y26593D01*
X-3587185Y27093D01*
X-3586385Y27642D01*
X-3585735Y28192D01*
X-3585285Y28692D01*
X-3585135Y28892D01*
X-3584985Y29043D01*
X-3584935Y29142D01*
X-3584885Y29192D01*
X-3584485Y29843D01*
X-3584185Y30642D01*
X-3583885Y31492D01*
X-3583635Y32492D01*
X-3583385Y33492D01*
X-3583235Y34542D01*
X-3582985Y36642D01*
X-3582885Y37693D01*
X-3582785Y38642D01*
X-3582735Y39492D01*
Y40242D01*
X-3582685Y40892D01*
Y41392D01*
Y41693D01*
Y41742D01*
Y41792D01*
X-3582735Y43492D01*
X-3582785Y45042D01*
X-3582885Y46492D01*
X-3583085Y47792D01*
X-3583235Y48992D01*
X-3583435Y50042D01*
X-3583685Y50992D01*
X-3583885Y51792D01*
X-3584135Y52542D01*
X-3584335Y53142D01*
X-3584535Y53642D01*
X-3584735Y54042D01*
X-3584885Y54343D01*
X-3584985Y54593D01*
X-3585035Y54693D01*
X-3585085Y54742D01*
X-3585485Y55242D01*
X-3585885Y55693D01*
X-3586285Y56042D01*
X-3586735Y56343D01*
X-3587585Y56843D01*
X-3588435Y57193D01*
X-3589135Y57392D01*
X-3589735Y57492D01*
X-3589985Y57542D01*
D02*
G37*
G36*
X-3619835D02*
X-3620135D01*
X-3620735Y57492D01*
X-3621335Y57392D01*
X-3621885Y57242D01*
X-3622385Y57042D01*
X-3623335Y56542D01*
X-3624135Y55992D01*
X-3624785Y55392D01*
X-3625235Y54892D01*
X-3625435Y54693D01*
X-3625535Y54542D01*
X-3625635Y54443D01*
Y54392D01*
X-3626035Y53742D01*
X-3626385Y52943D01*
X-3626685Y52093D01*
X-3626935Y51142D01*
X-3627135Y50093D01*
X-3627335Y49042D01*
X-3627585Y46943D01*
X-3627685Y45943D01*
X-3627785Y44943D01*
X-3627835Y44093D01*
Y43343D01*
X-3627885Y42693D01*
Y42193D01*
Y41892D01*
Y41843D01*
Y41792D01*
Y40093D01*
X-3627785Y38542D01*
X-3627685Y37142D01*
X-3627535Y35843D01*
X-3627385Y34693D01*
X-3627185Y33642D01*
X-3626985Y32742D01*
X-3626785Y31942D01*
X-3626535Y31242D01*
X-3626335Y30692D01*
X-3626135Y30192D01*
X-3625985Y29843D01*
X-3625835Y29543D01*
X-3625735Y29343D01*
X-3625685Y29242D01*
X-3625635Y29192D01*
X-3625235Y28642D01*
X-3624785Y28192D01*
X-3624335Y27742D01*
X-3623835Y27392D01*
X-3623385Y27093D01*
X-3622935Y26843D01*
X-3622085Y26492D01*
X-3621335Y26242D01*
X-3620985Y26192D01*
X-3620735Y26142D01*
X-3620485Y26093D01*
X-3620185D01*
X-3619585Y26142D01*
X-3619035Y26242D01*
X-3618485Y26392D01*
X-3617985Y26593D01*
X-3617035Y27093D01*
X-3616235Y27642D01*
X-3615585Y28192D01*
X-3615135Y28692D01*
X-3614985Y28892D01*
X-3614835Y29043D01*
X-3614785Y29142D01*
X-3614735Y29192D01*
X-3614335Y29843D01*
X-3614035Y30642D01*
X-3613735Y31492D01*
X-3613485Y32492D01*
X-3613235Y33492D01*
X-3613085Y34542D01*
X-3612835Y36642D01*
X-3612735Y37693D01*
X-3612635Y38642D01*
X-3612585Y39492D01*
Y40242D01*
X-3612535Y40892D01*
Y41392D01*
Y41693D01*
Y41742D01*
Y41792D01*
X-3612585Y43492D01*
X-3612635Y45042D01*
X-3612735Y46492D01*
X-3612935Y47792D01*
X-3613085Y48992D01*
X-3613285Y50042D01*
X-3613535Y50992D01*
X-3613735Y51792D01*
X-3613985Y52542D01*
X-3614185Y53142D01*
X-3614385Y53642D01*
X-3614585Y54042D01*
X-3614735Y54343D01*
X-3614835Y54593D01*
X-3614885Y54693D01*
X-3614935Y54742D01*
X-3615335Y55242D01*
X-3615735Y55693D01*
X-3616135Y56042D01*
X-3616585Y56343D01*
X-3617435Y56843D01*
X-3618285Y57193D01*
X-3618985Y57392D01*
X-3619585Y57492D01*
X-3619835Y57542D01*
D02*
G37*
G36*
X-3649685D02*
X-3649985D01*
X-3650585Y57492D01*
X-3651185Y57392D01*
X-3651735Y57242D01*
X-3652235Y57042D01*
X-3653185Y56542D01*
X-3653985Y55992D01*
X-3654635Y55392D01*
X-3655085Y54892D01*
X-3655285Y54693D01*
X-3655385Y54542D01*
X-3655485Y54443D01*
Y54392D01*
X-3655885Y53742D01*
X-3656235Y52943D01*
X-3656535Y52093D01*
X-3656785Y51142D01*
X-3656985Y50093D01*
X-3657185Y49042D01*
X-3657435Y46943D01*
X-3657535Y45943D01*
X-3657635Y44943D01*
X-3657685Y44093D01*
Y43343D01*
X-3657735Y42693D01*
Y42193D01*
Y41892D01*
Y41843D01*
Y41792D01*
Y40093D01*
X-3657635Y38542D01*
X-3657535Y37142D01*
X-3657385Y35843D01*
X-3657235Y34693D01*
X-3657035Y33642D01*
X-3656835Y32742D01*
X-3656635Y31942D01*
X-3656385Y31242D01*
X-3656185Y30692D01*
X-3655985Y30192D01*
X-3655835Y29843D01*
X-3655685Y29543D01*
X-3655585Y29343D01*
X-3655535Y29242D01*
X-3655485Y29192D01*
X-3655085Y28642D01*
X-3654635Y28192D01*
X-3654185Y27742D01*
X-3653685Y27392D01*
X-3653235Y27093D01*
X-3652785Y26843D01*
X-3651935Y26492D01*
X-3651185Y26242D01*
X-3650835Y26192D01*
X-3650585Y26142D01*
X-3650335Y26093D01*
X-3650035D01*
X-3649435Y26142D01*
X-3648885Y26242D01*
X-3648335Y26392D01*
X-3647835Y26593D01*
X-3646885Y27093D01*
X-3646085Y27642D01*
X-3645435Y28192D01*
X-3644985Y28692D01*
X-3644835Y28892D01*
X-3644685Y29043D01*
X-3644635Y29142D01*
X-3644585Y29192D01*
X-3644185Y29843D01*
X-3643885Y30642D01*
X-3643585Y31492D01*
X-3643335Y32492D01*
X-3643085Y33492D01*
X-3642935Y34542D01*
X-3642685Y36642D01*
X-3642585Y37693D01*
X-3642485Y38642D01*
X-3642435Y39492D01*
Y40242D01*
X-3642385Y40892D01*
Y41392D01*
Y41693D01*
Y41742D01*
Y41792D01*
X-3642435Y43492D01*
X-3642485Y45042D01*
X-3642585Y46492D01*
X-3642785Y47792D01*
X-3642935Y48992D01*
X-3643135Y50042D01*
X-3643385Y50992D01*
X-3643585Y51792D01*
X-3643835Y52542D01*
X-3644035Y53142D01*
X-3644235Y53642D01*
X-3644435Y54042D01*
X-3644585Y54343D01*
X-3644685Y54593D01*
X-3644735Y54693D01*
X-3644785Y54742D01*
X-3645185Y55242D01*
X-3645585Y55693D01*
X-3645985Y56042D01*
X-3646435Y56343D01*
X-3647285Y56843D01*
X-3648135Y57193D01*
X-3648835Y57392D01*
X-3649435Y57492D01*
X-3649685Y57542D01*
D02*
G37*
G36*
X-3679535D02*
X-3679835D01*
X-3680435Y57492D01*
X-3681035Y57392D01*
X-3681585Y57242D01*
X-3682085Y57042D01*
X-3683035Y56542D01*
X-3683835Y55992D01*
X-3684485Y55392D01*
X-3684935Y54892D01*
X-3685135Y54693D01*
X-3685235Y54542D01*
X-3685335Y54443D01*
Y54392D01*
X-3685735Y53742D01*
X-3686085Y52943D01*
X-3686385Y52093D01*
X-3686635Y51142D01*
X-3686835Y50093D01*
X-3687035Y49042D01*
X-3687285Y46943D01*
X-3687385Y45943D01*
X-3687485Y44943D01*
X-3687535Y44093D01*
Y43343D01*
X-3687585Y42693D01*
Y42193D01*
Y41892D01*
Y41843D01*
Y41792D01*
Y40093D01*
X-3687485Y38542D01*
X-3687385Y37142D01*
X-3687235Y35843D01*
X-3687085Y34693D01*
X-3686885Y33642D01*
X-3686685Y32742D01*
X-3686485Y31942D01*
X-3686235Y31242D01*
X-3686035Y30692D01*
X-3685835Y30192D01*
X-3685685Y29843D01*
X-3685535Y29543D01*
X-3685435Y29343D01*
X-3685385Y29242D01*
X-3685335Y29192D01*
X-3684935Y28642D01*
X-3684485Y28192D01*
X-3684035Y27742D01*
X-3683535Y27392D01*
X-3683085Y27093D01*
X-3682635Y26843D01*
X-3681785Y26492D01*
X-3681035Y26242D01*
X-3680685Y26192D01*
X-3680435Y26142D01*
X-3680185Y26093D01*
X-3679885D01*
X-3679285Y26142D01*
X-3678735Y26242D01*
X-3678185Y26392D01*
X-3677685Y26593D01*
X-3676735Y27093D01*
X-3675935Y27642D01*
X-3675285Y28192D01*
X-3674835Y28692D01*
X-3674685Y28892D01*
X-3674535Y29043D01*
X-3674485Y29142D01*
X-3674435Y29192D01*
X-3674035Y29843D01*
X-3673735Y30642D01*
X-3673435Y31492D01*
X-3673185Y32492D01*
X-3672935Y33492D01*
X-3672785Y34542D01*
X-3672535Y36642D01*
X-3672435Y37693D01*
X-3672335Y38642D01*
X-3672285Y39492D01*
Y40242D01*
X-3672235Y40892D01*
Y41392D01*
Y41693D01*
Y41742D01*
Y41792D01*
X-3672285Y43492D01*
X-3672335Y45042D01*
X-3672435Y46492D01*
X-3672635Y47792D01*
X-3672785Y48992D01*
X-3672985Y50042D01*
X-3673235Y50992D01*
X-3673435Y51792D01*
X-3673685Y52542D01*
X-3673885Y53142D01*
X-3674085Y53642D01*
X-3674285Y54042D01*
X-3674435Y54343D01*
X-3674535Y54593D01*
X-3674585Y54693D01*
X-3674635Y54742D01*
X-3675035Y55242D01*
X-3675435Y55693D01*
X-3675835Y56042D01*
X-3676285Y56343D01*
X-3677135Y56843D01*
X-3677985Y57193D01*
X-3678685Y57392D01*
X-3679285Y57492D01*
X-3679535Y57542D01*
D02*
G37*
G36*
X-3763235D02*
X-3763735D01*
X-3765135Y57443D01*
X-3766435Y57242D01*
X-3767585Y56943D01*
X-3768585Y56593D01*
X-3769035Y56392D01*
X-3769435Y56193D01*
X-3769785Y56042D01*
X-3770035Y55892D01*
X-3770285Y55792D01*
X-3770435Y55693D01*
X-3770535Y55593D01*
X-3770585D01*
X-3771685Y54792D01*
X-3772585Y53943D01*
X-3773385Y53042D01*
X-3774035Y52193D01*
X-3774585Y51392D01*
X-3774785Y51042D01*
X-3774935Y50792D01*
X-3775085Y50542D01*
X-3775185Y50343D01*
X-3775235Y50242D01*
Y50193D01*
X-3775785Y48843D01*
X-3776185Y47443D01*
X-3776435Y46042D01*
X-3776635Y44792D01*
X-3776685Y44193D01*
X-3776735Y43642D01*
X-3776785Y43193D01*
X-3776835Y42792D01*
Y42443D01*
Y42193D01*
Y42042D01*
Y41992D01*
X-3776785Y40642D01*
X-3776685Y39392D01*
X-3776485Y38193D01*
X-3776235Y37093D01*
X-3775985Y36042D01*
X-3775635Y35142D01*
X-3775335Y34242D01*
X-3774985Y33492D01*
X-3774635Y32792D01*
X-3774285Y32193D01*
X-3773935Y31692D01*
X-3773685Y31293D01*
X-3773435Y30942D01*
X-3773235Y30742D01*
X-3773135Y30593D01*
X-3773085Y30543D01*
X-3772385Y29843D01*
X-3771635Y29242D01*
X-3770835Y28692D01*
X-3770035Y28242D01*
X-3769235Y27843D01*
X-3768485Y27543D01*
X-3767685Y27242D01*
X-3766985Y27043D01*
X-3766285Y26892D01*
X-3765635Y26742D01*
X-3765085Y26642D01*
X-3764585Y26593D01*
X-3764185D01*
X-3763885Y26543D01*
X-3763635D01*
X-3762585Y26593D01*
X-3761635Y26692D01*
X-3760685Y26892D01*
X-3759835Y27142D01*
X-3758985Y27442D01*
X-3758235Y27793D01*
X-3757485Y28142D01*
X-3756885Y28543D01*
X-3756285Y28892D01*
X-3755785Y29242D01*
X-3755335Y29593D01*
X-3754985Y29892D01*
X-3754685Y30142D01*
X-3754435Y30343D01*
X-3754335Y30442D01*
X-3754285Y30492D01*
X-3753635Y31293D01*
X-3753085Y32093D01*
X-3752585Y32992D01*
X-3752135Y33892D01*
X-3751785Y34792D01*
X-3751485Y35693D01*
X-3751235Y36593D01*
X-3751035Y37492D01*
X-3750885Y38292D01*
X-3750785Y39042D01*
X-3750685Y39693D01*
X-3750635Y40292D01*
Y40792D01*
X-3750585Y41142D01*
Y41343D01*
Y41443D01*
X-3750635Y42992D01*
X-3750735Y44443D01*
X-3750935Y45792D01*
X-3751185Y47042D01*
X-3751485Y48142D01*
X-3751785Y49142D01*
X-3752135Y50042D01*
X-3752535Y50843D01*
X-3752885Y51542D01*
X-3753235Y52142D01*
X-3753535Y52693D01*
X-3753835Y53093D01*
X-3754085Y53392D01*
X-3754285Y53642D01*
X-3754385Y53742D01*
X-3754435Y53792D01*
X-3755185Y54443D01*
X-3755935Y55042D01*
X-3756735Y55542D01*
X-3757535Y55943D01*
X-3758335Y56343D01*
X-3759085Y56642D01*
X-3759835Y56892D01*
X-3760535Y57093D01*
X-3761235Y57242D01*
X-3761835Y57343D01*
X-3762385Y57443D01*
X-3762835Y57492D01*
X-3763235Y57542D01*
D02*
G37*
G36*
X-3870485Y57542D02*
X-3870785D01*
X-3871385Y57492D01*
X-3871985Y57392D01*
X-3872535Y57242D01*
X-3873035Y57042D01*
X-3873985Y56542D01*
X-3874785Y55992D01*
X-3875435Y55392D01*
X-3875885Y54892D01*
X-3876085Y54692D01*
X-3876185Y54542D01*
X-3876285Y54442D01*
Y54392D01*
X-3876685Y53742D01*
X-3877035Y52942D01*
X-3877335Y52092D01*
X-3877585Y51142D01*
X-3877785Y50092D01*
X-3877985Y49042D01*
X-3878235Y46942D01*
X-3878335Y45942D01*
X-3878435Y44942D01*
X-3878485Y44092D01*
Y43342D01*
X-3878535Y42692D01*
Y42192D01*
Y41892D01*
Y41842D01*
Y41792D01*
Y40092D01*
X-3878435Y38542D01*
X-3878335Y37142D01*
X-3878185Y35842D01*
X-3878035Y34692D01*
X-3877835Y33642D01*
X-3877635Y32742D01*
X-3877435Y31942D01*
X-3877185Y31242D01*
X-3876985Y30692D01*
X-3876785Y30192D01*
X-3876635Y29842D01*
X-3876485Y29542D01*
X-3876385Y29342D01*
X-3876335Y29242D01*
X-3876285Y29192D01*
X-3875885Y28642D01*
X-3875435Y28192D01*
X-3874985Y27742D01*
X-3874485Y27392D01*
X-3874035Y27092D01*
X-3873585Y26842D01*
X-3872735Y26492D01*
X-3871985Y26242D01*
X-3871635Y26192D01*
X-3871385Y26142D01*
X-3871135Y26092D01*
X-3870835D01*
X-3870235Y26142D01*
X-3869685Y26242D01*
X-3869135Y26392D01*
X-3868635Y26592D01*
X-3867685Y27092D01*
X-3866885Y27642D01*
X-3866235Y28192D01*
X-3865785Y28692D01*
X-3865635Y28892D01*
X-3865485Y29042D01*
X-3865435Y29142D01*
X-3865385Y29192D01*
X-3864985Y29842D01*
X-3864685Y30642D01*
X-3864385Y31492D01*
X-3864135Y32492D01*
X-3863885Y33492D01*
X-3863735Y34542D01*
X-3863485Y36642D01*
X-3863385Y37692D01*
X-3863285Y38642D01*
X-3863235Y39492D01*
Y40242D01*
X-3863185Y40892D01*
Y41392D01*
Y41692D01*
Y41742D01*
Y41792D01*
X-3863235Y43492D01*
X-3863285Y45042D01*
X-3863385Y46492D01*
X-3863585Y47792D01*
X-3863735Y48992D01*
X-3863935Y50042D01*
X-3864185Y50992D01*
X-3864385Y51792D01*
X-3864635Y52542D01*
X-3864835Y53142D01*
X-3865035Y53642D01*
X-3865235Y54042D01*
X-3865385Y54342D01*
X-3865485Y54592D01*
X-3865535Y54692D01*
X-3865585Y54742D01*
X-3865985Y55242D01*
X-3866385Y55692D01*
X-3866785Y56042D01*
X-3867235Y56342D01*
X-3868085Y56842D01*
X-3868935Y57192D01*
X-3869635Y57392D01*
X-3870235Y57492D01*
X-3870485Y57542D01*
D02*
G37*
%LPD*%
D297*
X-2879535Y314521D02*
X-2905774D01*
X-2892655Y327640D02*
Y301402D01*
X-2918893Y294842D02*
X-2932012D01*
X-2925452D01*
Y334200D01*
X-2918893Y327640D01*
X-2977929Y294842D02*
X-2951691D01*
X-2977929Y321081D01*
Y327640D01*
X-2971369Y334200D01*
X-2958250D01*
X-2951691Y327640D01*
X-2991048Y334200D02*
Y307962D01*
X-3004167Y294842D01*
X-3017286Y307962D01*
Y334200D01*
X-2716535D02*
Y294842D01*
X-2736214D01*
X-2742774Y301402D01*
Y307962D01*
X-2736214Y314521D01*
X-2716535D01*
X-2736214D01*
X-2742774Y321081D01*
Y327640D01*
X-2736214Y334200D01*
X-2716535D01*
X-2782131D02*
X-2755893D01*
Y294842D01*
X-2782131D01*
X-2755893Y314521D02*
X-2769012D01*
X-2795250Y334200D02*
Y294842D01*
X-2814929D01*
X-2821488Y301402D01*
Y327640D01*
X-2814929Y334200D01*
X-2795250D01*
X-2498535Y314521D02*
X-2524774D01*
X-2511655Y327640D02*
Y301402D01*
X-2537893Y294842D02*
X-2551012D01*
X-2544452D01*
Y334200D01*
X-2537893Y327640D01*
X-2596929Y294842D02*
X-2570691D01*
X-2596929Y321081D01*
Y327640D01*
X-2590369Y334200D01*
X-2577250D01*
X-2570691Y327640D01*
X-2610048Y334200D02*
Y307962D01*
X-2623167Y294842D01*
X-2636286Y307962D01*
Y334200D01*
X-2170535D02*
Y294842D01*
Y314521D01*
X-2196774D01*
Y334200D01*
Y294842D01*
X-2229572Y334200D02*
X-2216452D01*
X-2209893Y327640D01*
Y301402D01*
X-2216452Y294842D01*
X-2229572D01*
X-2236131Y301402D01*
Y327640D01*
X-2229572Y334200D01*
X-2249250D02*
X-2275488D01*
X-2262369D01*
Y294842D01*
X-2288608Y314521D02*
X-2314846D01*
X-2354203Y334200D02*
X-2327965D01*
Y294842D01*
X-2354203D01*
X-2327965Y314521D02*
X-2341084D01*
X-2367322Y294842D02*
Y334200D01*
X-2393561Y294842D01*
Y334200D01*
X-2406680D02*
Y294842D01*
X-2426358D01*
X-2432918Y301402D01*
Y327640D01*
X-2426358Y334200D01*
X-2406680D01*
%TF.MD5,54fe84b63ef2b4e8ce32442fe01218a1*%
M02*
