G04 Layer_Color=65535*
%FSLAX26Y26*%
%MOIN*%
%TF.FileFunction,Legend,Top*%
%TF.Part,Single*%
G01*
G75*
%TA.AperFunction,NonConductor*%
%ADD10C,0.010000*%
%ADD297C,0.005906*%
%ADD315C,0.008000*%
%ADD316C,0.018000*%
%ADD317C,0.005000*%
%ADD318C,0.012000*%
%ADD319R,0.027559X0.118110*%
%ADD320R,0.039000X0.034000*%
G36*
X-2473000Y1317287D02*
Y1310227D01*
X-2524215Y1290380D01*
Y1297773D01*
X-2486986Y1311093D01*
X-2486919D01*
X-2486786Y1311160D01*
X-2486520Y1311226D01*
X-2486253Y1311359D01*
X-2485854Y1311493D01*
X-2485388Y1311626D01*
X-2484255Y1312025D01*
X-2482990Y1312425D01*
X-2481591Y1312891D01*
X-2480060Y1313357D01*
X-2478594Y1313757D01*
X-2478661D01*
X-2478794Y1313824D01*
X-2478994Y1313890D01*
X-2479327Y1313957D01*
X-2479727Y1314090D01*
X-2480126Y1314223D01*
X-2481192Y1314556D01*
X-2482457Y1314956D01*
X-2483922Y1315422D01*
X-2485454Y1315955D01*
X-2486986Y1316554D01*
X-2524215Y1330407D01*
Y1337267D01*
X-2473000Y1317287D01*
D02*
G37*
G36*
X-2479993Y1226045D02*
X-2479860Y1225912D01*
X-2479660Y1225645D01*
X-2479394Y1225246D01*
X-2479061Y1224779D01*
X-2478728Y1224247D01*
X-2478328Y1223647D01*
X-2477862Y1222981D01*
X-2476863Y1221383D01*
X-2475930Y1219651D01*
X-2474931Y1217786D01*
X-2474132Y1215788D01*
Y1215722D01*
X-2474066Y1215522D01*
X-2473932Y1215256D01*
X-2473799Y1214856D01*
X-2473666Y1214390D01*
X-2473533Y1213790D01*
X-2473333Y1213124D01*
X-2473133Y1212458D01*
X-2472800Y1210793D01*
X-2472467Y1208929D01*
X-2472201Y1206931D01*
X-2472134Y1204866D01*
Y1204133D01*
X-2472201Y1203601D01*
Y1202935D01*
X-2472334Y1202135D01*
X-2472401Y1201270D01*
X-2472534Y1200337D01*
X-2472734Y1199272D01*
X-2472933Y1198206D01*
X-2473466Y1195875D01*
X-2474265Y1193544D01*
X-2474798Y1192345D01*
X-2475331Y1191146D01*
X-2475398Y1191080D01*
X-2475464Y1190880D01*
X-2475664Y1190547D01*
X-2475930Y1190147D01*
X-2476263Y1189615D01*
X-2476663Y1189015D01*
X-2477196Y1188416D01*
X-2477729Y1187683D01*
X-2478328Y1186951D01*
X-2479061Y1186218D01*
X-2479793Y1185419D01*
X-2480659Y1184686D01*
X-2481525Y1183887D01*
X-2482524Y1183154D01*
X-2483523Y1182488D01*
X-2484655Y1181889D01*
X-2484722D01*
X-2484921Y1181756D01*
X-2485254Y1181623D01*
X-2485721Y1181423D01*
X-2486320Y1181156D01*
X-2486986Y1180890D01*
X-2487785Y1180624D01*
X-2488651Y1180357D01*
X-2489650Y1180024D01*
X-2490716Y1179758D01*
X-2491781Y1179491D01*
X-2492980Y1179225D01*
X-2495577Y1178892D01*
X-2496909Y1178825D01*
X-2498308Y1178759D01*
X-2498375D01*
X-2498641D01*
X-2499041D01*
X-2499573Y1178825D01*
X-2500239D01*
X-2501039Y1178892D01*
X-2501904Y1179025D01*
X-2502903Y1179158D01*
X-2503902Y1179292D01*
X-2505035Y1179491D01*
X-2507366Y1180024D01*
X-2509830Y1180823D01*
X-2511095Y1181290D01*
X-2512294Y1181822D01*
X-2512361Y1181889D01*
X-2512560Y1181956D01*
X-2512893Y1182155D01*
X-2513360Y1182422D01*
X-2513892Y1182755D01*
X-2514492Y1183154D01*
X-2515158Y1183621D01*
X-2515890Y1184153D01*
X-2516690Y1184753D01*
X-2517489Y1185419D01*
X-2518288Y1186151D01*
X-2519087Y1186951D01*
X-2520552Y1188749D01*
X-2521285Y1189748D01*
X-2521884Y1190813D01*
X-2521951Y1190880D01*
X-2522018Y1191080D01*
X-2522151Y1191413D01*
X-2522417Y1191879D01*
X-2522617Y1192412D01*
X-2522883Y1193078D01*
X-2523216Y1193877D01*
X-2523483Y1194743D01*
X-2523816Y1195675D01*
X-2524082Y1196741D01*
X-2524349Y1197806D01*
X-2524615Y1199005D01*
X-2524948Y1201603D01*
X-2525015Y1202935D01*
X-2525081Y1204333D01*
Y1205266D01*
X-2525015Y1205798D01*
Y1206331D01*
X-2524948Y1206997D01*
X-2524881Y1207663D01*
X-2524615Y1209262D01*
X-2524282Y1210927D01*
X-2523816Y1212658D01*
X-2523216Y1214390D01*
Y1214456D01*
X-2523150Y1214590D01*
X-2523017Y1214789D01*
X-2522883Y1215122D01*
X-2522684Y1215522D01*
X-2522484Y1215922D01*
X-2521951Y1216921D01*
X-2521218Y1218053D01*
X-2520353Y1219252D01*
X-2519354Y1220384D01*
X-2518221Y1221383D01*
X-2518155D01*
X-2518088Y1221516D01*
X-2517888Y1221649D01*
X-2517622Y1221782D01*
X-2517356Y1222049D01*
X-2516956Y1222249D01*
X-2515957Y1222848D01*
X-2514758Y1223514D01*
X-2513360Y1224113D01*
X-2511695Y1224779D01*
X-2509830Y1225312D01*
X-2508165Y1219185D01*
X-2508231D01*
X-2508365Y1219118D01*
X-2508564Y1219052D01*
X-2508831Y1218985D01*
X-2509497Y1218719D01*
X-2510429Y1218386D01*
X-2511362Y1217986D01*
X-2512427Y1217520D01*
X-2513426Y1216921D01*
X-2514292Y1216321D01*
X-2514425Y1216255D01*
X-2514692Y1215988D01*
X-2515091Y1215589D01*
X-2515624Y1215056D01*
X-2516157Y1214390D01*
X-2516756Y1213524D01*
X-2517356Y1212525D01*
X-2517888Y1211393D01*
Y1211326D01*
X-2517955Y1211260D01*
X-2518088Y1210860D01*
X-2518355Y1210194D01*
X-2518621Y1209328D01*
X-2518821Y1208329D01*
X-2519087Y1207130D01*
X-2519220Y1205798D01*
X-2519287Y1204400D01*
Y1203601D01*
X-2519220Y1203201D01*
Y1202735D01*
X-2519087Y1201669D01*
X-2518954Y1200404D01*
X-2518688Y1199005D01*
X-2518288Y1197673D01*
X-2517822Y1196341D01*
Y1196275D01*
X-2517755Y1196208D01*
X-2517555Y1195808D01*
X-2517289Y1195142D01*
X-2516823Y1194410D01*
X-2516290Y1193544D01*
X-2515691Y1192612D01*
X-2514891Y1191679D01*
X-2514092Y1190880D01*
X-2513959Y1190813D01*
X-2513693Y1190547D01*
X-2513226Y1190147D01*
X-2512627Y1189681D01*
X-2511894Y1189215D01*
X-2511029Y1188682D01*
X-2510030Y1188149D01*
X-2509031Y1187683D01*
X-2508964D01*
X-2508831Y1187617D01*
X-2508564Y1187483D01*
X-2508231Y1187417D01*
X-2507765Y1187217D01*
X-2507232Y1187084D01*
X-2506633Y1186884D01*
X-2505967Y1186751D01*
X-2504435Y1186351D01*
X-2502704Y1186085D01*
X-2500772Y1185818D01*
X-2498708Y1185752D01*
X-2498641D01*
X-2498375D01*
X-2498042D01*
X-2497575Y1185818D01*
X-2496976D01*
X-2496310Y1185885D01*
X-2495511Y1185952D01*
X-2494712Y1186018D01*
X-2492913Y1186351D01*
X-2490982Y1186751D01*
X-2489051Y1187284D01*
X-2487252Y1188083D01*
X-2487186D01*
X-2487053Y1188216D01*
X-2486786Y1188349D01*
X-2486520Y1188549D01*
X-2486120Y1188749D01*
X-2485654Y1189082D01*
X-2484655Y1189814D01*
X-2483589Y1190747D01*
X-2482391Y1191946D01*
X-2481325Y1193278D01*
X-2480393Y1194876D01*
Y1194943D01*
X-2480326Y1195076D01*
X-2480193Y1195342D01*
X-2480060Y1195675D01*
X-2479860Y1196075D01*
X-2479727Y1196608D01*
X-2479527Y1197140D01*
X-2479327Y1197806D01*
X-2478861Y1199205D01*
X-2478528Y1200803D01*
X-2478261Y1202602D01*
X-2478195Y1204466D01*
Y1205199D01*
X-2478261Y1205599D01*
Y1206065D01*
X-2478395Y1207197D01*
X-2478594Y1208529D01*
X-2478927Y1209928D01*
X-2479327Y1211459D01*
X-2479860Y1213058D01*
Y1213124D01*
X-2479926Y1213258D01*
X-2480060Y1213457D01*
X-2480126Y1213724D01*
X-2480459Y1214523D01*
X-2480925Y1215455D01*
X-2481458Y1216454D01*
X-2482058Y1217520D01*
X-2482724Y1218519D01*
X-2483456Y1219451D01*
X-2493047D01*
Y1204400D01*
X-2499107D01*
Y1226111D01*
X-2480060D01*
X-2479993Y1226045D01*
D02*
G37*
G36*
X-2486720Y1111626D02*
X-2486320D01*
X-2485920Y1111559D01*
X-2484921Y1111426D01*
X-2483723Y1111093D01*
X-2482457Y1110694D01*
X-2481059Y1110094D01*
X-2479727Y1109295D01*
X-2479660D01*
X-2479593Y1109162D01*
X-2479394Y1109029D01*
X-2479127Y1108895D01*
X-2478461Y1108296D01*
X-2477662Y1107563D01*
X-2476796Y1106631D01*
X-2475864Y1105499D01*
X-2474931Y1104100D01*
X-2474132Y1102568D01*
Y1102502D01*
X-2474066Y1102369D01*
X-2473932Y1102102D01*
X-2473799Y1101836D01*
X-2473666Y1101370D01*
X-2473533Y1100903D01*
X-2473333Y1100371D01*
X-2473133Y1099705D01*
X-2472800Y1098306D01*
X-2472467Y1096641D01*
X-2472201Y1094776D01*
X-2472134Y1092778D01*
Y1092112D01*
X-2472201Y1091646D01*
Y1091047D01*
X-2472267Y1090314D01*
X-2472334Y1089581D01*
X-2472401Y1088716D01*
X-2472600Y1086917D01*
X-2473000Y1084919D01*
X-2473466Y1082988D01*
X-2474132Y1081123D01*
Y1081057D01*
X-2474199Y1080923D01*
X-2474332Y1080657D01*
X-2474532Y1080324D01*
X-2474732Y1079991D01*
X-2474998Y1079525D01*
X-2475664Y1078459D01*
X-2476530Y1077260D01*
X-2477595Y1076062D01*
X-2478861Y1074863D01*
X-2480259Y1073797D01*
X-2480326D01*
X-2480459Y1073664D01*
X-2480659Y1073531D01*
X-2480992Y1073398D01*
X-2481392Y1073198D01*
X-2481791Y1072931D01*
X-2482324Y1072732D01*
X-2482923Y1072465D01*
X-2484322Y1071932D01*
X-2485854Y1071466D01*
X-2487652Y1071133D01*
X-2489517Y1071000D01*
X-2490050Y1077394D01*
X-2489983D01*
X-2489850D01*
X-2489650Y1077460D01*
X-2489384D01*
X-2488718Y1077593D01*
X-2487785Y1077793D01*
X-2486786Y1078060D01*
X-2485721Y1078459D01*
X-2484655Y1078925D01*
X-2483656Y1079458D01*
X-2483523Y1079525D01*
X-2483256Y1079791D01*
X-2482790Y1080191D01*
X-2482257Y1080724D01*
X-2481591Y1081456D01*
X-2480925Y1082322D01*
X-2480259Y1083388D01*
X-2479660Y1084586D01*
Y1084653D01*
X-2479593Y1084720D01*
X-2479527Y1084919D01*
X-2479460Y1085186D01*
X-2479327Y1085519D01*
X-2479194Y1085918D01*
X-2478927Y1086917D01*
X-2478661Y1088050D01*
X-2478395Y1089382D01*
X-2478261Y1090847D01*
X-2478195Y1092445D01*
Y1093111D01*
X-2478261Y1093844D01*
X-2478328Y1094776D01*
X-2478461Y1095775D01*
X-2478661Y1096974D01*
X-2478927Y1098106D01*
X-2479327Y1099238D01*
Y1099305D01*
X-2479394Y1099372D01*
X-2479527Y1099705D01*
X-2479793Y1100237D01*
X-2480126Y1100903D01*
X-2480592Y1101636D01*
X-2481125Y1102369D01*
X-2481725Y1103101D01*
X-2482457Y1103701D01*
X-2482524Y1103767D01*
X-2482790Y1103900D01*
X-2483256Y1104167D01*
X-2483789Y1104433D01*
X-2484455Y1104700D01*
X-2485188Y1104966D01*
X-2485987Y1105099D01*
X-2486853Y1105166D01*
X-2486986D01*
X-2487252D01*
X-2487719Y1105099D01*
X-2488251Y1104966D01*
X-2488917Y1104833D01*
X-2489650Y1104566D01*
X-2490383Y1104167D01*
X-2491049Y1103701D01*
X-2491115Y1103634D01*
X-2491382Y1103434D01*
X-2491715Y1103101D01*
X-2492114Y1102635D01*
X-2492580Y1101969D01*
X-2493047Y1101170D01*
X-2493579Y1100237D01*
X-2494046Y1099105D01*
X-2494112Y1098972D01*
X-2494179Y1098706D01*
X-2494312Y1098439D01*
X-2494379Y1098106D01*
X-2494512Y1097707D01*
X-2494645Y1097174D01*
X-2494845Y1096641D01*
X-2494978Y1095975D01*
X-2495178Y1095242D01*
X-2495444Y1094377D01*
X-2495644Y1093444D01*
X-2495910Y1092379D01*
X-2496177Y1091246D01*
X-2496510Y1089981D01*
Y1089914D01*
X-2496576Y1089648D01*
X-2496710Y1089315D01*
X-2496776Y1088849D01*
X-2496976Y1088249D01*
X-2497109Y1087650D01*
X-2497575Y1086118D01*
X-2498042Y1084520D01*
X-2498641Y1082855D01*
X-2499174Y1081390D01*
X-2499507Y1080724D01*
X-2499773Y1080124D01*
Y1080058D01*
X-2499840Y1079991D01*
X-2499973Y1079791D01*
X-2500106Y1079525D01*
X-2500506Y1078859D01*
X-2501105Y1078060D01*
X-2501771Y1077194D01*
X-2502570Y1076261D01*
X-2503503Y1075396D01*
X-2504502Y1074663D01*
X-2504568D01*
X-2504635Y1074596D01*
X-2505035Y1074397D01*
X-2505567Y1074130D01*
X-2506367Y1073797D01*
X-2507299Y1073464D01*
X-2508431Y1073198D01*
X-2509630Y1072998D01*
X-2510895Y1072931D01*
X-2510962D01*
X-2511095D01*
X-2511295D01*
X-2511561Y1072998D01*
X-2512294Y1073065D01*
X-2513293Y1073198D01*
X-2514425Y1073464D01*
X-2515624Y1073864D01*
X-2516889Y1074397D01*
X-2518155Y1075129D01*
X-2518221D01*
X-2518288Y1075262D01*
X-2518688Y1075529D01*
X-2519354Y1076062D01*
X-2520086Y1076728D01*
X-2520885Y1077660D01*
X-2521751Y1078726D01*
X-2522550Y1080058D01*
X-2523283Y1081523D01*
Y1081589D01*
X-2523350Y1081723D01*
X-2523483Y1081922D01*
X-2523549Y1082255D01*
X-2523683Y1082655D01*
X-2523882Y1083121D01*
X-2524016Y1083654D01*
X-2524215Y1084253D01*
X-2524482Y1085652D01*
X-2524815Y1087250D01*
X-2525015Y1089049D01*
X-2525081Y1090913D01*
Y1091846D01*
X-2525015Y1092379D01*
Y1092911D01*
X-2524948Y1093577D01*
X-2524881Y1094310D01*
X-2524615Y1095842D01*
X-2524282Y1097507D01*
X-2523816Y1099238D01*
X-2523216Y1100903D01*
Y1100970D01*
X-2523150Y1101103D01*
X-2523017Y1101303D01*
X-2522883Y1101636D01*
X-2522417Y1102435D01*
X-2521818Y1103368D01*
X-2521085Y1104500D01*
X-2520153Y1105565D01*
X-2519021Y1106698D01*
X-2517755Y1107630D01*
X-2517689D01*
X-2517622Y1107763D01*
X-2517422Y1107830D01*
X-2517156Y1108030D01*
X-2516823Y1108163D01*
X-2516423Y1108363D01*
X-2515424Y1108829D01*
X-2514225Y1109295D01*
X-2512893Y1109695D01*
X-2511362Y1110028D01*
X-2509763Y1110161D01*
X-2509297Y1103634D01*
X-2509364D01*
X-2509497D01*
X-2509763Y1103567D01*
X-2510096Y1103501D01*
X-2510496Y1103434D01*
X-2510962Y1103301D01*
X-2512028Y1102968D01*
X-2513160Y1102502D01*
X-2514359Y1101902D01*
X-2515557Y1101103D01*
X-2516556Y1100038D01*
X-2516690Y1099904D01*
X-2516756Y1099705D01*
X-2516956Y1099505D01*
X-2517156Y1099172D01*
X-2517356Y1098772D01*
X-2517555Y1098306D01*
X-2517822Y1097840D01*
X-2518022Y1097240D01*
X-2518221Y1096574D01*
X-2518421Y1095842D01*
X-2518621Y1095043D01*
X-2518821Y1094177D01*
X-2518887Y1093244D01*
X-2519021Y1092245D01*
Y1090181D01*
X-2518954Y1089648D01*
X-2518887Y1089115D01*
X-2518754Y1087783D01*
X-2518488Y1086318D01*
X-2518088Y1084853D01*
X-2517489Y1083454D01*
X-2517156Y1082788D01*
X-2516756Y1082255D01*
X-2516623Y1082122D01*
X-2516357Y1081789D01*
X-2515890Y1081390D01*
X-2515224Y1080857D01*
X-2514425Y1080324D01*
X-2513493Y1079924D01*
X-2512427Y1079591D01*
X-2511295Y1079458D01*
X-2511162D01*
X-2510829D01*
X-2510363Y1079591D01*
X-2509697Y1079725D01*
X-2508964Y1079924D01*
X-2508231Y1080257D01*
X-2507499Y1080724D01*
X-2506766Y1081390D01*
X-2506700Y1081523D01*
X-2506566Y1081656D01*
X-2506500Y1081856D01*
X-2506300Y1082122D01*
X-2506100Y1082455D01*
X-2505900Y1082921D01*
X-2505701Y1083388D01*
X-2505434Y1084054D01*
X-2505101Y1084786D01*
X-2504835Y1085585D01*
X-2504502Y1086518D01*
X-2504169Y1087583D01*
X-2503836Y1088782D01*
X-2503503Y1090114D01*
X-2503170Y1091579D01*
Y1091646D01*
X-2503103Y1091912D01*
X-2502970Y1092379D01*
X-2502837Y1092911D01*
X-2502704Y1093577D01*
X-2502504Y1094377D01*
X-2502304Y1095176D01*
X-2502038Y1096108D01*
X-2501571Y1097973D01*
X-2501039Y1099838D01*
X-2500706Y1100704D01*
X-2500439Y1101569D01*
X-2500173Y1102302D01*
X-2499906Y1102901D01*
Y1102968D01*
X-2499840Y1103101D01*
X-2499707Y1103301D01*
X-2499507Y1103634D01*
X-2499107Y1104433D01*
X-2498508Y1105432D01*
X-2497709Y1106498D01*
X-2496843Y1107563D01*
X-2495777Y1108629D01*
X-2494645Y1109495D01*
X-2494578D01*
X-2494512Y1109561D01*
X-2494312Y1109695D01*
X-2494112Y1109828D01*
X-2493446Y1110161D01*
X-2492580Y1110627D01*
X-2491515Y1111027D01*
X-2490249Y1111360D01*
X-2488917Y1111626D01*
X-2487386Y1111693D01*
X-2487319D01*
X-2487186D01*
X-2486986D01*
X-2486720Y1111626D01*
D02*
G37*
G36*
X-1869712Y628078D02*
X-1852302D01*
Y620748D01*
X-1869712D01*
Y603172D01*
X-1877126D01*
Y620748D01*
X-1894535D01*
Y628078D01*
X-1877126D01*
Y645488D01*
X-1869712D01*
Y628078D01*
D02*
G37*
G36*
X-1658378Y617085D02*
X-1682535D01*
Y624998D01*
X-1658378D01*
Y617085D01*
D02*
G37*
G36*
X-1884378Y282085D02*
X-1908535D01*
Y289998D01*
X-1884378D01*
Y282085D01*
D02*
G37*
G36*
X-2095712Y293078D02*
X-2078302D01*
Y285748D01*
X-2095712D01*
Y268172D01*
X-2103126D01*
Y285748D01*
X-2120535D01*
Y293078D01*
X-2103126D01*
Y310488D01*
X-2095712D01*
Y293078D01*
D02*
G37*
G36*
X-3878849Y2628316D02*
X-3829369Y2561843D01*
X-3849694D01*
X-3882181Y2606158D01*
X-3883014Y2607324D01*
X-3883847Y2608657D01*
X-3885846Y2611823D01*
X-3886846Y2613155D01*
X-3887512Y2614322D01*
X-3888012Y2614988D01*
X-3888179Y2615321D01*
X-3890178Y2612489D01*
X-3891011Y2611156D01*
X-3891844Y2609990D01*
X-3892510Y2608990D01*
X-3893010Y2608157D01*
X-3893343Y2607657D01*
X-3893510Y2607491D01*
X-3925830Y2561843D01*
X-3946655D01*
X-3898841Y2628982D01*
X-3943157Y2689958D01*
X-3924664D01*
X-3899174Y2655805D01*
X-3897008Y2652973D01*
X-3895176Y2650474D01*
X-3893343Y2647975D01*
X-3891844Y2645809D01*
X-3890678Y2643976D01*
X-3889845Y2642644D01*
X-3889178Y2641811D01*
X-3889012Y2641477D01*
X-3887679Y2643643D01*
X-3886179Y2646142D01*
X-3884513Y2648808D01*
X-3882847Y2651307D01*
X-3881348Y2653639D01*
X-3880015Y2655472D01*
X-3879515Y2656138D01*
X-3879182Y2656638D01*
X-3879016Y2656971D01*
X-3878849Y2657138D01*
X-3855525Y2689958D01*
X-3835200D01*
X-3878849Y2628316D01*
D02*
G37*
G36*
X-2421229Y2615988D02*
Y2561843D01*
X-2438222D01*
Y2615988D01*
X-2487535Y2689958D01*
X-2467210D01*
X-2441887Y2651140D01*
X-2441720Y2650974D01*
X-2441554Y2650640D01*
X-2441221Y2650140D01*
X-2440721Y2649307D01*
X-2440054Y2648308D01*
X-2439388Y2647142D01*
X-2437555Y2644309D01*
X-2435556Y2641144D01*
X-2433390Y2637479D01*
X-2431225Y2633481D01*
X-2428892Y2629482D01*
Y2629649D01*
X-2428559Y2629982D01*
X-2428226Y2630482D01*
X-2427893Y2631315D01*
X-2427226Y2632148D01*
X-2426560Y2633314D01*
X-2425727Y2634647D01*
X-2424894Y2636146D01*
X-2422728Y2639478D01*
X-2420396Y2643310D01*
X-2417730Y2647642D01*
X-2414731Y2652140D01*
X-2389908Y2689958D01*
X-2370082D01*
X-2421229Y2615988D01*
D02*
G37*
G36*
X-1586408Y2674797D02*
X-1658380Y2585999D01*
X-1666043Y2577003D01*
X-1584243D01*
Y2561843D01*
X-1685535D01*
Y2577503D01*
X-1619895Y2659470D01*
X-1619728Y2659637D01*
X-1619562Y2659803D01*
X-1619229Y2660303D01*
X-1618729Y2660970D01*
X-1617396Y2662635D01*
X-1615730Y2664635D01*
X-1613731Y2667134D01*
X-1611398Y2669633D01*
X-1609066Y2672298D01*
X-1606734Y2674797D01*
X-1678038D01*
Y2689958D01*
X-1586408D01*
Y2674797D01*
D02*
G37*
G36*
X-881072D02*
X-956542D01*
Y2635813D01*
X-885904D01*
Y2620652D01*
X-956542D01*
Y2577003D01*
X-878074D01*
Y2561843D01*
X-973535D01*
Y2689958D01*
X-881072D01*
Y2674797D01*
D02*
G37*
G36*
X-1209660Y788468D02*
X-1221410D01*
Y801968D01*
X-1209660D01*
Y788468D01*
D02*
G37*
G36*
X-1496785Y803467D02*
X-1495535Y803342D01*
X-1494035Y803217D01*
X-1492410Y802967D01*
X-1490660Y802717D01*
X-1486910Y801842D01*
X-1484910Y801217D01*
X-1482785Y800467D01*
X-1480785Y799592D01*
X-1478785Y798717D01*
X-1476785Y797467D01*
X-1474910Y796217D01*
X-1474785Y796092D01*
X-1474535Y795842D01*
X-1473910Y795467D01*
X-1473285Y794842D01*
X-1472535Y794092D01*
X-1471535Y793217D01*
X-1470535Y792092D01*
X-1469410Y790842D01*
X-1468285Y789467D01*
X-1467160Y787967D01*
X-1466035Y786217D01*
X-1464910Y784467D01*
X-1463785Y782467D01*
X-1462785Y780342D01*
X-1461785Y777967D01*
X-1461035Y775592D01*
X-1473535Y772592D01*
Y772717D01*
X-1473660Y773092D01*
X-1473910Y773592D01*
X-1474160Y774342D01*
X-1474535Y775217D01*
X-1474910Y776217D01*
X-1476035Y778467D01*
X-1477410Y780967D01*
X-1479035Y783467D01*
X-1481035Y785842D01*
X-1482160Y786842D01*
X-1483285Y787842D01*
X-1483410D01*
X-1483535Y788092D01*
X-1483910Y788342D01*
X-1484410Y788592D01*
X-1485035Y788967D01*
X-1485785Y789342D01*
X-1487660Y790342D01*
X-1490035Y791217D01*
X-1492785Y791967D01*
X-1495910Y792467D01*
X-1499410Y792717D01*
X-1500535D01*
X-1501285Y792592D01*
X-1502160D01*
X-1503285Y792467D01*
X-1504535Y792217D01*
X-1505910Y792092D01*
X-1508785Y791467D01*
X-1511910Y790467D01*
X-1515035Y789092D01*
X-1516535Y788342D01*
X-1518035Y787342D01*
X-1518160D01*
X-1518410Y787092D01*
X-1518785Y786842D01*
X-1519285Y786342D01*
X-1520535Y785217D01*
X-1522035Y783592D01*
X-1523785Y781592D01*
X-1525535Y779092D01*
X-1527160Y776342D01*
X-1528410Y773092D01*
Y772967D01*
X-1528535Y772717D01*
X-1528660Y772217D01*
X-1528910Y771592D01*
X-1529160Y770717D01*
X-1529410Y769717D01*
X-1529660Y768592D01*
X-1529910Y767467D01*
X-1530410Y764592D01*
X-1530910Y761467D01*
X-1531285Y758092D01*
X-1531410Y754592D01*
Y754467D01*
Y754092D01*
Y753467D01*
Y752592D01*
X-1531285Y751467D01*
X-1531160Y750217D01*
Y748842D01*
X-1530910Y747342D01*
X-1530535Y743967D01*
X-1529910Y740467D01*
X-1529035Y736717D01*
X-1527910Y733217D01*
Y733092D01*
X-1527785Y732842D01*
X-1527535Y732342D01*
X-1527160Y731717D01*
X-1526785Y730967D01*
X-1526410Y730092D01*
X-1525160Y728092D01*
X-1523535Y725842D01*
X-1521660Y723592D01*
X-1519410Y721467D01*
X-1516785Y719592D01*
X-1516660D01*
X-1516410Y719342D01*
X-1516035Y719217D01*
X-1515410Y718842D01*
X-1514785Y718592D01*
X-1513910Y718217D01*
X-1511910Y717342D01*
X-1509410Y716467D01*
X-1506660Y715842D01*
X-1503660Y715342D01*
X-1500410Y715092D01*
X-1499410D01*
X-1498660Y715217D01*
X-1497660Y715342D01*
X-1496660Y715467D01*
X-1495410Y715592D01*
X-1494160Y715842D01*
X-1491285Y716592D01*
X-1488285Y717717D01*
X-1486660Y718342D01*
X-1485160Y719217D01*
X-1483660Y720092D01*
X-1482285Y721217D01*
X-1482160Y721342D01*
X-1481910Y721467D01*
X-1481535Y721842D01*
X-1481035Y722342D01*
X-1480535Y722967D01*
X-1479785Y723842D01*
X-1479035Y724717D01*
X-1478285Y725842D01*
X-1477410Y726967D01*
X-1476535Y728342D01*
X-1475785Y729842D01*
X-1474910Y731467D01*
X-1474160Y733342D01*
X-1473410Y735217D01*
X-1472785Y737217D01*
X-1472160Y739467D01*
X-1459410Y736217D01*
Y736092D01*
X-1459660Y735592D01*
X-1459910Y734717D01*
X-1460160Y733592D01*
X-1460660Y732342D01*
X-1461285Y730842D01*
X-1461910Y729217D01*
X-1462785Y727342D01*
X-1463660Y725467D01*
X-1464785Y723467D01*
X-1465910Y721592D01*
X-1467285Y719592D01*
X-1468660Y717592D01*
X-1470285Y715717D01*
X-1472035Y713967D01*
X-1473910Y712342D01*
X-1474035Y712217D01*
X-1474410Y711967D01*
X-1474910Y711592D01*
X-1475785Y711092D01*
X-1476785Y710467D01*
X-1478035Y709717D01*
X-1479410Y709092D01*
X-1480910Y708342D01*
X-1482785Y707467D01*
X-1484660Y706842D01*
X-1486785Y706092D01*
X-1489035Y705467D01*
X-1491410Y704967D01*
X-1493910Y704592D01*
X-1496535Y704342D01*
X-1499285Y704217D01*
X-1500785D01*
X-1501910Y704342D01*
X-1503160Y704467D01*
X-1504785Y704592D01*
X-1506410Y704717D01*
X-1508285Y704967D01*
X-1512285Y705717D01*
X-1516535Y706842D01*
X-1518660Y707592D01*
X-1520785Y708467D01*
X-1522785Y709342D01*
X-1524660Y710467D01*
X-1524785Y710592D01*
X-1525035Y710717D01*
X-1525535Y711092D01*
X-1526285Y711717D01*
X-1527035Y712342D01*
X-1528035Y713092D01*
X-1529035Y714092D01*
X-1530160Y715217D01*
X-1531410Y716342D01*
X-1532535Y717717D01*
X-1533785Y719217D01*
X-1535035Y720967D01*
X-1536285Y722717D01*
X-1537410Y724592D01*
X-1538535Y726717D01*
X-1539535Y728842D01*
Y728967D01*
X-1539785Y729342D01*
X-1540035Y730092D01*
X-1540285Y730967D01*
X-1540660Y732092D01*
X-1541160Y733342D01*
X-1541535Y734842D01*
X-1542035Y736592D01*
X-1542535Y738467D01*
X-1542910Y740467D01*
X-1543410Y742592D01*
X-1543785Y744717D01*
X-1544285Y749592D01*
X-1544535Y754592D01*
Y754717D01*
Y755217D01*
Y756092D01*
X-1544410Y757092D01*
Y758467D01*
X-1544285Y759967D01*
X-1544035Y761592D01*
X-1543785Y763467D01*
X-1543535Y765467D01*
X-1543160Y767592D01*
X-1542160Y771967D01*
X-1540785Y776342D01*
X-1539910Y778592D01*
X-1538910Y780717D01*
X-1538785Y780842D01*
X-1538660Y781217D01*
X-1538285Y781842D01*
X-1537785Y782592D01*
X-1537285Y783467D01*
X-1536535Y784592D01*
X-1535660Y785717D01*
X-1534660Y787092D01*
X-1532410Y789842D01*
X-1529535Y792592D01*
X-1526285Y795342D01*
X-1524410Y796592D01*
X-1522535Y797717D01*
X-1522410Y797842D01*
X-1522035Y797967D01*
X-1521410Y798217D01*
X-1520660Y798592D01*
X-1519660Y799092D01*
X-1518535Y799592D01*
X-1517160Y800092D01*
X-1515660Y800717D01*
X-1513910Y801217D01*
X-1512160Y801717D01*
X-1508160Y802717D01*
X-1503785Y803342D01*
X-1501535Y803592D01*
X-1497785D01*
X-1496785Y803467D01*
D02*
G37*
G36*
X-1417535Y776717D02*
X-1416035Y776467D01*
X-1414160Y775967D01*
X-1412035Y775342D01*
X-1409910Y774342D01*
X-1407535Y773092D01*
X-1411660Y762217D01*
X-1411910Y762342D01*
X-1412410Y762592D01*
X-1413285Y762967D01*
X-1414410Y763467D01*
X-1415660Y763967D01*
X-1417160Y764342D01*
X-1418785Y764592D01*
X-1420410Y764717D01*
X-1421035D01*
X-1421785Y764592D01*
X-1422785Y764467D01*
X-1423785Y764092D01*
X-1425035Y763717D01*
X-1426160Y763092D01*
X-1427410Y762342D01*
X-1427535Y762217D01*
X-1427910Y761967D01*
X-1428410Y761342D01*
X-1429035Y760592D01*
X-1429785Y759717D01*
X-1430535Y758592D01*
X-1431160Y757342D01*
X-1431785Y755842D01*
Y755717D01*
X-1431910Y755592D01*
Y755217D01*
X-1432035Y754717D01*
X-1432410Y753467D01*
X-1432660Y751842D01*
X-1433035Y749717D01*
X-1433410Y747467D01*
X-1433535Y744842D01*
X-1433660Y742092D01*
Y705842D01*
X-1445410D01*
Y775467D01*
X-1434785D01*
Y764842D01*
X-1434660Y765092D01*
X-1434410Y765467D01*
X-1434160Y765967D01*
X-1433285Y767217D01*
X-1432410Y768717D01*
X-1431285Y770467D01*
X-1430035Y772092D01*
X-1428660Y773467D01*
X-1427410Y774592D01*
X-1427285Y774717D01*
X-1426785Y774967D01*
X-1426035Y775342D01*
X-1425160Y775842D01*
X-1424035Y776217D01*
X-1422660Y776592D01*
X-1421285Y776842D01*
X-1419785Y776967D01*
X-1418785D01*
X-1417535Y776717D01*
D02*
G37*
G36*
X-1058410Y802218D02*
X-1057535D01*
X-1055660Y801968D01*
X-1053410Y801468D01*
X-1051035Y800968D01*
X-1048535Y800093D01*
X-1046035Y798968D01*
X-1045910D01*
X-1045785Y798843D01*
X-1045410Y798593D01*
X-1044910Y798343D01*
X-1043785Y797593D01*
X-1042285Y796593D01*
X-1040660Y795218D01*
X-1038910Y793593D01*
X-1037285Y791843D01*
X-1035910Y789718D01*
Y789593D01*
X-1035785Y789468D01*
X-1035285Y788718D01*
X-1034785Y787468D01*
X-1034035Y785968D01*
X-1033410Y784093D01*
X-1032785Y781968D01*
X-1032410Y779718D01*
X-1032285Y777343D01*
Y777218D01*
Y777093D01*
Y776343D01*
X-1032410Y775093D01*
X-1032660Y773593D01*
X-1033160Y771843D01*
X-1033660Y769968D01*
X-1034535Y767968D01*
X-1035660Y765968D01*
X-1035785Y765718D01*
X-1036285Y765093D01*
X-1037035Y764218D01*
X-1038160Y763093D01*
X-1039535Y761718D01*
X-1041285Y760343D01*
X-1043285Y759093D01*
X-1045535Y757843D01*
X-1045410D01*
X-1045160Y757718D01*
X-1044660Y757593D01*
X-1044160Y757468D01*
X-1043410Y757218D01*
X-1042535Y756843D01*
X-1040660Y756093D01*
X-1038535Y754968D01*
X-1036410Y753468D01*
X-1034160Y751718D01*
X-1032285Y749593D01*
Y749468D01*
X-1032035Y749343D01*
X-1031785Y748968D01*
X-1031535Y748468D01*
X-1031160Y747843D01*
X-1030785Y747218D01*
X-1029910Y745343D01*
X-1029035Y743093D01*
X-1028285Y740468D01*
X-1027785Y737593D01*
X-1027535Y734218D01*
Y734093D01*
Y733718D01*
Y732968D01*
X-1027660Y732093D01*
X-1027785Y730968D01*
X-1028035Y729718D01*
X-1028285Y728343D01*
X-1028660Y726843D01*
X-1029160Y725218D01*
X-1029785Y723468D01*
X-1030535Y721718D01*
X-1031410Y719843D01*
X-1032535Y718093D01*
X-1033785Y716218D01*
X-1035160Y714468D01*
X-1036785Y712843D01*
X-1036910Y712718D01*
X-1037160Y712468D01*
X-1037660Y712093D01*
X-1038410Y711468D01*
X-1039285Y710843D01*
X-1040410Y710093D01*
X-1041660Y709343D01*
X-1043035Y708593D01*
X-1044660Y707718D01*
X-1046410Y706968D01*
X-1048285Y706218D01*
X-1050410Y705593D01*
X-1052535Y704968D01*
X-1054910Y704593D01*
X-1057285Y704343D01*
X-1059910Y704218D01*
X-1061160D01*
X-1062035Y704343D01*
X-1063035Y704468D01*
X-1064285Y704593D01*
X-1065785Y704843D01*
X-1067285Y705218D01*
X-1070535Y706093D01*
X-1072285Y706718D01*
X-1074035Y707343D01*
X-1075910Y708218D01*
X-1077660Y709218D01*
X-1079285Y710343D01*
X-1080910Y711718D01*
X-1081035Y711843D01*
X-1081285Y712093D01*
X-1081660Y712468D01*
X-1082285Y713093D01*
X-1082910Y713843D01*
X-1083660Y714718D01*
X-1084410Y715843D01*
X-1085285Y716968D01*
X-1086035Y718343D01*
X-1086910Y719843D01*
X-1087660Y721468D01*
X-1088410Y723218D01*
X-1089160Y725093D01*
X-1089660Y726968D01*
X-1090160Y729093D01*
X-1090410Y731343D01*
X-1078660Y732968D01*
Y732843D01*
X-1078535Y732468D01*
X-1078410Y731968D01*
X-1078285Y731343D01*
X-1078035Y730468D01*
X-1077785Y729593D01*
X-1077035Y727343D01*
X-1076160Y724968D01*
X-1074910Y722593D01*
X-1073535Y720218D01*
X-1072785Y719218D01*
X-1071910Y718343D01*
X-1071660Y718218D01*
X-1071035Y717718D01*
X-1070035Y716968D01*
X-1068535Y716218D01*
X-1066785Y715343D01*
X-1064785Y714718D01*
X-1062410Y714218D01*
X-1059910Y713968D01*
X-1059035D01*
X-1058535Y714093D01*
X-1057785D01*
X-1056910Y714218D01*
X-1055035Y714718D01*
X-1052785Y715343D01*
X-1050410Y716343D01*
X-1048035Y717843D01*
X-1046910Y718718D01*
X-1045785Y719718D01*
X-1045660Y719843D01*
X-1045535Y719968D01*
X-1045285Y720343D01*
X-1044910Y720718D01*
X-1043910Y721968D01*
X-1042910Y723718D01*
X-1041910Y725718D01*
X-1040910Y728218D01*
X-1040285Y730968D01*
X-1040035Y732468D01*
Y733968D01*
Y734093D01*
Y734343D01*
Y734718D01*
X-1040160Y735343D01*
Y735968D01*
X-1040285Y736843D01*
X-1040660Y738718D01*
X-1041285Y740843D01*
X-1042285Y743093D01*
X-1043660Y745218D01*
X-1044410Y746343D01*
X-1045410Y747343D01*
X-1045660Y747593D01*
X-1046410Y748218D01*
X-1047535Y748968D01*
X-1049035Y749968D01*
X-1051035Y750968D01*
X-1053285Y751718D01*
X-1055910Y752343D01*
X-1058910Y752593D01*
X-1060285D01*
X-1061160Y752468D01*
X-1062410Y752343D01*
X-1063910Y752093D01*
X-1065535Y751718D01*
X-1067285Y751343D01*
X-1065910Y761718D01*
X-1065660D01*
X-1065285Y761593D01*
X-1064660Y761468D01*
X-1063285D01*
X-1062785Y761593D01*
X-1061285Y761718D01*
X-1059535Y761968D01*
X-1057410Y762468D01*
X-1055160Y763093D01*
X-1052785Y764093D01*
X-1050535Y765343D01*
X-1050410D01*
X-1050285Y765593D01*
X-1049535Y766093D01*
X-1048535Y767093D01*
X-1047410Y768343D01*
X-1046285Y770093D01*
X-1045410Y772218D01*
X-1044660Y774718D01*
X-1044535Y776093D01*
X-1044410Y777593D01*
Y777718D01*
Y777843D01*
X-1044535Y778718D01*
X-1044660Y779843D01*
X-1044910Y781343D01*
X-1045535Y782968D01*
X-1046285Y784718D01*
X-1047410Y786593D01*
X-1048910Y788218D01*
X-1049160Y788468D01*
X-1049660Y788968D01*
X-1050660Y789593D01*
X-1051910Y790468D01*
X-1053535Y791218D01*
X-1055535Y791968D01*
X-1057660Y792468D01*
X-1060160Y792593D01*
X-1060785D01*
X-1061285Y792468D01*
X-1062660Y792343D01*
X-1064285Y792093D01*
X-1066035Y791468D01*
X-1068035Y790718D01*
X-1069910Y789718D01*
X-1071785Y788218D01*
X-1072035Y787968D01*
X-1072535Y787468D01*
X-1073285Y786468D01*
X-1074160Y784968D01*
X-1075160Y783218D01*
X-1076160Y780968D01*
X-1076910Y778343D01*
X-1077535Y775343D01*
X-1089285Y777468D01*
Y777593D01*
X-1089160Y777968D01*
X-1089035Y778593D01*
X-1088785Y779468D01*
X-1088535Y780343D01*
X-1088160Y781593D01*
X-1087785Y782843D01*
X-1087285Y784218D01*
X-1085910Y787093D01*
X-1084285Y790093D01*
X-1082160Y793093D01*
X-1080910Y794468D01*
X-1079535Y795718D01*
X-1079410Y795843D01*
X-1079160Y795968D01*
X-1078785Y796343D01*
X-1078160Y796718D01*
X-1077410Y797218D01*
X-1076535Y797843D01*
X-1075410Y798468D01*
X-1074285Y799093D01*
X-1072910Y799593D01*
X-1071535Y800218D01*
X-1068285Y801343D01*
X-1064535Y802093D01*
X-1062535Y802218D01*
X-1060410Y802343D01*
X-1059035D01*
X-1058410Y802218D01*
D02*
G37*
G36*
X-1123660Y704718D02*
Y704593D01*
X-1123785Y704218D01*
X-1124035Y703593D01*
X-1124410Y702843D01*
X-1124660Y701968D01*
X-1125160Y700843D01*
X-1126035Y698468D01*
X-1127160Y695843D01*
X-1128285Y693218D01*
X-1129285Y690843D01*
X-1129785Y689843D01*
X-1130285Y688968D01*
X-1130410Y688718D01*
X-1130785Y688093D01*
X-1131535Y686968D01*
X-1132410Y685718D01*
X-1133410Y684343D01*
X-1134660Y682968D01*
X-1136035Y681593D01*
X-1137535Y680468D01*
X-1137660Y680343D01*
X-1138285Y680093D01*
X-1139035Y679593D01*
X-1140285Y679093D01*
X-1141660Y678593D01*
X-1143285Y678093D01*
X-1145160Y677843D01*
X-1147160Y677718D01*
X-1147785D01*
X-1148535Y677843D01*
X-1149410Y677968D01*
X-1150535Y678093D01*
X-1151910Y678343D01*
X-1153285Y678718D01*
X-1154785Y679218D01*
X-1156035Y690218D01*
X-1155910D01*
X-1155410Y690093D01*
X-1154660Y689843D01*
X-1153785Y689718D01*
X-1152785Y689468D01*
X-1151660Y689218D01*
X-1149410Y689093D01*
X-1148785D01*
X-1148035Y689218D01*
X-1147160D01*
X-1145035Y689718D01*
X-1144035Y689968D01*
X-1143160Y690468D01*
X-1143035D01*
X-1142785Y690718D01*
X-1142285Y690968D01*
X-1141785Y691343D01*
X-1140535Y692468D01*
X-1139285Y694093D01*
Y694218D01*
X-1139035Y694468D01*
X-1138785Y694968D01*
X-1138410Y695843D01*
X-1137910Y697093D01*
X-1137285Y698593D01*
X-1136535Y700593D01*
X-1136160Y701718D01*
X-1135660Y702968D01*
X-1135535Y703093D01*
X-1135410Y703718D01*
X-1135035Y704593D01*
X-1134535Y705843D01*
X-1161035Y775468D01*
X-1148535D01*
X-1133910Y735218D01*
Y735093D01*
X-1133785Y734843D01*
X-1133660Y734468D01*
X-1133410Y733843D01*
X-1133160Y733218D01*
X-1132910Y732343D01*
X-1132285Y730343D01*
X-1131535Y727968D01*
X-1130660Y725218D01*
X-1129785Y722218D01*
X-1128910Y719093D01*
Y719218D01*
X-1128785Y719468D01*
X-1128660Y719843D01*
X-1128535Y720468D01*
X-1128285Y721218D01*
X-1128035Y722093D01*
X-1127535Y724093D01*
X-1126785Y726468D01*
X-1125910Y729093D01*
X-1124910Y731968D01*
X-1123910Y734843D01*
X-1109035Y775468D01*
X-1097285D01*
X-1123660Y704718D01*
D02*
G37*
G36*
X-836160Y705843D02*
X-849410D01*
X-886660Y801968D01*
X-872785D01*
X-847785Y732093D01*
Y731968D01*
X-847660Y731718D01*
X-847535Y731218D01*
X-847285Y730718D01*
X-847035Y729968D01*
X-846785Y729093D01*
X-846035Y726968D01*
X-845285Y724593D01*
X-844410Y721968D01*
X-843535Y719093D01*
X-842785Y716343D01*
Y716468D01*
X-842660Y716718D01*
X-842535Y717093D01*
X-842410Y717718D01*
X-842160Y718468D01*
X-841910Y719218D01*
X-841285Y721218D01*
X-840535Y723593D01*
X-839660Y726343D01*
X-838660Y729218D01*
X-837535Y732093D01*
X-811535Y801968D01*
X-798660D01*
X-836160Y705843D01*
D02*
G37*
G36*
X-534410Y802218D02*
X-533160Y802093D01*
X-531785Y801968D01*
X-530285Y801718D01*
X-528660Y801343D01*
X-525160Y800468D01*
X-523410Y799843D01*
X-521535Y799093D01*
X-519660Y798218D01*
X-517910Y797093D01*
X-516285Y795968D01*
X-514660Y794593D01*
X-514535Y794468D01*
X-514285Y794218D01*
X-513910Y793843D01*
X-513410Y793218D01*
X-512785Y792468D01*
X-512035Y791593D01*
X-511410Y790593D01*
X-510535Y789343D01*
X-509785Y788093D01*
X-509160Y786593D01*
X-507785Y783343D01*
X-507285Y781593D01*
X-506910Y779718D01*
X-506660Y777718D01*
X-506535Y775593D01*
Y775343D01*
Y774593D01*
X-506660Y773468D01*
X-506785Y771968D01*
X-507160Y770343D01*
X-507535Y768343D01*
X-508160Y766343D01*
X-508910Y764218D01*
X-509035Y763968D01*
X-509410Y763218D01*
X-509910Y762093D01*
X-510785Y760718D01*
X-511910Y758968D01*
X-513285Y756968D01*
X-514910Y754718D01*
X-516785Y752468D01*
Y752343D01*
X-517035Y752218D01*
X-517410Y751843D01*
X-517785Y751343D01*
X-518410Y750718D01*
X-519160Y749968D01*
X-520035Y749093D01*
X-521160Y748093D01*
X-522285Y746968D01*
X-523660Y745718D01*
X-525160Y744218D01*
X-526785Y742718D01*
X-528660Y741093D01*
X-530535Y739468D01*
X-532785Y737593D01*
X-535035Y735593D01*
X-535160Y735468D01*
X-535535Y735218D01*
X-536035Y734718D01*
X-536785Y734218D01*
X-537535Y733468D01*
X-538535Y732593D01*
X-540660Y730718D01*
X-543035Y728718D01*
X-545285Y726718D01*
X-546285Y725843D01*
X-547160Y724968D01*
X-548035Y724093D01*
X-548660Y723468D01*
X-548785Y723343D01*
X-549160Y722968D01*
X-549660Y722343D01*
X-550410Y721468D01*
X-551160Y720593D01*
X-552035Y719468D01*
X-553660Y717218D01*
X-506410D01*
Y705843D01*
X-570035D01*
Y706093D01*
Y706593D01*
Y707343D01*
X-569910Y708468D01*
X-569785Y709718D01*
X-569535Y711093D01*
X-569160Y712468D01*
X-568660Y713968D01*
Y714093D01*
X-568535Y714218D01*
X-568410Y714593D01*
X-568160Y715093D01*
X-567660Y716343D01*
X-566785Y717968D01*
X-565660Y719968D01*
X-564410Y722093D01*
X-562785Y724343D01*
X-560910Y726718D01*
X-560785Y726843D01*
X-560660Y726968D01*
X-560285Y727343D01*
X-559910Y727843D01*
X-558660Y729218D01*
X-556910Y730968D01*
X-554785Y733093D01*
X-552160Y735593D01*
X-549035Y738343D01*
X-545410Y741343D01*
X-545285Y741468D01*
X-544785Y741968D01*
X-543910Y742593D01*
X-542910Y743468D01*
X-541660Y744593D01*
X-540160Y745843D01*
X-538535Y747218D01*
X-536910Y748718D01*
X-533410Y751968D01*
X-529910Y755343D01*
X-528285Y757093D01*
X-526785Y758718D01*
X-525410Y760218D01*
X-524285Y761718D01*
X-524160Y761843D01*
X-524035Y762093D01*
X-523785Y762468D01*
X-523410Y762968D01*
X-523035Y763718D01*
X-522535Y764468D01*
X-521410Y766343D01*
X-520410Y768468D01*
X-519535Y770843D01*
X-518910Y773468D01*
X-518660Y774718D01*
Y775968D01*
Y776093D01*
Y776343D01*
Y776593D01*
X-518785Y777093D01*
X-518910Y778468D01*
X-519285Y780093D01*
X-519910Y781968D01*
X-520785Y783843D01*
X-522035Y785843D01*
X-523785Y787718D01*
X-524035Y787968D01*
X-524660Y788468D01*
X-525785Y789218D01*
X-527285Y790218D01*
X-529160Y791093D01*
X-531410Y791843D01*
X-534035Y792343D01*
X-536910Y792593D01*
X-537785D01*
X-538285Y792468D01*
X-539035D01*
X-539910Y792343D01*
X-541785Y791968D01*
X-543910Y791343D01*
X-546285Y790468D01*
X-548535Y789218D01*
X-550535Y787468D01*
X-550785Y787218D01*
X-551285Y786593D01*
X-552160Y785343D01*
X-553035Y783843D01*
X-554035Y781718D01*
X-554910Y779343D01*
X-555410Y776593D01*
X-555660Y773343D01*
X-567785Y774593D01*
Y774718D01*
X-567660Y775218D01*
Y775843D01*
X-567535Y776843D01*
X-567285Y777968D01*
X-567035Y779218D01*
X-566660Y780718D01*
X-566160Y782218D01*
X-565035Y785593D01*
X-564285Y787343D01*
X-563410Y788968D01*
X-562410Y790718D01*
X-561285Y792343D01*
X-560035Y793843D01*
X-558535Y795218D01*
X-558410Y795343D01*
X-558160Y795468D01*
X-557660Y795843D01*
X-557035Y796343D01*
X-556160Y796843D01*
X-555160Y797468D01*
X-554035Y798093D01*
X-552660Y798843D01*
X-551160Y799468D01*
X-549535Y800093D01*
X-547785Y800718D01*
X-545785Y801218D01*
X-543785Y801718D01*
X-541535Y802093D01*
X-539160Y802218D01*
X-536660Y802343D01*
X-535285D01*
X-534410Y802218D01*
D02*
G37*
G36*
X-585410Y705843D02*
X-598910D01*
Y719343D01*
X-585410D01*
Y705843D01*
D02*
G37*
G36*
X-635785D02*
X-647535D01*
Y780968D01*
X-647785Y780843D01*
X-648285Y780343D01*
X-649285Y779468D01*
X-650535Y778468D01*
X-652160Y777218D01*
X-654160Y775843D01*
X-656285Y774343D01*
X-658785Y772843D01*
X-658910D01*
X-659035Y772718D01*
X-659410Y772468D01*
X-659910Y772218D01*
X-661285Y771468D01*
X-662910Y770593D01*
X-664785Y769593D01*
X-666910Y768593D01*
X-669035Y767593D01*
X-671160Y766718D01*
Y778218D01*
X-671035D01*
X-670660Y778468D01*
X-670160Y778718D01*
X-669535Y779093D01*
X-668660Y779468D01*
X-667660Y780093D01*
X-665285Y781343D01*
X-662660Y782968D01*
X-659660Y784968D01*
X-656785Y787093D01*
X-653910Y789468D01*
X-653785Y789593D01*
X-653535Y789718D01*
X-653160Y790093D01*
X-652660Y790593D01*
X-651410Y791843D01*
X-649785Y793593D01*
X-648160Y795468D01*
X-646410Y797718D01*
X-644785Y799968D01*
X-643410Y802343D01*
X-635785D01*
Y705843D01*
D02*
G37*
G36*
X-697285Y705843D02*
X-710785D01*
Y719343D01*
X-697285D01*
Y705843D01*
D02*
G37*
G36*
X-747660D02*
X-759410D01*
Y780968D01*
X-759660Y780843D01*
X-760160Y780343D01*
X-761160Y779468D01*
X-762410Y778468D01*
X-764035Y777218D01*
X-766035Y775843D01*
X-768160Y774343D01*
X-770660Y772843D01*
X-770785D01*
X-770910Y772718D01*
X-771285Y772468D01*
X-771785Y772218D01*
X-773160Y771468D01*
X-774785Y770593D01*
X-776660Y769593D01*
X-778785Y768593D01*
X-780910Y767593D01*
X-783035Y766718D01*
Y778218D01*
X-782910D01*
X-782535Y778468D01*
X-782035Y778718D01*
X-781410Y779093D01*
X-780535Y779468D01*
X-779535Y780093D01*
X-777160Y781343D01*
X-774535Y782968D01*
X-771535Y784968D01*
X-768660Y787093D01*
X-765785Y789468D01*
X-765660Y789593D01*
X-765410Y789718D01*
X-765035Y790093D01*
X-764535Y790593D01*
X-763285Y791843D01*
X-761660Y793593D01*
X-760035Y795468D01*
X-758285Y797718D01*
X-756660Y799968D01*
X-755285Y802343D01*
X-747660D01*
Y705843D01*
D02*
G37*
G36*
X-974035Y801843D02*
X-971660D01*
X-968910Y801593D01*
X-966035Y801343D01*
X-963285Y800968D01*
X-960910Y800468D01*
X-960785D01*
X-960535Y800343D01*
X-960035Y800218D01*
X-959535Y800093D01*
X-958785Y799843D01*
X-957910Y799593D01*
X-956035Y798968D01*
X-953785Y797968D01*
X-951410Y796843D01*
X-949035Y795343D01*
X-946785Y793593D01*
X-946660Y793468D01*
X-946410Y793343D01*
X-946035Y792968D01*
X-945535Y792468D01*
X-944910Y791843D01*
X-944160Y791093D01*
X-943410Y790218D01*
X-942535Y789218D01*
X-940660Y786843D01*
X-938785Y783968D01*
X-936910Y780843D01*
X-935410Y777218D01*
Y777093D01*
X-935285Y776718D01*
X-935035Y776218D01*
X-934785Y775468D01*
X-934535Y774468D01*
X-934160Y773343D01*
X-933785Y772093D01*
X-933410Y770593D01*
X-933160Y768968D01*
X-932785Y767218D01*
X-932410Y765343D01*
X-932160Y763343D01*
X-931660Y758968D01*
X-931535Y754343D01*
Y754218D01*
Y753843D01*
Y753343D01*
Y752468D01*
X-931660Y751593D01*
Y750468D01*
X-931785Y749218D01*
X-931910Y747843D01*
X-932160Y744843D01*
X-932660Y741593D01*
X-933285Y738218D01*
X-934160Y734968D01*
Y734843D01*
X-934285Y734593D01*
X-934410Y734093D01*
X-934660Y733593D01*
X-934910Y732843D01*
X-935160Y731968D01*
X-935910Y730093D01*
X-936785Y727843D01*
X-937910Y725468D01*
X-939285Y723093D01*
X-940660Y720968D01*
X-940785Y720718D01*
X-941410Y720093D01*
X-942160Y719093D01*
X-943285Y717843D01*
X-944535Y716468D01*
X-946035Y714968D01*
X-947785Y713593D01*
X-949535Y712218D01*
X-949785Y712093D01*
X-950410Y711718D01*
X-951410Y711093D01*
X-952785Y710468D01*
X-954410Y709718D01*
X-956410Y708843D01*
X-958660Y708093D01*
X-961035Y707468D01*
X-961160D01*
X-961285Y707343D01*
X-961660D01*
X-962160Y707218D01*
X-962785Y707093D01*
X-963535Y706968D01*
X-965410Y706718D01*
X-967660Y706343D01*
X-970285Y706093D01*
X-973285Y705968D01*
X-976410Y705843D01*
X-1011035D01*
Y801968D01*
X-975160D01*
X-974035Y801843D01*
D02*
G37*
G36*
X-1209660Y705843D02*
X-1221410D01*
Y775468D01*
X-1209660D01*
Y705843D01*
D02*
G37*
G36*
X-1239785D02*
X-1251535D01*
Y801968D01*
X-1239785D01*
Y705843D01*
D02*
G37*
G36*
X-1293410Y776842D02*
X-1291410Y776717D01*
X-1289160Y776467D01*
X-1286660Y776092D01*
X-1284410Y775592D01*
X-1282160Y774842D01*
X-1282035D01*
X-1281910Y774717D01*
X-1281285Y774467D01*
X-1280285Y773967D01*
X-1279035Y773342D01*
X-1277660Y772592D01*
X-1276285Y771717D01*
X-1275035Y770592D01*
X-1273910Y769467D01*
X-1273785Y769342D01*
X-1273535Y768967D01*
X-1273035Y768217D01*
X-1272410Y767342D01*
X-1271785Y766217D01*
X-1271160Y764842D01*
X-1270660Y763342D01*
X-1270160Y761592D01*
Y761467D01*
X-1270035Y760967D01*
X-1269910Y760217D01*
X-1269785Y759092D01*
Y757592D01*
X-1269660Y755717D01*
X-1269535Y753467D01*
Y750717D01*
Y734967D01*
Y734842D01*
Y734217D01*
Y733467D01*
Y732342D01*
Y731092D01*
Y729592D01*
Y727967D01*
X-1269410Y726217D01*
Y722717D01*
X-1269285Y719342D01*
X-1269160Y717717D01*
Y716342D01*
X-1269035Y715217D01*
X-1268910Y714217D01*
Y713967D01*
X-1268785Y713467D01*
X-1268535Y712592D01*
X-1268285Y711592D01*
X-1267785Y710217D01*
X-1267285Y708842D01*
X-1266660Y707342D01*
X-1265910Y705842D01*
X-1278285D01*
X-1278410Y705967D01*
X-1278535Y706467D01*
X-1278910Y707217D01*
X-1279160Y708342D01*
X-1279660Y709592D01*
X-1279910Y711092D01*
X-1280285Y712717D01*
X-1280535Y714592D01*
X-1280660D01*
X-1280785Y714342D01*
X-1281160Y714092D01*
X-1281660Y713717D01*
X-1282910Y712717D01*
X-1284660Y711467D01*
X-1286535Y710217D01*
X-1288660Y708842D01*
X-1291035Y707592D01*
X-1293285Y706592D01*
X-1293410D01*
X-1293535Y706467D01*
X-1293910Y706342D01*
X-1294285Y706217D01*
X-1295535Y705842D01*
X-1297160Y705467D01*
X-1299035Y705092D01*
X-1301285Y704717D01*
X-1303660Y704467D01*
X-1306160Y704342D01*
X-1307285D01*
X-1308035Y704467D01*
X-1309035D01*
X-1310160Y704592D01*
X-1312660Y705092D01*
X-1315535Y705717D01*
X-1318410Y706717D01*
X-1321285Y708092D01*
X-1322535Y708842D01*
X-1323785Y709842D01*
X-1323910Y709967D01*
X-1324035Y710092D01*
X-1324785Y710842D01*
X-1325660Y712092D01*
X-1326785Y713717D01*
X-1327910Y715842D01*
X-1328910Y718217D01*
X-1329660Y720967D01*
X-1329785Y722467D01*
X-1329910Y724092D01*
Y724342D01*
Y724967D01*
X-1329785Y725967D01*
X-1329660Y727217D01*
X-1329410Y728592D01*
X-1328910Y730217D01*
X-1328410Y731842D01*
X-1327660Y733467D01*
X-1327535Y733717D01*
X-1327285Y734217D01*
X-1326660Y734967D01*
X-1326035Y735967D01*
X-1325160Y736967D01*
X-1324035Y738092D01*
X-1322910Y739217D01*
X-1321535Y740217D01*
X-1321410Y740342D01*
X-1320910Y740592D01*
X-1320035Y741092D01*
X-1319035Y741717D01*
X-1317785Y742342D01*
X-1316410Y742967D01*
X-1314785Y743592D01*
X-1313035Y744092D01*
X-1312910D01*
X-1312410Y744217D01*
X-1311535Y744467D01*
X-1310410Y744592D01*
X-1308910Y744967D01*
X-1307160Y745217D01*
X-1305035Y745467D01*
X-1302535Y745842D01*
X-1302410D01*
X-1301910Y745967D01*
X-1301160D01*
X-1300160Y746217D01*
X-1299035Y746342D01*
X-1297660Y746467D01*
X-1296160Y746717D01*
X-1294535Y746967D01*
X-1291160Y747592D01*
X-1287660Y748342D01*
X-1284410Y749092D01*
X-1282910Y749592D01*
X-1281535Y749967D01*
Y750092D01*
Y750342D01*
Y750717D01*
X-1281410Y751217D01*
Y752217D01*
Y752717D01*
Y752967D01*
Y753092D01*
Y753342D01*
Y753717D01*
Y754092D01*
X-1281535Y755467D01*
X-1281785Y756967D01*
X-1282285Y758717D01*
X-1282785Y760342D01*
X-1283660Y761967D01*
X-1284785Y763217D01*
X-1285035Y763342D01*
X-1285660Y763842D01*
X-1286660Y764467D01*
X-1288160Y765217D01*
X-1290160Y765967D01*
X-1292410Y766592D01*
X-1295160Y767092D01*
X-1298285Y767217D01*
X-1299660D01*
X-1301160Y767092D01*
X-1302910Y766842D01*
X-1305035Y766467D01*
X-1307035Y765967D01*
X-1309035Y765217D01*
X-1310660Y764217D01*
X-1310785Y764092D01*
X-1311285Y763717D01*
X-1312035Y762967D01*
X-1312785Y761842D01*
X-1313785Y760467D01*
X-1314660Y758717D01*
X-1315660Y756467D01*
X-1316410Y753967D01*
X-1327910Y755592D01*
Y755717D01*
X-1327785Y755967D01*
Y756342D01*
X-1327660Y756842D01*
X-1327285Y758217D01*
X-1326660Y759842D01*
X-1326035Y761717D01*
X-1325160Y763717D01*
X-1324035Y765717D01*
X-1322785Y767467D01*
X-1322660Y767717D01*
X-1322160Y768217D01*
X-1321285Y768967D01*
X-1320160Y770092D01*
X-1318660Y771217D01*
X-1316910Y772342D01*
X-1314785Y773467D01*
X-1312410Y774467D01*
X-1312285D01*
X-1312035Y774592D01*
X-1311660Y774717D01*
X-1311160Y774842D01*
X-1310535Y775092D01*
X-1309785Y775217D01*
X-1307785Y775717D01*
X-1305535Y776217D01*
X-1302785Y776592D01*
X-1299785Y776842D01*
X-1296535Y776967D01*
X-1294285D01*
X-1293410Y776842D01*
D02*
G37*
G36*
X-1177785Y775468D02*
X-1165910D01*
Y766343D01*
X-1177785D01*
Y725593D01*
Y725343D01*
Y724718D01*
Y723843D01*
X-1177660Y722843D01*
Y721718D01*
X-1177535Y720593D01*
X-1177410Y719718D01*
X-1177285Y718968D01*
X-1177160Y718718D01*
X-1176785Y718218D01*
X-1176160Y717468D01*
X-1175285Y716718D01*
X-1175160D01*
X-1175035Y716593D01*
X-1174660Y716468D01*
X-1174160Y716343D01*
X-1172910Y716093D01*
X-1171160Y715968D01*
X-1169785D01*
X-1169035Y716093D01*
X-1168035D01*
X-1167035Y716218D01*
X-1165910Y716343D01*
X-1164285Y705968D01*
X-1164535D01*
X-1165160Y705843D01*
X-1166035Y705718D01*
X-1167285Y705468D01*
X-1168660Y705343D01*
X-1170160Y705093D01*
X-1173285Y704968D01*
X-1174285D01*
X-1175535Y705093D01*
X-1176910Y705218D01*
X-1178535Y705468D01*
X-1180160Y705843D01*
X-1181785Y706343D01*
X-1183160Y706968D01*
X-1183285Y707093D01*
X-1183785Y707343D01*
X-1184285Y707718D01*
X-1185035Y708343D01*
X-1185910Y709093D01*
X-1186785Y710093D01*
X-1187535Y711093D01*
X-1188160Y712218D01*
Y712343D01*
X-1188410Y712968D01*
X-1188535Y713843D01*
X-1188785Y715218D01*
X-1188910Y716093D01*
X-1189035Y717093D01*
X-1189160Y718218D01*
X-1189285Y719593D01*
X-1189410Y720968D01*
Y722593D01*
X-1189535Y724343D01*
Y726218D01*
Y766343D01*
X-1198285D01*
Y775468D01*
X-1189535D01*
Y792593D01*
X-1177785Y799718D01*
Y775468D01*
D02*
G37*
G36*
X-1369785Y776842D02*
X-1368660Y776717D01*
X-1367285Y776467D01*
X-1365660Y776217D01*
X-1364035Y775842D01*
X-1362285Y775342D01*
X-1360410Y774592D01*
X-1358535Y773842D01*
X-1356660Y772967D01*
X-1354660Y771842D01*
X-1352785Y770592D01*
X-1351035Y769092D01*
X-1349285Y767467D01*
X-1349160Y767342D01*
X-1348910Y766967D01*
X-1348410Y766467D01*
X-1347910Y765717D01*
X-1347285Y764717D01*
X-1346535Y763592D01*
X-1345660Y762217D01*
X-1344785Y760592D01*
X-1344035Y758717D01*
X-1343160Y756717D01*
X-1342410Y754592D01*
X-1341785Y752217D01*
X-1341285Y749592D01*
X-1340785Y746842D01*
X-1340535Y743842D01*
X-1340410Y740717D01*
Y740467D01*
Y739967D01*
Y738967D01*
X-1340535Y737592D01*
X-1392410D01*
Y737467D01*
Y737092D01*
X-1392285Y736467D01*
X-1392160Y735717D01*
X-1392035Y734717D01*
X-1391910Y733592D01*
X-1391410Y731092D01*
X-1390535Y728217D01*
X-1389410Y725342D01*
X-1387910Y722592D01*
X-1387035Y721342D01*
X-1386035Y720092D01*
X-1385910Y719967D01*
X-1385785Y719842D01*
X-1385410Y719592D01*
X-1385035Y719217D01*
X-1383660Y718217D01*
X-1382035Y717092D01*
X-1379910Y715967D01*
X-1377410Y715092D01*
X-1374535Y714342D01*
X-1373035Y714217D01*
X-1371410Y714092D01*
X-1370285D01*
X-1369160Y714217D01*
X-1367535Y714467D01*
X-1365910Y714967D01*
X-1364035Y715467D01*
X-1362160Y716342D01*
X-1360410Y717467D01*
X-1360160Y717592D01*
X-1359660Y718092D01*
X-1358785Y718967D01*
X-1357785Y720092D01*
X-1356660Y721592D01*
X-1355410Y723592D01*
X-1354160Y725842D01*
X-1353160Y728467D01*
X-1340910Y726842D01*
Y726717D01*
X-1341035Y726342D01*
X-1341160Y725842D01*
X-1341535Y725092D01*
X-1341785Y724217D01*
X-1342285Y723092D01*
X-1343285Y720717D01*
X-1344785Y718092D01*
X-1346660Y715342D01*
X-1348910Y712592D01*
X-1351535Y710217D01*
X-1351660D01*
X-1351910Y709967D01*
X-1352285Y709717D01*
X-1352910Y709342D01*
X-1353660Y708842D01*
X-1354660Y708342D01*
X-1355660Y707842D01*
X-1356910Y707342D01*
X-1358285Y706717D01*
X-1359785Y706217D01*
X-1361410Y705717D01*
X-1363160Y705217D01*
X-1367035Y704592D01*
X-1369160Y704467D01*
X-1371410Y704342D01*
X-1372035D01*
X-1372910Y704467D01*
X-1373910D01*
X-1375160Y704592D01*
X-1376660Y704842D01*
X-1378410Y705092D01*
X-1380160Y705467D01*
X-1382035Y705967D01*
X-1384035Y706592D01*
X-1386035Y707342D01*
X-1388035Y708342D01*
X-1390035Y709342D01*
X-1392035Y710592D01*
X-1393910Y712092D01*
X-1395660Y713717D01*
X-1395785Y713842D01*
X-1396035Y714217D01*
X-1396535Y714717D01*
X-1397035Y715467D01*
X-1397660Y716467D01*
X-1398410Y717592D01*
X-1399285Y718967D01*
X-1400035Y720467D01*
X-1400910Y722342D01*
X-1401785Y724217D01*
X-1402535Y726467D01*
X-1403160Y728717D01*
X-1403660Y731342D01*
X-1404160Y733967D01*
X-1404410Y736842D01*
X-1404535Y739967D01*
Y740217D01*
Y740717D01*
X-1404410Y741717D01*
Y742842D01*
X-1404285Y744342D01*
X-1404035Y746092D01*
X-1403785Y747967D01*
X-1403410Y749967D01*
X-1402910Y752092D01*
X-1402285Y754342D01*
X-1401660Y756592D01*
X-1400785Y758842D01*
X-1399660Y761092D01*
X-1398535Y763342D01*
X-1397160Y765342D01*
X-1395535Y767217D01*
X-1395410Y767342D01*
X-1395160Y767592D01*
X-1394660Y768092D01*
X-1393910Y768717D01*
X-1393035Y769467D01*
X-1391910Y770342D01*
X-1390660Y771217D01*
X-1389285Y772092D01*
X-1387660Y772967D01*
X-1385910Y773842D01*
X-1383910Y774717D01*
X-1381910Y775467D01*
X-1379660Y776092D01*
X-1377285Y776592D01*
X-1374785Y776842D01*
X-1372160Y776967D01*
X-1370785D01*
X-1369785Y776842D01*
D02*
G37*
G36*
X-381535Y865180D02*
X-431599D01*
X-431515Y865014D01*
X-431182Y864680D01*
X-430599Y864014D01*
X-429933Y863181D01*
X-429100Y862098D01*
X-428183Y860765D01*
X-427184Y859349D01*
X-426184Y857683D01*
Y857600D01*
X-426101Y857517D01*
X-425934Y857267D01*
X-425768Y856933D01*
X-425268Y856017D01*
X-424685Y854934D01*
X-424018Y853685D01*
X-423352Y852269D01*
X-422686Y850853D01*
X-422103Y849437D01*
X-429766D01*
Y849520D01*
X-429933Y849770D01*
X-430099Y850103D01*
X-430349Y850519D01*
X-430599Y851102D01*
X-431016Y851769D01*
X-431849Y853352D01*
X-432932Y855101D01*
X-434264Y857100D01*
X-435680Y859016D01*
X-437263Y860932D01*
X-437346Y861015D01*
X-437430Y861182D01*
X-437680Y861432D01*
X-438013Y861765D01*
X-438846Y862598D01*
X-440012Y863681D01*
X-441262Y864764D01*
X-442761Y865930D01*
X-444260Y867013D01*
X-445843Y867929D01*
Y873010D01*
X-381535D01*
Y865180D01*
D02*
G37*
G36*
X-425684Y835692D02*
X-424935Y835609D01*
X-424102Y835525D01*
X-423185Y835359D01*
X-422269Y835109D01*
X-420020Y834526D01*
X-418937Y834109D01*
X-417771Y833526D01*
X-416605Y832943D01*
X-415438Y832277D01*
X-414272Y831444D01*
X-413189Y830527D01*
X-413106Y830444D01*
X-412940Y830278D01*
X-412690Y829944D01*
X-412273Y829528D01*
X-411857Y828945D01*
X-411440Y828195D01*
X-410857Y827279D01*
X-410357Y826279D01*
X-409857Y825030D01*
X-409358Y823697D01*
X-408858Y822114D01*
X-408441Y820448D01*
X-408025Y818532D01*
X-407775Y816450D01*
X-407608Y814201D01*
X-407525Y811785D01*
Y795458D01*
X-381535D01*
Y786962D01*
X-445593D01*
Y813284D01*
X-445510Y814700D01*
X-445426Y816200D01*
X-445343Y817866D01*
X-445177Y819448D01*
X-444927Y820781D01*
Y821031D01*
X-444843Y821198D01*
X-444760Y821531D01*
X-444594Y822447D01*
X-444260Y823530D01*
X-443844Y824780D01*
X-443344Y826029D01*
X-442678Y827362D01*
X-441928Y828611D01*
X-441845Y828778D01*
X-441511Y829111D01*
X-441012Y829778D01*
X-440345Y830444D01*
X-439512Y831277D01*
X-438429Y832193D01*
X-437180Y833026D01*
X-435764Y833776D01*
X-435680D01*
X-435597Y833859D01*
X-435347Y833943D01*
X-435097Y834109D01*
X-434264Y834442D01*
X-433181Y834776D01*
X-431849Y835109D01*
X-430349Y835442D01*
X-428767Y835692D01*
X-427017Y835775D01*
X-426934D01*
X-426684D01*
X-426267D01*
X-425684Y835692D01*
D02*
G37*
G36*
X-381535Y768969D02*
X-404360Y752808D01*
X-404443Y752725D01*
X-404693Y752559D01*
X-405109Y752309D01*
X-405609Y751976D01*
X-406192Y751559D01*
X-406859Y751143D01*
X-408275Y750143D01*
X-408108Y750060D01*
X-407775Y749810D01*
X-407192Y749476D01*
X-406525Y748977D01*
X-404943Y747977D01*
X-404276Y747561D01*
X-403693Y747144D01*
X-381535Y730901D01*
Y720738D01*
X-414772Y745478D01*
X-445593Y723654D01*
Y733816D01*
X-429183Y745478D01*
X-429100Y745561D01*
X-428933Y745645D01*
X-428683Y745811D01*
X-428350Y746061D01*
X-427434Y746728D01*
X-426267Y747477D01*
X-425018Y748310D01*
X-423685Y749143D01*
X-422436Y749893D01*
X-421353Y750559D01*
X-421519Y750643D01*
X-421936Y750976D01*
X-422602Y751392D01*
X-423519Y751976D01*
X-424601Y752725D01*
X-425851Y753641D01*
X-427101Y754558D01*
X-428517Y755641D01*
X-445593Y768386D01*
Y777632D01*
X-415105Y755474D01*
X-381535Y779381D01*
Y768969D01*
D02*
G37*
G36*
Y667842D02*
X-445593D01*
Y714074D01*
X-438013D01*
Y676339D01*
X-418521D01*
Y711658D01*
X-410940D01*
Y676339D01*
X-389116D01*
Y715573D01*
X-381535D01*
Y667842D01*
D02*
G37*
%LPC*%
G36*
X-976035Y790593D02*
X-998285D01*
Y717218D01*
X-975410D01*
X-974535Y717343D01*
X-972410Y717468D01*
X-970035Y717593D01*
X-967535Y717968D01*
X-965035Y718343D01*
X-962910Y718968D01*
X-962785D01*
X-962660Y719093D01*
X-962035Y719343D01*
X-961035Y719718D01*
X-959785Y720218D01*
X-958410Y720968D01*
X-957035Y721718D01*
X-955535Y722718D01*
X-954285Y723843D01*
X-954035Y724093D01*
X-953535Y724718D01*
X-952785Y725718D01*
X-951660Y727093D01*
X-950535Y728843D01*
X-949410Y730968D01*
X-948285Y733343D01*
X-947285Y736093D01*
Y736218D01*
X-947160Y736468D01*
X-947035Y736843D01*
X-946910Y737468D01*
X-946660Y738218D01*
X-946410Y739093D01*
X-946160Y740093D01*
X-945910Y741218D01*
X-945785Y742593D01*
X-945535Y743968D01*
X-945035Y747093D01*
X-944785Y750718D01*
X-944660Y754593D01*
Y754718D01*
Y755218D01*
Y756093D01*
X-944785Y757093D01*
Y758343D01*
X-944910Y759718D01*
X-945035Y761343D01*
X-945285Y763093D01*
X-945910Y766843D01*
X-946785Y770718D01*
X-948035Y774343D01*
X-948785Y776093D01*
X-949660Y777718D01*
Y777843D01*
X-949910Y778093D01*
X-950160Y778468D01*
X-950535Y779093D01*
X-951660Y780468D01*
X-953035Y782093D01*
X-954785Y783968D01*
X-956785Y785718D01*
X-959160Y787343D01*
X-960410Y787968D01*
X-961660Y788593D01*
X-961910Y788718D01*
X-962160Y788843D01*
X-962660Y788968D01*
X-963160Y789093D01*
X-963910Y789218D01*
X-964660Y789468D01*
X-965660Y789593D01*
X-966660Y789843D01*
X-967910Y789968D01*
X-969285Y790093D01*
X-970785Y790343D01*
X-972410Y790468D01*
X-974160D01*
X-976035Y790593D01*
D02*
G37*
G36*
X-1281535Y740717D02*
X-1281660D01*
X-1281785Y740592D01*
X-1282160Y740467D01*
X-1282785Y740342D01*
X-1283410Y740092D01*
X-1284285Y739842D01*
X-1285285Y739467D01*
X-1286410Y739217D01*
X-1287660Y738842D01*
X-1289035Y738467D01*
X-1290660Y738092D01*
X-1292410Y737717D01*
X-1294285Y737342D01*
X-1296285Y736967D01*
X-1298410Y736592D01*
X-1300785Y736217D01*
X-1301160D01*
X-1301410Y736092D01*
X-1301910D01*
X-1303285Y735842D01*
X-1304785Y735592D01*
X-1306410Y735217D01*
X-1308160Y734842D01*
X-1309785Y734342D01*
X-1311035Y733842D01*
X-1311160D01*
X-1311535Y733592D01*
X-1312035Y733342D01*
X-1312785Y732967D01*
X-1314285Y731717D01*
X-1315035Y730967D01*
X-1315660Y730092D01*
X-1315785Y729967D01*
X-1315910Y729717D01*
X-1316160Y729092D01*
X-1316410Y728467D01*
X-1316785Y727592D01*
X-1317035Y726717D01*
X-1317160Y725592D01*
X-1317285Y724467D01*
Y724217D01*
Y723717D01*
X-1317035Y722842D01*
X-1316785Y721717D01*
X-1316410Y720592D01*
X-1315785Y719217D01*
X-1314910Y717967D01*
X-1313785Y716717D01*
X-1313660Y716592D01*
X-1313160Y716217D01*
X-1312285Y715717D01*
X-1311160Y715217D01*
X-1309660Y714592D01*
X-1307785Y714092D01*
X-1305660Y713717D01*
X-1303285Y713592D01*
X-1302160D01*
X-1300910Y713717D01*
X-1299285Y713967D01*
X-1297410Y714342D01*
X-1295410Y714842D01*
X-1293285Y715467D01*
X-1291285Y716467D01*
X-1291160D01*
X-1291035Y716592D01*
X-1290410Y716967D01*
X-1289410Y717717D01*
X-1288285Y718592D01*
X-1287035Y719717D01*
X-1285660Y721217D01*
X-1284410Y722717D01*
X-1283410Y724592D01*
X-1283285Y724842D01*
X-1283160Y725342D01*
X-1282785Y726217D01*
X-1282410Y727592D01*
X-1282160Y729217D01*
X-1281785Y731217D01*
X-1281660Y733592D01*
X-1281535Y736342D01*
Y740717D01*
D02*
G37*
G36*
X-1372035Y767217D02*
X-1372785D01*
X-1373410Y767092D01*
X-1374035D01*
X-1374910Y766967D01*
X-1376785Y766592D01*
X-1378910Y765842D01*
X-1381285Y764842D01*
X-1383535Y763592D01*
X-1384660Y762717D01*
X-1385785Y761717D01*
X-1386035Y761467D01*
X-1386660Y760717D01*
X-1387535Y759592D01*
X-1388535Y757967D01*
X-1389660Y755842D01*
X-1390660Y753342D01*
X-1391410Y750592D01*
X-1391785Y747342D01*
X-1352910D01*
Y747467D01*
Y747717D01*
X-1353035Y748217D01*
X-1353160Y748717D01*
Y749467D01*
X-1353410Y750342D01*
X-1353785Y752217D01*
X-1354410Y754342D01*
X-1355160Y756467D01*
X-1356160Y758592D01*
X-1357410Y760342D01*
Y760467D01*
X-1357660Y760592D01*
X-1358035Y760967D01*
X-1358410Y761467D01*
X-1359660Y762467D01*
X-1361285Y763842D01*
X-1363410Y765092D01*
X-1365910Y766092D01*
X-1368785Y766967D01*
X-1370410Y767092D01*
X-1372035Y767217D01*
D02*
G37*
G36*
X-426767Y827029D02*
X-426851D01*
X-426934D01*
X-427434D01*
X-428183Y826946D01*
X-429100Y826779D01*
X-430183Y826529D01*
X-431349Y826112D01*
X-432515Y825613D01*
X-433598Y824946D01*
X-433764Y824863D01*
X-434098Y824613D01*
X-434598Y824113D01*
X-435181Y823530D01*
X-435847Y822780D01*
X-436430Y821864D01*
X-437013Y820781D01*
X-437430Y819615D01*
Y819532D01*
X-437513Y819199D01*
X-437596Y818615D01*
X-437763Y817866D01*
X-437846Y816783D01*
X-437930Y815450D01*
X-438013Y813784D01*
Y795458D01*
X-415105D01*
Y812701D01*
X-415189Y813284D01*
Y813951D01*
X-415272Y814700D01*
X-415522Y816450D01*
X-415855Y818366D01*
X-416355Y820282D01*
X-417104Y822031D01*
X-417604Y822864D01*
X-418104Y823530D01*
X-418271Y823697D01*
X-418687Y824113D01*
X-419354Y824613D01*
X-420353Y825279D01*
X-421603Y825946D01*
X-423102Y826446D01*
X-424768Y826862D01*
X-426767Y827029D01*
D02*
G37*
%LPD*%
D10*
X-2938431Y302971D02*
G03*
X-2938431Y302971I-9055J0D01*
G01*
X-2740441Y303971D02*
G03*
X-2740441Y303971I-11045J0D01*
G01*
X-2544487Y304971D02*
G03*
X-2544487Y304971I-9000J0D01*
G01*
X-2288906Y186843D02*
G03*
X-2288906Y186843I-72078J0D01*
G01*
X-2489840D02*
G03*
X-2489840Y186843I-67994J0D01*
G01*
X-2688241D02*
G03*
X-2688241Y186843I-66444J0D01*
G01*
X-2880535D02*
G03*
X-2880535Y186843I-70106J0D01*
G01*
X-3283425Y1045268D02*
G03*
X-3283425Y1045268I-5000J0D01*
G01*
X-2349416Y304971D02*
G03*
X-2349416Y304971I-7071J0D01*
G01*
X-1687535Y210843D02*
Y249268D01*
Y210843D02*
X-1627535D01*
Y249268D01*
X-1805960Y26433D02*
Y170843D01*
Y149268D02*
Y249268D01*
X-1745960D01*
X-1807535Y24858D02*
X-1507535D01*
X-1745960Y249268D02*
X-1507535D01*
Y24858D02*
Y249268D01*
X-1367535Y210843D02*
Y249268D01*
Y210843D02*
X-1307535D01*
Y249268D01*
X-1485960Y26433D02*
Y170843D01*
Y149268D02*
Y249268D01*
X-1425960D01*
X-1487535Y24858D02*
X-1187535D01*
X-1425960Y249268D02*
X-1187535D01*
Y24858D02*
Y249268D01*
X-1047535Y210843D02*
Y249268D01*
Y210843D02*
X-987535D01*
Y249268D01*
X-1165960Y26433D02*
Y170843D01*
Y149268D02*
Y249268D01*
X-1105960D01*
X-1167535Y24858D02*
X-867535D01*
X-1105960Y249268D02*
X-867535D01*
Y24858D02*
Y249268D01*
X-547535Y24858D02*
Y249268D01*
X-785960D02*
X-547535D01*
X-847535Y24858D02*
X-547535D01*
X-845960Y249268D02*
X-785960D01*
X-845960Y149268D02*
Y249268D01*
Y26433D02*
Y170843D01*
X-667535Y210843D02*
Y249268D01*
X-727535Y210843D02*
X-667535D01*
X-727535D02*
Y249268D01*
X-407535Y210843D02*
Y249268D01*
Y210843D02*
X-347535D01*
Y249268D01*
X-525960Y26433D02*
Y170843D01*
Y149268D02*
Y249268D01*
X-465960D01*
X-527535Y24858D02*
X-227535D01*
X-465960Y249268D02*
X-227535D01*
Y24858D02*
Y249268D01*
X-1507488Y2506418D02*
Y2730827D01*
Y2506418D02*
X-1269063D01*
X-1507488Y2730827D02*
X-1207488D01*
X-1269063Y2506418D02*
X-1209063D01*
X-1009063D02*
Y2606418D01*
X-1427488Y2506418D02*
Y2544843D01*
X-1367488D01*
Y2506418D02*
Y2544843D01*
X-1209063Y2506418D02*
X-1009063D01*
X-1207488Y2730827D02*
X-1015047D01*
X-1009063Y2606418D02*
Y2724843D01*
X-1015047Y2730827D02*
X-1009063Y2724843D01*
X-1147488Y2506418D02*
Y2544843D01*
X-1087488D01*
Y2506418D02*
Y2544843D01*
X-1794535Y2506418D02*
Y2544843D01*
X-1854535D02*
X-1794535D01*
X-1854535Y2506418D02*
Y2544843D01*
X-1722094Y2730827D02*
X-1716110Y2724843D01*
Y2606418D02*
Y2724843D01*
X-1914535Y2730827D02*
X-1722094D01*
X-1916110Y2506418D02*
X-1716110D01*
X-2074535D02*
Y2544843D01*
X-2134535D02*
X-2074535D01*
X-2134535Y2506418D02*
Y2544843D01*
X-1716110Y2506418D02*
Y2606418D01*
X-1976110Y2506418D02*
X-1916110D01*
X-2214535Y2730827D02*
X-1914535D01*
X-2214535Y2506418D02*
X-1976110D01*
X-2214535D02*
Y2730827D01*
X-2599535Y2506418D02*
Y2544843D01*
X-2659535D02*
X-2599535D01*
X-2659535Y2506418D02*
Y2544843D01*
X-2527094Y2730827D02*
X-2521110Y2724843D01*
Y2606418D02*
Y2724843D01*
X-2719535Y2730827D02*
X-2527094D01*
X-2721110Y2506418D02*
X-2521110D01*
X-2879535D02*
Y2544843D01*
X-2939535D02*
X-2879535D01*
X-2939535Y2506418D02*
Y2544843D01*
X-2521110Y2506418D02*
Y2606418D01*
X-2781110Y2506418D02*
X-2721110D01*
X-3019535Y2730827D02*
X-2719535D01*
X-3019535Y2506418D02*
X-2781110D01*
X-3019535D02*
Y2730827D01*
X-3394535Y2506418D02*
Y2544843D01*
X-3454535D02*
X-3394535D01*
X-3454535Y2506418D02*
Y2544843D01*
X-3322094Y2730827D02*
X-3316110Y2724843D01*
Y2606418D02*
Y2724843D01*
X-3514535Y2730827D02*
X-3322094D01*
X-3516110Y2506418D02*
X-3316110D01*
X-3674535D02*
Y2544843D01*
X-3734535D02*
X-3674535D01*
X-3734535Y2506418D02*
Y2544843D01*
X-3316110Y2506418D02*
Y2606418D01*
X-3576110Y2506418D02*
X-3516110D01*
X-3814535Y2730827D02*
X-3514535D01*
X-3814535Y2506418D02*
X-3576110D01*
X-3814535D02*
Y2730827D01*
X-2277932Y343483D02*
X-2262168D01*
X-2277932Y304634D02*
Y343483D01*
Y304634D02*
X-2258824D01*
X-2258487Y304971D01*
X-2673505Y344849D02*
X-2656128D01*
X-2673505Y305378D02*
Y344849D01*
Y305378D02*
X-2654238D01*
X-2653646Y305971D01*
X-3068689Y342971D02*
X-3048350D01*
X-3068830Y343111D02*
X-3068689Y342971D01*
X-3068830Y304882D02*
Y343111D01*
Y304882D02*
X-3049591D01*
X-2459521Y112618D02*
Y248406D01*
X-2653646Y361108D02*
X-2652487Y359950D01*
Y64212D02*
Y359950D01*
X-2854970Y115597D02*
Y249399D01*
X-3047415Y283906D02*
X-2258487D01*
X-3045868Y87174D02*
X-2259284D01*
X-3048350Y64212D02*
X-2259487D01*
X-2258487Y65212D01*
Y362598D01*
X-3048350D02*
X-2258487D01*
X-3048350Y64212D02*
Y362598D01*
X-2953487Y143970D02*
Y230970D01*
X-293535Y1163842D02*
X-279535Y1149842D01*
X-267535Y1161842D01*
X-350756Y730119D02*
X-296110D01*
Y590119D02*
Y730119D01*
X-350756Y590119D02*
X-296110D01*
X-3914087Y23716D02*
X-3520386D01*
Y555213D01*
X-3914087D02*
X-3520386D01*
X-3914087Y23716D02*
Y555213D01*
X-1836535Y25858D02*
Y250268D01*
X-2074960D02*
X-1836535D01*
X-2136535Y25858D02*
X-1836535D01*
X-2134960Y250268D02*
X-2074960D01*
X-2134960Y150268D02*
Y250268D01*
Y27433D02*
Y171843D01*
X-1956535Y211843D02*
Y250268D01*
X-2016535Y211843D02*
X-1956535D01*
X-2016535D02*
Y250268D01*
X-1790535Y546842D02*
Y585268D01*
Y546842D02*
X-1730535D01*
Y585268D01*
X-1908960Y362433D02*
Y506842D01*
Y485267D02*
Y585268D01*
X-1848960D01*
X-1910535Y360858D02*
X-1610535D01*
X-1848960Y585268D02*
X-1610535D01*
Y360858D02*
Y585268D01*
D297*
X-2792535Y413328D02*
Y381842D01*
X-2776792D01*
X-2771545Y387090D01*
Y392338D01*
X-2776792Y397586D01*
X-2792535D01*
X-2776792D01*
X-2771545Y402833D01*
Y408081D01*
X-2776792Y413328D01*
X-2792535D01*
X-2740059D02*
X-2761050D01*
Y381842D01*
X-2740059D01*
X-2761050Y397586D02*
X-2750554D01*
X-2729564Y413328D02*
Y381842D01*
X-2713821D01*
X-2708573Y387090D01*
Y408081D01*
X-2713821Y413328D01*
X-2729564D01*
X-2452535Y411328D02*
Y379842D01*
Y395586D01*
X-2431545D01*
Y411328D01*
Y379842D01*
X-2405307Y411328D02*
X-2415802D01*
X-2421050Y406081D01*
Y385090D01*
X-2415802Y379842D01*
X-2405307D01*
X-2400059Y385090D01*
Y406081D01*
X-2405307Y411328D01*
X-2389564D02*
X-2368573D01*
X-2379068D01*
Y379842D01*
X-2358078Y395586D02*
X-2337087D01*
X-2305601Y411328D02*
X-2326592D01*
Y379842D01*
X-2305601D01*
X-2326592Y395586D02*
X-2316097D01*
X-2295106Y379842D02*
Y411328D01*
X-2274115Y379842D01*
Y411328D01*
X-2263620D02*
Y379842D01*
X-2247877D01*
X-2242629Y385090D01*
Y406081D01*
X-2247877Y411328D01*
X-2263620D01*
X-3021535Y397586D02*
X-3000545D01*
X-3011040Y408081D02*
Y387090D01*
X-2990050Y381842D02*
X-2979554D01*
X-2984802D01*
Y413328D01*
X-2990050Y408081D01*
X-2942821Y381842D02*
X-2963811D01*
X-2942821Y402833D01*
Y408081D01*
X-2948068Y413328D01*
X-2958564D01*
X-2963811Y408081D01*
X-2932325Y413328D02*
Y392338D01*
X-2921830Y381842D01*
X-2911335Y392338D01*
Y413328D01*
X-2618535Y397586D02*
X-2597545D01*
X-2608040Y408081D02*
Y387090D01*
X-2587050Y381842D02*
X-2576554D01*
X-2581802D01*
Y413328D01*
X-2587050Y408081D01*
X-2539821Y381842D02*
X-2560811D01*
X-2539821Y402833D01*
Y408081D01*
X-2545068Y413328D01*
X-2555564D01*
X-2560811Y408081D01*
X-2529325Y413328D02*
Y392338D01*
X-2518830Y381842D01*
X-2508335Y392338D01*
Y413328D01*
D315*
X-2908535Y644842D02*
G03*
X-2908535Y644842I-121000J0D01*
G01*
X-1561536Y1293842D02*
G03*
X-1561536Y1293842I-10000J0D01*
G01*
X-730535Y1794842D02*
G03*
X-730535Y1794842I-10000J0D01*
G01*
X-35535Y1647842D02*
G03*
X-56535Y1668842I-21000J0D01*
G01*
X-195535Y1670842D02*
G03*
X-195535Y1656842I0J-7000D01*
G01*
X-196535Y1622842D02*
G03*
X-202535Y1616842I0J-6000D01*
G01*
X-166535Y1770842D02*
G03*
X-183535Y1753842I0J-17000D01*
G01*
X-56535Y1808842D02*
G03*
X-35535Y1829842I0J21000D01*
G01*
X-195535Y1820842D02*
G03*
X-195535Y1806842I0J-7000D01*
G01*
X-202535Y1860842D02*
G03*
X-196535Y1854842I6000J0D01*
G01*
X-2293535Y2274843D02*
G03*
X-2293535Y2274843I-121000J0D01*
G01*
X-3089623Y2272881D02*
G03*
X-3089623Y2272881I-121000J0D01*
G01*
X-1483535Y2274843D02*
G03*
X-1483535Y2274843I-121000J0D01*
G01*
X-689623Y2272881D02*
G03*
X-689623Y2272881I-121000J0D01*
G01*
X-3701623Y1957881D02*
G03*
X-3701623Y1957881I-10000J0D01*
G01*
X-2905535Y1954842D02*
G03*
X-2905535Y1954842I-10000J0D01*
G01*
X-2096623Y1957881D02*
G03*
X-2096623Y1957881I-10000J0D01*
G01*
X-1316623D02*
G03*
X-1316623Y1957881I-10000J0D01*
G01*
X-2777535Y795842D02*
G03*
X-2763535Y781842I14000J0D01*
G01*
X-2710535D02*
G03*
X-2696535Y795842I0J14000D01*
G01*
X-2763535Y859842D02*
G03*
X-2777535Y845842I0J-14000D01*
G01*
X-2696535D02*
G03*
X-2710535Y859842I-14000J0D01*
G01*
X-2452535Y795842D02*
G03*
X-2438535Y781842I14000J0D01*
G01*
X-2385535D02*
G03*
X-2371535Y795842I0J14000D01*
G01*
X-2438535Y859842D02*
G03*
X-2452535Y845842I0J-14000D01*
G01*
X-2371535D02*
G03*
X-2385535Y859842I-14000J0D01*
G01*
X-2049535Y844842D02*
G03*
X-2063535Y858842I-14000J0D01*
G01*
X-2116535D02*
G03*
X-2130535Y844842I0J-14000D01*
G01*
X-2063535Y780842D02*
G03*
X-2049535Y794842I0J14000D01*
G01*
X-2130535D02*
G03*
X-2116535Y780842I14000J0D01*
G01*
X-1833573Y1331018D02*
G03*
X-1926911Y1331018I-46669J-46669D01*
G01*
X-1924790Y1000799D02*
G03*
X-1831452Y1000799I46669J46669D01*
G01*
X-790535Y1133842D02*
G03*
X-790535Y1133842I-17000J0D01*
G01*
X-3247883Y565990D02*
G03*
X-3246292Y753816I-28652J94163D01*
G01*
X-3306963Y565926D02*
G03*
X-3248068Y565926I29448J93917D01*
G01*
X-3305187Y753695D02*
G03*
X-3306779Y565869I28652J-94163D01*
G01*
X-3246108Y753759D02*
G03*
X-3305003Y753759I-29448J-93917D01*
G01*
X-3613535Y774842D02*
G03*
X-3613535Y774842I-121000J0D01*
G01*
X-3124535Y514842D02*
X-2930535D01*
X-3156535Y546842D02*
X-3126535Y516842D01*
X-2930535Y514842D02*
X-2900535Y544842D01*
X-3156535Y546842D02*
Y771842D01*
X-2900535Y544842D02*
Y771842D01*
X-3156535D02*
X-2900535D01*
X-442535Y393842D02*
X-429535Y406842D01*
X-442535Y392842D02*
X-428535Y378842D01*
X-1248535Y948841D02*
X-1227536Y969842D01*
X-1591866Y947774D02*
X-1248535Y948841D01*
X-1227706Y1307691D02*
X-1227536Y969842D01*
X-1590452Y1319713D02*
X-1239727D01*
X-1599644Y955553D02*
Y1310521D01*
Y955553D02*
X-1591866Y947774D01*
X-1239727Y1319713D02*
X-1227706Y1307691D01*
X-1599644Y1310521D02*
X-1590452Y1319713D01*
X-493535Y1777842D02*
Y1916842D01*
X-757535Y1777842D02*
Y1916842D01*
X-493535D01*
X-757535Y1777842D02*
X-493535D01*
X-342535Y1587842D02*
Y1645842D01*
Y1833842D02*
Y1888842D01*
X-35535Y1590842D02*
Y1647842D01*
X-52535Y1637842D02*
Y1642842D01*
X-202535Y1591842D02*
Y1616842D01*
X-183535Y1718842D02*
Y1753842D01*
X-214535Y1706842D02*
Y1763842D01*
X-37535Y1689842D02*
Y1692842D01*
X-35535Y1829842D02*
Y1886842D01*
X-52535Y1834842D02*
Y1839842D01*
X-202535Y1860842D02*
Y1885842D01*
X-342535Y1587842D02*
X-7535D01*
X-336535Y1651842D02*
X-307535D01*
X-333535Y1824842D02*
X-306535D01*
X-342535Y1888842D02*
X-6535D01*
X-342535Y1833842D02*
X-333535Y1824842D01*
X-179535Y1711842D02*
X-176535Y1708842D01*
X-342535Y1645842D02*
X-336535Y1651842D01*
X-41535Y1685842D02*
X-37535Y1689842D01*
X-194535Y1672842D02*
X-56535Y1668842D01*
X-195535Y1656842D02*
X-63535Y1651842D01*
X-55535Y1648842D01*
X-52535Y1642842D01*
X-55535Y1633842D02*
X-52535Y1637842D01*
X-63535Y1630842D02*
X-55535Y1633842D01*
X-196535Y1622842D02*
X-63535Y1630842D01*
X-166535Y1770842D02*
X-44535Y1776842D01*
X-39535Y1779842D01*
X-36535Y1783842D01*
X-37535Y1788842D02*
X-36535Y1783842D01*
X-44535Y1790842D02*
X-37535Y1788842D01*
X-198535Y1782842D02*
X-44535Y1790842D01*
X-207535Y1780842D02*
X-198535Y1782842D01*
X-212535Y1774842D02*
X-207535Y1780842D01*
X-214535Y1763842D02*
X-212535Y1774842D01*
X-214535Y1706842D02*
X-213535Y1703842D01*
X-210535Y1698842D01*
X-205535Y1694842D01*
X-41535Y1685842D01*
Y1698842D02*
X-37535Y1692842D01*
X-167535Y1705842D02*
X-41535Y1698842D01*
X-176535Y1708842D02*
X-167535Y1705842D01*
X-182535Y1718842D02*
X-179535Y1711842D01*
X-194535Y1804842D02*
X-56535Y1808842D01*
X-195535Y1820842D02*
X-63535Y1825842D01*
X-55535Y1828842D01*
X-52535Y1834842D01*
X-55535Y1843842D02*
X-52535Y1839842D01*
X-63535Y1846842D02*
X-55535Y1843842D01*
X-196535Y1854842D02*
X-63535Y1846842D01*
X-578535Y2642843D02*
X-6535D01*
X-578535Y2110843D02*
X-5535D01*
X-578535D02*
Y2642843D01*
X-2541535Y2401843D02*
X-2285535D01*
Y2174843D02*
Y2401843D01*
X-2541535Y2176843D02*
Y2401843D01*
X-2315535Y2144843D02*
X-2285535Y2174843D01*
X-2541535Y2176843D02*
X-2511535Y2146843D01*
X-2509535Y2144843D02*
X-2315535D01*
X-2863535Y477842D02*
Y725842D01*
X-2605535Y476842D02*
Y725842D01*
X-2863535D02*
X-2605535D01*
X-3305623Y2142881D02*
X-3111623D01*
X-3337623Y2174881D02*
X-3307623Y2144881D01*
X-3111623Y2142881D02*
X-3081623Y2172881D01*
X-3337623Y2174881D02*
Y2399881D01*
X-3081623Y2172881D02*
Y2399881D01*
X-3337623D02*
X-3081623D01*
X-1699535Y2144843D02*
X-1505535D01*
X-1731535Y2176843D02*
X-1701535Y2146843D01*
X-1505535Y2144843D02*
X-1475535Y2174843D01*
X-1731535Y2176843D02*
Y2401843D01*
X-1475535Y2174843D02*
Y2401843D01*
X-1731535D02*
X-1475535D01*
X-905623Y2142881D02*
X-711623D01*
X-937623Y2174881D02*
X-907623Y2144881D01*
X-711623Y2142881D02*
X-681623Y2172881D01*
X-937623Y2174881D02*
Y2399881D01*
X-681623Y2172881D02*
Y2399881D01*
X-937623D02*
X-681623D01*
X-219535Y1324842D02*
Y1384842D01*
X-19535Y1324842D02*
Y1384842D01*
X-199535Y1304842D02*
X-39535D01*
X-199535Y1404842D02*
X-39535D01*
X-219535Y1324842D02*
X-199535Y1304842D01*
X-39535Y1404842D02*
X-19535Y1384842D01*
X-39535Y1304842D02*
X-19535Y1324842D01*
X-219535Y1384842D02*
X-199535Y1404842D01*
X-219535Y1124842D02*
Y1184842D01*
X-19535Y1124842D02*
Y1184842D01*
X-199535Y1104842D02*
X-39535D01*
X-199535Y1204842D02*
X-39535D01*
X-219535Y1124842D02*
X-199535Y1104842D01*
X-39535Y1204842D02*
X-19535Y1184842D01*
X-39535Y1104842D02*
X-19535Y1124842D01*
X-219535Y1184842D02*
X-199535Y1204842D01*
X-219535Y1224842D02*
Y1284842D01*
X-19535Y1224842D02*
Y1284842D01*
X-199535Y1204842D02*
X-39535D01*
X-199535Y1304842D02*
X-39535D01*
X-219535Y1224842D02*
X-199535Y1204842D01*
X-39535Y1304842D02*
X-19535Y1284842D01*
X-39535Y1204842D02*
X-19535Y1224842D01*
X-219535Y1284842D02*
X-199535Y1304842D01*
X-3307623Y1963881D02*
X-3222623D01*
X-3307623Y1851881D02*
X-3222623D01*
X-3307623Y1942881D02*
Y1963881D01*
Y1851881D02*
Y1872881D01*
X-2531535Y1960842D02*
X-2446535D01*
X-2531535Y1848842D02*
X-2446535D01*
X-2531535Y1939842D02*
Y1960842D01*
Y1848842D02*
Y1869842D01*
X-3656623Y1811881D02*
Y1833881D01*
X-3466623Y1811881D02*
Y1833881D01*
Y1979881D02*
Y1999881D01*
X-3656623Y1979881D02*
Y1999881D01*
Y1811881D02*
X-3636623D01*
X-3486623D02*
X-3466623D01*
X-3486623Y1999881D02*
X-3466623D01*
X-3656623D02*
X-3636623D01*
X-2860535Y1808842D02*
Y1830842D01*
X-2670535Y1808842D02*
Y1830842D01*
Y1976842D02*
Y1996842D01*
X-2860535Y1976842D02*
Y1996842D01*
Y1808842D02*
X-2840535D01*
X-2690535D02*
X-2670535D01*
X-2690535Y1996842D02*
X-2670535D01*
X-2860535D02*
X-2840535D01*
X-2051623Y1811881D02*
Y1833881D01*
X-1861623Y1811881D02*
Y1833881D01*
Y1979881D02*
Y1999881D01*
X-2051623Y1979881D02*
Y1999881D01*
Y1811881D02*
X-2031623D01*
X-1881623D02*
X-1861623D01*
X-1881623Y1999881D02*
X-1861623D01*
X-2051623D02*
X-2031623D01*
X-1271623Y1811881D02*
Y1833881D01*
X-1081623Y1811881D02*
Y1833881D01*
Y1979881D02*
Y1999881D01*
X-1271623Y1979881D02*
Y1999881D01*
Y1811881D02*
X-1251623D01*
X-1101623D02*
X-1081623D01*
X-1101623Y1999881D02*
X-1081623D01*
X-1271623D02*
X-1251623D01*
X-2761535Y781842D02*
X-2710535D01*
X-2761535Y859842D02*
X-2710535D01*
X-2436535Y781842D02*
X-2385535D01*
X-2436535Y859842D02*
X-2385535D01*
X-981535Y1965842D02*
X-896535D01*
X-981535Y1853842D02*
X-896535D01*
X-981535Y1944842D02*
Y1965842D01*
Y1853842D02*
Y1874842D01*
X-1722623Y1851881D02*
Y1872881D01*
Y1942881D02*
Y1963881D01*
Y1851881D02*
X-1637623D01*
X-1722623Y1963881D02*
X-1637623D01*
X-2540535Y476842D02*
Y724842D01*
X-2282535Y475842D02*
Y724842D01*
X-2540535D02*
X-2282535D01*
X-2114535Y858842D02*
X-2063535D01*
X-2114535Y780842D02*
X-2063535D01*
X-1828624Y1003628D02*
X-1823674Y1009991D01*
X-1816603Y1024133D01*
X-1813067Y1036154D01*
X-1812360Y1048175D01*
X-1813774Y1063731D02*
X-1812360Y1048175D01*
X-1815896Y1297784D02*
X-1813774Y1063731D01*
X-1820138Y1311926D02*
X-1815896Y1297784D01*
X-1823674Y1319704D02*
X-1820138Y1311926D01*
X-1830745Y1328189D02*
X-1823674Y1319704D01*
X-1942468Y1308390D02*
X-1933275Y1324654D01*
X-1945296Y1292834D02*
X-1942468Y1308390D01*
X-1946003Y1279399D02*
X-1945296Y1292834D01*
X-1946003Y1279399D02*
X-1944589Y1043225D01*
X-1941054Y1026962D01*
X-1936104Y1014941D01*
X-1929740Y1005749D01*
X-1910648Y1193132D02*
X-1849837Y1193132D01*
X-1912769Y1176868D02*
X-1849130D01*
X-1912769Y1155655D02*
X-1849130D01*
X-1912062Y1140806D02*
X-1849837D01*
X-1880243Y1196668D02*
X-1880242Y1219295D01*
X-1849130Y1155655D02*
Y1176868D01*
X-1912769Y1155655D02*
Y1176868D01*
X-1878828Y1114643D02*
Y1138685D01*
X-1833574Y1331018D02*
X-1830745Y1328189D01*
X-1929740Y1005749D02*
X-1926204Y1002213D01*
X-1832866Y999385D02*
X-1828624Y1003628D01*
X-1933275Y1324654D02*
X-1924083Y1333846D01*
X-2218535Y475842D02*
Y723842D01*
X-1960535Y474842D02*
Y723842D01*
X-2218535D02*
X-1960535D01*
X-3470535Y20843D02*
Y318842D01*
X-3028535Y20843D02*
Y318842D01*
X-3468535Y278842D02*
X-3031535D01*
X-3470535Y318842D02*
X-3030535D01*
X-3470535Y20843D02*
X-3028535D01*
X-844535Y1095842D02*
Y1324842D01*
X-431535Y1096842D02*
Y1324842D01*
X-844535D02*
X-814535D01*
X-844535Y1095842D02*
X-813535D01*
X-465535Y1324842D02*
X-431535D01*
X-458535Y1096842D02*
X-431535D01*
X-3172205Y557481D02*
Y735508D01*
X-3380866Y557481D02*
X-3172205D01*
X-3380866D02*
Y735509D01*
X-3324845Y764763D02*
X-3238225D01*
X-3380866Y735509D02*
X-3351625Y764759D01*
X-3201446Y764757D02*
X-3172205Y735508D01*
X-3238225Y764763D02*
X-3201446Y764757D01*
X-3351625Y764759D02*
X-3324845Y764763D01*
X-3861535Y647842D02*
Y903842D01*
X-3634535D01*
X-3861535Y647842D02*
X-3636535D01*
X-3634535Y903842D02*
X-3604535Y873842D01*
X-3636535Y647842D02*
X-3606535Y677842D01*
X-3604535Y679842D02*
Y873842D01*
X-3187210Y460000D02*
X-3193041Y465831D01*
X-3204704D01*
X-3210535Y460000D01*
Y436674D01*
X-3204704Y430842D01*
X-3193041D01*
X-3187210Y436674D01*
Y448337D01*
X-3198872D01*
X-3175547Y430842D02*
Y465831D01*
X-3152221Y430842D01*
Y465831D01*
X-3140558D02*
Y430842D01*
X-3123064D01*
X-3117232Y436674D01*
Y460000D01*
X-3123064Y465831D01*
X-3140558D01*
X-3420535Y446337D02*
X-3397210D01*
X-3408872Y458000D02*
Y434674D01*
X-3385547Y428842D02*
X-3373884D01*
X-3379715D01*
Y463831D01*
X-3385547Y458000D01*
X-3333064Y428842D02*
X-3356390D01*
X-3333064Y452168D01*
Y458000D01*
X-3338895Y463831D01*
X-3350558D01*
X-3356390Y458000D01*
X-3321401Y463831D02*
Y440505D01*
X-3309738Y428842D01*
X-3298075Y440505D01*
Y463831D01*
D316*
X-1819431Y1346574D02*
G03*
X-1942468Y1346574I-61518J-61518D01*
G01*
X-1938932Y985242D02*
G03*
X-1815896Y985242I61518J61518D01*
G01*
X-1813067Y1340210D02*
X-1805289Y1329603D01*
X-1798218Y1312633D01*
X-1793268Y1292127D01*
X-1791854Y1269499D01*
X-1791147Y1041104D01*
X-1793976Y1022719D02*
X-1791147Y1041104D01*
X-1798925Y1006456D02*
X-1793976Y1022719D01*
X-1810946Y990192D02*
X-1798925Y1006456D01*
X-1953074Y1003627D02*
X-1944589Y990899D01*
X-1961560Y1024841D02*
X-1953074Y1003627D01*
X-1965802Y1048882D02*
X-1961560Y1024841D01*
X-1966509Y1070802D02*
X-1965802Y1048882D01*
X-1967217Y1272328D02*
X-1966509Y1070802D01*
X-1967217Y1272328D02*
X-1964388Y1309098D01*
X-1958731Y1324654D01*
X-1947418Y1340210D01*
X-1820138Y1347281D02*
X-1813067Y1340210D01*
X-1944589Y990899D02*
X-1941761Y988071D01*
X-1813775Y987364D02*
X-1810946Y990192D01*
X-1947418Y1340210D02*
X-1945296Y1342332D01*
D317*
X-3258536Y891841D02*
G03*
X-3246536Y903841I0J12000D01*
G01*
X-3296536Y901214D02*
G03*
X-3287163Y891841I9373J0D01*
G01*
X-3246536Y984841D02*
G03*
X-3258536Y996841I-12000J0D01*
G01*
X-3284536D02*
G03*
X-3296536Y984841I0J-12000D01*
G01*
X-3308110Y966528D02*
G03*
X-3308110Y927158I0J-19685D01*
G01*
X-3448535Y1215843D02*
G03*
X-3460535Y1203843I0J-12000D01*
G01*
X-3410535Y1206471D02*
G03*
X-3419908Y1215843I-9373J0D01*
G01*
X-3460535Y1122844D02*
G03*
X-3448535Y1110844I12000J0D01*
G01*
X-3422535D02*
G03*
X-3410535Y1122844I0J12000D01*
G01*
X-3714535Y1159842D02*
G03*
X-3701535Y1146842I13000J0D01*
G01*
X-3705535Y1285787D02*
G03*
X-3714535Y1276787I0J-9000D01*
G01*
X-3514535Y1276842D02*
G03*
X-3523480Y1285787I-8945J0D01*
G01*
X-3522535Y1146842D02*
G03*
X-3514535Y1154842I0J8000D01*
G01*
X-3092571Y859331D02*
G03*
X-3092571Y859331I-12153J0D01*
G01*
X-3327323Y1404055D02*
X-3209213D01*
Y1285945D02*
Y1404055D01*
X-3453307Y1285945D02*
X-3209213D01*
X-3453307D02*
Y1404055D01*
X-3327323D01*
X-2453425Y1345000D02*
X-2430000D01*
Y1295000D02*
Y1345000D01*
X-2453425Y1295000D02*
X-2430000D01*
X-2453425Y1095000D02*
X-2430000D01*
Y1045000D02*
Y1095000D01*
X-2453425Y1045000D02*
X-2430000D01*
X-2453425Y1345000D02*
Y1395000D01*
X-2355000Y995000D02*
Y1055000D01*
X-2453425Y1095000D02*
Y1295000D01*
Y995000D02*
Y1045000D01*
Y995000D02*
X-2433740D01*
X-2394370D02*
X-2217205D01*
Y1395000D01*
X-2355000Y1335000D02*
Y1395000D01*
X-2453425D02*
X-2433740D01*
X-2394370D02*
X-2217205D01*
X-3284535Y996842D02*
X-3258535D01*
X-3246535Y903842D02*
Y984842D01*
X-3296535Y901215D02*
Y984842D01*
X-3287163Y891842D02*
X-3258535D01*
X-3516535Y729842D02*
X-3411535D01*
Y779842D01*
X-3516535D02*
X-3411535D01*
X-3516535Y729842D02*
Y779842D01*
X-3677535Y1032842D02*
X-3572535D01*
Y1082842D01*
X-3677535D02*
X-3572535D01*
X-3677535Y1032842D02*
Y1082842D01*
X-3567535Y1032842D02*
Y1137842D01*
Y1032842D02*
X-3517535D01*
Y1137842D01*
X-3567535D02*
X-3517535D01*
X-3504961Y1025583D02*
X-3308110D01*
X-3504961Y868102D02*
Y1025583D01*
Y868102D02*
X-3308110D01*
Y1025583D01*
X-3465535Y1110842D02*
Y1215842D01*
X-3515535D02*
X-3465535D01*
X-3515535Y1110842D02*
Y1215842D01*
Y1110842D02*
X-3465535D01*
X-3448535D02*
X-3422535D01*
X-3460535Y1122842D02*
Y1203842D01*
X-3410535Y1122842D02*
Y1206470D01*
X-3448535Y1215842D02*
X-3419907D01*
X-3405535Y1110842D02*
Y1215842D01*
Y1110842D02*
X-3355535D01*
Y1215842D01*
X-3405535D02*
X-3355535D01*
X-3300535Y1110842D02*
Y1215842D01*
X-3350535D02*
X-3300535D01*
X-3350535Y1110842D02*
Y1215842D01*
Y1110842D02*
X-3300535D01*
X-3729843Y1403898D02*
X-3603858D01*
X-3729843Y1285787D02*
Y1403898D01*
Y1285787D02*
X-3485748D01*
Y1403898D01*
X-3603858D02*
X-3485748D01*
X-3701535Y1146842D02*
X-3579535D01*
X-3714535Y1159842D02*
Y1276787D01*
X-3705535Y1285787D02*
X-3523480D01*
X-3514535Y1154842D02*
Y1276842D01*
X-3579535Y1146842D02*
X-3522535D01*
X-3514535Y1260842D02*
X-3405535Y1215842D01*
X-3109713Y1373831D02*
X-2923358D01*
X-3109713Y830972D02*
X-2923358D01*
X-2796063Y1041634D02*
Y1163169D01*
X-3237008Y1041634D02*
Y1163169D01*
Y1021378D02*
X-3109713Y830972D01*
X-3237008Y1021378D02*
Y1041634D01*
Y1183425D02*
X-3109713Y1373831D01*
X-3237008Y1159118D02*
Y1183425D01*
X-2923358Y830972D02*
X-2796063Y1021378D01*
Y1041634D01*
X-2923358Y1373831D02*
X-2796063Y1183425D01*
Y1163169D02*
Y1183425D01*
X-475535Y889842D02*
X-398535D01*
X-475535D02*
Y1025842D01*
X-373535D01*
Y889842D02*
Y1025842D01*
X-398535Y889842D02*
X-373535D01*
X-486535Y1393842D02*
Y1495842D01*
Y1393842D02*
X-392535D01*
Y1495842D01*
X-486535D02*
X-392535D01*
X-420535Y1393842D02*
X-386535Y1294842D01*
X-439134Y1026514D02*
X-391535Y1139842D01*
X-2374006Y1443990D02*
X-2394000D01*
Y1414000D01*
X-2374006D01*
X-2394000Y1428995D02*
X-2384003D01*
X-2364010Y1443990D02*
X-2344016Y1414000D01*
Y1443990D02*
X-2364010Y1414000D01*
X-2334019Y1443990D02*
X-2314026D01*
X-2324023D01*
Y1414000D01*
X-2304029Y1428995D02*
X-2284036D01*
X-2274039Y1414000D02*
Y1433994D01*
X-2264042Y1443990D01*
X-2254045Y1433994D01*
Y1414000D01*
Y1428995D01*
X-2274039D01*
X-2224055Y1414000D02*
X-2244048D01*
X-2224055Y1433994D01*
Y1438992D01*
X-2229053Y1443990D01*
X-2239050D01*
X-2244048Y1438992D01*
X-3389000Y1455990D02*
Y1426000D01*
X-3374005D01*
X-3369006Y1430998D01*
Y1450992D01*
X-3374005Y1455990D01*
X-3389000D01*
X-3359010Y1426000D02*
Y1455990D01*
X-3344015D01*
X-3339016Y1450992D01*
Y1440995D01*
X-3344015Y1435997D01*
X-3359010D01*
X-3309026Y1426000D02*
X-3329019D01*
X-3309026Y1445994D01*
Y1450992D01*
X-3314024Y1455990D01*
X-3324021D01*
X-3329019Y1450992D01*
X-2009542Y306833D02*
X-2029535D01*
Y291838D01*
X-2019539D01*
X-2029535D01*
Y276842D01*
X-1999545D02*
Y296836D01*
X-1989548Y306833D01*
X-1979552Y296836D01*
Y276842D01*
Y291838D01*
X-1999545D01*
X-1969555Y276842D02*
Y306833D01*
X-1949561Y276842D01*
Y306833D01*
X-1451542Y2701833D02*
X-1471535D01*
Y2671843D01*
X-1451542D01*
X-1471535Y2686838D02*
X-1461539D01*
X-1441545D02*
X-1421552D01*
X-1411555Y2671843D02*
Y2701833D01*
X-1401558Y2691836D01*
X-1391561Y2701833D01*
Y2671843D01*
X-1366569Y2701833D02*
X-1376566D01*
X-1381564Y2696834D01*
Y2676841D01*
X-1376566Y2671843D01*
X-1366569D01*
X-1361571Y2676841D01*
Y2696834D01*
X-1366569Y2701833D01*
X-1351574D02*
X-1331581D01*
X-1341577D01*
Y2671843D01*
X-2185535Y2699833D02*
X-2165542D01*
Y2694834D01*
X-2185535Y2674841D01*
Y2669843D01*
X-2165542D01*
X-2155545Y2684838D02*
X-2135552D01*
X-2125555Y2669843D02*
Y2699833D01*
X-2115558Y2689836D01*
X-2105561Y2699833D01*
Y2669843D01*
X-2080569Y2699833D02*
X-2090566D01*
X-2095564Y2694834D01*
Y2674841D01*
X-2090566Y2669843D01*
X-2080569D01*
X-2075571Y2674841D01*
Y2694834D01*
X-2080569Y2699833D01*
X-2065574D02*
X-2045581D01*
X-2055577D01*
Y2669843D01*
X-2976535Y2701833D02*
Y2696834D01*
X-2966539Y2686838D01*
X-2956542Y2696834D01*
Y2701833D01*
X-2966539Y2686838D02*
Y2671843D01*
X-2946545Y2686838D02*
X-2926552D01*
X-2916555Y2671843D02*
Y2701833D01*
X-2906558Y2691836D01*
X-2896561Y2701833D01*
Y2671843D01*
X-2871569Y2701833D02*
X-2881566D01*
X-2886564Y2696834D01*
Y2676841D01*
X-2881566Y2671843D01*
X-2871569D01*
X-2866571Y2676841D01*
Y2696834D01*
X-2871569Y2701833D01*
X-2856574D02*
X-2836581D01*
X-2846577D01*
Y2671843D01*
X-3782535Y2699833D02*
X-3762542Y2669843D01*
Y2699833D02*
X-3782535Y2669843D01*
X-3752545Y2684838D02*
X-3732552D01*
X-3722555Y2669843D02*
Y2699833D01*
X-3712558Y2689836D01*
X-3702561Y2699833D01*
Y2669843D01*
X-3677569Y2699833D02*
X-3687566D01*
X-3692564Y2694834D01*
Y2674841D01*
X-3687566Y2669843D01*
X-3677569D01*
X-3672571Y2674841D01*
Y2694834D01*
X-3677569Y2699833D01*
X-3662574D02*
X-3642581D01*
X-3652577D01*
Y2669843D01*
X-1738535Y304833D02*
X-1718542Y274842D01*
Y304833D02*
X-1738535Y274842D01*
X-1708545Y289838D02*
X-1688552D01*
X-1658561Y299834D02*
X-1663560Y304833D01*
X-1673556D01*
X-1678555Y299834D01*
Y294836D01*
X-1673556Y289838D01*
X-1663560D01*
X-1658561Y284839D01*
Y279841D01*
X-1663560Y274842D01*
X-1673556D01*
X-1678555Y279841D01*
X-1648564Y304833D02*
X-1628571D01*
X-1638568D01*
Y274842D01*
X-1603579Y304833D02*
X-1613576D01*
X-1618574Y299834D01*
Y279841D01*
X-1613576Y274842D01*
X-1603579D01*
X-1598581Y279841D01*
Y299834D01*
X-1603579Y304833D01*
X-1588584Y274842D02*
Y304833D01*
X-1573589D01*
X-1568590Y299834D01*
Y289838D01*
X-1573589Y284839D01*
X-1588584D01*
X-1419535Y303833D02*
Y298834D01*
X-1409539Y288838D01*
X-1399542Y298834D01*
Y303833D01*
X-1409539Y288838D02*
Y273842D01*
X-1389545Y288838D02*
X-1369552D01*
X-1339561Y298834D02*
X-1344560Y303833D01*
X-1354556D01*
X-1359555Y298834D01*
Y293836D01*
X-1354556Y288838D01*
X-1344560D01*
X-1339561Y283839D01*
Y278841D01*
X-1344560Y273842D01*
X-1354556D01*
X-1359555Y278841D01*
X-1329564Y303833D02*
X-1309571D01*
X-1319568D01*
Y273842D01*
X-1284579Y303833D02*
X-1294576D01*
X-1299574Y298834D01*
Y278841D01*
X-1294576Y273842D01*
X-1284579D01*
X-1279581Y278841D01*
Y298834D01*
X-1284579Y303833D01*
X-1269584Y273842D02*
Y303833D01*
X-1254589D01*
X-1249590Y298834D01*
Y288838D01*
X-1254589Y283839D01*
X-1269584D01*
X-1098535Y305833D02*
X-1078542D01*
Y300834D01*
X-1098535Y280841D01*
Y275842D01*
X-1078542D01*
X-1068545Y290838D02*
X-1048552D01*
X-1018561Y300834D02*
X-1023560Y305833D01*
X-1033556D01*
X-1038555Y300834D01*
Y295836D01*
X-1033556Y290838D01*
X-1023560D01*
X-1018561Y285839D01*
Y280841D01*
X-1023560Y275842D01*
X-1033556D01*
X-1038555Y280841D01*
X-1008564Y305833D02*
X-988571D01*
X-998568D01*
Y275842D01*
X-963579Y305833D02*
X-973576D01*
X-978574Y300834D01*
Y280841D01*
X-973576Y275842D01*
X-963579D01*
X-958581Y280841D01*
Y300834D01*
X-963579Y305833D01*
X-948584Y275842D02*
Y305833D01*
X-933589D01*
X-928590Y300834D01*
Y290838D01*
X-933589Y285839D01*
X-948584D01*
X-760535Y308833D02*
Y278842D01*
X-745540D01*
X-740542Y283841D01*
Y288839D01*
X-745540Y293838D01*
X-760535D01*
X-745540D01*
X-740542Y298836D01*
Y303834D01*
X-745540Y308833D01*
X-760535D01*
X-730545Y293838D02*
X-710552D01*
X-700555Y278842D02*
Y308833D01*
X-690558Y298836D01*
X-680561Y308833D01*
Y278842D01*
X-655569Y308833D02*
X-665566D01*
X-670564Y303834D01*
Y283841D01*
X-665566Y278842D01*
X-655569D01*
X-650571Y283841D01*
Y303834D01*
X-655569Y308833D01*
X-640574D02*
X-620581D01*
X-630577D01*
Y278842D01*
X-506542Y308833D02*
X-526535D01*
Y278842D01*
X-506542D01*
X-526535Y293838D02*
X-516539D01*
X-496545Y308833D02*
X-476552D01*
X-486548D01*
Y278842D01*
X-446561Y308833D02*
X-466555D01*
Y278842D01*
X-446561D01*
X-466555Y293838D02*
X-456558D01*
X-436565Y278842D02*
Y308833D01*
X-426568Y298836D01*
X-416571Y308833D01*
Y278842D01*
X-406574D02*
Y308833D01*
X-391579D01*
X-386581Y303834D01*
Y293838D01*
X-391579Y288839D01*
X-406574D01*
X-3280542Y2114834D02*
X-3285540Y2119833D01*
X-3295537D01*
X-3300535Y2114834D01*
Y2094841D01*
X-3295537Y2089843D01*
X-3285540D01*
X-3280542Y2094841D01*
X-3270545Y2089843D02*
X-3260548D01*
X-3265547D01*
Y2119833D01*
X-3270545Y2114834D01*
X-2494542Y2122834D02*
X-2499540Y2127833D01*
X-2509537D01*
X-2514535Y2122834D01*
Y2102841D01*
X-2509537Y2097843D01*
X-2499540D01*
X-2494542Y2102841D01*
X-2464552Y2097843D02*
X-2484545D01*
X-2464552Y2117836D01*
Y2122834D01*
X-2469550Y2127833D01*
X-2479547D01*
X-2484545Y2122834D01*
X-1684542Y2114834D02*
X-1689540Y2119833D01*
X-1699537D01*
X-1704535Y2114834D01*
Y2094841D01*
X-1699537Y2089843D01*
X-1689540D01*
X-1684542Y2094841D01*
X-1674545Y2114834D02*
X-1669547Y2119833D01*
X-1659550D01*
X-1654552Y2114834D01*
Y2109836D01*
X-1659550Y2104838D01*
X-1664548D01*
X-1659550D01*
X-1654552Y2099839D01*
Y2094841D01*
X-1659550Y2089843D01*
X-1669547D01*
X-1674545Y2094841D01*
X-896542Y2112834D02*
X-901540Y2117833D01*
X-911537D01*
X-916535Y2112834D01*
Y2092841D01*
X-911537Y2087843D01*
X-901540D01*
X-896542Y2092841D01*
X-871550Y2087843D02*
Y2117833D01*
X-886545Y2102838D01*
X-866552D01*
X-1484542Y348834D02*
X-1489540Y353833D01*
X-1499537D01*
X-1504535Y348834D01*
Y328841D01*
X-1499537Y323842D01*
X-1489540D01*
X-1484542Y328841D01*
X-1454552Y353833D02*
X-1474545D01*
Y338838D01*
X-1464548Y343836D01*
X-1459550D01*
X-1454552Y338838D01*
Y328841D01*
X-1459550Y323842D01*
X-1469547D01*
X-1474545Y328841D01*
X-1269542Y351834D02*
X-1274540Y356833D01*
X-1284537D01*
X-1289535Y351834D01*
Y331841D01*
X-1284537Y326842D01*
X-1274540D01*
X-1269542Y331841D01*
X-1239552Y356833D02*
X-1249548Y351834D01*
X-1259545Y341838D01*
Y331841D01*
X-1254547Y326842D01*
X-1244550D01*
X-1239552Y331841D01*
Y336839D01*
X-1244550Y341838D01*
X-1259545D01*
X-1052542Y350834D02*
X-1057540Y355833D01*
X-1067537D01*
X-1072535Y350834D01*
Y330841D01*
X-1067537Y325842D01*
X-1057540D01*
X-1052542Y330841D01*
X-1042545Y355833D02*
X-1022552D01*
Y350834D01*
X-1042545Y330841D01*
Y325842D01*
X-838542Y347834D02*
X-843540Y352833D01*
X-853537D01*
X-858535Y347834D01*
Y327841D01*
X-853537Y322842D01*
X-843540D01*
X-838542Y327841D01*
X-828545Y347834D02*
X-823547Y352833D01*
X-813550D01*
X-808552Y347834D01*
Y342836D01*
X-813550Y337838D01*
X-808552Y332839D01*
Y327841D01*
X-813550Y322842D01*
X-823547D01*
X-828545Y327841D01*
Y332839D01*
X-823547Y337838D01*
X-828545Y342836D01*
Y347834D01*
X-823547Y337838D02*
X-813550D01*
X-619542Y349834D02*
X-624540Y354833D01*
X-634537D01*
X-639535Y349834D01*
Y329841D01*
X-634537Y324842D01*
X-624540D01*
X-619542Y329841D01*
X-609545D02*
X-604547Y324842D01*
X-594550D01*
X-589552Y329841D01*
Y349834D01*
X-594550Y354833D01*
X-604547D01*
X-609545Y349834D01*
Y344836D01*
X-604547Y339838D01*
X-589552D01*
X-3879527Y1880836D02*
X-3884526Y1875838D01*
Y1865841D01*
X-3879527Y1860842D01*
X-3859534D01*
X-3854535Y1865841D01*
Y1875838D01*
X-3859534Y1880836D01*
X-3854535Y1890833D02*
Y1900830D01*
Y1895831D01*
X-3884526D01*
X-3879527Y1890833D01*
Y1915825D02*
X-3884526Y1920823D01*
Y1930820D01*
X-3879527Y1935818D01*
X-3859534D01*
X-3854535Y1930820D01*
Y1920823D01*
X-3859534Y1915825D01*
X-3879527D01*
X-3605615Y2129836D02*
X-3610613Y2124838D01*
Y2114841D01*
X-3605615Y2109843D01*
X-3585621D01*
X-3580623Y2114841D01*
Y2124838D01*
X-3585621Y2129836D01*
X-3580623Y2139833D02*
Y2149830D01*
Y2144831D01*
X-3610613D01*
X-3605615Y2139833D01*
X-3580623Y2164825D02*
Y2174822D01*
Y2169823D01*
X-3610613D01*
X-3605615Y2164825D01*
X-3518527Y2127836D02*
X-3523526Y2122838D01*
Y2112841D01*
X-3518527Y2107843D01*
X-3498534D01*
X-3493535Y2112841D01*
Y2122838D01*
X-3498534Y2127836D01*
X-3493535Y2137833D02*
Y2147830D01*
Y2142831D01*
X-3523526D01*
X-3518527Y2137833D01*
X-3493535Y2182818D02*
Y2162825D01*
X-3513529Y2182818D01*
X-3518527D01*
X-3523526Y2177820D01*
Y2167823D01*
X-3518527Y2162825D01*
X-3147542Y1660834D02*
X-3152540Y1665833D01*
X-3162537D01*
X-3167535Y1660834D01*
Y1640841D01*
X-3162537Y1635842D01*
X-3152540D01*
X-3147542Y1640841D01*
X-3137545Y1635842D02*
X-3127548D01*
X-3132547D01*
Y1665833D01*
X-3137545Y1660834D01*
X-3112553D02*
X-3107555Y1665833D01*
X-3097558D01*
X-3092560Y1660834D01*
Y1655836D01*
X-3097558Y1650838D01*
X-3102556D01*
X-3097558D01*
X-3092560Y1645839D01*
Y1640841D01*
X-3097558Y1635842D01*
X-3107555D01*
X-3112553Y1640841D01*
X-3079527Y1868836D02*
X-3084526Y1863838D01*
Y1853841D01*
X-3079527Y1848842D01*
X-3059534D01*
X-3054535Y1853841D01*
Y1863838D01*
X-3059534Y1868836D01*
X-3054535Y1878833D02*
Y1888830D01*
Y1883831D01*
X-3084526D01*
X-3079527Y1878833D01*
X-3054535Y1918820D02*
X-3084526D01*
X-3069531Y1903825D01*
Y1923818D01*
X-2809527Y2127836D02*
X-2814526Y2122838D01*
Y2112841D01*
X-2809527Y2107843D01*
X-2789534D01*
X-2784535Y2112841D01*
Y2122838D01*
X-2789534Y2127836D01*
X-2784535Y2137833D02*
Y2147830D01*
Y2142831D01*
X-2814526D01*
X-2809527Y2137833D01*
X-2814526Y2182818D02*
Y2162825D01*
X-2799531D01*
X-2804529Y2172822D01*
Y2177820D01*
X-2799531Y2182818D01*
X-2789534D01*
X-2784535Y2177820D01*
Y2167823D01*
X-2789534Y2162825D01*
X-2717527Y2123836D02*
X-2722526Y2118838D01*
Y2108841D01*
X-2717527Y2103843D01*
X-2697534D01*
X-2692535Y2108841D01*
Y2118838D01*
X-2697534Y2123836D01*
X-2692535Y2133833D02*
Y2143830D01*
Y2138831D01*
X-2722526D01*
X-2717527Y2133833D01*
X-2722526Y2178818D02*
X-2717527Y2168822D01*
X-2707531Y2158825D01*
X-2697534D01*
X-2692535Y2163823D01*
Y2173820D01*
X-2697534Y2178818D01*
X-2702532D01*
X-2707531Y2173820D01*
Y2158825D01*
X-2351542Y1655834D02*
X-2356540Y1660833D01*
X-2366537D01*
X-2371535Y1655834D01*
Y1635841D01*
X-2366537Y1630842D01*
X-2356540D01*
X-2351542Y1635841D01*
X-2341545Y1630842D02*
X-2331548D01*
X-2336547D01*
Y1660833D01*
X-2341545Y1655834D01*
X-2316553Y1660833D02*
X-2296560D01*
Y1655834D01*
X-2316553Y1635841D01*
Y1630842D01*
X-2271527Y1869836D02*
X-2276526Y1864838D01*
Y1854841D01*
X-2271527Y1849842D01*
X-2251534D01*
X-2246535Y1854841D01*
Y1864838D01*
X-2251534Y1869836D01*
X-2246535Y1879833D02*
Y1889830D01*
Y1884831D01*
X-2276526D01*
X-2271527Y1879833D01*
Y1904825D02*
X-2276526Y1909823D01*
Y1919820D01*
X-2271527Y1924818D01*
X-2266529D01*
X-2261531Y1919820D01*
X-2256532Y1924818D01*
X-2251534D01*
X-2246535Y1919820D01*
Y1909823D01*
X-2251534Y1904825D01*
X-2256532D01*
X-2261531Y1909823D01*
X-2266529Y1904825D01*
X-2271527D01*
X-2261531Y1909823D02*
Y1919820D01*
X-2016527Y2112836D02*
X-2021526Y2107838D01*
Y2097841D01*
X-2016527Y2092843D01*
X-1996534D01*
X-1991535Y2097841D01*
Y2107838D01*
X-1996534Y2112836D01*
X-1991535Y2122833D02*
Y2132830D01*
Y2127831D01*
X-2021526D01*
X-2016527Y2122833D01*
X-1996534Y2147825D02*
X-1991535Y2152823D01*
Y2162820D01*
X-1996534Y2167818D01*
X-2016527D01*
X-2021526Y2162820D01*
Y2152823D01*
X-2016527Y2147825D01*
X-2011529D01*
X-2006531Y2152823D01*
Y2167818D01*
X-1917527Y2108836D02*
X-1922526Y2103838D01*
Y2093841D01*
X-1917527Y2088843D01*
X-1897534D01*
X-1892535Y2093841D01*
Y2103838D01*
X-1897534Y2108836D01*
X-1892535Y2138826D02*
Y2118833D01*
X-1912529Y2138826D01*
X-1917527D01*
X-1922526Y2133828D01*
Y2123831D01*
X-1917527Y2118833D01*
Y2148823D02*
X-1922526Y2153822D01*
Y2163818D01*
X-1917527Y2168817D01*
X-1897534D01*
X-1892535Y2163818D01*
Y2153822D01*
X-1897534Y2148823D01*
X-1917527D01*
X-1540542Y1660834D02*
X-1545540Y1665833D01*
X-1555537D01*
X-1560535Y1660834D01*
Y1640841D01*
X-1555537Y1635842D01*
X-1545540D01*
X-1540542Y1640841D01*
X-1510552Y1635842D02*
X-1530545D01*
X-1510552Y1655836D01*
Y1660834D01*
X-1515550Y1665833D01*
X-1525547D01*
X-1530545Y1660834D01*
X-1500555Y1635842D02*
X-1490558D01*
X-1495556D01*
Y1665833D01*
X-1500555Y1660834D01*
X-1498527Y1879836D02*
X-1503526Y1874838D01*
Y1864841D01*
X-1498527Y1859842D01*
X-1478534D01*
X-1473535Y1864841D01*
Y1874838D01*
X-1478534Y1879836D01*
X-1473535Y1909826D02*
Y1889833D01*
X-1493529Y1909826D01*
X-1498527D01*
X-1503526Y1904828D01*
Y1894831D01*
X-1498527Y1889833D01*
X-1473535Y1939817D02*
Y1919823D01*
X-1493529Y1939817D01*
X-1498527D01*
X-1503526Y1934818D01*
Y1924822D01*
X-1498527Y1919823D01*
X-1232527Y2131836D02*
X-1237526Y2126838D01*
Y2116841D01*
X-1232527Y2111843D01*
X-1212534D01*
X-1207535Y2116841D01*
Y2126838D01*
X-1212534Y2131836D01*
X-1207535Y2161826D02*
Y2141833D01*
X-1227529Y2161826D01*
X-1232527D01*
X-1237526Y2156828D01*
Y2146831D01*
X-1232527Y2141833D01*
Y2171823D02*
X-1237526Y2176822D01*
Y2186818D01*
X-1232527Y2191817D01*
X-1227529D01*
X-1222531Y2186818D01*
Y2181820D01*
Y2186818D01*
X-1217532Y2191817D01*
X-1212534D01*
X-1207535Y2186818D01*
Y2176822D01*
X-1212534Y2171823D01*
X-1123527Y2128836D02*
X-1128526Y2123838D01*
Y2113841D01*
X-1123527Y2108843D01*
X-1103534D01*
X-1098535Y2113841D01*
Y2123838D01*
X-1103534Y2128836D01*
X-1098535Y2158826D02*
Y2138833D01*
X-1118529Y2158826D01*
X-1123527D01*
X-1128526Y2153828D01*
Y2143831D01*
X-1123527Y2138833D01*
X-1098535Y2183818D02*
X-1128526D01*
X-1113531Y2168823D01*
Y2188817D01*
X-755542Y1660834D02*
X-760540Y1665833D01*
X-770537D01*
X-775535Y1660834D01*
Y1640841D01*
X-770537Y1635842D01*
X-760540D01*
X-755542Y1640841D01*
X-725552Y1635842D02*
X-745545D01*
X-725552Y1655836D01*
Y1660834D01*
X-730550Y1665833D01*
X-740547D01*
X-745545Y1660834D01*
X-695561Y1665833D02*
X-715555D01*
Y1650838D01*
X-705558Y1655836D01*
X-700560D01*
X-695561Y1650838D01*
Y1640841D01*
X-700560Y1635842D01*
X-710556D01*
X-715555Y1640841D01*
X-2951542Y496834D02*
X-2956540Y501833D01*
X-2966537D01*
X-2971535Y496834D01*
Y476841D01*
X-2966537Y471842D01*
X-2956540D01*
X-2951542Y476841D01*
X-2921552Y471842D02*
X-2941545D01*
X-2921552Y491836D01*
Y496834D01*
X-2926550Y501833D01*
X-2936547D01*
X-2941545Y496834D01*
X-2911555D02*
X-2906556Y501833D01*
X-2896560D01*
X-2891561Y496834D01*
Y491836D01*
X-2896560Y486838D01*
X-2891561Y481839D01*
Y476841D01*
X-2896560Y471842D01*
X-2906556D01*
X-2911555Y476841D01*
Y481839D01*
X-2906556Y486838D01*
X-2911555Y491836D01*
Y496834D01*
X-2906556Y486838D02*
X-2896560D01*
X-590542Y1509834D02*
X-595540Y1514833D01*
X-605537D01*
X-610535Y1509834D01*
Y1489841D01*
X-605537Y1484842D01*
X-595540D01*
X-590542Y1489841D01*
X-580545Y1509834D02*
X-575547Y1514833D01*
X-565550D01*
X-560552Y1509834D01*
Y1504836D01*
X-565550Y1499838D01*
X-570548D01*
X-565550D01*
X-560552Y1494839D01*
Y1489841D01*
X-565550Y1484842D01*
X-575547D01*
X-580545Y1489841D01*
X-550555Y1484842D02*
X-540558D01*
X-545556D01*
Y1514833D01*
X-550555Y1509834D01*
X-468527Y1425836D02*
X-473526Y1420838D01*
Y1410841D01*
X-468527Y1405842D01*
X-448534D01*
X-443535Y1410841D01*
Y1420838D01*
X-448534Y1425836D01*
X-468527Y1435833D02*
X-473526Y1440831D01*
Y1450828D01*
X-468527Y1455826D01*
X-463529D01*
X-458531Y1450828D01*
Y1445830D01*
Y1450828D01*
X-453532Y1455826D01*
X-448534D01*
X-443535Y1450828D01*
Y1440831D01*
X-448534Y1435833D01*
X-443535Y1485817D02*
Y1465823D01*
X-463529Y1485817D01*
X-468527D01*
X-473526Y1480818D01*
Y1470822D01*
X-468527Y1465823D01*
X-3718542Y1773834D02*
X-3723540Y1778833D01*
X-3733537D01*
X-3738535Y1773834D01*
Y1753841D01*
X-3733537Y1748842D01*
X-3723540D01*
X-3718542Y1753841D01*
X-3708545Y1773834D02*
X-3703547Y1778833D01*
X-3693550D01*
X-3688552Y1773834D01*
Y1768836D01*
X-3693550Y1763838D01*
X-3698548D01*
X-3693550D01*
X-3688552Y1758839D01*
Y1753841D01*
X-3693550Y1748842D01*
X-3703547D01*
X-3708545Y1753841D01*
X-3678555Y1773834D02*
X-3673556Y1778833D01*
X-3663560D01*
X-3658561Y1773834D01*
Y1768836D01*
X-3663560Y1763838D01*
X-3668558D01*
X-3663560D01*
X-3658561Y1758839D01*
Y1753841D01*
X-3663560Y1748842D01*
X-3673556D01*
X-3678555Y1753841D01*
X-3813542Y1525834D02*
X-3818540Y1530833D01*
X-3828537D01*
X-3833535Y1525834D01*
Y1505841D01*
X-3828537Y1500842D01*
X-3818540D01*
X-3813542Y1505841D01*
X-3803545Y1525834D02*
X-3798547Y1530833D01*
X-3788550D01*
X-3783552Y1525834D01*
Y1520836D01*
X-3788550Y1515838D01*
X-3793548D01*
X-3788550D01*
X-3783552Y1510839D01*
Y1505841D01*
X-3788550Y1500842D01*
X-3798547D01*
X-3803545Y1505841D01*
X-3758560Y1500842D02*
Y1530833D01*
X-3773555Y1515838D01*
X-3753561D01*
X-2922542Y1776834D02*
X-2927540Y1781833D01*
X-2937537D01*
X-2942535Y1776834D01*
Y1756841D01*
X-2937537Y1751842D01*
X-2927540D01*
X-2922542Y1756841D01*
X-2912545Y1776834D02*
X-2907547Y1781833D01*
X-2897550D01*
X-2892552Y1776834D01*
Y1771836D01*
X-2897550Y1766838D01*
X-2902548D01*
X-2897550D01*
X-2892552Y1761839D01*
Y1756841D01*
X-2897550Y1751842D01*
X-2907547D01*
X-2912545Y1756841D01*
X-2862561Y1781833D02*
X-2882555D01*
Y1766838D01*
X-2872558Y1771836D01*
X-2867560D01*
X-2862561Y1766838D01*
Y1756841D01*
X-2867560Y1751842D01*
X-2877556D01*
X-2882555Y1756841D01*
X-3012542Y1542834D02*
X-3017540Y1547833D01*
X-3027537D01*
X-3032535Y1542834D01*
Y1522841D01*
X-3027537Y1517842D01*
X-3017540D01*
X-3012542Y1522841D01*
X-3002545Y1542834D02*
X-2997547Y1547833D01*
X-2987550D01*
X-2982552Y1542834D01*
Y1537836D01*
X-2987550Y1532838D01*
X-2992548D01*
X-2987550D01*
X-2982552Y1527839D01*
Y1522841D01*
X-2987550Y1517842D01*
X-2997547D01*
X-3002545Y1522841D01*
X-2952561Y1547833D02*
X-2962558Y1542834D01*
X-2972555Y1532838D01*
Y1522841D01*
X-2967556Y1517842D01*
X-2957560D01*
X-2952561Y1522841D01*
Y1527839D01*
X-2957560Y1532838D01*
X-2972555D01*
X-2113542Y1774834D02*
X-2118540Y1779833D01*
X-2128537D01*
X-2133535Y1774834D01*
Y1754841D01*
X-2128537Y1749842D01*
X-2118540D01*
X-2113542Y1754841D01*
X-2103545Y1774834D02*
X-2098547Y1779833D01*
X-2088550D01*
X-2083552Y1774834D01*
Y1769836D01*
X-2088550Y1764838D01*
X-2093548D01*
X-2088550D01*
X-2083552Y1759839D01*
Y1754841D01*
X-2088550Y1749842D01*
X-2098547D01*
X-2103545Y1754841D01*
X-2073555Y1779833D02*
X-2053561D01*
Y1774834D01*
X-2073555Y1754841D01*
Y1749842D01*
X-2213542Y1543834D02*
X-2218540Y1548833D01*
X-2228537D01*
X-2233535Y1543834D01*
Y1523841D01*
X-2228537Y1518842D01*
X-2218540D01*
X-2213542Y1523841D01*
X-2203545Y1543834D02*
X-2198547Y1548833D01*
X-2188550D01*
X-2183552Y1543834D01*
Y1538836D01*
X-2188550Y1533838D01*
X-2193548D01*
X-2188550D01*
X-2183552Y1528839D01*
Y1523841D01*
X-2188550Y1518842D01*
X-2198547D01*
X-2203545Y1523841D01*
X-2173555Y1543834D02*
X-2168556Y1548833D01*
X-2158560D01*
X-2153561Y1543834D01*
Y1538836D01*
X-2158560Y1533838D01*
X-2153561Y1528839D01*
Y1523841D01*
X-2158560Y1518842D01*
X-2168556D01*
X-2173555Y1523841D01*
Y1528839D01*
X-2168556Y1533838D01*
X-2173555Y1538836D01*
Y1543834D01*
X-2168556Y1533838D02*
X-2158560D01*
X-1338542Y1777834D02*
X-1343540Y1782833D01*
X-1353537D01*
X-1358535Y1777834D01*
Y1757841D01*
X-1353537Y1752842D01*
X-1343540D01*
X-1338542Y1757841D01*
X-1328545Y1777834D02*
X-1323547Y1782833D01*
X-1313550D01*
X-1308552Y1777834D01*
Y1772836D01*
X-1313550Y1767838D01*
X-1318548D01*
X-1313550D01*
X-1308552Y1762839D01*
Y1757841D01*
X-1313550Y1752842D01*
X-1323547D01*
X-1328545Y1757841D01*
X-1298555D02*
X-1293556Y1752842D01*
X-1283560D01*
X-1278561Y1757841D01*
Y1777834D01*
X-1283560Y1782833D01*
X-1293556D01*
X-1298555Y1777834D01*
Y1772836D01*
X-1293556Y1767838D01*
X-1278561D01*
X-1424542Y1540834D02*
X-1429540Y1545833D01*
X-1439537D01*
X-1444535Y1540834D01*
Y1520841D01*
X-1439537Y1515842D01*
X-1429540D01*
X-1424542Y1520841D01*
X-1399550Y1515842D02*
Y1545833D01*
X-1414545Y1530838D01*
X-1394552D01*
X-1384555Y1540834D02*
X-1379556Y1545833D01*
X-1369560D01*
X-1364561Y1540834D01*
Y1520841D01*
X-1369560Y1515842D01*
X-1379556D01*
X-1384555Y1520841D01*
Y1540834D01*
X-1761527Y846836D02*
X-1766526Y841838D01*
Y831841D01*
X-1761527Y826842D01*
X-1741534D01*
X-1736535Y831841D01*
Y841838D01*
X-1741534Y846836D01*
X-1736535Y871828D02*
X-1766526D01*
X-1751531Y856833D01*
Y876826D01*
X-1736535Y886823D02*
Y896820D01*
Y891822D01*
X-1766526D01*
X-1761527Y886823D01*
X-1666527Y847836D02*
X-1671526Y842838D01*
Y832841D01*
X-1666527Y827842D01*
X-1646534D01*
X-1641535Y832841D01*
Y842838D01*
X-1646534Y847836D01*
X-1641535Y872828D02*
X-1671526D01*
X-1656531Y857833D01*
Y877826D01*
X-1641535Y907817D02*
Y887823D01*
X-1661529Y907817D01*
X-1666527D01*
X-1671526Y902818D01*
Y892822D01*
X-1666527Y887823D01*
X-1861527Y846836D02*
X-1866526Y841838D01*
Y831841D01*
X-1861527Y826842D01*
X-1841534D01*
X-1836535Y831841D01*
Y841838D01*
X-1841534Y846836D01*
X-1836535Y871828D02*
X-1866526D01*
X-1851531Y856833D01*
Y876826D01*
X-1861527Y886823D02*
X-1866526Y891822D01*
Y901818D01*
X-1861527Y906817D01*
X-1856529D01*
X-1851531Y901818D01*
Y896820D01*
Y901818D01*
X-1846532Y906817D01*
X-1841534D01*
X-1836535Y901818D01*
Y891822D01*
X-1841534Y886823D01*
X-426527Y1425836D02*
X-431526Y1420838D01*
Y1410841D01*
X-426527Y1405842D01*
X-406534D01*
X-401535Y1410841D01*
Y1420838D01*
X-406534Y1425836D01*
X-401535Y1450828D02*
X-431526D01*
X-416531Y1435833D01*
Y1455826D01*
X-401535Y1480818D02*
X-431526D01*
X-416531Y1465823D01*
Y1485817D01*
X-1109542Y1236834D02*
X-1114540Y1241833D01*
X-1124537D01*
X-1129535Y1236834D01*
Y1216841D01*
X-1124537Y1211842D01*
X-1114540D01*
X-1109542Y1216841D01*
X-1084550Y1211842D02*
Y1241833D01*
X-1099545Y1226838D01*
X-1079552D01*
X-1049561Y1241833D02*
X-1069555D01*
Y1226838D01*
X-1059558Y1231836D01*
X-1054560D01*
X-1049561Y1226838D01*
Y1216841D01*
X-1054560Y1211842D01*
X-1064556D01*
X-1069555Y1216841D01*
X-2128527Y1231836D02*
X-2133526Y1226838D01*
Y1216841D01*
X-2128527Y1211842D01*
X-2108534D01*
X-2103535Y1216841D01*
Y1226838D01*
X-2108534Y1231836D01*
X-2133526Y1261826D02*
Y1241833D01*
X-2118531D01*
X-2123529Y1251830D01*
Y1256828D01*
X-2118531Y1261826D01*
X-2108534D01*
X-2103535Y1256828D01*
Y1246831D01*
X-2108534Y1241833D01*
X-2128527Y1271823D02*
X-2133526Y1276822D01*
Y1286818D01*
X-2128527Y1291817D01*
X-2108534D01*
X-2103535Y1286818D01*
Y1276822D01*
X-2108534Y1271823D01*
X-2128527D01*
X-2122527Y1072836D02*
X-2127526Y1067838D01*
Y1057841D01*
X-2122527Y1052842D01*
X-2102534D01*
X-2097535Y1057841D01*
Y1067838D01*
X-2102534Y1072836D01*
X-2127526Y1102826D02*
Y1082833D01*
X-2112531D01*
X-2117529Y1092830D01*
Y1097828D01*
X-2112531Y1102826D01*
X-2102534D01*
X-2097535Y1097828D01*
Y1087831D01*
X-2102534Y1082833D01*
X-2097535Y1112823D02*
Y1122820D01*
Y1117822D01*
X-2127526D01*
X-2122527Y1112823D01*
X-109535Y1456833D02*
X-99539D01*
X-104537D01*
Y1426842D01*
X-109535D01*
X-99539D01*
X-64550Y1451834D02*
X-69548Y1456833D01*
X-79545D01*
X-84543Y1451834D01*
Y1446836D01*
X-79545Y1441838D01*
X-69548D01*
X-64550Y1436839D01*
Y1431841D01*
X-69548Y1426842D01*
X-79545D01*
X-84543Y1431841D01*
X-54553Y1426842D02*
Y1456833D01*
X-39558D01*
X-34560Y1451834D01*
Y1441838D01*
X-39558Y1436839D01*
X-54553D01*
X-490535Y603833D02*
Y573842D01*
X-470542D01*
X-440552Y603833D02*
X-460545D01*
Y573842D01*
X-440552D01*
X-460545Y588838D02*
X-450548D01*
X-430555Y603833D02*
Y573842D01*
X-415560D01*
X-410561Y578841D01*
Y598834D01*
X-415560Y603833D01*
X-430555D01*
X-400565Y573842D02*
X-390568D01*
X-395566D01*
Y603833D01*
X-400565Y598834D01*
X-2753535Y670842D02*
Y700833D01*
X-2743539Y690836D01*
X-2733542Y700833D01*
Y670842D01*
X-2723545D02*
X-2713548D01*
X-2718547D01*
Y700833D01*
X-2723545Y695834D01*
X-2432535Y668842D02*
Y698833D01*
X-2422539Y688836D01*
X-2412542Y698833D01*
Y668842D01*
X-2382552D02*
X-2402545D01*
X-2382552Y688836D01*
Y693834D01*
X-2387550Y698833D01*
X-2397547D01*
X-2402545Y693834D01*
X-2113535Y669842D02*
Y699833D01*
X-2103539Y689836D01*
X-2093542Y699833D01*
Y669842D01*
X-2083545Y694834D02*
X-2078547Y699833D01*
X-2068550D01*
X-2063552Y694834D01*
Y689836D01*
X-2068550Y684838D01*
X-2073548D01*
X-2068550D01*
X-2063552Y679839D01*
Y674841D01*
X-2068550Y669842D01*
X-2078547D01*
X-2083545Y674841D01*
X-3745535Y360842D02*
Y390833D01*
X-3730540D01*
X-3725542Y385834D01*
Y375838D01*
X-3730540Y370839D01*
X-3745535D01*
X-3715545Y390833D02*
Y360842D01*
X-3705548Y370839D01*
X-3695552Y360842D01*
Y390833D01*
X-3685555Y360842D02*
Y390833D01*
X-3670560D01*
X-3665561Y385834D01*
Y375838D01*
X-3670560Y370839D01*
X-3685555D01*
X-3675558D02*
X-3665561Y360842D01*
X-1477535Y577842D02*
Y607833D01*
X-1462540D01*
X-1457542Y602834D01*
Y592838D01*
X-1462540Y587839D01*
X-1477535D01*
X-1467539D02*
X-1457542Y577842D01*
X-1447545D02*
X-1437548D01*
X-1442547D01*
Y607833D01*
X-1447545Y602834D01*
X-1277535Y574842D02*
Y604833D01*
X-1262540D01*
X-1257542Y599834D01*
Y589838D01*
X-1262540Y584839D01*
X-1277535D01*
X-1267539D02*
X-1257542Y574842D01*
X-1227552D02*
X-1247545D01*
X-1227552Y594836D01*
Y599834D01*
X-1232550Y604833D01*
X-1242547D01*
X-1247545Y599834D01*
X-1055535Y581842D02*
Y611833D01*
X-1040540D01*
X-1035542Y606834D01*
Y596838D01*
X-1040540Y591839D01*
X-1055535D01*
X-1045539D02*
X-1035542Y581842D01*
X-1025545Y606834D02*
X-1020547Y611833D01*
X-1010550D01*
X-1005552Y606834D01*
Y601836D01*
X-1010550Y596838D01*
X-1015548D01*
X-1010550D01*
X-1005552Y591839D01*
Y586841D01*
X-1010550Y581842D01*
X-1020547D01*
X-1025545Y586841D01*
X-842535Y579842D02*
Y609833D01*
X-827540D01*
X-822542Y604834D01*
Y594838D01*
X-827540Y589839D01*
X-842535D01*
X-832539D02*
X-822542Y579842D01*
X-797550D02*
Y609833D01*
X-812545Y594838D01*
X-792552D01*
X-634535Y583842D02*
Y613833D01*
X-619540D01*
X-614542Y608834D01*
Y598838D01*
X-619540Y593839D01*
X-634535D01*
X-624539D02*
X-614542Y583842D01*
X-584552Y613833D02*
X-604545D01*
Y598838D01*
X-594548Y603836D01*
X-589550D01*
X-584552Y598838D01*
Y588841D01*
X-589550Y583842D01*
X-599547D01*
X-604545Y588841D01*
X-3387535Y1735842D02*
Y1765833D01*
X-3372540D01*
X-3367542Y1760834D01*
Y1750838D01*
X-3372540Y1745839D01*
X-3387535D01*
X-3377539D02*
X-3367542Y1735842D01*
X-3337552Y1765833D02*
X-3347548Y1760834D01*
X-3357545Y1750838D01*
Y1740841D01*
X-3352547Y1735842D01*
X-3342550D01*
X-3337552Y1740841D01*
Y1745839D01*
X-3342550Y1750838D01*
X-3357545D01*
X-2591535Y1735842D02*
Y1765833D01*
X-2576540D01*
X-2571542Y1760834D01*
Y1750838D01*
X-2576540Y1745839D01*
X-2591535D01*
X-2581539D02*
X-2571542Y1735842D01*
X-2561545Y1765833D02*
X-2541552D01*
Y1760834D01*
X-2561545Y1740841D01*
Y1735842D01*
X-1780535D02*
Y1765833D01*
X-1765540D01*
X-1760542Y1760834D01*
Y1750838D01*
X-1765540Y1745839D01*
X-1780535D01*
X-1770539D02*
X-1760542Y1735842D01*
X-1750545Y1760834D02*
X-1745547Y1765833D01*
X-1735550D01*
X-1730552Y1760834D01*
Y1755836D01*
X-1735550Y1750838D01*
X-1730552Y1745839D01*
Y1740841D01*
X-1735550Y1735842D01*
X-1745547D01*
X-1750545Y1740841D01*
Y1745839D01*
X-1745547Y1750838D01*
X-1750545Y1755836D01*
Y1760834D01*
X-1745547Y1750838D02*
X-1735550D01*
X-996535Y1735842D02*
Y1765833D01*
X-981540D01*
X-976542Y1760834D01*
Y1750838D01*
X-981540Y1745839D01*
X-996535D01*
X-986539D02*
X-976542Y1735842D01*
X-966545Y1740841D02*
X-961547Y1735842D01*
X-951550D01*
X-946552Y1740841D01*
Y1760834D01*
X-951550Y1765833D01*
X-961547D01*
X-966545Y1760834D01*
Y1755836D01*
X-961547Y1750838D01*
X-946552D01*
X-2713535Y1009842D02*
Y1039833D01*
X-2698540D01*
X-2693542Y1034834D01*
Y1024838D01*
X-2698540Y1019839D01*
X-2713535D01*
X-2703539D02*
X-2693542Y1009842D01*
X-2683545D02*
X-2673548D01*
X-2678547D01*
Y1039833D01*
X-2683545Y1034834D01*
X-2658553D02*
X-2653555Y1039833D01*
X-2643558D01*
X-2638560Y1034834D01*
Y1014841D01*
X-2643558Y1009842D01*
X-2653555D01*
X-2658553Y1014841D01*
Y1034834D01*
X-2507000Y930000D02*
Y959990D01*
X-2492005D01*
X-2487006Y954992D01*
Y944995D01*
X-2492005Y939997D01*
X-2507000D01*
X-2497003D02*
X-2487006Y930000D01*
X-2477010D02*
X-2467013D01*
X-2472011D01*
Y959990D01*
X-2477010Y954992D01*
X-2452018Y930000D02*
X-2442021D01*
X-2447019D01*
Y959990D01*
X-2452018Y954992D01*
X-2182000Y1000000D02*
Y1029990D01*
X-2167005D01*
X-2162006Y1024992D01*
Y1014995D01*
X-2167005Y1009997D01*
X-2182000D01*
X-2172003D02*
X-2162006Y1000000D01*
X-2152010D02*
X-2142013D01*
X-2147011D01*
Y1029990D01*
X-2152010Y1024992D01*
X-2107024Y1000000D02*
X-2127018D01*
X-2107024Y1019994D01*
Y1024992D01*
X-2112023Y1029990D01*
X-2122019D01*
X-2127018Y1024992D01*
X-3876535Y2085843D02*
Y2115833D01*
X-3861540D01*
X-3856542Y2110834D01*
Y2100838D01*
X-3861540Y2095839D01*
X-3876535D01*
X-3866539D02*
X-3856542Y2085843D01*
X-3846545D02*
X-3836548D01*
X-3841547D01*
Y2115833D01*
X-3846545Y2110834D01*
X-3821553D02*
X-3816555Y2115833D01*
X-3806558D01*
X-3801560Y2110834D01*
Y2105836D01*
X-3806558Y2100838D01*
X-3811556D01*
X-3806558D01*
X-3801560Y2095839D01*
Y2090841D01*
X-3806558Y2085843D01*
X-3816555D01*
X-3821553Y2090841D01*
X-3165535Y1532842D02*
Y1562833D01*
X-3150540D01*
X-3145542Y1557834D01*
Y1547838D01*
X-3150540Y1542839D01*
X-3165535D01*
X-3155539D02*
X-3145542Y1532842D01*
X-3135545D02*
X-3125548D01*
X-3130547D01*
Y1562833D01*
X-3135545Y1557834D01*
X-3095558Y1532842D02*
Y1562833D01*
X-3110553Y1547838D01*
X-3090560D01*
X-3421535Y1658897D02*
Y1688887D01*
X-3406540D01*
X-3401542Y1683888D01*
Y1673892D01*
X-3406540Y1668893D01*
X-3421535D01*
X-3411539D02*
X-3401542Y1658897D01*
X-3391545D02*
X-3381548D01*
X-3386547D01*
Y1688887D01*
X-3391545Y1683888D01*
X-3346560Y1688887D02*
X-3366553D01*
Y1673892D01*
X-3356556Y1678890D01*
X-3351558D01*
X-3346560Y1673892D01*
Y1663895D01*
X-3351558Y1658897D01*
X-3361555D01*
X-3366553Y1663895D01*
X-3074535Y2088843D02*
Y2118833D01*
X-3059540D01*
X-3054542Y2113834D01*
Y2103838D01*
X-3059540Y2098839D01*
X-3074535D01*
X-3064539D02*
X-3054542Y2088843D01*
X-3044545D02*
X-3034548D01*
X-3039547D01*
Y2118833D01*
X-3044545Y2113834D01*
X-2999560Y2118833D02*
X-3009556Y2113834D01*
X-3019553Y2103838D01*
Y2093841D01*
X-3014555Y2088843D01*
X-3004558D01*
X-2999560Y2093841D01*
Y2098839D01*
X-3004558Y2103838D01*
X-3019553D01*
X-2489535Y1447842D02*
Y1477833D01*
X-2474540D01*
X-2469542Y1472834D01*
Y1462838D01*
X-2474540Y1457839D01*
X-2489535D01*
X-2479539D02*
X-2469542Y1447842D01*
X-2459545D02*
X-2449548D01*
X-2454547D01*
Y1477833D01*
X-2459545Y1472834D01*
X-2434553Y1477833D02*
X-2414560D01*
Y1472834D01*
X-2434553Y1452841D01*
Y1447842D01*
X-3734535Y1460842D02*
Y1490833D01*
X-3719540D01*
X-3714542Y1485834D01*
Y1475838D01*
X-3719540Y1470839D01*
X-3734535D01*
X-3724539D02*
X-3714542Y1460842D01*
X-3704545D02*
X-3694548D01*
X-3699547D01*
Y1490833D01*
X-3704545Y1485834D01*
X-3679553D02*
X-3674555Y1490833D01*
X-3664558D01*
X-3659560Y1485834D01*
Y1480836D01*
X-3664558Y1475838D01*
X-3659560Y1470839D01*
Y1465841D01*
X-3664558Y1460842D01*
X-3674555D01*
X-3679553Y1465841D01*
Y1470839D01*
X-3674555Y1475838D01*
X-3679553Y1480836D01*
Y1485834D01*
X-3674555Y1475838D02*
X-3664558D01*
X-2272535Y2090843D02*
Y2120833D01*
X-2257540D01*
X-2252542Y2115834D01*
Y2105838D01*
X-2257540Y2100839D01*
X-2272535D01*
X-2262539D02*
X-2252542Y2090843D01*
X-2242545D02*
X-2232548D01*
X-2237547D01*
Y2120833D01*
X-2242545Y2115834D01*
X-2217553Y2095841D02*
X-2212555Y2090843D01*
X-2202558D01*
X-2197560Y2095841D01*
Y2115834D01*
X-2202558Y2120833D01*
X-2212555D01*
X-2217553Y2115834D01*
Y2110836D01*
X-2212555Y2105838D01*
X-2197560D01*
X-1695535Y1444842D02*
Y1474833D01*
X-1680540D01*
X-1675542Y1469834D01*
Y1459838D01*
X-1680540Y1454839D01*
X-1695535D01*
X-1685539D02*
X-1675542Y1444842D01*
X-1645552D02*
X-1665545D01*
X-1645552Y1464836D01*
Y1469834D01*
X-1650550Y1474833D01*
X-1660547D01*
X-1665545Y1469834D01*
X-1635555D02*
X-1630556Y1474833D01*
X-1620560D01*
X-1615561Y1469834D01*
Y1449841D01*
X-1620560Y1444842D01*
X-1630556D01*
X-1635555Y1449841D01*
Y1469834D01*
X-1809535Y1451842D02*
Y1481833D01*
X-1794540D01*
X-1789542Y1476834D01*
Y1466838D01*
X-1794540Y1461839D01*
X-1809535D01*
X-1799539D02*
X-1789542Y1451842D01*
X-1759552D02*
X-1779545D01*
X-1759552Y1471836D01*
Y1476834D01*
X-1764550Y1481833D01*
X-1774547D01*
X-1779545Y1476834D01*
X-1749555Y1451842D02*
X-1739558D01*
X-1744556D01*
Y1481833D01*
X-1749555Y1476834D01*
X-1483535Y2086843D02*
Y2116833D01*
X-1468540D01*
X-1463542Y2111834D01*
Y2101838D01*
X-1468540Y2096839D01*
X-1483535D01*
X-1473539D02*
X-1463542Y2086843D01*
X-1433552D02*
X-1453545D01*
X-1433552Y2106836D01*
Y2111834D01*
X-1438550Y2116833D01*
X-1448547D01*
X-1453545Y2111834D01*
X-1403561Y2086843D02*
X-1423555D01*
X-1403561Y2106836D01*
Y2111834D01*
X-1408560Y2116833D01*
X-1418556D01*
X-1423555Y2111834D01*
X-782535Y1523842D02*
Y1553833D01*
X-767540D01*
X-762542Y1548834D01*
Y1538838D01*
X-767540Y1533839D01*
X-782535D01*
X-772539D02*
X-762542Y1523842D01*
X-732552D02*
X-752545D01*
X-732552Y1543836D01*
Y1548834D01*
X-737550Y1553833D01*
X-747547D01*
X-752545Y1548834D01*
X-722555D02*
X-717556Y1553833D01*
X-707560D01*
X-702561Y1548834D01*
Y1543836D01*
X-707560Y1538838D01*
X-712558D01*
X-707560D01*
X-702561Y1533839D01*
Y1528841D01*
X-707560Y1523842D01*
X-717556D01*
X-722555Y1528841D01*
X-1031535Y1457842D02*
Y1487833D01*
X-1016540D01*
X-1011542Y1482834D01*
Y1472838D01*
X-1016540Y1467839D01*
X-1031535D01*
X-1021539D02*
X-1011542Y1457842D01*
X-981552D02*
X-1001545D01*
X-981552Y1477836D01*
Y1482834D01*
X-986550Y1487833D01*
X-996547D01*
X-1001545Y1482834D01*
X-956560Y1457842D02*
Y1487833D01*
X-971555Y1472838D01*
X-951561D01*
X-480535Y521842D02*
Y551833D01*
X-465540D01*
X-460542Y546834D01*
Y536838D01*
X-465540Y531839D01*
X-480535D01*
X-470539D02*
X-460542Y521842D01*
X-430552D02*
X-450545D01*
X-430552Y541836D01*
Y546834D01*
X-435550Y551833D01*
X-445547D01*
X-450545Y546834D01*
X-400561Y551833D02*
X-420555D01*
Y536838D01*
X-410558Y541836D01*
X-405560D01*
X-400561Y536838D01*
Y526841D01*
X-405560Y521842D01*
X-415556D01*
X-420555Y526841D01*
X-237535Y1425842D02*
Y1455833D01*
X-222540D01*
X-217542Y1450834D01*
Y1440838D01*
X-222540Y1435839D01*
X-237535D01*
X-227539D02*
X-217542Y1425842D01*
X-187552D02*
X-207545D01*
X-187552Y1445836D01*
Y1450834D01*
X-192550Y1455833D01*
X-202547D01*
X-207545Y1450834D01*
X-157561Y1455833D02*
X-167558Y1450834D01*
X-177555Y1440838D01*
Y1430841D01*
X-172556Y1425842D01*
X-162560D01*
X-157561Y1430841D01*
Y1435839D01*
X-162560Y1440838D01*
X-177555D01*
X-3621535Y1459842D02*
Y1489833D01*
X-3606540D01*
X-3601542Y1484834D01*
Y1474838D01*
X-3606540Y1469839D01*
X-3621535D01*
X-3611539D02*
X-3601542Y1459842D01*
X-3571552D02*
X-3591545D01*
X-3571552Y1479836D01*
Y1484834D01*
X-3576550Y1489833D01*
X-3586547D01*
X-3591545Y1484834D01*
X-3561555Y1489833D02*
X-3541561D01*
Y1484834D01*
X-3561555Y1464841D01*
Y1459842D01*
X-3527535Y1656842D02*
Y1686833D01*
X-3512540D01*
X-3507542Y1681834D01*
Y1671838D01*
X-3512540Y1666839D01*
X-3527535D01*
X-3517539D02*
X-3507542Y1656842D01*
X-3477552D02*
X-3497545D01*
X-3477552Y1676836D01*
Y1681834D01*
X-3482550Y1686833D01*
X-3492547D01*
X-3497545Y1681834D01*
X-3467555D02*
X-3462556Y1686833D01*
X-3452560D01*
X-3447561Y1681834D01*
Y1676836D01*
X-3452560Y1671838D01*
X-3447561Y1666839D01*
Y1661841D01*
X-3452560Y1656842D01*
X-3462556D01*
X-3467555Y1661841D01*
Y1666839D01*
X-3462556Y1671838D01*
X-3467555Y1676836D01*
Y1681834D01*
X-3462556Y1671838D02*
X-3452560D01*
X-2928535Y1449842D02*
Y1479833D01*
X-2913540D01*
X-2908542Y1474834D01*
Y1464838D01*
X-2913540Y1459839D01*
X-2928535D01*
X-2918539D02*
X-2908542Y1449842D01*
X-2878552D02*
X-2898545D01*
X-2878552Y1469836D01*
Y1474834D01*
X-2883550Y1479833D01*
X-2893547D01*
X-2898545Y1474834D01*
X-2868555Y1454841D02*
X-2863556Y1449842D01*
X-2853560D01*
X-2848561Y1454841D01*
Y1474834D01*
X-2853560Y1479833D01*
X-2863556D01*
X-2868555Y1474834D01*
Y1469836D01*
X-2863556Y1464838D01*
X-2848561D01*
X-2821535Y1451842D02*
Y1481833D01*
X-2806540D01*
X-2801542Y1476834D01*
Y1466838D01*
X-2806540Y1461839D01*
X-2821535D01*
X-2811539D02*
X-2801542Y1451842D01*
X-2791545Y1476834D02*
X-2786547Y1481833D01*
X-2776550D01*
X-2771552Y1476834D01*
Y1471836D01*
X-2776550Y1466838D01*
X-2781548D01*
X-2776550D01*
X-2771552Y1461839D01*
Y1456841D01*
X-2776550Y1451842D01*
X-2786547D01*
X-2791545Y1456841D01*
X-2761555Y1476834D02*
X-2756556Y1481833D01*
X-2746560D01*
X-2741561Y1476834D01*
Y1456841D01*
X-2746560Y1451842D01*
X-2756556D01*
X-2761555Y1456841D01*
Y1476834D01*
X-2720535Y1448842D02*
Y1478833D01*
X-2705540D01*
X-2700542Y1473834D01*
Y1463838D01*
X-2705540Y1458839D01*
X-2720535D01*
X-2710539D02*
X-2700542Y1448842D01*
X-2690545Y1473834D02*
X-2685547Y1478833D01*
X-2675550D01*
X-2670552Y1473834D01*
Y1468836D01*
X-2675550Y1463838D01*
X-2680548D01*
X-2675550D01*
X-2670552Y1458839D01*
Y1453841D01*
X-2675550Y1448842D01*
X-2685547D01*
X-2690545Y1453841D01*
X-2660555Y1448842D02*
X-2650558D01*
X-2655556D01*
Y1478833D01*
X-2660555Y1473834D01*
X-2116535Y1453842D02*
Y1483833D01*
X-2101540D01*
X-2096542Y1478834D01*
Y1468838D01*
X-2101540Y1463839D01*
X-2116535D01*
X-2106539D02*
X-2096542Y1453842D01*
X-2086545Y1478834D02*
X-2081547Y1483833D01*
X-2071550D01*
X-2066552Y1478834D01*
Y1473836D01*
X-2071550Y1468838D01*
X-2076548D01*
X-2071550D01*
X-2066552Y1463839D01*
Y1458841D01*
X-2071550Y1453842D01*
X-2081547D01*
X-2086545Y1458841D01*
X-2036561Y1453842D02*
X-2056555D01*
X-2036561Y1473836D01*
Y1478834D01*
X-2041560Y1483833D01*
X-2051556D01*
X-2056555Y1478834D01*
X-2012535Y1455842D02*
Y1485833D01*
X-1997540D01*
X-1992542Y1480834D01*
Y1470838D01*
X-1997540Y1465839D01*
X-2012535D01*
X-2002539D02*
X-1992542Y1455842D01*
X-1982545Y1480834D02*
X-1977547Y1485833D01*
X-1967550D01*
X-1962552Y1480834D01*
Y1475836D01*
X-1967550Y1470838D01*
X-1972548D01*
X-1967550D01*
X-1962552Y1465839D01*
Y1460841D01*
X-1967550Y1455842D01*
X-1977547D01*
X-1982545Y1460841D01*
X-1952555Y1480834D02*
X-1947556Y1485833D01*
X-1937560D01*
X-1932561Y1480834D01*
Y1475836D01*
X-1937560Y1470838D01*
X-1942558D01*
X-1937560D01*
X-1932561Y1465839D01*
Y1460841D01*
X-1937560Y1455842D01*
X-1947556D01*
X-1952555Y1460841D01*
X-1914535Y1452842D02*
Y1482833D01*
X-1899540D01*
X-1894542Y1477834D01*
Y1467838D01*
X-1899540Y1462839D01*
X-1914535D01*
X-1904539D02*
X-1894542Y1452842D01*
X-1884545Y1477834D02*
X-1879547Y1482833D01*
X-1869550D01*
X-1864552Y1477834D01*
Y1472836D01*
X-1869550Y1467838D01*
X-1874548D01*
X-1869550D01*
X-1864552Y1462839D01*
Y1457841D01*
X-1869550Y1452842D01*
X-1879547D01*
X-1884545Y1457841D01*
X-1839560Y1452842D02*
Y1482833D01*
X-1854555Y1467838D01*
X-1834561D01*
X-1337535Y1457842D02*
Y1487833D01*
X-1322540D01*
X-1317542Y1482834D01*
Y1472838D01*
X-1322540Y1467839D01*
X-1337535D01*
X-1327539D02*
X-1317542Y1457842D01*
X-1307545Y1482834D02*
X-1302547Y1487833D01*
X-1292550D01*
X-1287552Y1482834D01*
Y1477836D01*
X-1292550Y1472838D01*
X-1297548D01*
X-1292550D01*
X-1287552Y1467839D01*
Y1462841D01*
X-1292550Y1457842D01*
X-1302547D01*
X-1307545Y1462841D01*
X-1257561Y1487833D02*
X-1277555D01*
Y1472838D01*
X-1267558Y1477836D01*
X-1262560D01*
X-1257561Y1472838D01*
Y1462841D01*
X-1262560Y1457842D01*
X-1272556D01*
X-1277555Y1462841D01*
X-1230535Y1458842D02*
Y1488833D01*
X-1215540D01*
X-1210542Y1483834D01*
Y1473838D01*
X-1215540Y1468839D01*
X-1230535D01*
X-1220539D02*
X-1210542Y1458842D01*
X-1200545Y1483834D02*
X-1195547Y1488833D01*
X-1185550D01*
X-1180552Y1483834D01*
Y1478836D01*
X-1185550Y1473838D01*
X-1190548D01*
X-1185550D01*
X-1180552Y1468839D01*
Y1463841D01*
X-1185550Y1458842D01*
X-1195547D01*
X-1200545Y1463841D01*
X-1150561Y1488833D02*
X-1160558Y1483834D01*
X-1170555Y1473838D01*
Y1463841D01*
X-1165556Y1458842D01*
X-1155560D01*
X-1150561Y1463841D01*
Y1468839D01*
X-1155560Y1473838D01*
X-1170555D01*
X-1133535Y1457842D02*
Y1487833D01*
X-1118540D01*
X-1113542Y1482834D01*
Y1472838D01*
X-1118540Y1467839D01*
X-1133535D01*
X-1123539D02*
X-1113542Y1457842D01*
X-1103545Y1482834D02*
X-1098547Y1487833D01*
X-1088550D01*
X-1083552Y1482834D01*
Y1477836D01*
X-1088550Y1472838D01*
X-1093548D01*
X-1088550D01*
X-1083552Y1467839D01*
Y1462841D01*
X-1088550Y1457842D01*
X-1098547D01*
X-1103545Y1462841D01*
X-1073555Y1487833D02*
X-1053561D01*
Y1482834D01*
X-1073555Y1462841D01*
Y1457842D01*
X-3279535Y1998842D02*
Y2028833D01*
X-3264540D01*
X-3259542Y2023834D01*
Y2013838D01*
X-3264540Y2008839D01*
X-3279535D01*
X-3269539D02*
X-3259542Y1998842D01*
X-3249545D02*
Y2028833D01*
X-3234550D01*
X-3229552Y2023834D01*
Y2013838D01*
X-3234550Y2008839D01*
X-3249545D01*
X-3219555Y1998842D02*
X-3209558D01*
X-3214556D01*
Y2028833D01*
X-3219555Y2023834D01*
X-2504535Y2000842D02*
Y2030833D01*
X-2489540D01*
X-2484542Y2025834D01*
Y2015838D01*
X-2489540Y2010839D01*
X-2504535D01*
X-2494539D02*
X-2484542Y2000842D01*
X-2474545D02*
Y2030833D01*
X-2459550D01*
X-2454552Y2025834D01*
Y2015838D01*
X-2459550Y2010839D01*
X-2474545D01*
X-2424561Y2000842D02*
X-2444555D01*
X-2424561Y2020836D01*
Y2025834D01*
X-2429560Y2030833D01*
X-2439556D01*
X-2444555Y2025834D01*
X-1694535Y2006842D02*
Y2036833D01*
X-1679540D01*
X-1674542Y2031834D01*
Y2021838D01*
X-1679540Y2016839D01*
X-1694535D01*
X-1684539D02*
X-1674542Y2006842D01*
X-1664545D02*
Y2036833D01*
X-1649550D01*
X-1644552Y2031834D01*
Y2021838D01*
X-1649550Y2016839D01*
X-1664545D01*
X-1634555Y2031834D02*
X-1629556Y2036833D01*
X-1619560D01*
X-1614561Y2031834D01*
Y2026836D01*
X-1619560Y2021838D01*
X-1624558D01*
X-1619560D01*
X-1614561Y2016839D01*
Y2011841D01*
X-1619560Y2006842D01*
X-1629556D01*
X-1634555Y2011841D01*
X-3779527Y2322836D02*
X-3784526Y2317838D01*
Y2307841D01*
X-3779527Y2302843D01*
X-3774529D01*
X-3769531Y2307841D01*
Y2317838D01*
X-3764532Y2322836D01*
X-3759534D01*
X-3754535Y2317838D01*
Y2307841D01*
X-3759534Y2302843D01*
X-3754535Y2332833D02*
Y2342830D01*
Y2337831D01*
X-3784526D01*
X-3779527Y2332833D01*
X-3534527Y2317836D02*
X-3539526Y2312838D01*
Y2302841D01*
X-3534527Y2297843D01*
X-3529529D01*
X-3524531Y2302841D01*
Y2312838D01*
X-3519532Y2317836D01*
X-3514534D01*
X-3509535Y2312838D01*
Y2302841D01*
X-3514534Y2297843D01*
X-3509535Y2347826D02*
Y2327833D01*
X-3529529Y2347826D01*
X-3534527D01*
X-3539526Y2342828D01*
Y2332831D01*
X-3534527Y2327833D01*
X-2991527Y2312836D02*
X-2996526Y2307838D01*
Y2297841D01*
X-2991527Y2292843D01*
X-2986529D01*
X-2981531Y2297841D01*
Y2307838D01*
X-2976532Y2312836D01*
X-2971534D01*
X-2966535Y2307838D01*
Y2297841D01*
X-2971534Y2292843D01*
X-2991527Y2322833D02*
X-2996526Y2327831D01*
Y2337828D01*
X-2991527Y2342826D01*
X-2986529D01*
X-2981531Y2337828D01*
Y2332830D01*
Y2337828D01*
X-2976532Y2342826D01*
X-2971534D01*
X-2966535Y2337828D01*
Y2327831D01*
X-2971534Y2322833D01*
X-2736527Y2310836D02*
X-2741526Y2305838D01*
Y2295841D01*
X-2736527Y2290843D01*
X-2731529D01*
X-2726531Y2295841D01*
Y2305838D01*
X-2721532Y2310836D01*
X-2716534D01*
X-2711535Y2305838D01*
Y2295841D01*
X-2716534Y2290843D01*
X-2711535Y2335828D02*
X-2741526D01*
X-2726531Y2320833D01*
Y2340826D01*
X-2186527Y2324836D02*
X-2191526Y2319838D01*
Y2309841D01*
X-2186527Y2304843D01*
X-2181529D01*
X-2176531Y2309841D01*
Y2319838D01*
X-2171532Y2324836D01*
X-2166534D01*
X-2161535Y2319838D01*
Y2309841D01*
X-2166534Y2304843D01*
X-2191526Y2354826D02*
Y2334833D01*
X-2176531D01*
X-2181529Y2344830D01*
Y2349828D01*
X-2176531Y2354826D01*
X-2166534D01*
X-2161535Y2349828D01*
Y2339831D01*
X-2166534Y2334833D01*
X-1925527Y2321836D02*
X-1930526Y2316838D01*
Y2306841D01*
X-1925527Y2301843D01*
X-1920529D01*
X-1915531Y2306841D01*
Y2316838D01*
X-1910532Y2321836D01*
X-1905534D01*
X-1900535Y2316838D01*
Y2306841D01*
X-1905534Y2301843D01*
X-1930526Y2351826D02*
X-1925527Y2341830D01*
X-1915531Y2331833D01*
X-1905534D01*
X-1900535Y2336831D01*
Y2346828D01*
X-1905534Y2351826D01*
X-1910532D01*
X-1915531Y2346828D01*
Y2331833D01*
X-1415527Y2314836D02*
X-1420526Y2309838D01*
Y2299841D01*
X-1415527Y2294843D01*
X-1410529D01*
X-1405531Y2299841D01*
Y2309838D01*
X-1400532Y2314836D01*
X-1395534D01*
X-1390535Y2309838D01*
Y2299841D01*
X-1395534Y2294843D01*
X-1420526Y2324833D02*
Y2344826D01*
X-1415527D01*
X-1395534Y2324833D01*
X-1390535D01*
X-1137527Y2312836D02*
X-1142526Y2307838D01*
Y2297841D01*
X-1137527Y2292843D01*
X-1132529D01*
X-1127531Y2297841D01*
Y2307838D01*
X-1122532Y2312836D01*
X-1117534D01*
X-1112535Y2307838D01*
Y2297841D01*
X-1117534Y2292843D01*
X-1137527Y2322833D02*
X-1142526Y2327831D01*
Y2337828D01*
X-1137527Y2342826D01*
X-1132529D01*
X-1127531Y2337828D01*
X-1122532Y2342826D01*
X-1117534D01*
X-1112535Y2337828D01*
Y2327831D01*
X-1117534Y2322833D01*
X-1122532D01*
X-1127531Y2327831D01*
X-1132529Y2322833D01*
X-1137527D01*
X-1127531Y2327831D02*
Y2337828D01*
X-356535Y2709833D02*
X-336542D01*
X-346539D01*
Y2679843D01*
X-306552Y2709833D02*
X-326545D01*
Y2694838D01*
X-316548D01*
X-326545D01*
Y2679843D01*
X-908535Y1230833D02*
Y1205841D01*
X-903537Y1200842D01*
X-893540D01*
X-888542Y1205841D01*
Y1230833D01*
X-878545Y1200842D02*
X-868548D01*
X-873547D01*
Y1230833D01*
X-878545Y1225834D01*
X-472535Y1861833D02*
Y1836841D01*
X-467537Y1831842D01*
X-457540D01*
X-452542Y1836841D01*
Y1861833D01*
X-422552Y1831842D02*
X-442545D01*
X-422552Y1851836D01*
Y1856834D01*
X-427550Y1861833D01*
X-437547D01*
X-442545Y1856834D01*
X-3580535Y1758833D02*
Y1733841D01*
X-3575537Y1728842D01*
X-3565540D01*
X-3560542Y1733841D01*
Y1758833D01*
X-3550545Y1753834D02*
X-3545547Y1758833D01*
X-3535550D01*
X-3530552Y1753834D01*
Y1748836D01*
X-3535550Y1743838D01*
X-3540548D01*
X-3535550D01*
X-3530552Y1738839D01*
Y1733841D01*
X-3535550Y1728842D01*
X-3545547D01*
X-3550545Y1733841D01*
X-2786535Y1762833D02*
Y1737841D01*
X-2781537Y1732842D01*
X-2771540D01*
X-2766542Y1737841D01*
Y1762833D01*
X-2741550Y1732842D02*
Y1762833D01*
X-2756545Y1747838D01*
X-2736552D01*
X-1977535Y1758833D02*
Y1733841D01*
X-1972537Y1728842D01*
X-1962540D01*
X-1957542Y1733841D01*
Y1758833D01*
X-1927552D02*
X-1937548Y1753834D01*
X-1947545Y1743838D01*
Y1733841D01*
X-1942547Y1728842D01*
X-1932550D01*
X-1927552Y1733841D01*
Y1738839D01*
X-1932550Y1743838D01*
X-1947545D01*
X-1197535Y1764833D02*
Y1739841D01*
X-1192537Y1734842D01*
X-1182540D01*
X-1177542Y1739841D01*
Y1764833D01*
X-1167545D02*
X-1147552D01*
Y1759834D01*
X-1167545Y1739841D01*
Y1734842D01*
X-1219535Y918833D02*
Y893841D01*
X-1214537Y888842D01*
X-1204540D01*
X-1199542Y893841D01*
Y918833D01*
X-1189545Y913834D02*
X-1184547Y918833D01*
X-1174550D01*
X-1169552Y913834D01*
Y908836D01*
X-1174550Y903838D01*
X-1169552Y898839D01*
Y893841D01*
X-1174550Y888842D01*
X-1184547D01*
X-1189545Y893841D01*
Y898839D01*
X-1184547Y903838D01*
X-1189545Y908836D01*
Y913834D01*
X-1184547Y903838D02*
X-1174550D01*
X-446526Y1701842D02*
X-421534D01*
X-416535Y1706841D01*
Y1716838D01*
X-421534Y1721836D01*
X-446526D01*
X-441527Y1751826D02*
X-446526Y1746828D01*
Y1736831D01*
X-441527Y1731833D01*
X-436529D01*
X-431531Y1736831D01*
Y1746828D01*
X-426532Y1751826D01*
X-421534D01*
X-416535Y1746828D01*
Y1736831D01*
X-421534Y1731833D01*
X-446526Y1761823D02*
X-416535D01*
Y1776818D01*
X-421534Y1781817D01*
X-426532D01*
X-431531Y1776818D01*
Y1761823D01*
Y1776818D01*
X-436529Y1781817D01*
X-441527D01*
X-446526Y1776818D01*
Y1761823D01*
X-2077535Y972842D02*
X-2067539D01*
X-2072537D01*
Y1002833D01*
X-2077535Y997834D01*
X-2032550Y1002833D02*
X-2042547Y997834D01*
X-2052544Y987838D01*
Y977841D01*
X-2047545Y972842D01*
X-2037548D01*
X-2032550Y977841D01*
Y982839D01*
X-2037548Y987838D01*
X-2052544D01*
X-2022553Y972842D02*
Y1002833D01*
X-2012556Y992836D01*
X-2002560Y1002833D01*
Y972842D01*
X-949535Y2001842D02*
Y2031833D01*
X-934540D01*
X-929542Y2026834D01*
Y2016838D01*
X-934540Y2011839D01*
X-949535D01*
X-939539D02*
X-929542Y2001842D01*
X-919545D02*
Y2031833D01*
X-904550D01*
X-899552Y2026834D01*
Y2016838D01*
X-904550Y2011839D01*
X-919545D01*
X-874560Y2001842D02*
Y2031833D01*
X-889555Y2016838D01*
X-869561D01*
X-2618535Y1449842D02*
Y1479833D01*
X-2603540D01*
X-2598542Y1474834D01*
Y1464838D01*
X-2603540Y1459839D01*
X-2618535D01*
X-2608539D02*
X-2598542Y1449842D01*
X-2588545Y1474834D02*
X-2583547Y1479833D01*
X-2573550D01*
X-2568552Y1474834D01*
Y1469836D01*
X-2573550Y1464838D01*
X-2578548D01*
X-2573550D01*
X-2568552Y1459839D01*
Y1454841D01*
X-2573550Y1449842D01*
X-2583547D01*
X-2588545Y1454841D01*
X-2558555Y1474834D02*
X-2553556Y1479833D01*
X-2543560D01*
X-2538561Y1474834D01*
Y1469836D01*
X-2543560Y1464838D01*
X-2538561Y1459839D01*
Y1454841D01*
X-2543560Y1449842D01*
X-2553556D01*
X-2558555Y1454841D01*
Y1459839D01*
X-2553556Y1464838D01*
X-2558555Y1469836D01*
Y1474834D01*
X-2553556Y1464838D02*
X-2543560D01*
X-417526Y903842D02*
X-387535D01*
Y923836D01*
X-417526Y953826D02*
Y933833D01*
X-387535D01*
Y953826D01*
X-402531Y933833D02*
Y943830D01*
X-417526Y963823D02*
X-387535D01*
Y978818D01*
X-392534Y983817D01*
X-412527D01*
X-417526Y978818D01*
Y963823D01*
X-387535Y1013807D02*
Y993813D01*
X-407529Y1013807D01*
X-412527D01*
X-417526Y1008809D01*
Y998812D01*
X-412527Y993813D01*
X-433535Y913842D02*
Y923839D01*
Y918841D01*
X-463526D01*
X-458527Y913842D01*
X-463526Y938834D02*
X-433535D01*
X-443532D01*
X-463526Y958828D01*
X-448531Y943833D01*
X-433535Y958828D01*
X-1786542Y642833D02*
X-1806535D01*
Y627838D01*
X-1796539D01*
X-1806535D01*
Y612842D01*
X-1776545D02*
Y632836D01*
X-1766548Y642833D01*
X-1756552Y632836D01*
Y612842D01*
Y627838D01*
X-1776545D01*
X-1746555Y612842D02*
Y642833D01*
X-1726561Y612842D01*
Y642833D01*
X-1716564Y612842D02*
X-1706568D01*
X-1711566D01*
Y642833D01*
X-1716564Y637834D01*
X-3270542Y873834D02*
X-3275540Y878833D01*
X-3285537D01*
X-3290535Y873834D01*
Y853841D01*
X-3285537Y848842D01*
X-3275540D01*
X-3270542Y853841D01*
X-3260545Y848842D02*
Y878833D01*
X-3245550D01*
X-3240552Y873834D01*
Y863838D01*
X-3245550Y858839D01*
X-3260545D01*
X-3230555Y848842D02*
X-3220558D01*
X-3225556D01*
Y878833D01*
X-3230555Y873834D01*
X-3270542Y832834D02*
X-3275540Y837833D01*
X-3285537D01*
X-3290535Y832834D01*
Y812841D01*
X-3285537Y807842D01*
X-3275540D01*
X-3270542Y812841D01*
X-3260545Y807842D02*
Y837833D01*
X-3245550D01*
X-3240552Y832834D01*
Y822838D01*
X-3245550Y817839D01*
X-3260545D01*
X-3210561Y807842D02*
X-3230555D01*
X-3210561Y827836D01*
Y832834D01*
X-3215560Y837833D01*
X-3225556D01*
X-3230555Y832834D01*
X-3649527Y1182836D02*
X-3654526Y1177838D01*
Y1167841D01*
X-3649527Y1162842D01*
X-3629534D01*
X-3624535Y1167841D01*
Y1177838D01*
X-3629534Y1182836D01*
X-3624535Y1192833D02*
X-3654526D01*
Y1207828D01*
X-3649527Y1212826D01*
X-3639531D01*
X-3634532Y1207828D01*
Y1192833D01*
X-3649527Y1222823D02*
X-3654526Y1227822D01*
Y1237818D01*
X-3649527Y1242817D01*
X-3644529D01*
X-3639531Y1237818D01*
Y1232820D01*
Y1237818D01*
X-3634532Y1242817D01*
X-3629534D01*
X-3624535Y1237818D01*
Y1227822D01*
X-3629534Y1222823D01*
X-3816535Y1396833D02*
Y1366842D01*
X-3801540D01*
X-3796542Y1371841D01*
Y1391834D01*
X-3801540Y1396833D01*
X-3816535D01*
X-3786545Y1366842D02*
Y1396833D01*
X-3771550D01*
X-3766552Y1391834D01*
Y1381838D01*
X-3771550Y1376839D01*
X-3786545D01*
X-3756555Y1366842D02*
X-3746558D01*
X-3751556D01*
Y1396833D01*
X-3756555Y1391834D01*
X-2597006Y1403990D02*
X-2617000D01*
Y1388995D01*
X-2607003D01*
X-2617000D01*
Y1374000D01*
X-2587010D02*
Y1403990D01*
X-2572015D01*
X-2567016Y1398992D01*
Y1388995D01*
X-2572015Y1383997D01*
X-2587010D01*
X-2557019Y1374000D02*
X-2547023D01*
X-2552021D01*
Y1403990D01*
X-2557019Y1398992D01*
X-3057000Y1424990D02*
Y1395000D01*
X-3037006D01*
X-3027010D02*
Y1424990D01*
X-3012015D01*
X-3007016Y1419992D01*
Y1409995D01*
X-3012015Y1404997D01*
X-3027010D01*
X-2997019Y1395000D02*
X-2987023D01*
X-2992021D01*
Y1424990D01*
X-2997019Y1419992D01*
X-3533535Y1166842D02*
X-3563526D01*
Y1181838D01*
X-3558527Y1186836D01*
X-3548531D01*
X-3543532Y1181838D01*
Y1166842D01*
Y1176839D02*
X-3533535Y1186836D01*
X-3528537Y1196833D02*
Y1216826D01*
X-3533535Y1226823D02*
X-3563526D01*
Y1241818D01*
X-3558527Y1246817D01*
X-3548531D01*
X-3543532Y1241818D01*
Y1226823D01*
X-3533535Y1256813D02*
Y1266810D01*
Y1261812D01*
X-3563526D01*
X-3558527Y1256813D01*
X-3580535Y1162842D02*
X-3610526D01*
Y1177838D01*
X-3605527Y1182836D01*
X-3595531D01*
X-3590532Y1177838D01*
Y1162842D01*
Y1172839D02*
X-3580535Y1182836D01*
X-3575537Y1192833D02*
Y1212826D01*
X-3580535Y1222823D02*
X-3610526D01*
Y1237818D01*
X-3605527Y1242817D01*
X-3595531D01*
X-3590532Y1237818D01*
Y1222823D01*
X-3580535Y1272807D02*
Y1252813D01*
X-3600529Y1272807D01*
X-3605527D01*
X-3610526Y1267809D01*
Y1257812D01*
X-3605527Y1252813D01*
X-3521535Y681842D02*
Y711833D01*
X-3506540D01*
X-3501542Y706834D01*
Y696838D01*
X-3506540Y691839D01*
X-3521535D01*
X-3511539D02*
X-3501542Y681842D01*
X-3491545Y676844D02*
X-3471552D01*
X-3461555Y681842D02*
Y711833D01*
X-3446560D01*
X-3441561Y706834D01*
Y696838D01*
X-3446560Y691839D01*
X-3461555D01*
X-3431564Y706834D02*
X-3426566Y711833D01*
X-3416569D01*
X-3411571Y706834D01*
Y701836D01*
X-3416569Y696838D01*
X-3421568D01*
X-3416569D01*
X-3411571Y691839D01*
Y686841D01*
X-3416569Y681842D01*
X-3426566D01*
X-3431564Y686841D01*
X-3685535Y990842D02*
Y1020833D01*
X-3670540D01*
X-3665542Y1015834D01*
Y1005838D01*
X-3670540Y1000839D01*
X-3685535D01*
X-3675539D02*
X-3665542Y990842D01*
X-3655545Y985844D02*
X-3635552D01*
X-3625555Y990842D02*
Y1020833D01*
X-3610560D01*
X-3605561Y1015834D01*
Y1005838D01*
X-3610560Y1000839D01*
X-3625555D01*
X-3580569Y990842D02*
Y1020833D01*
X-3595564Y1005838D01*
X-3575571D01*
X-3698535Y1105842D02*
Y1135833D01*
X-3683540D01*
X-3678542Y1130834D01*
Y1120838D01*
X-3683540Y1115839D01*
X-3698535D01*
X-3688539D02*
X-3678542Y1105842D01*
X-3668545Y1100844D02*
X-3648552D01*
X-3638555Y1105842D02*
Y1135833D01*
X-3623560D01*
X-3618561Y1130834D01*
Y1120838D01*
X-3623560Y1115839D01*
X-3638555D01*
X-3588571Y1135833D02*
X-3608564D01*
Y1120838D01*
X-3598568Y1125836D01*
X-3593569D01*
X-3588571Y1120838D01*
Y1110841D01*
X-3593569Y1105842D01*
X-3603566D01*
X-3608564Y1110841D01*
X-3672535Y1158842D02*
X-3702526D01*
Y1173838D01*
X-3697527Y1178836D01*
X-3687531D01*
X-3682532Y1173838D01*
Y1158842D01*
Y1168839D02*
X-3672535Y1178836D01*
X-3667537Y1188833D02*
Y1208826D01*
X-3672535Y1218823D02*
X-3702526D01*
Y1233818D01*
X-3697527Y1238817D01*
X-3687531D01*
X-3682532Y1233818D01*
Y1218823D01*
X-3702526Y1268807D02*
X-3697527Y1258810D01*
X-3687531Y1248813D01*
X-3677534D01*
X-3672535Y1253812D01*
Y1263809D01*
X-3677534Y1268807D01*
X-3682532D01*
X-3687531Y1263809D01*
Y1248813D01*
X-3594535Y964833D02*
Y939841D01*
X-3589537Y934842D01*
X-3579540D01*
X-3574542Y939841D01*
Y964833D01*
X-3564545Y934842D02*
Y964833D01*
X-3549550D01*
X-3544552Y959834D01*
Y949838D01*
X-3549550Y944839D01*
X-3564545D01*
X-3534555Y934842D02*
X-3524558D01*
X-3529556D01*
Y964833D01*
X-3534555Y959834D01*
X-3748542Y954834D02*
X-3753540Y959833D01*
X-3763537D01*
X-3768535Y954834D01*
Y934841D01*
X-3763537Y929842D01*
X-3753540D01*
X-3748542Y934841D01*
X-3738545Y954834D02*
X-3733547Y959833D01*
X-3723550D01*
X-3718552Y954834D01*
Y949836D01*
X-3723550Y944838D01*
X-3728548D01*
X-3723550D01*
X-3718552Y939839D01*
Y934841D01*
X-3723550Y929842D01*
X-3733547D01*
X-3738545Y934841D01*
X-3708555Y954834D02*
X-3703556Y959833D01*
X-3693560D01*
X-3688561Y954834D01*
Y934841D01*
X-3693560Y929842D01*
X-3703556D01*
X-3708555Y934841D01*
Y954834D01*
D318*
X-3759448Y1639803D02*
Y1684803D01*
X-3829448Y1639803D02*
Y1684803D01*
Y1559803D02*
Y1609803D01*
X-3759448Y1559803D02*
Y1609803D01*
X-3829448Y1684803D02*
X-3759448D01*
X-3829448Y1559803D02*
X-3759448D01*
X-497535Y500842D02*
X-452535D01*
X-497535Y430842D02*
X-452535D01*
X-422535D02*
X-372535D01*
X-422535Y500842D02*
X-372535D01*
X-497535Y430842D02*
Y500842D01*
X-372535Y430842D02*
Y500842D01*
X-316535Y1219842D02*
X-246535D01*
X-316535Y1344842D02*
X-246535D01*
Y1219842D02*
Y1269842D01*
X-316535Y1219842D02*
Y1269842D01*
Y1299842D02*
Y1344842D01*
X-246535Y1299842D02*
Y1344842D01*
X-1134535Y1184842D02*
X-1064535D01*
X-1134535Y1059842D02*
X-1064535D01*
X-1134535Y1134842D02*
Y1184842D01*
X-1064535Y1134842D02*
Y1184842D01*
Y1059842D02*
Y1104842D01*
X-1134535Y1059842D02*
Y1104842D01*
X-664535Y1629842D02*
X-589535D01*
X-664535Y1539842D02*
X-589535D01*
X-549535D02*
X-474535D01*
X-549535Y1629842D02*
X-474535D01*
X-664535Y1539842D02*
Y1629842D01*
X-474535Y1539842D02*
Y1629842D01*
X-712535Y373842D02*
Y463842D01*
X-522535Y373842D02*
Y463842D01*
X-712535Y373842D02*
X-637535D01*
X-712535Y463842D02*
X-637535D01*
X-597535D02*
X-522535D01*
X-597535Y373842D02*
X-522535D01*
X-928535Y372842D02*
Y462842D01*
X-738535Y372842D02*
Y462842D01*
X-928535Y372842D02*
X-853535D01*
X-928535Y462842D02*
X-853535D01*
X-813535D02*
X-738535D01*
X-813535Y372842D02*
X-738535D01*
X-878535Y487842D02*
Y557842D01*
X-753535Y487842D02*
Y557842D01*
X-878535Y487842D02*
X-828535D01*
X-878535Y557842D02*
X-828535D01*
X-798535D02*
X-753535D01*
X-798535Y487842D02*
X-753535D01*
X-1458535Y372842D02*
X-1383535D01*
X-1458535Y462842D02*
X-1383535D01*
X-1573535D02*
X-1498535D01*
X-1573535Y372842D02*
X-1498535D01*
X-1383535D02*
Y462842D01*
X-1573535Y372842D02*
Y462842D01*
X-1243535Y371842D02*
X-1168535D01*
X-1243535Y461842D02*
X-1168535D01*
X-1358535D02*
X-1283535D01*
X-1358535Y371842D02*
X-1283535D01*
X-1168535D02*
Y461842D01*
X-1358535Y371842D02*
Y461842D01*
X-3760623Y1917881D02*
Y1962881D01*
X-3830623Y1917881D02*
Y1962881D01*
Y1837881D02*
Y1887881D01*
X-3760623Y1837881D02*
Y1887881D01*
X-3830623Y1962881D02*
X-3760623D01*
X-3830623Y1837881D02*
X-3760623D01*
X-3464535Y2089843D02*
Y2134843D01*
X-3394535Y2089843D02*
Y2134843D01*
Y2164843D02*
Y2214843D01*
X-3464535Y2164843D02*
Y2214843D01*
Y2089843D02*
X-3394535D01*
X-3464535Y2214843D02*
X-3394535D01*
X-3310623Y1684881D02*
X-3265623D01*
X-3310623Y1614881D02*
X-3265623D01*
X-3235623D02*
X-3185623D01*
X-3235623Y1684881D02*
X-3185623D01*
X-3310623Y1614881D02*
Y1684881D01*
X-3185623Y1614881D02*
Y1684881D01*
X-2964535Y1914842D02*
Y1959842D01*
X-3034535Y1914842D02*
Y1959842D01*
Y1834842D02*
Y1884842D01*
X-2964535Y1834842D02*
Y1884842D01*
X-3034535Y1959842D02*
X-2964535D01*
X-3034535Y1834842D02*
X-2964535D01*
X-2669535Y2089843D02*
Y2134843D01*
X-2599535Y2089843D02*
Y2134843D01*
Y2164843D02*
Y2214843D01*
X-2669535Y2164843D02*
Y2214843D01*
Y2089843D02*
X-2599535D01*
X-2669535Y2214843D02*
X-2599535D01*
X-2514535Y1681842D02*
X-2469535D01*
X-2514535Y1611842D02*
X-2469535D01*
X-2439535D02*
X-2389535D01*
X-2439535Y1681842D02*
X-2389535D01*
X-2514535Y1611842D02*
Y1681842D01*
X-2389535Y1611842D02*
Y1681842D01*
X-2155623Y1917881D02*
Y1962881D01*
X-2225623Y1917881D02*
Y1962881D01*
Y1837881D02*
Y1887881D01*
X-2155623Y1837881D02*
Y1887881D01*
X-2225623Y1962881D02*
X-2155623D01*
X-2225623Y1837881D02*
X-2155623D01*
X-2054535Y2169843D02*
Y2214843D01*
X-2124535Y2169843D02*
Y2214843D01*
Y2089843D02*
Y2139843D01*
X-2054535Y2089843D02*
Y2139843D01*
X-2124535Y2214843D02*
X-2054535D01*
X-2124535Y2089843D02*
X-2054535D01*
X-1864535D02*
Y2134843D01*
X-1794535Y2089843D02*
Y2134843D01*
Y2164843D02*
Y2214843D01*
X-1864535Y2164843D02*
Y2214843D01*
Y2089843D02*
X-1794535D01*
X-1864535Y2214843D02*
X-1794535D01*
X-1705623Y1684881D02*
X-1660623D01*
X-1705623Y1614881D02*
X-1660623D01*
X-1630623D02*
X-1580623D01*
X-1630623Y1684881D02*
X-1580623D01*
X-1705623Y1614881D02*
Y1684881D01*
X-1580623Y1614881D02*
Y1684881D01*
X-1375623Y1917881D02*
Y1962881D01*
X-1445623Y1917881D02*
Y1962881D01*
Y1837881D02*
Y1887881D01*
X-1375623Y1837881D02*
Y1887881D01*
X-1445623Y1962881D02*
X-1375623D01*
X-1445623Y1837881D02*
X-1375623D01*
X-1269535Y2169843D02*
Y2214843D01*
X-1339535Y2169843D02*
Y2214843D01*
Y2089843D02*
Y2139843D01*
X-1269535Y2089843D02*
Y2139843D01*
X-1339535Y2214843D02*
X-1269535D01*
X-1339535Y2089843D02*
X-1269535D01*
X-1069535D02*
Y2134843D01*
X-999535Y2089843D02*
Y2134843D01*
Y2164843D02*
Y2214843D01*
X-1069535Y2164843D02*
Y2214843D01*
Y2089843D02*
X-999535D01*
X-1069535Y2214843D02*
X-999535D01*
X-925623Y1684881D02*
X-880623D01*
X-925623Y1614881D02*
X-880623D01*
X-850623D02*
X-800623D01*
X-850623Y1684881D02*
X-800623D01*
X-925623Y1614881D02*
Y1684881D01*
X-800623Y1614881D02*
Y1684881D01*
X-386535Y1219842D02*
Y1264842D01*
X-316535Y1219842D02*
Y1264842D01*
Y1294842D02*
Y1344842D01*
X-386535Y1294842D02*
Y1344842D01*
Y1219842D02*
X-316535D01*
X-386535Y1344842D02*
X-316535D01*
X-3805623Y1732881D02*
X-3760623D01*
X-3805623Y1802881D02*
X-3760623D01*
X-3885623D02*
X-3835623D01*
X-3885623Y1732881D02*
X-3835623D01*
X-3760623D02*
Y1802881D01*
X-3885623Y1732881D02*
Y1802881D01*
X-3009535Y1734842D02*
X-2964535D01*
X-3009535Y1804842D02*
X-2964535D01*
X-3089535D02*
X-3039535D01*
X-3089535Y1734842D02*
X-3039535D01*
X-2964535D02*
Y1804842D01*
X-3089535Y1734842D02*
Y1804842D01*
X-2964535Y1659842D02*
Y1704842D01*
X-3034535Y1659842D02*
Y1704842D01*
Y1579842D02*
Y1629842D01*
X-2964535Y1579842D02*
Y1629842D01*
X-3034535Y1704842D02*
X-2964535D01*
X-3034535Y1579842D02*
X-2964535D01*
X-2200623Y1732881D02*
X-2155623D01*
X-2200623Y1802881D02*
X-2155623D01*
X-2280623D02*
X-2230623D01*
X-2280623Y1732881D02*
X-2230623D01*
X-2155623D02*
Y1802881D01*
X-2280623Y1732881D02*
Y1802881D01*
X-2154535Y1654842D02*
Y1699842D01*
X-2224535Y1654842D02*
Y1699842D01*
Y1574842D02*
Y1624842D01*
X-2154535Y1574842D02*
Y1624842D01*
X-2224535Y1699842D02*
X-2154535D01*
X-2224535Y1574842D02*
X-2154535D01*
X-1420623Y1732881D02*
X-1375623D01*
X-1420623Y1802881D02*
X-1375623D01*
X-1500623D02*
X-1450623D01*
X-1500623Y1732881D02*
X-1450623D01*
X-1375623D02*
Y1802881D01*
X-1500623Y1732881D02*
Y1802881D01*
X-1374448Y1664804D02*
Y1709804D01*
X-1444448Y1664804D02*
Y1709804D01*
Y1584804D02*
Y1634804D01*
X-1374448Y1584804D02*
Y1634804D01*
X-1444448Y1709804D02*
X-1374448D01*
X-1444448Y1584804D02*
X-1374448D01*
X-1815535Y762842D02*
Y807842D01*
X-1885535Y762842D02*
Y807842D01*
Y682842D02*
Y732842D01*
X-1815535Y682842D02*
Y732842D01*
X-1885535Y807842D02*
X-1815535D01*
X-1885535Y682842D02*
X-1815535D01*
X-2007464Y1260914D02*
Y1305914D01*
X-2077464Y1260914D02*
Y1305914D01*
Y1180914D02*
Y1230914D01*
X-2007464Y1180914D02*
Y1230914D01*
X-2077464Y1305914D02*
X-2007464D01*
X-2077464Y1180914D02*
X-2007464D01*
X-2074797Y1029438D02*
Y1074438D01*
X-2004797Y1029438D02*
Y1074438D01*
Y1104438D02*
Y1154438D01*
X-2074797Y1104438D02*
Y1154438D01*
Y1029438D02*
X-2004797D01*
X-2074797Y1154438D02*
X-2004797D01*
X-1437535Y488842D02*
X-1392535D01*
X-1437535Y558842D02*
X-1392535D01*
X-1517535D02*
X-1467535D01*
X-1517535Y488842D02*
X-1467535D01*
X-1392535D02*
Y558842D01*
X-1517535Y488842D02*
Y558842D01*
X-1228535Y486842D02*
X-1183535D01*
X-1228535Y556842D02*
X-1183535D01*
X-1308535D02*
X-1258535D01*
X-1308535Y486842D02*
X-1258535D01*
X-1183535D02*
Y556842D01*
X-1308535Y486842D02*
Y556842D01*
X-1013535Y492842D02*
X-968535D01*
X-1013535Y562842D02*
X-968535D01*
X-1093535D02*
X-1043535D01*
X-1093535Y492842D02*
X-1043535D01*
X-968535D02*
Y562842D01*
X-1093535Y492842D02*
Y562842D01*
X-582535Y488842D02*
X-537535D01*
X-582535Y558842D02*
X-537535D01*
X-662535D02*
X-612535D01*
X-662535Y488842D02*
X-612535D01*
X-537535D02*
Y558842D01*
X-662535Y488842D02*
Y558842D01*
X-2434535Y1713842D02*
X-2389535D01*
X-2434535Y1783842D02*
X-2389535D01*
X-2514535D02*
X-2464535D01*
X-2514535Y1713842D02*
X-2464535D01*
X-2389535D02*
Y1783842D01*
X-2514535Y1713842D02*
Y1783842D01*
X-1625623Y1716881D02*
X-1580623D01*
X-1625623Y1786881D02*
X-1580623D01*
X-1705623D02*
X-1655623D01*
X-1705623Y1716881D02*
X-1655623D01*
X-1580623D02*
Y1786881D01*
X-1705623Y1716881D02*
Y1786881D01*
X-845623Y1716881D02*
X-800623D01*
X-845623Y1786881D02*
X-800623D01*
X-925623D02*
X-875623D01*
X-925623Y1716881D02*
X-875623D01*
X-800623D02*
Y1786881D01*
X-925623Y1716881D02*
Y1786881D01*
X-2657535Y911842D02*
X-2612535D01*
X-2657535Y981842D02*
X-2612535D01*
X-2737535D02*
X-2687535D01*
X-2737535Y911842D02*
X-2687535D01*
X-2612535D02*
Y981842D01*
X-2737535Y911842D02*
Y981842D01*
X-2514535Y1579842D02*
X-2469535D01*
X-2514535Y1509842D02*
X-2469535D01*
X-2439535D02*
X-2389535D01*
X-2439535Y1579842D02*
X-2389535D01*
X-2514535Y1509842D02*
Y1579842D01*
X-2389535Y1509842D02*
Y1579842D01*
X-2200623Y1992881D02*
X-2155623D01*
X-2200623Y2062881D02*
X-2155623D01*
X-2280623D02*
X-2230623D01*
X-2280623Y1992881D02*
X-2230623D01*
X-2155623D02*
Y2062881D01*
X-2280623Y1992881D02*
Y2062881D01*
X-1705623Y1582881D02*
X-1660623D01*
X-1705623Y1512881D02*
X-1660623D01*
X-1630623D02*
X-1580623D01*
X-1630623Y1582881D02*
X-1580623D01*
X-1705623Y1512881D02*
Y1582881D01*
X-1580623Y1512881D02*
Y1582881D01*
X-1745623Y1592881D02*
Y1637881D01*
X-1815623Y1592881D02*
Y1637881D01*
Y1512881D02*
Y1562881D01*
X-1745623Y1512881D02*
Y1562881D01*
X-1815623Y1637881D02*
X-1745623D01*
X-1815623Y1512881D02*
X-1745623D01*
X-1420623Y1992881D02*
X-1375623D01*
X-1420623Y2062881D02*
X-1375623D01*
X-1500623D02*
X-1450623D01*
X-1500623Y1992881D02*
X-1450623D01*
X-1375623D02*
Y2062881D01*
X-1500623Y1992881D02*
Y2062881D01*
X-965623Y1597881D02*
Y1642881D01*
X-1035623Y1597881D02*
Y1642881D01*
Y1517881D02*
Y1567881D01*
X-965623Y1517881D02*
Y1567881D01*
X-1035623Y1642881D02*
X-965623D01*
X-1035623Y1517881D02*
X-965623D01*
X-3450623Y1592881D02*
Y1637881D01*
X-3520623Y1592881D02*
Y1637881D01*
Y1512881D02*
Y1562881D01*
X-3450623Y1512881D02*
Y1562881D01*
X-3520623Y1637881D02*
X-3450623D01*
X-3520623Y1512881D02*
X-3450623D01*
X-2854535Y1594842D02*
Y1639842D01*
X-2924535Y1594842D02*
Y1639842D01*
Y1514842D02*
Y1564842D01*
X-2854535Y1514842D02*
Y1564842D01*
X-2924535Y1639842D02*
X-2854535D01*
X-2924535Y1514842D02*
X-2854535D01*
X-2754535Y1594842D02*
Y1639842D01*
X-2824535Y1594842D02*
Y1639842D01*
Y1514842D02*
Y1564842D01*
X-2754535Y1514842D02*
Y1564842D01*
X-2824535Y1639842D02*
X-2754535D01*
X-2824535Y1514842D02*
X-2754535D01*
X-2654535Y1594842D02*
Y1639842D01*
X-2724535Y1594842D02*
Y1639842D01*
Y1514842D02*
Y1564842D01*
X-2654535Y1514842D02*
Y1564842D01*
X-2724535Y1639842D02*
X-2654535D01*
X-2724535Y1514842D02*
X-2654535D01*
X-2045623Y1592881D02*
Y1637881D01*
X-2115623Y1592881D02*
Y1637881D01*
Y1512881D02*
Y1562881D01*
X-2045623Y1512881D02*
Y1562881D01*
X-2115623Y1637881D02*
X-2045623D01*
X-2115623Y1512881D02*
X-2045623D01*
X-1945623Y1592881D02*
Y1637881D01*
X-2015623Y1592881D02*
Y1637881D01*
Y1512881D02*
Y1562881D01*
X-1945623Y1512881D02*
Y1562881D01*
X-2015623Y1637881D02*
X-1945623D01*
X-2015623Y1512881D02*
X-1945623D01*
X-1845623Y1592881D02*
Y1637881D01*
X-1915623Y1592881D02*
Y1637881D01*
Y1512881D02*
Y1562881D01*
X-1845623Y1512881D02*
Y1562881D01*
X-1915623Y1637881D02*
X-1845623D01*
X-1915623Y1512881D02*
X-1845623D01*
X-1265623Y1597881D02*
Y1642881D01*
X-1335623Y1597881D02*
Y1642881D01*
Y1517881D02*
Y1567881D01*
X-1265623Y1517881D02*
Y1567881D01*
X-1335623Y1642881D02*
X-1265623D01*
X-1335623Y1517881D02*
X-1265623D01*
X-1165623Y1597881D02*
Y1642881D01*
X-1235623Y1597881D02*
Y1642881D01*
Y1517881D02*
Y1567881D01*
X-1165623Y1517881D02*
Y1567881D01*
X-1235623Y1642881D02*
X-1165623D01*
X-1235623Y1517881D02*
X-1165623D01*
X-1135623D02*
X-1065623D01*
X-1135623Y1642881D02*
X-1065623D01*
Y1517881D02*
Y1567881D01*
X-1135623Y1517881D02*
Y1567881D01*
Y1597881D02*
Y1642881D01*
X-1065623Y1597881D02*
Y1642881D01*
X-2554535Y1594842D02*
Y1639842D01*
X-2624535Y1594842D02*
Y1639842D01*
Y1514842D02*
Y1564842D01*
X-2554535Y1514842D02*
Y1564842D01*
X-2624535Y1639842D02*
X-2554535D01*
X-2624535Y1514842D02*
X-2554535D01*
X-3185623Y1512881D02*
Y1582881D01*
X-3310623Y1512881D02*
Y1582881D01*
X-3235623D02*
X-3185623D01*
X-3235623Y1512881D02*
X-3185623D01*
X-3310623D02*
X-3265623D01*
X-3310623Y1582881D02*
X-3265623D01*
X-3420623Y1512881D02*
X-3350623D01*
X-3420623Y1637881D02*
X-3350623D01*
Y1512881D02*
Y1562881D01*
X-3420623Y1512881D02*
Y1562881D01*
Y1592881D02*
Y1637881D01*
X-3350623Y1592881D02*
Y1637881D01*
X-2924535Y2089843D02*
X-2854535D01*
X-2924535Y2214843D02*
X-2854535D01*
Y2089843D02*
Y2139843D01*
X-2924535Y2089843D02*
Y2139843D01*
Y2169843D02*
Y2214843D01*
X-2854535Y2169843D02*
Y2214843D01*
X-3089535Y1994842D02*
Y2064843D01*
X-2964535Y1994842D02*
Y2064843D01*
X-3089535Y1994842D02*
X-3039535D01*
X-3089535Y2064843D02*
X-3039535D01*
X-3009535D02*
X-2964535D01*
X-3009535Y1994842D02*
X-2964535D01*
X-3885623Y1992881D02*
Y2062881D01*
X-3760623Y1992881D02*
Y2062881D01*
X-3885623Y1992881D02*
X-3835623D01*
X-3885623Y2062881D02*
X-3835623D01*
X-3805623D02*
X-3760623D01*
X-3805623Y1992881D02*
X-3760623D01*
X-800623Y1512881D02*
Y1582881D01*
X-925623Y1512881D02*
Y1582881D01*
X-850623D02*
X-800623D01*
X-850623Y1512881D02*
X-800623D01*
X-925623D02*
X-880623D01*
X-925623Y1582881D02*
X-880623D01*
X-1715535Y762842D02*
Y807842D01*
X-1785535Y762842D02*
Y807842D01*
Y682842D02*
Y732842D01*
X-1715535Y682842D02*
Y732842D01*
X-1785535Y807842D02*
X-1715535D01*
X-1785535Y682842D02*
X-1715535D01*
X-1620535Y762842D02*
Y807842D01*
X-1690535Y762842D02*
Y807842D01*
Y682842D02*
Y732842D01*
X-1620535Y682842D02*
Y732842D01*
X-1690535Y807842D02*
X-1620535D01*
X-1690535Y682842D02*
X-1620535D01*
X-3709535Y2084843D02*
X-3639535D01*
X-3709535Y2209843D02*
X-3639535D01*
Y2084843D02*
Y2134843D01*
X-3709535Y2084843D02*
Y2134843D01*
Y2164843D02*
Y2209843D01*
X-3639535Y2164843D02*
Y2209843D01*
X-2414535Y914842D02*
Y984842D01*
X-2289535Y914842D02*
Y984842D01*
X-2414535Y914842D02*
X-2364535D01*
X-2414535Y984842D02*
X-2364535D01*
X-2334535D02*
X-2289535D01*
X-2334535Y914842D02*
X-2289535D01*
X-3230623Y1716881D02*
X-3185623D01*
X-3230623Y1786881D02*
X-3185623D01*
X-3310623D02*
X-3260623D01*
X-3310623Y1716881D02*
X-3260623D01*
X-3185623D02*
Y1786881D01*
X-3310623Y1716881D02*
Y1786881D01*
X-2154535Y914842D02*
X-2109535D01*
X-2154535Y984842D02*
X-2109535D01*
X-2234535D02*
X-2184535D01*
X-2234535Y914842D02*
X-2184535D01*
X-2109535D02*
Y984842D01*
X-2234535Y914842D02*
Y984842D01*
X-316535Y1094842D02*
Y1139842D01*
X-246535Y1094842D02*
Y1139842D01*
Y1169842D02*
Y1219842D01*
X-316535Y1169842D02*
Y1219842D01*
Y1094842D02*
X-246535D01*
X-316535Y1219842D02*
X-246535D01*
X-391535D02*
X-321535D01*
X-391535Y1094842D02*
X-321535D01*
X-391535Y1169842D02*
Y1219842D01*
X-321535Y1169842D02*
Y1219842D01*
Y1094842D02*
Y1139842D01*
X-391535Y1094842D02*
Y1139842D01*
X-3650623Y1592881D02*
Y1637881D01*
X-3720623Y1592881D02*
Y1637881D01*
Y1512881D02*
Y1562881D01*
X-3650623Y1512881D02*
Y1562881D01*
X-3720623Y1637881D02*
X-3650623D01*
X-3720623Y1512881D02*
X-3650623D01*
X-3550623Y1592881D02*
Y1637881D01*
X-3620623Y1592881D02*
Y1637881D01*
Y1512881D02*
Y1562881D01*
X-3550623Y1512881D02*
Y1562881D01*
X-3620623Y1637881D02*
X-3550623D01*
X-3620623Y1512881D02*
X-3550623D01*
X-379535Y1434842D02*
X-334535D01*
X-379535Y1364842D02*
X-334535D01*
X-304535D02*
X-254535D01*
X-304535Y1434842D02*
X-254535D01*
X-379535Y1364842D02*
Y1434842D01*
X-254535Y1364842D02*
Y1434842D01*
X-350756Y270118D02*
Y770119D01*
X-216110Y1057521D02*
X-16110D01*
X-216110Y270118D02*
X-16110D01*
Y770119D01*
X-350756Y270118D02*
X-216110D01*
X-16110Y760119D02*
Y1057521D01*
X-350756Y750119D02*
Y1054764D01*
X-348000Y1057521D02*
X-216110D01*
X-417535Y360842D02*
X-372535D01*
X-417535Y430842D02*
X-372535D01*
X-497535D02*
X-447535D01*
X-497535Y360842D02*
X-447535D01*
X-372535D02*
Y430842D01*
X-497535Y360842D02*
Y430842D01*
X-1143535Y372842D02*
Y462842D01*
X-953535Y372842D02*
Y462842D01*
X-1143535Y372842D02*
X-1068535D01*
X-1143535Y462842D02*
X-1068535D01*
X-1028535D02*
X-953535D01*
X-1028535Y372842D02*
X-953535D01*
D319*
X-3306646Y1347032D02*
D03*
X-3583189Y1346810D02*
D03*
D320*
X-2735035Y743842D02*
D03*
X-2412035Y742842D02*
D03*
X-2090035Y741842D02*
D03*
%TF.MD5,00c804ee3df5f998abab98cc6cedafef*%
M02*
