G04 Layer_Color=16711935*
%FSLAX26Y26*%
%MOIN*%
%TF.FileFunction,Soldermask,Bot*%
%TF.Part,Single*%
G01*
G75*
%TA.AperFunction,ViaPad*%
%ADD230C,0.028000*%
%TA.AperFunction,SMDPad,CuDef*%
%ADD298R,0.244220X0.283591*%
%TA.AperFunction,ComponentPad*%
%ADD299R,0.086740X0.078866*%
%ADD300O,0.086740X0.078866*%
%ADD301C,0.070992*%
%ADD302C,0.078866*%
%TA.AperFunction,ViaPad*%
%ADD303O,0.088000X0.106000*%
%TA.AperFunction,SMDPad,CuDef*%
%ADD304R,0.130000X0.130000*%
%TA.AperFunction,ComponentPad*%
%ADD305C,0.082000*%
%ADD306C,0.062000*%
%ADD307O,0.090000X0.088000*%
%ADD308R,0.090000X0.090000*%
%ADD309R,0.078866X0.078866*%
%TA.AperFunction,ViaPad*%
%ADD310C,0.047370*%
%ADD311O,0.086740X0.126110*%
%ADD312O,0.126110X0.086740*%
%ADD313O,0.106425X0.086740*%
%ADD314C,0.035559*%
D230*
X-3465590Y907472D02*
D03*
X-3426220D02*
D03*
X-3386850D02*
D03*
X-3347480D02*
D03*
Y986213D02*
D03*
X-3386850D02*
D03*
X-3426220D02*
D03*
X-3465590D02*
D03*
Y946842D02*
D03*
X-3426220D02*
D03*
X-3347480D02*
D03*
X-3386850D02*
D03*
D298*
X-2087535Y495842D02*
D03*
X-2736535Y492842D02*
D03*
X-2409535Y496842D02*
D03*
D299*
X-2355000Y1295000D02*
D03*
D300*
Y1195000D02*
D03*
Y1095000D02*
D03*
D301*
X-1607535Y150843D02*
D03*
X-1707535D02*
D03*
X-1287535D02*
D03*
X-1387535D02*
D03*
X-967535D02*
D03*
X-1067535D02*
D03*
X-747535D02*
D03*
X-647535D02*
D03*
X-327535D02*
D03*
X-427535D02*
D03*
X-2036535Y151843D02*
D03*
X-1936535D02*
D03*
X-1710535Y486842D02*
D03*
X-1810535D02*
D03*
D302*
X-1307488Y2604843D02*
D03*
X-1407488D02*
D03*
X-1207488D02*
D03*
X-1107488D02*
D03*
X-1814535D02*
D03*
X-1914535D02*
D03*
X-2114535D02*
D03*
X-2014535D02*
D03*
X-2619535D02*
D03*
X-2719535D02*
D03*
X-2919535D02*
D03*
X-2819535D02*
D03*
X-3414535D02*
D03*
X-3514535D02*
D03*
X-3714535D02*
D03*
X-3614535D02*
D03*
X-224772Y874842D02*
D03*
X-114535D02*
D03*
X-224772Y774842D02*
D03*
X-114535D02*
D03*
X-224772Y674842D02*
D03*
X-114535D02*
D03*
X-224772Y574842D02*
D03*
X-114535D02*
D03*
X-224772Y474842D02*
D03*
D303*
X-2360985Y186843D02*
D03*
X-2557835D02*
D03*
X-2951535D02*
D03*
X-2754685D02*
D03*
D304*
X-3560622Y1907881D02*
D03*
X-2764535Y1904842D02*
D03*
X-1955622Y1907881D02*
D03*
X-1175622D02*
D03*
D305*
X-69535Y1154842D02*
D03*
X-169535Y1354842D02*
D03*
X-69535Y1254842D02*
D03*
X-169535Y1154842D02*
D03*
Y1254842D02*
D03*
X-69535Y1354842D02*
D03*
D306*
X-1878121Y1071510D02*
D03*
X-1879535Y1263842D02*
D03*
D307*
X-3151535Y186843D02*
D03*
D308*
X-3351535D02*
D03*
D309*
X-114535Y474842D02*
D03*
D310*
X-3520386Y277937D02*
D03*
Y275937D02*
D03*
Y273937D02*
D03*
Y271937D02*
D03*
Y269937D02*
D03*
Y267937D02*
D03*
D03*
Y265937D02*
D03*
Y263937D02*
D03*
Y261937D02*
D03*
Y259937D02*
D03*
Y257937D02*
D03*
Y261937D02*
D03*
Y259937D02*
D03*
Y257937D02*
D03*
Y255937D02*
D03*
Y253937D02*
D03*
Y251937D02*
D03*
D03*
Y249937D02*
D03*
Y247937D02*
D03*
Y245937D02*
D03*
Y243937D02*
D03*
Y241937D02*
D03*
Y455102D02*
D03*
Y453102D02*
D03*
Y451102D02*
D03*
Y449102D02*
D03*
Y447102D02*
D03*
Y445102D02*
D03*
D03*
Y443102D02*
D03*
Y441102D02*
D03*
Y439102D02*
D03*
Y437102D02*
D03*
Y435102D02*
D03*
Y439102D02*
D03*
Y437102D02*
D03*
Y435102D02*
D03*
Y433102D02*
D03*
Y431102D02*
D03*
Y429102D02*
D03*
D03*
Y427102D02*
D03*
Y425102D02*
D03*
Y423102D02*
D03*
Y421102D02*
D03*
Y419102D02*
D03*
X-3737630Y279992D02*
D03*
X-3735630D02*
D03*
X-3733630D02*
D03*
X-3731630D02*
D03*
X-3729630D02*
D03*
X-3727630D02*
D03*
D03*
X-3725630D02*
D03*
X-3723630D02*
D03*
X-3721630D02*
D03*
X-3719630D02*
D03*
X-3717630D02*
D03*
X-3721630D02*
D03*
X-3719630D02*
D03*
X-3717630D02*
D03*
X-3715630D02*
D03*
X-3713630D02*
D03*
X-3711630D02*
D03*
D03*
X-3709630D02*
D03*
X-3707630D02*
D03*
X-3705630D02*
D03*
X-3703630D02*
D03*
X-3701630D02*
D03*
X-3914087Y241937D02*
D03*
Y243937D02*
D03*
Y245937D02*
D03*
Y247937D02*
D03*
Y249937D02*
D03*
Y251937D02*
D03*
D03*
Y253937D02*
D03*
Y255937D02*
D03*
Y257937D02*
D03*
Y259937D02*
D03*
Y261937D02*
D03*
Y257937D02*
D03*
Y259937D02*
D03*
Y261937D02*
D03*
Y263937D02*
D03*
Y265937D02*
D03*
Y267937D02*
D03*
D03*
Y269937D02*
D03*
Y271937D02*
D03*
Y273937D02*
D03*
Y275937D02*
D03*
Y277937D02*
D03*
Y419102D02*
D03*
Y421102D02*
D03*
Y423102D02*
D03*
Y425102D02*
D03*
Y427102D02*
D03*
Y429102D02*
D03*
D03*
Y431102D02*
D03*
Y433102D02*
D03*
Y435102D02*
D03*
Y437102D02*
D03*
Y439102D02*
D03*
Y435102D02*
D03*
Y437102D02*
D03*
Y439102D02*
D03*
Y441102D02*
D03*
Y443102D02*
D03*
Y445102D02*
D03*
D03*
Y447102D02*
D03*
Y449102D02*
D03*
Y451102D02*
D03*
Y453102D02*
D03*
Y455102D02*
D03*
D311*
X-3520386Y259937D02*
D03*
Y437102D02*
D03*
X-3914087Y259937D02*
D03*
Y437102D02*
D03*
D312*
X-3719630Y279992D02*
D03*
D313*
X-3716685Y515968D02*
D03*
D314*
X-1146535Y1937842D02*
D03*
X-1148535Y1882842D02*
D03*
X-1200535Y1934842D02*
D03*
X-1201535Y1880842D02*
D03*
X-1927535Y1935842D02*
D03*
X-1928535Y1879842D02*
D03*
X-1980535Y1932842D02*
D03*
X-1984535Y1876842D02*
D03*
X-2734535Y1933842D02*
D03*
X-2735535Y1875842D02*
D03*
X-2794535Y1931842D02*
D03*
Y1873842D02*
D03*
X-3530535Y1935842D02*
D03*
X-3531535Y1880842D02*
D03*
X-3590535Y1933842D02*
D03*
X-3593535Y1878842D02*
D03*
%TF.MD5,baf65e70cf62700e6be2640b1f020562*%
M02*
